<svg width="62" height="62" viewBox="0 0 62 62" fill="none" xmlns="http://www.w3.org/2000/svg">
<circle cx="31" cy="31" r="31" fill="#F2F3CB"/>
<mask id="mask0" mask-type="alpha" maskUnits="userSpaceOnUse" x="0" y="0" width="62" height="62">
<circle cx="31" cy="31" r="31" fill="white"/>
</mask>
<g mask="url(#mask0)">
<path d="M12.6248 25.1392C12.6248 16.1211 14.644 1.09107 29.6963 1.97521C46.217 0.914263 47.502 12.5846 47.502 21.249C51.3568 26.2001 50.471 33.7967 49.1541 36.2791C52.2746 44.7667 56.3958 50.5539 47.502 51.8397C45.8982 51.8296 31.3892 51.1324 30.0634 51.1324C28.5917 51.1324 14.1458 51.1188 12.6248 51.1324C3.62933 49.8466 12.6248 43.1753 11.5234 38.401C10.2065 35.9186 10.422 29.5598 12.6248 25.1392Z" fill="#3B2144"/>
<path d="M17.9462 28.9344C17.9462 21.2218 20.9301 8.53391 29.7487 10.5608C29.8006 10.5728 29.859 10.5739 29.9115 10.5638C38.9778 8.8157 41.7134 18.1866 41.7134 25.5972C44.3403 29.8445 43.7366 36.3613 42.8392 38.4909C44.9657 45.772 47.7741 50.7366 41.7134 51.8396C40.6205 51.831 30.7333 51.2329 29.8298 51.2329C28.8269 51.2329 18.9827 51.2213 17.9462 51.2329C11.8163 50.1299 17.9462 44.4068 17.1957 40.3112C16.2983 38.1816 16.4452 32.7266 17.9462 28.9344Z" fill="#280434"/>
<g clip-path="url(#clip0)">
<path d="M10.5707 51.7626C11.2481 45.9241 16.3689 41.509 22.4632 41.509H39.7159C45.8102 41.509 50.931 45.9241 51.6084 51.7626L53.4155 67.3359H8.76367L10.5707 51.7626Z" fill="#B9C4FF"/>
<mask id="mask1" mask-type="alpha" maskUnits="userSpaceOnUse" x="8" y="41" width="46" height="27">
<path d="M10.5707 51.7626C11.2481 45.9241 16.3689 41.509 22.4632 41.509H39.7159C45.8102 41.509 50.931 45.9241 51.6084 51.7626L53.4155 67.3359H8.76367L10.5707 51.7626Z" fill="#00D355"/>
</mask>
<g mask="url(#mask1)">
<path d="M11.6422 51.7626C12.3197 45.9241 17.4405 41.509 23.5347 41.509H40.7875C46.8817 41.509 52.0025 45.9241 52.68 51.7626L54.487 67.3359H9.83521L11.6422 51.7626Z" fill="#516DFF"/>
<path d="M12.714 51.7626C13.3914 45.9241 18.5123 41.509 24.6065 41.509H41.8592C47.9535 41.509 53.0743 45.9241 53.7518 51.7626L55.5588 67.3359H10.907L12.714 51.7626Z" fill="url(#paint0_linear)"/>
</g>
<path fill-rule="evenodd" clip-rule="evenodd" d="M18.7656 57.0051C19.0615 57.0051 19.3014 57.2364 19.3014 57.5217V67.3359C19.3014 67.6212 19.0615 67.8524 18.7656 67.8524C18.4696 67.8524 18.2297 67.6212 18.2297 67.3359V57.5217C18.2297 57.2364 18.4696 57.0051 18.7656 57.0051Z" fill="url(#paint1_linear)"/>
<path fill-rule="evenodd" clip-rule="evenodd" d="M42.342 57.0051C42.6379 57.0051 42.8778 57.2364 42.8778 57.5217V67.3359C42.8778 67.6212 42.6379 67.8524 42.342 67.8524C42.046 67.8524 41.8062 67.6212 41.8062 67.3359V57.5217C41.8062 57.2364 42.046 57.0051 42.342 57.0051Z" fill="url(#paint2_linear)"/>
</g>
<g clip-path="url(#clip1)">
<path d="M28.2422 32.0965H32.9491L34.1884 41.3782C34.4673 43.4666 32.7798 45.3161 30.5956 45.3161C28.4114 45.3161 26.724 43.4666 27.0029 41.3782L28.2422 32.0965Z" fill="#FBC6D7"/>
<mask id="mask2" mask-type="alpha" maskUnits="userSpaceOnUse" x="26" y="32" width="9" height="14">
<path d="M28.2422 32.0965H32.9491L34.1884 41.3782C34.4673 43.4666 32.7798 45.3161 30.5956 45.3161C28.4114 45.3161 26.724 43.4666 27.0029 41.3782L28.2422 32.0965Z" fill="#FF7CA6"/>
</mask>
<g mask="url(#mask2)">
<path d="M28.4384 32.0965H33.1453L33.7337 35.1181C32.1287 37.519 30.0073 37.762 26.8694 38.5174L28.4384 32.0965Z" fill="#FF7CA6"/>
</g>
<path d="M19.7198 20.5717C20.2507 21.9243 19.8186 23.3335 18.7547 23.7192C17.6908 24.105 16.3979 23.3212 15.867 21.9686C15.3361 20.6161 15.7682 19.2069 16.8322 18.8211C17.8961 18.4354 19.1889 19.2192 19.7198 20.5717Z" fill="#FBC6D7"/>
<path d="M19.2954 20.7501C19.6426 21.6308 19.3271 22.5609 18.5908 22.8275C17.8545 23.0941 16.9762 22.5964 16.629 21.7157C16.2819 20.8351 16.5974 19.905 17.3337 19.6384C18.07 19.3717 18.9483 19.8695 19.2954 20.7501Z" fill="#FF7CA6"/>
<path d="M41.7531 21.3272C41.2222 22.6798 41.6543 24.089 42.7182 24.4747C43.7821 24.8605 45.075 24.0767 45.6059 22.7241C46.1368 21.3716 45.7047 19.9624 44.6407 19.5766C43.5768 19.1909 42.284 19.9747 41.7531 21.3272Z" fill="#FBC6D7"/>
<path d="M42.1775 21.5056C41.8303 22.3863 42.1458 23.3163 42.8821 23.583C43.6184 23.8496 44.4967 23.3519 44.8439 22.4712C45.191 21.5906 44.8755 20.6605 44.1392 20.3939C43.4029 20.1272 42.5246 20.625 42.1775 21.5056Z" fill="#FF7CA6"/>
<path d="M42.3629 22.2763C42.3629 29.5772 37.0944 35.4958 30.5955 35.4958C24.0966 35.4958 18.8281 29.5772 18.8281 22.2763C18.8281 14.9753 24.0966 9.0567 30.5955 9.0567C37.0944 9.0567 42.3629 14.9753 42.3629 22.2763Z" fill="#FBC6D7"/>
<mask id="mask3" mask-type="alpha" maskUnits="userSpaceOnUse" x="18" y="9" width="25" height="27">
<path d="M42.3631 22.2763C42.3631 29.5772 37.0947 35.4958 30.5957 35.4958C24.0968 35.4958 18.8284 29.5772 18.8284 22.2763C18.8284 14.9753 24.0968 9.0567 30.5957 9.0567C37.0947 9.0567 42.3631 14.9753 42.3631 22.2763Z" fill="#FBC6D7"/>
</mask>
<g mask="url(#mask3)">
<path d="M42.3412 28.0788C42.3412 29.7905 40.9019 31.1781 39.1263 31.1781C37.3508 31.1781 35.9114 29.7905 35.9114 28.0788C35.9114 26.3672 37.3508 24.9796 39.1263 24.9796C40.9019 24.9796 42.3412 26.3672 42.3412 28.0788Z" fill="#FF5E5E"/>
<path d="M25.7309 28.0788C25.7309 29.7905 24.2915 31.1781 22.516 31.1781C20.7404 31.1781 19.301 29.7905 19.301 28.0788C19.301 26.3672 20.7404 24.9796 22.516 24.9796C24.2915 24.9796 25.7309 26.3672 25.7309 28.0788Z" fill="#FF5E5E"/>
</g>
<path fill-rule="evenodd" clip-rule="evenodd" d="M33.0032 31.0019C33.1041 31.1652 33.0486 31.3766 32.8791 31.4739C32.0981 31.9225 31.4325 32.2003 30.7372 32.2109C30.0358 32.2215 29.3655 31.9599 28.5733 31.4675C28.4075 31.3644 28.3598 31.1513 28.4667 30.9915C28.5736 30.8316 28.7947 30.7856 28.9605 30.8887C29.7034 31.3505 30.2302 31.5297 30.7259 31.5222C31.2277 31.5146 31.7592 31.3154 32.5135 30.8822C32.683 30.7849 32.9022 30.8385 33.0032 31.0019Z" fill="#FF7FA8"/>
<path d="M26.0878 22.2248C26.0878 23.0806 25.688 23.7744 25.1948 23.7744C24.7016 23.7744 24.3018 23.0806 24.3018 22.2248C24.3018 21.369 24.7016 20.6752 25.1948 20.6752C25.688 20.6752 26.0878 21.369 26.0878 22.2248Z" fill="#3B2144"/>
<path d="M36.8044 22.2248C36.8044 23.0806 36.4046 23.7744 35.9113 23.7744C35.4181 23.7744 35.0183 23.0806 35.0183 22.2248C35.0183 21.369 35.4181 20.6752 35.9113 20.6752C36.4046 20.6752 36.8044 21.369 36.8044 22.2248Z" fill="#3B2144"/>
<path fill-rule="evenodd" clip-rule="evenodd" d="M30.1065 21.2778C30.3038 21.2778 30.4637 21.432 30.4637 21.6222V26.3781L32.0993 26.1039C32.2936 26.0714 32.4786 26.1968 32.5124 26.3842C32.5462 26.5716 32.416 26.7499 32.2217 26.7825L30.1677 27.1268C30.0638 27.1442 29.9572 27.1165 29.8765 27.0511C29.7959 26.9857 29.7493 26.8892 29.7493 26.7876V21.6222C29.7493 21.432 29.9092 21.2778 30.1065 21.2778Z" fill="#FF7FA8"/>
<path d="M18.9436 14.5736C18.9436 13.5238 19.912 12.7202 20.9915 12.8575C28.3593 13.7945 33.2914 13.8106 40.8297 12.8563C41.909 12.7197 42.877 13.5233 42.877 14.5727V16.6118C42.877 17.4494 42.2493 18.1672 41.3917 18.3021C33.147 19.5988 28.0882 19.6532 20.3937 18.3222C19.5517 18.1766 18.9436 17.4655 18.9436 16.6409V14.5736Z" fill="white"/>
<mask id="mask4" mask-type="alpha" maskUnits="userSpaceOnUse" x="18" y="12" width="25" height="8">
<path d="M18.9436 14.5736C18.9436 13.5238 19.912 12.7202 20.9915 12.8575C28.3593 13.7945 33.2914 13.8106 40.8297 12.8563C41.909 12.7197 42.877 13.5233 42.877 14.5727V16.6118C42.877 17.4494 42.2493 18.1672 41.3917 18.3021C33.147 19.5988 28.0882 19.6532 20.3937 18.3222C19.5517 18.1766 18.9436 17.4655 18.9436 16.6409V14.5736Z" fill="white"/>
</mask>
<g mask="url(#mask4)">
<path d="M24.0974 22.3565C23.0299 21.2213 23.9676 19.318 25.5535 19.2155C35.547 18.5695 42.9869 13.2883 46.8768 12.8041C50.4701 12.3568 49.0211 16.1333 48.3328 17.5989C48.1588 17.9694 47.8315 18.2486 47.439 18.3976C38.9546 21.6191 33.9041 22.716 25.4234 22.9076C24.9196 22.919 24.4359 22.7164 24.0974 22.3565Z" fill="#E9E9E9"/>
</g>
<path d="M17.5007 20.1111C20.2861 17.95 26.4443 12.9795 28.7932 10.3861C32.2562 13.4837 39.9501 19.9815 43.0217 21.1917C44.4521 19.1747 46.0933 14.4922 41.2149 11.8989C35.117 8.65725 25.1796 3.6867 20.2109 11.8989C16.2359 18.4687 16.7478 20.1111 17.5007 20.1111Z" fill="#3B2144"/>
</g>
</g>
<defs>
<linearGradient id="paint0_linear" x1="28.6784" y1="73.19" x2="35.6741" y2="41.3977" gradientUnits="userSpaceOnUse">
<stop stop-color="#4457FF"/>
<stop offset="1" stop-color="#A6BFFF"/>
</linearGradient>
<linearGradient id="paint1_linear" x1="18.8549" y1="57.5217" x2="18.8549" y2="67.3359" gradientUnits="userSpaceOnUse">
<stop stop-color="#1C23D6" stop-opacity="0"/>
<stop offset="1" stop-color="#1C23D6"/>
</linearGradient>
<linearGradient id="paint2_linear" x1="42.4313" y1="57.5217" x2="42.4313" y2="67.3359" gradientUnits="userSpaceOnUse">
<stop stop-color="#1C23D6" stop-opacity="0"/>
<stop offset="1" stop-color="#1C23D6"/>
</linearGradient>
<clipPath id="clip0">
<rect width="44.6518" height="25.8269" fill="white" transform="translate(8.76367 41.509)"/>
</clipPath>
<clipPath id="clip1">
<rect width="31.6615" height="36.2594" fill="white" transform="translate(14.9058 9.0567)"/>
</clipPath>
</defs>
</svg>
