<svg width="25" height="25" viewBox="0 0 25 25" fill="none" xmlns="http://www.w3.org/2000/svg">
<path d="M19.9955 4.13979C19.6468 2.33028 18.187 1 16.4927 1C14.7769 1 13.3391 2.34397 12.9909 4.13172H11.7464C11.395 2.32677 9.93587 1 8.24519 1C7.54502 1 6.86654 1.22443 6.28297 1.64891C6.12949 1.76051 6.09839 1.97161 6.21337 2.12059C6.32835 2.26939 6.54601 2.29958 6.69931 2.18815C7.16176 1.85176 7.69633 1.67383 8.24519 1.67383C9.56255 1.67383 10.7084 2.70686 11.0379 4.13172H10.0628C9.78292 3.22083 9.06287 2.59262 8.24519 2.59262C7.17459 2.59262 6.30358 3.65916 6.30358 4.97015C6.30358 6.28095 7.17459 7.3475 8.24519 7.3475C8.50624 7.3475 8.71866 7.55368 8.71866 7.80689C8.71866 8.06028 8.50624 8.26646 8.24519 8.26646C6.65267 8.26646 5.357 6.78773 5.357 4.97015C5.357 4.32527 5.52133 3.70005 5.8321 3.16239C5.92592 3.00008 5.86645 2.79459 5.69922 2.7037C5.532 2.61263 5.32048 2.67036 5.22666 2.83267C4.98983 3.24241 4.82514 3.69373 4.73728 4.16541C2.90306 4.40582 1.5 5.94053 1.5 7.76267V20.369C1.5 22.3711 3.17821 24 5.24076 24H19.7592C21.822 24 23.5 22.3711 23.5 20.369V7.76267C23.5002 5.8377 21.9485 4.25859 19.9955 4.13979ZM16.4927 1.67383C17.8109 1.67383 18.956 2.7065 19.2854 4.13172H18.311C18.031 3.2124 17.3147 2.59262 16.4927 2.59262C15.4221 2.59262 14.5513 3.65916 14.5513 4.97015C14.5513 6.28095 15.4221 7.3475 16.4927 7.3475C16.7537 7.3475 16.966 7.55368 16.966 7.80689C16.966 8.06028 16.7537 8.26646 16.4927 8.26646C14.9002 8.26646 13.6045 6.78773 13.6045 4.97015C13.6045 3.15257 14.9002 1.67383 16.4927 1.67383ZM17.575 4.13172H15.4129C15.6309 3.61968 16.038 3.26645 16.4927 3.26645C16.9396 3.26645 17.3547 3.61266 17.575 4.13172ZM8.24519 3.26645C8.69877 3.26645 9.11041 3.61056 9.3288 4.13172H7.16537C7.3834 3.61968 7.79052 3.26645 8.24519 3.26645ZM22.806 20.369C22.806 21.9996 21.4393 23.3262 19.7594 23.3262H5.24076C3.56092 23.3262 2.19421 21.9996 2.19421 20.369V10.8302H21.6638C21.8554 10.8302 22.0109 10.6794 22.0109 10.4933C22.0109 10.3073 21.8554 10.1563 21.6638 10.1563H2.19421V7.76267C2.19421 6.33395 3.25305 5.12246 4.6646 4.85925C4.62031 7.27116 6.26977 8.94029 8.24519 8.94029C8.88895 8.94029 9.41286 8.43176 9.41286 7.80689C9.41286 7.18202 8.88895 6.67367 8.24519 6.67367C7.56906 6.67367 6.89438 5.85086 7.00393 4.80555H12.9135C12.7874 7.1464 14.5173 8.94029 16.4927 8.94029C17.1364 8.94029 17.6602 8.43176 17.6602 7.80689C17.6602 7.18202 17.1364 6.67367 16.4927 6.67367C15.8166 6.67367 15.0911 5.75488 15.2514 4.80555H19.7592C21.4393 4.80555 22.8058 6.13215 22.8058 7.76267L22.806 20.369Z" fill="#353E6C" stroke="#353E6C" stroke-width="0.3"/>
<path d="M7.17527 12H5.82473C5.0942 12 4.5 12.5944 4.5 13.3247V14.6754C4.5 15.4058 5.0942 16 5.82473 16H7.17527C7.9058 16 8.5 15.4058 8.5 14.6754V13.3247C8.5 12.5944 7.9058 12 7.17527 12ZM7.91703 14.6754C7.91703 15.0844 7.58426 15.417 7.17527 15.417H5.82473C5.41574 15.417 5.08297 15.0844 5.08297 14.6754V13.3247C5.08297 12.9157 5.41574 12.583 5.82473 12.583H7.17527C7.58426 12.583 7.91703 12.9157 7.91703 13.3247V14.6754Z" fill="#353E6C" stroke="#353E6C" stroke-width="0.5"/>
<path d="M13.1753 12H11.8247C11.0942 12 10.5 12.5944 10.5 13.3247V14.6754C10.5 15.4058 11.0942 16 11.8247 16H13.1753C13.9058 16 14.5 15.4058 14.5 14.6754V13.3247C14.5 12.5944 13.9058 12 13.1753 12V12ZM13.917 14.6754C13.917 15.0844 13.5843 15.417 13.1753 15.417H11.8247C11.4157 15.417 11.083 15.0844 11.083 14.6754V13.3247C11.083 12.9157 11.4157 12.583 11.8247 12.583H13.1753C13.5843 12.583 13.917 12.9157 13.917 13.3247V14.6754Z" fill="#353E6C" stroke="#353E6C" stroke-width="0.5"/>
<path d="M19.1753 12H17.8246C17.0942 12 16.5 12.5944 16.5 13.3247V14.6754C16.5 15.4058 17.0942 16 17.8246 16H19.1753C19.9058 16 20.5 15.4058 20.5 14.6754V13.3247C20.5 12.5944 19.9058 12 19.1753 12V12ZM19.917 14.6754C19.917 15.0844 19.5843 15.417 19.1753 15.417H17.8246C17.4156 15.417 17.083 15.0844 17.083 14.6754V13.3247C17.083 12.9157 17.4156 12.583 17.8246 12.583H19.1753C19.5843 12.583 19.917 12.9157 19.917 13.3247V14.6754Z" fill="#353E6C" stroke="#353E6C" stroke-width="0.5"/>
<path d="M7.17527 17H5.82473C5.0942 17 4.5 17.5942 4.5 18.3247V19.6753C4.5 20.4058 5.0942 21 5.82473 21H7.17527C7.9058 21 8.5 20.4058 8.5 19.6753V18.3247C8.5 17.5942 7.9058 17 7.17527 17ZM7.91703 19.6753C7.91703 20.0843 7.58426 20.417 7.17527 20.417H5.82473C5.41574 20.417 5.08297 20.0843 5.08297 19.6753V18.3247C5.08297 17.9157 5.41574 17.583 5.82473 17.583H7.17527C7.58426 17.583 7.91703 17.9156 7.91703 18.3247V19.6753Z" fill="#353E6C" stroke="#353E6C" stroke-width="0.5"/>
<path d="M13.1753 17H11.8247C11.0942 17 10.5 17.5942 10.5 18.3247C10.5 18.4857 10.6304 18.6162 10.7915 18.6162C10.9524 18.6162 11.083 18.4857 11.083 18.3247C11.083 17.9157 11.4157 17.583 11.8247 17.583H13.1753C13.5843 17.583 13.917 17.9156 13.917 18.3247V19.6753C13.917 20.0843 13.5843 20.417 13.1753 20.417H11.8247C11.4157 20.417 11.083 20.0843 11.083 19.6753C11.083 19.5142 10.9524 19.3838 10.7915 19.3838C10.6304 19.3838 10.5 19.5142 10.5 19.6753C10.5 20.4058 11.0942 21 11.8247 21H13.1753C13.9058 21 14.5 20.4058 14.5 19.6753V18.3247C14.5 17.5942 13.9058 17 13.1753 17V17Z" fill="#353E6C" stroke="#353E6C" stroke-width="0.5"/>
<path d="M19.1753 17H17.8246C17.0942 17 16.5 17.5942 16.5 18.3247V19.6753C16.5 20.4058 17.0942 21 17.8246 21H19.1753C19.9058 21 20.5 20.4058 20.5 19.6753V18.3247C20.5 17.5942 19.9058 17 19.1753 17V17ZM19.917 19.6753C19.917 20.0843 19.5843 20.417 19.1753 20.417H17.8246C17.4156 20.417 17.083 20.0843 17.083 19.6753V18.3247C17.083 17.9157 17.4156 17.583 17.8246 17.583H19.1753C19.5843 17.583 19.917 17.9156 19.917 18.3247V19.6753Z" fill="#353E6C" stroke="#353E6C" stroke-width="0.5"/>
</svg>
