<svg width="20" height="20" viewBox="0 0 20 20" fill="none" xmlns="http://www.w3.org/2000/svg">
<path d="M13.0458 9.47299L15.3638 7.15518C16.0564 6.46243 16.0564 5.32886 15.3638 4.63626C14.671 3.94351 13.5374 3.94351 12.8447 4.63626L10.5269 6.95407C10.2359 7.24506 9.7641 7.24506 9.47311 6.95407L7.1553 4.63626C6.46255 3.94351 5.32913 3.94351 4.63638 4.63626C3.94363 5.32886 3.94363 6.46243 4.63638 7.15518L6.95419 9.47299C7.24518 9.76398 7.24518 10.2358 6.95419 10.5268L4.63638 12.8446C3.94363 13.5373 3.94363 14.6709 4.63638 15.3635C5.32913 16.0562 6.46255 16.0562 7.1553 15.3635L9.47311 13.0457C9.7641 12.7547 10.2359 12.7547 10.5269 13.0457L12.8447 15.3635C13.5374 16.0562 14.671 16.0562 15.3638 15.3635C16.0564 14.6709 16.0564 13.5373 15.3638 12.8446L13.0458 10.5268C12.7548 10.2358 12.7548 9.76398 13.0458 9.47299Z" fill="white"/>
<path d="M8.47412 5.95512L7.1553 4.63615C6.46255 3.94355 5.32913 3.94355 4.63638 4.63615C3.94363 5.3289 3.94363 6.46247 4.63638 7.15522L6.63864 9.15748C6.92215 7.93418 7.55997 6.81815 8.47412 5.95512Z" fill="#BDFAFF"/>
<path d="M7.15534 15.3635L7.38575 15.1331C6.7017 13.6541 6.4603 12.2549 6.45329 11.0276L4.63627 12.8446C3.94367 13.5374 3.94367 14.6709 4.63627 15.3635C5.32902 16.0563 6.46259 16.0563 7.15534 15.3635Z" fill="#CCF8FF"/>
</svg>
