<svg width="70" height="70" viewBox="0 0 70 70" fill="none" xmlns="http://www.w3.org/2000/svg">
<g clip-path="url(#clip0)">
<path d="M64.3662 70H5.63377C2.52232 70 0 67.4777 0 64.3662V25.6904H70V64.3661C70 67.4777 67.4777 70 64.3662 70Z" fill="#FAB659"/>
<path d="M35 25.6904L1.46069 68.1509C2.49128 69.2868 3.97919 70 5.63376 70H64.3661C66.0206 70 67.5086 69.2868 68.5393 68.1509L35 25.6904Z" fill="#F8E86A"/>
<path d="M61.7605 32.0914L70 25.6903L38.4564 1.18459C36.423 -0.39519 33.5772 -0.39519 31.5438 1.18459L0 25.6903L8.23949 32.0914H61.7605Z" fill="#F59E18"/>
<path d="M57.5352 9.85919V35.3732L38.4563 50.1957C36.4225 51.7761 33.5775 51.7761 31.5437 50.1957L12.4647 35.3732V9.85919C12.4647 8.30347 13.726 7.04224 15.2817 7.04224H54.7183C56.2739 7.04224 57.5352 8.30347 57.5352 9.85919Z" fill="#F8E86A"/>
<path d="M56.1267 7.04224H41.3124C38.2011 7.04224 22.3239 9.5647 22.3239 12.676V35.999L47.676 43.0324L56.1267 36.4675L57.5352 35.3731H57.5366L61.7605 32.0914V12.676C61.7605 9.56483 59.2381 7.04224 56.1267 7.04224Z" fill="#00C67F"/>
<path d="M50.493 12.676H33.5915C33.5915 15.7873 31.0691 18.3098 27.9578 18.3098V37.5618L47.676 43.0322L56.1267 36.4674V18.3099C53.0154 18.3099 50.493 15.7873 50.493 12.676Z" fill="#00A45B"/>
<path d="M47.676 12.676V43.0324L42.0422 47.4098L38.4564 50.1957C36.4226 51.7759 33.5776 51.7759 31.5437 50.1957L27.9579 47.4098L22.3241 43.0324L13.8734 36.4675L12.4649 35.3731H12.4636L8.23962 32.0914V12.676C8.23962 9.5647 10.7621 7.04224 13.8734 7.04224H42.0424C45.1536 7.04224 47.676 9.56483 47.676 12.676Z" fill="#60D9A7"/>
<path d="M19.5042 12.676C19.5042 9.5647 22.0266 7.04224 25.1379 7.04224H13.8733C10.762 7.04224 8.2395 9.5647 8.2395 12.676V32.0916L12.4634 35.3732H12.4648L13.8733 36.4677L19.5042 40.842V12.676Z" fill="#00C67F"/>
<path d="M42.0423 18.3099V47.41L38.4564 50.1959C36.4226 51.7761 33.5776 51.7761 31.5438 50.1959L27.9579 47.41L22.3241 43.0325L13.8734 36.4677V18.3099C16.9847 18.3099 19.5072 15.7873 19.5072 12.6761H36.4086C36.4085 15.7873 38.931 18.3099 42.0423 18.3099Z" fill="#00C67F"/>
<path d="M19.5042 12.7897C19.4435 15.8483 16.9465 18.31 13.8733 18.31V36.4677L19.5042 40.842V12.7897Z" fill="#00A45B"/>
<path d="M23.7825 65.9497C26.0684 65.9497 27.9215 64.474 27.9215 62.6536C27.9215 60.8332 26.0684 59.3574 23.7825 59.3574C21.4965 59.3574 19.6434 60.8332 19.6434 62.6536C19.6434 64.474 21.4965 65.9497 23.7825 65.9497Z" fill="#FF8997"/>
<path d="M46.2175 65.9497C48.5034 65.9497 50.3565 64.474 50.3565 62.6536C50.3565 60.8332 48.5034 59.3574 46.2175 59.3574C43.9316 59.3574 42.0785 60.8332 42.0785 62.6536C42.0785 64.474 43.9316 65.9497 46.2175 65.9497Z" fill="#FF8997"/>
<path d="M38.3372 60.1211C38.3372 58.0587 36.8431 57.865 35 57.865C33.157 57.865 31.6628 58.0587 31.6628 60.1211C31.6628 62.1835 33.1569 63.8553 35 63.8553C36.843 63.8553 38.3372 62.1834 38.3372 60.1211Z" fill="#423E4F"/>
<path d="M24.4744 59.7438C23.9079 59.7438 23.449 59.2849 23.449 58.7184V57.0283C23.449 56.4619 23.9079 56.0029 24.4744 56.0029C25.0408 56.0029 25.4998 56.4619 25.4998 57.0283V58.7184C25.4998 59.2849 25.0407 59.7438 24.4744 59.7438Z" fill="#423E4F"/>
<path d="M45.5255 59.7438C44.9591 59.7438 44.5001 59.2849 44.5001 58.7184V57.0283C44.5001 56.4619 44.9591 56.0029 45.5255 56.0029C46.0919 56.0029 46.5509 56.4619 46.5509 57.0283V58.7184C46.5509 59.2849 46.0919 59.7438 45.5255 59.7438Z" fill="#423E4F"/>
<path d="M31.8425 28.2115H30.8291C30.6551 27.283 30.2504 26.4349 29.6755 25.7301H31.8425C32.4089 25.7301 32.8679 25.2711 32.8679 24.7047C32.8679 24.1383 32.4089 23.6793 31.8425 23.6793H24.0729C23.5065 23.6793 23.0475 24.1383 23.0475 24.7047C23.0475 25.2711 23.5065 25.7301 24.0729 25.7301H25.3679C26.945 25.7301 28.2818 26.7767 28.7215 28.2115H24.0729C23.5065 28.2115 23.0475 28.6705 23.0475 29.2369C23.0475 29.8034 23.5065 30.2623 24.0729 30.2623H28.7215C28.2818 31.6973 26.945 32.7438 25.3679 32.7438H24.0729C23.6443 32.7438 23.2609 33.0104 23.1116 33.4122C22.9625 33.814 23.079 34.2663 23.4037 34.5461L29.2309 39.5662C29.4246 39.733 29.6626 39.8146 29.8999 39.8146C30.1878 39.8146 30.4743 39.6939 30.6772 39.4586C31.0468 39.0294 30.9987 38.382 30.5696 38.0124L26.6588 34.6433C28.7762 34.1378 30.4262 32.4169 30.83 30.2623H31.8428C32.4092 30.2623 32.8682 29.8034 32.8682 29.2369C32.8682 28.6705 32.4089 28.2115 31.8425 28.2115Z" fill="#60D9A7"/>
</g>
<defs>
<clipPath id="clip0">
<rect width="70" height="70" fill="white"/>
</clipPath>
</defs>
</svg>
