<svg width="70" height="70" viewBox="0 0 70 70" fill="none" xmlns="http://www.w3.org/2000/svg">
<path d="M45.0141 9.89502C45.0141 15.3595 40.5841 19.7895 35.1191 19.7895C29.6546 19.7895 25.2246 15.3595 25.2246 9.89502C25.2246 4.43001 29.6546 0 35.1191 0C40.5841 0 45.0141 4.43001 45.0141 9.89502Z" fill="#FAB659"/>
<path d="M25.2273 9.78387C25.2267 9.82126 25.2246 9.85757 25.2246 9.89496C25.2246 15.3594 29.6541 19.7894 35.1191 19.7894C40.5836 19.7894 45.0141 15.3594 45.0141 9.89496C45.0141 9.85757 45.0114 9.82126 45.0109 9.78441C41.8632 8.7713 38.5328 8.24365 35.1191 8.24365C31.7054 8.24365 28.375 8.7713 25.2273 9.78387Z" fill="#FF9C20"/>
<path d="M35.1191 15.14C32.2266 15.14 29.8735 12.787 29.8735 9.89505C29.8735 7.00259 32.2266 4.64954 35.1191 4.64954C38.0115 4.64954 40.3646 7.00259 40.3646 9.89505C40.3646 12.787 38.0115 15.14 35.1191 15.14Z" fill="#F5E277"/>
<path d="M11.565 30.5636C4.03751 27.8778 5.25035 19.6592 6.65385 14.9745C7.28992 12.8511 9.25044 11.4016 11.4673 11.4155C16.3577 11.447 24.5704 12.6962 24.9325 20.6803L11.565 30.5636Z" fill="#E8738B"/>
<path d="M13.3675 16.426C14.881 16.5515 16.401 16.8501 17.7457 17.5022C19.2956 18.2541 19.9289 19.2074 20.0058 20.9036L13.2222 25.9194C11.6233 25.3485 10.8975 24.4636 10.6331 22.7616C10.4441 21.5444 10.5381 19.9941 10.8964 18.2776C11.1368 17.1251 12.1947 16.3294 13.3675 16.426Z" fill="#FFDDE3"/>
<path d="M58.6732 30.5636C66.2007 27.8778 64.9879 19.6592 63.5844 14.9745C62.9483 12.8511 60.9878 11.4016 58.7709 11.4155C53.8806 11.447 45.6678 12.6962 45.3063 20.6803L58.6732 30.5636Z" fill="#E8738B"/>
<path d="M56.8708 16.426C55.3572 16.5515 53.8373 16.8501 52.4926 17.5022C50.9427 18.2541 50.3093 19.2074 50.2324 20.9036L57.016 25.9194C58.615 25.3485 59.3408 24.4636 59.6051 22.7616C59.7942 21.5444 59.7002 19.9941 59.3424 18.2776C59.102 17.1251 58.0441 16.3294 56.8708 16.426Z" fill="#FFDDE3"/>
<path d="M59.3231 46.1783L39.6746 60.1375C39.6746 62.7822 39.933 64.8426 40.2529 66.3796C40.693 68.4913 42.5617 70 44.7187 70H51.2754C52.9779 70 54.5144 68.9922 55.2087 67.4376C59.5874 57.6365 59.3231 46.1783 59.3231 46.1783Z" fill="#FD99C8"/>
<path d="M10.9151 46.1783L30.5636 60.1375C30.5636 62.7822 30.3051 64.8426 29.9852 66.3796C29.5451 68.4913 27.677 70 25.5194 70H18.9628C17.2602 70 15.7237 68.9922 15.0294 67.4376C10.6507 57.6365 10.9151 46.1783 10.9151 46.1783Z" fill="#FD99C8"/>
<path d="M59.3231 46.1783L39.6746 60.1375C39.6746 62.7822 39.933 64.8421 40.2529 66.3796C40.3571 66.8795 40.5419 67.3447 40.7907 67.765C46.9174 66.6835 52.5614 63.8557 57.071 59.5346C57.3941 59.2254 57.7075 58.9092 58.0146 58.5888C59.4534 51.8292 59.3231 46.1783 59.3231 46.1783Z" fill="#E8738B"/>
<path d="M12.2235 58.5888C12.5306 58.9092 12.8441 59.2254 13.1672 59.5346C17.6768 63.8551 23.3207 66.6835 29.4474 67.765C29.6963 67.3447 29.881 66.8795 29.9852 66.3796C30.3051 64.8421 30.5636 62.7822 30.5636 60.1375L10.9151 46.1783C10.9151 46.1783 10.7847 51.8292 12.2235 58.5888Z" fill="#E8738B"/>
<path d="M30.0258 8.64259C29.9276 9.0442 29.8741 9.46344 29.8741 9.89442C29.8741 12.7869 32.2267 15.1399 35.1191 15.1399C38.0116 15.1399 40.3646 12.7869 40.3646 9.89442C40.3646 9.46344 40.3112 9.0442 40.2124 8.64259C38.5446 8.3793 36.8425 8.24365 35.1191 8.24365C33.3957 8.24365 31.6942 8.37984 30.0258 8.64259Z" fill="#FAB659"/>
<path d="M62.0298 38.2525C62.0298 24.0124 49.9814 12.4692 35.1191 12.4692C20.2568 12.4692 8.2085 24.0124 8.2085 38.2525C8.2085 52.4921 20.2568 64.0357 35.1191 64.0357C49.9814 64.0357 62.0298 52.4921 62.0298 38.2525Z" fill="#FD99C8"/>
<path d="M43.7842 32.828C43.7842 29.0928 39.9048 26.0652 35.1191 26.0652C30.3334 26.0652 26.454 29.0928 26.454 32.828C26.454 36.5626 30.3334 39.5907 35.1191 39.5907C39.9048 39.5907 43.7842 36.5626 43.7842 32.828Z" fill="#E8738B"/>
<path d="M33.9923 32.828C33.9923 31.1842 33.109 29.8517 32.0195 29.8517C30.93 29.8517 30.0472 31.1842 30.0472 32.828C30.0472 34.4713 30.93 35.8038 32.0195 35.8038C33.109 35.8038 33.9923 34.4713 33.9923 32.828Z" fill="#4B5562"/>
<path d="M40.1911 32.828C40.1911 31.1842 39.3083 29.8517 38.2188 29.8517C37.1293 29.8517 36.246 31.1842 36.246 32.828C36.246 34.4713 37.1293 35.8038 38.2188 35.8038C39.3083 35.8038 40.1911 34.4713 40.1911 32.828Z" fill="#4B5562"/>
<path d="M23.2439 28.8631C22.6601 28.8631 22.1875 28.39 22.1875 27.8068V25.4153C22.1875 24.8321 22.6601 24.3589 23.2439 24.3589C23.8271 24.3589 24.3002 24.8321 24.3002 25.4153V27.8068C24.3002 28.39 23.8271 28.8631 23.2439 28.8631Z" fill="#4B5562"/>
<path d="M22.1954 32.8002H18.9382C18.355 32.8002 17.8818 32.3276 17.8818 31.7439C17.8818 31.1607 18.355 30.6875 18.9382 30.6875H22.1954C22.7786 30.6875 23.2512 31.1607 23.2512 31.7439C23.2512 32.3276 22.7786 32.8002 22.1954 32.8002Z" fill="#E8738B"/>
<path d="M46.9944 28.8631C46.4112 28.8631 45.938 28.39 45.938 27.8068V25.4153C45.938 24.8321 46.4112 24.3589 46.9944 24.3589C47.5781 24.3589 48.0507 24.8321 48.0507 25.4153V27.8068C48.0507 28.39 47.5781 28.8631 46.9944 28.8631Z" fill="#4B5562"/>
<path d="M51.3 32.8002H48.0433C47.4596 32.8002 46.9869 32.3276 46.9869 31.7439C46.9869 31.1607 47.4596 30.6875 48.0433 30.6875H51.3C51.8832 30.6875 52.3563 31.1607 52.3563 31.7439C52.3563 32.3276 51.8832 32.8002 51.3 32.8002Z" fill="#E8738B"/>
</svg>
