<svg width="20" height="20" viewBox="0 0 28 28" fill="none" xmlns="http://www.w3.org/2000/svg">
<path d="M17.0847 2.21484H2.3866C1.29498 2.21484 0.410156 3.09988 0.410156 4.1915V11.7437C0.410156 12.8353 1.29498 13.7204 2.3866 13.7204H3.48376C3.84436 13.7204 4.05563 14.1258 3.85034 14.4223C3.33722 15.163 2.82004 15.6707 2.30051 16.107C1.88715 16.4539 2.20053 17.1223 2.73288 17.0326C4.85736 16.6754 6.61932 15.6782 7.98801 14.2613C8.32147 13.916 8.78033 13.7204 9.26013 13.7204H17.0847C18.1763 13.7204 19.0612 12.8353 19.0612 11.7437V4.1915C19.0612 3.09988 18.1763 2.21484 17.0847 2.21484Z" fill="#7BD0A7"/>
<path d="M0.410156 4.1915V11.7437C0.410156 12.8353 1.29498 13.7204 2.3866 13.7204H3.48376C3.84436 13.7204 4.05563 14.1258 3.85034 14.4223C3.33722 15.163 2.82004 15.6707 2.30051 16.107C1.88715 16.4539 2.20053 17.1223 2.73288 17.0326C4.85736 16.6754 6.61932 15.6782 7.98801 14.2613C8.32147 13.916 8.78033 13.7204 9.26013 13.7204H13.4798C8.21487 11.9039 7.39777 6.71802 7.29715 2.21484H2.38681C1.29498 2.21484 0.410156 3.09988 0.410156 4.1915Z" fill="#70BD98"/>
<path d="M10.9153 10.9621H25.6132C26.7048 10.9621 27.5898 11.8471 27.5898 12.9387V20.4911C27.5898 21.5828 26.7048 22.4676 25.6132 22.4676H24.5162C24.1554 22.4676 23.9444 22.873 24.1497 23.1696C24.6628 23.9104 25.1797 24.418 25.6995 24.8542C26.1129 25.2011 25.7993 25.8695 25.2671 25.78C23.1426 25.4226 21.3805 24.4254 20.0118 23.0085C19.6785 22.6633 19.2197 22.4676 18.7399 22.4676H10.9153C9.82367 22.4676 8.93884 21.5828 8.93884 20.4911V12.9387C8.93884 11.8471 9.82367 10.9621 10.9153 10.9621Z" fill="#EEEEED"/>
<path d="M8.93884 12.9387V20.4911C8.93884 21.5828 9.82367 22.4676 10.9153 22.4676H18.7399C16.1918 19.8144 15.5028 16.0822 15.2706 10.9621H10.9153C9.82367 10.9621 8.93884 11.8471 8.93884 12.9387Z" fill="#DFDFDD"/>
<path d="M4.71252 9.07001H3.12445C2.63889 9.07001 2.24518 8.6763 2.24518 8.19074V6.60245C2.24518 6.11688 2.63889 5.72318 3.12445 5.72318H4.71252C5.19809 5.72318 5.5918 6.11688 5.5918 6.60245V8.19074C5.5918 8.6763 5.19809 9.07001 4.71252 9.07001Z" fill="#F8E47C"/>
<path d="M17.2112 9.08817H7.28455C7.05811 9.08817 6.87439 8.90466 6.87439 8.67801C6.87439 8.45157 7.05811 8.26785 7.28455 8.26785H17.2112C17.4376 8.26785 17.6213 8.45157 17.6213 8.67801C17.6213 8.90466 17.4376 9.08817 17.2112 9.08817Z" fill="black"/>
<path d="M17.2112 6.80411H7.28455C7.05811 6.80411 6.87439 6.62061 6.87439 6.39395C6.87439 6.16751 7.05811 5.9838 7.28455 5.9838H17.2112C17.4376 5.9838 17.6213 6.16751 17.6213 6.39395C17.6213 6.62061 17.4376 6.80411 17.2112 6.80411Z" fill="white"/>
<path d="M17.2112 9.08817H7.28455C7.05811 9.08817 6.87439 8.90466 6.87439 8.67801C6.87439 8.45157 7.05811 8.26785 7.28455 8.26785H17.2112C17.4376 8.26785 17.6213 8.45157 17.6213 8.67801C17.6213 8.90466 17.4376 9.08817 17.2112 9.08817Z" fill="white"/>
<path d="M25.6132 10.5519H19.4713V4.1915C19.4713 2.87537 18.4006 1.80469 17.0845 1.80469H5.24701C5.02057 1.80469 4.83685 1.9884 4.83685 2.21484C4.83685 2.44128 5.02057 2.625 5.24701 2.625H17.0847C17.9484 2.625 18.651 3.32761 18.651 4.1915V10.5519H10.9153C9.59937 10.5519 8.52869 11.6226 8.52869 12.9387V13.4373C8.21359 13.5493 7.92905 13.7321 7.69299 13.9763C6.31085 15.4073 4.61917 16.2997 2.66473 16.6282C2.5889 16.6412 2.55109 16.5977 2.53314 16.559C2.49597 16.4782 2.54724 16.4353 2.56412 16.4212C3.00974 16.0471 3.59698 15.5086 4.18744 14.656C4.36966 14.3926 4.39081 14.053 4.24213 13.7693C4.09387 13.486 3.80334 13.3102 3.48355 13.3102H2.3866C1.52292 13.3102 0.820312 12.6076 0.820312 11.7439V4.1915C0.820312 3.32782 1.52292 2.625 2.3866 2.625H3.34619C3.57263 2.625 3.75635 2.44128 3.75635 2.21484C3.75635 1.9884 3.57263 1.80469 3.34619 1.80469H2.3866C1.07068 1.80469 0 2.87537 0 4.1915V11.7437C0 13.0598 1.07068 14.1305 2.3866 14.1305H3.48376C3.49188 14.1305 3.50555 14.1305 3.51559 14.1497C3.52606 14.17 3.51752 14.1822 3.51303 14.1888C2.97812 14.9611 2.44321 15.4518 2.03668 15.7927C1.70877 16.0681 1.60901 16.5141 1.78845 16.9027C1.94589 17.2439 2.2753 17.4509 2.63889 17.4509C2.69229 17.4509 2.74634 17.4464 2.80081 17.4372C4.93192 17.0789 6.77634 16.1063 8.28302 14.5462C8.35757 14.4691 8.44003 14.4018 8.52869 14.345V20.4911C8.52869 21.8071 9.59937 22.8777 10.9153 22.8777H18.7399C19.1056 22.8777 19.4617 23.0292 19.717 23.2935C21.2237 24.8535 23.0681 25.8262 25.1992 26.1844C25.2534 26.1936 25.3077 26.1981 25.3611 26.1981C25.7247 26.1981 26.0541 25.9911 26.2115 25.6499C26.391 25.2614 26.2912 24.8153 25.9633 24.5402C25.5568 24.199 25.0217 23.7083 24.487 22.9361C24.4823 22.9294 24.4739 22.9173 24.4844 22.897C24.4947 22.8777 24.5081 22.8777 24.5162 22.8777H25.6132C26.4946 22.8777 27.301 22.395 27.7178 21.6176C27.8248 21.4181 27.7498 21.1694 27.5501 21.0624C27.3506 20.9554 27.1019 21.0303 26.9949 21.2299C26.7213 21.7404 26.1917 22.0574 25.6132 22.0574H24.5162C24.1967 22.0574 23.9061 22.2332 23.7579 22.5163C23.6092 22.8 23.6301 23.1399 23.8126 23.4033C24.403 24.2556 24.9903 24.7944 25.4359 25.1684C25.4528 25.1825 25.504 25.2255 25.4669 25.3062C25.4489 25.3449 25.4117 25.3885 25.3353 25.3754C23.3808 25.0469 21.6891 24.1546 20.307 22.7235C19.8981 22.3001 19.3269 22.0574 18.7399 22.0574H10.9153C10.0516 22.0574 9.349 21.3546 9.349 20.4909V12.9387C9.349 12.075 10.0516 11.3722 10.9153 11.3722H25.6132C26.4771 11.3722 27.1797 12.075 27.1797 12.9387V19.6433C27.1797 19.8697 27.3632 20.0534 27.5898 20.0534C27.8165 20.0534 28 19.8697 28 19.6433V12.9387C28 11.6226 26.9293 10.5519 25.6132 10.5519ZM1.83502 6.60245V8.19073C1.83502 8.90167 2.41351 9.47995 3.12445 9.47995H4.71252C5.42368 9.47995 6.00195 8.90167 6.00195 8.19073V6.60245C6.00195 5.89151 5.42346 5.31302 4.71252 5.31302H3.12445C2.41351 5.31302 1.83502 5.89151 1.83502 6.60245ZM5.18164 6.60245V8.19073C5.18164 8.44922 4.97122 8.65964 4.71252 8.65964H3.12445C2.86575 8.65964 2.65533 8.44922 2.65533 8.19073V6.60245C2.65533 6.34375 2.86575 6.13333 3.12445 6.13333H4.71252C4.97122 6.13333 5.18164 6.34375 5.18164 6.60245Z" fill="black"/>
</svg>
