<svg width="21" height="21" viewBox="0 0 21 21" fill="none" xmlns="http://www.w3.org/2000/svg">
<g clip-path="url(#clip0)">
<path d="M5.06788 17.399C4.41816 17.399 3.84308 17.3401 3.34832 17.2223C2.42949 17.0037 1.83945 16.5934 1.59453 16.0031C0.966445 14.4893 2.9189 12.4978 4.66738 11.0937C5.67823 10.282 6.38347 9.59343 6.76346 9.04715C7.02514 8.67094 7.12272 8.3716 7.03108 8.22601C6.77319 7.81625 5.04066 7.95836 3.55382 8.6709C3.02066 8.9264 2.48437 8.99254 2.00304 8.8623C1.53687 8.73617 1.16137 8.43289 0.945703 8.00836C0.636993 7.40082 0.695391 6.62184 1.10598 5.87118C1.57094 5.02094 2.46968 4.2204 3.70496 3.55598C5.1514 2.77806 6.79022 2.35083 8.32502 2.35083C8.34026 2.35083 8.35538 2.35087 8.37061 2.35095C9.85393 2.35915 11.1103 2.75161 11.9084 3.45614C12.7565 4.20473 12.9882 5.2254 12.561 6.33024C11.9547 7.89816 11.8728 9.02699 12.3304 9.50879C12.5583 9.74879 13.0617 9.95882 14.1653 9.59621C14.3192 9.54566 14.4846 9.62941 14.5351 9.78312C14.5856 9.93683 14.5019 10.1024 14.3482 10.1529C12.9533 10.6111 12.25 10.275 11.9055 9.9123C11.2652 9.23808 11.3019 7.9618 12.0145 6.11891C12.3516 5.24707 12.1809 4.47821 11.5206 3.89544C10.8388 3.29352 9.68944 2.94419 8.36733 2.93688C8.35319 2.93681 8.33893 2.93677 8.32475 2.93677C6.88526 2.93677 5.34507 3.33919 3.98249 4.07204C2.54836 4.84333 1.90625 5.62899 1.62 6.15227C1.30367 6.7307 1.24824 7.31043 1.46801 7.74289C1.77539 8.34785 2.52902 8.51219 3.30054 8.14242C4.7082 7.46789 6.96003 7.01316 7.52694 7.91391C7.98694 8.64472 7.17151 9.83433 5.03421 11.5507C2.81632 13.3317 1.75984 14.8727 2.1357 15.7786C2.34605 16.2856 2.985 16.5336 3.48398 16.6523C4.24984 16.8346 5.2864 16.8612 6.48167 16.7292C8.41354 16.5159 9.52623 15.8635 10.5079 15.2879C11.9408 14.4477 13.0727 13.784 15.7268 15.214C15.8692 15.2908 15.9225 15.4685 15.8457 15.6109C15.7689 15.7533 15.5913 15.8065 15.4488 15.7298C13.0849 14.4562 12.1776 14.9881 10.8043 15.7933C9.82318 16.3686 8.60209 17.0845 6.546 17.3115C6.018 17.3699 5.52448 17.399 5.06788 17.399Z" fill="#404B58"/>
<path d="M13.8837 6.93116L17.2345 10.282L18.5852 8.93131L15.2344 5.58049L13.8837 6.93116Z" fill="#404B58"/>
<path d="M18.5855 8.93126L15.2345 5.58029L17.0438 3.771C17.5174 3.29736 18.2853 3.29736 18.7589 3.771L20.3948 5.40685C20.8684 5.88048 20.8684 6.64833 20.3948 7.12201L18.5855 8.93126Z" fill="#ED718B"/>
<path d="M9.86484 17.6515L17.2344 10.282L13.8836 6.93117L6.51403 14.3007L9.86484 17.6515Z" fill="#FDA75F"/>
<path opacity="0.05" d="M7.63115 15.4179L8.74817 16.5349L16.1177 9.16536L15.0007 8.04834L7.63115 15.4179Z" fill="black"/>
<path d="M9.84449 16.2573L9.14703 16.4339C8.96684 16.4795 8.80336 16.316 8.84898 16.1359L9.02555 15.4384C9.07117 15.2582 8.90766 15.0947 8.7275 15.1404L8.03004 15.3169C7.84984 15.3625 7.68637 15.199 7.73199 15.0189L7.90856 14.3214C7.95418 14.1413 7.79067 13.9777 7.61051 14.0234L6.51399 14.301C6.13149 14.6835 5.84211 15.149 5.66848 15.6614L4.67805 18.5835C4.48837 19.1433 5.02266 19.6776 5.58239 19.4879L8.50457 18.4975C9.01695 18.3238 9.48242 18.0345 9.865 17.6519L10.1426 16.5554C10.1882 16.3752 10.0246 16.2117 9.84449 16.2573Z" fill="#FBE096"/>
<path d="M5.26528 16.8508L4.67805 18.5834C4.48837 19.1431 5.02266 19.6774 5.58239 19.4877L7.31492 18.9005L5.26528 16.8508Z" fill="#404B58"/>
<path opacity="0.1" d="M20.3948 5.40694L19.7718 4.78394C20.2454 5.25757 20.2454 6.02542 19.7718 6.49905L17.9625 8.30834L16.6118 9.65904L9.24201 17.0289C8.85951 17.4114 8.39401 17.7007 7.88162 17.8744L4.95944 18.8648C4.85179 18.9013 4.74511 18.9108 4.64429 18.8986C4.69519 19.3219 5.13046 19.641 5.58245 19.4878L8.50463 18.4974C9.01701 18.3238 9.48248 18.0344 9.86506 17.6519L17.2348 10.2821L18.5855 8.93139L20.3948 7.1221C20.8684 6.64846 20.8684 5.88057 20.3948 5.40694Z" fill="black"/>
</g>
<defs>
<clipPath id="clip0">
<rect width="20" height="20" fill="white" transform="translate(0.75 0.938721)"/>
</clipPath>
</defs>
</svg>
