<svg width="25" height="25" viewBox="0 0 20 20" fill="none" xmlns="http://www.w3.org/2000/svg">
<g clip-path="url(#clip0)">
<path d="M4.318 16.4603C3.66828 16.4603 3.0932 16.4013 2.59844 16.2835C1.67961 16.0649 1.08957 15.6546 0.844652 15.0643C0.216567 13.5505 2.16902 11.5591 3.9175 10.155C4.92835 9.34325 5.63359 8.65465 6.01359 8.10836C6.27527 7.73215 6.37284 7.43282 6.2812 7.28723C6.02331 6.87747 4.29078 7.01958 2.80394 7.73211C2.27078 7.98762 1.73449 8.05376 1.25317 7.92352C0.786996 7.79739 0.411489 7.49411 0.195825 7.06958C-0.112885 6.46204 -0.054487 5.68306 0.356098 4.93239C0.821058 4.08216 1.71981 3.28162 2.95508 2.6172C4.40152 1.83927 6.04034 1.41205 7.57515 1.41205C7.59038 1.41205 7.6055 1.41209 7.62073 1.41217C9.10405 1.42037 10.3605 1.81283 11.1585 2.51736C12.0066 3.26595 12.2383 4.28661 11.8111 5.39146C11.2048 6.95938 11.1229 8.08821 11.5805 8.57C11.8084 8.81 12.3118 9.02004 13.4154 8.65743C13.5693 8.60688 13.7347 8.69063 13.7852 8.84434C13.8357 8.99805 13.752 9.1636 13.5983 9.2141C12.2035 9.67231 11.5001 9.33617 11.1556 8.97352C10.5153 8.2993 10.552 7.02301 11.2646 5.18013C11.6017 4.30829 11.431 3.53943 10.7708 2.95666C10.0889 2.35474 8.93956 2.00541 7.61745 1.9981C7.60331 1.99802 7.58905 1.99798 7.57487 1.99798C6.13538 1.99798 4.59519 2.40041 3.23262 3.13326C1.79848 3.90454 1.15637 4.69021 0.870121 5.21349C0.553793 5.79192 0.498363 6.37165 0.718129 6.80411C1.02551 7.40907 1.77914 7.5734 2.55066 7.20364C3.95832 6.52911 6.21015 6.07438 6.77706 6.97512C7.23706 7.70594 6.42163 8.89555 4.28433 10.6119C2.06645 12.3929 1.00996 13.9339 1.38582 14.8398C1.59617 15.3468 2.23512 15.5948 2.7341 15.7135C3.49996 15.8959 4.53652 15.9225 5.73179 15.7904C7.66366 15.5771 8.77635 14.9247 9.75803 14.3491C11.191 13.5089 12.3228 12.8452 14.9769 14.2752C15.1193 14.352 15.1726 14.5297 15.0958 14.6721C15.019 14.8145 14.8414 14.8678 14.699 14.791C12.335 13.5174 11.4278 14.0493 10.0544 14.8545C9.07331 15.4298 7.85222 16.1457 5.79613 16.3728C5.26812 16.4311 4.7746 16.4602 4.318 16.4603Z" fill="#353E6C"/>
<path d="M13.1341 5.99238L16.4849 9.3432L17.8355 7.99253L14.4847 4.64171L13.1341 5.99238Z" fill="#353E6C"/>
<path d="M17.8353 7.9926L14.4844 4.64163L16.2937 2.83234C16.7673 2.3587 17.5351 2.3587 18.0088 2.83234L19.6447 4.46819C20.1183 4.94182 20.1183 5.70967 19.6447 6.18335L17.8353 7.9926Z" fill="#F44771"/>
<path d="M9.11484 16.7128L16.4844 9.34329L13.1336 5.99248L5.76403 13.362L9.11484 16.7128Z" fill="#AFB252"/>
<path opacity="0.05" d="M6.88103 14.4791L7.99805 15.5961L15.3676 8.22655L14.2506 7.10953L6.88103 14.4791Z" fill="black"/>
<path d="M9.09461 15.3186L8.39715 15.4952C8.21696 15.5408 8.05348 15.3773 8.09911 15.1971L8.27567 14.4996C8.32129 14.3195 8.15778 14.156 7.97762 14.2016L7.28016 14.3782C7.09997 14.4238 6.93649 14.2603 6.98212 14.0801L7.15868 13.3827C7.2043 13.2025 7.04079 13.039 6.86063 13.0846L5.76411 13.3622C5.38161 13.7448 5.09224 14.2103 4.9186 14.7226L3.92818 17.6448C3.73849 18.2045 4.27278 18.7388 4.83251 18.5491L7.75469 17.5587C8.26707 17.3851 8.73254 17.0957 9.11512 16.7132L9.39274 15.6167C9.43828 15.4365 9.27477 15.273 9.09461 15.3186Z" fill="#FBE096"/>
<path d="M4.5154 15.9121L3.92818 17.6447C3.73849 18.2044 4.27278 18.7387 4.83251 18.549L6.56505 17.9618L4.5154 15.9121Z" fill="#404B58"/>
<path opacity="0.1" d="M19.6446 4.46822L19.0216 3.84521C19.4951 4.31885 19.4951 5.0867 19.0216 5.56033L17.2123 7.36962L15.8616 8.72032L8.49177 16.0902C8.10927 16.4726 7.64376 16.762 7.13138 16.9357L4.2092 17.9261C4.10154 17.9626 3.99486 17.9721 3.89404 17.9599C3.94494 18.3832 4.38021 18.7023 4.83221 18.5491L7.75439 17.5587C8.26677 17.385 8.73224 17.0957 9.11481 16.7132L16.4846 9.34337L17.8353 7.99267L19.6446 6.18337C20.1182 5.70974 20.1182 4.94185 19.6446 4.46822Z" fill="#353E6C"/>
</g>
<defs>
<clipPath id="clip0">
<rect width="20" height="20" fill="white"/>
</clipPath>
</defs>
</svg>
