<svg width="25" height="25" viewBox="0 0 25 25" fill="none" xmlns="http://www.w3.org/2000/svg">
<g clip-path="url(#clip0)">
<path d="M24.0723 0H0.927734C0.681763 0.000336761 0.445941 0.127775 0.272013 0.354352C0.0980847 0.580929 0.000258509 0.888137 0 1.20857L0 23.7914C0.000258509 24.1119 0.0980847 24.4191 0.272013 24.6456C0.445941 24.8722 0.681763 24.9997 0.927734 25H24.0723C24.3182 24.9997 24.5541 24.8722 24.728 24.6456C24.9019 24.4191 24.9997 24.1119 25 23.7914V1.20857C24.9997 0.888137 24.9019 0.580929 24.728 0.354352C24.5541 0.127775 24.3182 0.000336761 24.0723 0ZM0.683594 1.20857C0.683645 1.12424 0.709384 1.04338 0.755158 0.983749C0.800932 0.924119 0.863 0.890589 0.927734 0.890522H24.0723C24.137 0.890589 24.1991 0.924119 24.2448 0.983749C24.2906 1.04338 24.3164 1.12424 24.3164 1.20857V3.75291H0.683594V1.20857ZM24.3164 23.7914C24.3164 23.8758 24.2906 23.9566 24.2448 24.0162C24.1991 24.0759 24.137 24.1094 24.0723 24.1095H0.927734C0.863 24.1094 0.800932 24.0759 0.755158 24.0162C0.709384 23.9566 0.683645 23.8758 0.683594 23.7914V4.64344H24.3164V23.7914Z" fill="#AFB252" stroke="#AFB252" stroke-width="0.3"/>
<path d="M2.29492 11.0933H22.7051C22.7957 11.0933 22.8827 11.0464 22.9468 10.9629C23.0109 10.8794 23.0469 10.7662 23.0469 10.6481V6.7425C23.0469 6.62441 23.0109 6.51116 22.9468 6.42765C22.8827 6.34415 22.7957 6.29724 22.7051 6.29724H2.29492C2.20427 6.29724 2.11733 6.34415 2.05323 6.42765C1.98914 6.51116 1.95312 6.62441 1.95312 6.7425V10.6481C1.95312 10.7662 1.98914 10.8794 2.05323 10.9629C2.11733 11.0464 2.20427 11.0933 2.29492 11.0933ZM2.63672 7.18776H22.3633V10.2028H2.63672V7.18776Z" fill="#AFB252" stroke="#AFB252" stroke-width="0.3"/>
<path d="M22.7051 11.9783H9.43594C9.34529 11.9783 9.25836 12.0252 9.19426 12.1087C9.13016 12.1922 9.09415 12.3055 9.09415 12.4236V16.3292C9.09415 16.4473 9.13016 16.5605 9.19426 16.644C9.25836 16.7275 9.34529 16.7744 9.43594 16.7744H22.7051C22.7957 16.7744 22.8827 16.7275 22.9468 16.644C23.0109 16.5605 23.0469 16.4473 23.0469 16.3292V12.4236C23.0469 12.3055 23.0109 12.1922 22.9468 12.1087C22.8827 12.0252 22.7957 11.9783 22.7051 11.9783ZM22.3633 15.8839H9.77774V12.8689H22.3633V15.8839Z" fill="#AFB252" stroke="#AFB252" stroke-width="0.3"/>
<path d="M22.7051 17.6594H9.43594C9.34529 17.6594 9.25836 17.7063 9.19426 17.7898C9.13016 17.8733 9.09415 17.9865 9.09415 18.1046V22.0102C9.09415 22.1283 9.13016 22.2415 9.19426 22.325C9.25836 22.4085 9.34529 22.4555 9.43594 22.4555H22.7051C22.7957 22.4555 22.8827 22.4085 22.9468 22.325C23.0109 22.2415 23.0469 22.1283 23.0469 22.0102V18.1046C23.0469 17.9865 23.0109 17.8733 22.9468 17.7898C22.8827 17.7063 22.7957 17.6594 22.7051 17.6594ZM22.3633 21.5649H9.77774V18.5499H22.3633V21.5649Z" fill="#AFB252" stroke="#AFB252" stroke-width="0.3"/>
<path d="M2.29492 22.4554H8.07285C8.1635 22.4554 8.25044 22.4085 8.31454 22.325C8.37864 22.2415 8.41465 22.1283 8.41465 22.0102V12.4236C8.41465 12.3055 8.37864 12.1922 8.31454 12.1087C8.25044 12.0252 8.1635 11.9783 8.07285 11.9783H2.29492C2.20427 11.9783 2.11733 12.0252 2.05323 12.1087C1.98914 12.1922 1.95312 12.3055 1.95312 12.4236V22.0102C1.95312 22.1283 1.98914 22.2415 2.05323 22.325C2.11733 22.4085 2.20427 22.4554 2.29492 22.4554ZM2.63672 12.8689H7.73105V21.5649H2.63672V12.8689Z" fill="#AFB252" stroke="#AFB252" stroke-width="0.3"/>
<path d="M22.7051 1.87646H21.8506C21.7599 1.87646 21.673 1.92338 21.6089 2.00688C21.5448 2.09038 21.5088 2.20364 21.5088 2.32173C21.5088 2.43982 21.5448 2.55307 21.6089 2.63657C21.673 2.72008 21.7599 2.76699 21.8506 2.76699H22.7051C22.7957 2.76699 22.8827 2.72008 22.9468 2.63657C23.0109 2.55307 23.0469 2.43982 23.0469 2.32173C23.0469 2.20364 23.0109 2.09038 22.9468 2.00688C22.8827 1.92338 22.7957 1.87646 22.7051 1.87646Z" fill="#AFB252" stroke="#AFB252" stroke-width="0.3"/>
<path d="M20.0928 1.87646H19.2383C19.1476 1.87646 19.0607 1.92338 18.9966 2.00688C18.9325 2.09038 18.8965 2.20364 18.8965 2.32173C18.8965 2.43982 18.9325 2.55307 18.9966 2.63657C19.0607 2.72008 19.1476 2.76699 19.2383 2.76699H20.0928C20.1834 2.76699 20.2704 2.72008 20.3345 2.63657C20.3986 2.55307 20.4346 2.43982 20.4346 2.32173C20.4346 2.20364 20.3986 2.09038 20.3345 2.00688C20.2704 1.92338 20.1834 1.87646 20.0928 1.87646Z" fill="#AFB252" stroke="#AFB252" stroke-width="0.3"/>
<path d="M17.4805 1.87646H16.626C16.5353 1.87646 16.4484 1.92338 16.3843 2.00688C16.3202 2.09038 16.2842 2.20364 16.2842 2.32173C16.2842 2.43982 16.3202 2.55307 16.3843 2.63657C16.4484 2.72008 16.5353 2.76699 16.626 2.76699H17.4805C17.5711 2.76699 17.6581 2.72008 17.7222 2.63657C17.7863 2.55307 17.8223 2.43982 17.8223 2.32173C17.8223 2.20364 17.7863 2.09038 17.7222 2.00688C17.6581 1.92338 17.5711 1.87646 17.4805 1.87646Z" fill="#AFB252" stroke="#AFB252" stroke-width="0.3"/>
</g>
<defs>
<clipPath id="clip0">
<rect width="25" height="25" fill="white"/>
</clipPath>
</defs>
</svg>
