<svg width="30" height="30" viewBox="0 0 20 21" fill="none" xmlns="http://www.w3.org/2000/svg">
<path fill-rule="evenodd" clip-rule="evenodd" d="M10 3.41668C8.38917 3.41668 7.08333 4.72251 7.08333 6.33334C7.08333 7.94417 8.38917 9.25001 10 9.25001C11.6108 9.25001 12.9167 7.94417 12.9167 6.33334C12.9167 4.72251 11.6108 3.41668 10 3.41668ZM6.25 6.33334C6.25 4.26228 7.92893 2.58334 10 2.58334C12.0711 2.58334 13.75 4.26228 13.75 6.33334C13.75 8.40441 12.0711 10.0833 10 10.0833C7.92893 10.0833 6.25 8.40441 6.25 6.33334Z" fill="#F44771"/>
<path fill-rule="evenodd" clip-rule="evenodd" d="M7.60823 11.3924C8.36651 11.0783 9.17924 10.9167 10 10.9167C10.8208 10.9167 11.6335 11.0783 12.3918 11.3924C13.1501 11.7065 13.8391 12.1669 14.4194 12.7473C14.9998 13.3276 15.4602 14.0166 15.7742 14.7749C16.0883 15.5332 16.25 16.3459 16.25 17.1667C16.25 17.3968 16.0635 17.5834 15.8333 17.5834C15.6032 17.5834 15.4167 17.3968 15.4167 17.1667C15.4167 16.4554 15.2766 15.751 15.0043 15.0938C14.7321 14.4366 14.3331 13.8395 13.8302 13.3365C13.3272 12.8335 12.73 12.4346 12.0729 12.1623C11.4157 11.8901 10.7113 11.75 10 11.75C9.28867 11.75 8.58431 11.8901 7.92713 12.1623C7.26995 12.4346 6.67282 12.8335 6.16984 13.3365C5.66685 13.8395 5.26787 14.4366 4.99565 15.0938C4.72344 15.751 4.58333 16.4554 4.58333 17.1667C4.58333 17.3968 4.39679 17.5834 4.16667 17.5834C3.93655 17.5834 3.75 17.3968 3.75 17.1667C3.75 16.3459 3.91166 15.5332 4.22575 14.7749C4.53984 14.0166 5.00022 13.3276 5.58058 12.7473C6.16095 12.1669 6.84994 11.7065 7.60823 11.3924Z" fill="#F44771"/>
</svg>
