<svg width="25" height="25" viewBox="0 0 25 25" fill="none" xmlns="http://www.w3.org/2000/svg">
<path d="M9.40309 16.7678C10.0852 16.7678 10.5579 16.0906 10.3191 15.4553C9.72015 13.8612 8.06037 12.715 6.10654 12.715C4.15275 12.715 2.49293 13.8612 1.89399 15.4553C1.65527 16.0906 2.12794 16.7678 2.81003 16.7678H9.40309Z" fill="#8DA1B5" stroke="#8DA1B5" stroke-width="0.3"/>
<path d="M6.43456 13.4555C9.24991 13.4555 11.5322 11.3774 11.5322 8.81408C11.5322 6.25072 9.24991 4.1727 6.43456 4.1727C3.61921 4.1727 1.33691 6.25072 1.33691 8.81408C1.33691 11.3774 3.61921 13.4555 6.43456 13.4555Z" stroke="#8DA1B5" stroke-width="0.3"/>
<path d="M18.5654 14.7955C19.8453 14.7955 21.0391 14.4474 22.043 13.8481C21.2273 12.9197 19.9727 12.325 18.5654 12.325C17.1582 12.325 15.9036 12.9197 15.0879 13.8481C16.0918 14.4474 17.2856 14.7955 18.5654 14.7955Z" fill="#8DA1B5" stroke="#8DA1B5" stroke-width="0.3"/>
<path d="M1.87299 6.74072C2.86199 7.05303 4.18534 6.58609 4.88774 6.24359C5.1512 6.11513 5.46144 6.1354 5.70806 6.29343C6.98869 7.11382 9.04148 7.28824 10.8237 6.45289C9.9361 5.08806 8.30283 4.17276 6.43449 4.17276C4.43776 4.17272 2.70939 5.21827 1.87299 6.74072Z" fill="#8DA1B5" stroke="#8DA1B5" stroke-width="0.3"/>
<path d="M15.2689 16.3778C14.5868 16.3778 14.1141 15.7006 14.3529 15.0653C14.9519 13.4712 16.6117 12.325 18.5655 12.325C20.5193 12.325 22.1791 13.4712 22.7781 15.0653C23.0168 15.7006 22.5441 16.3778 21.862 16.3778H15.2689Z" fill="#8DA1B5" stroke="#8DA1B5" stroke-width="0.3"/>
<path d="M18.5654 13.4555C21.3808 13.4555 23.6631 11.3774 23.6631 8.81408C23.6631 6.25072 21.3808 4.1727 18.5654 4.1727C15.7501 4.1727 13.4678 6.25072 13.4678 8.81408C13.4678 11.3774 15.7501 13.4555 18.5654 13.4555Z" stroke="#8DA1B5" stroke-width="0.3"/>
<path d="M10.6258 17.4502C10.6258 16.4083 9.74091 15.5719 8.67766 15.6435C7.76664 15.7048 7.03329 16.4467 6.98563 17.3533C6.96869 17.6757 7.03693 17.9807 7.16963 18.2485C7.22398 18.3581 7.2004 18.4888 7.11927 18.5806C6.81286 18.9275 6.63762 19.3917 6.67081 19.8967C6.72971 20.7922 7.45699 21.5189 8.35732 21.5815C9.42242 21.6554 10.3095 20.8183 10.3095 19.775C10.3095 19.4149 10.2034 19.0797 10.0211 18.7976C10.3922 18.466 10.6258 17.9853 10.6258 17.4502V17.4502Z" stroke="#8DA1B5" stroke-width="0.3"/>
<path d="M14.3742 17.4502C14.3742 16.4083 15.2591 15.5719 16.3224 15.6435C17.2334 15.7048 17.9668 16.4467 18.0144 17.3533C18.0314 17.6757 17.9631 17.9807 17.8304 18.2485C17.7761 18.3581 17.7996 18.4888 17.8808 18.5806C18.1872 18.9275 18.3624 19.3917 18.3292 19.8967C18.2704 20.7922 17.5431 21.5189 16.6427 21.5815C15.5777 21.6554 14.6905 20.8183 14.6905 19.775C14.6905 19.4149 14.7967 19.0797 14.9789 18.7976C14.6078 18.466 14.3742 17.9853 14.3742 17.4502V17.4502Z" stroke="#8DA1B5" stroke-width="0.3"/>
<path d="M9.18359 23.1051C8.50145 23.1051 8.02878 22.4279 8.26754 21.7926C8.86653 20.1985 10.5263 19.0523 12.4801 19.0523C14.434 19.0523 16.0937 20.1984 16.6927 21.7926C16.9314 22.4279 16.4588 23.1051 15.7767 23.1051H9.18359Z" fill="#8DA1B5" stroke="#8DA1B5" stroke-width="0.3"/>
<path d="M12.5 21.0527C13.7798 21.0527 14.9736 20.7046 15.9776 20.1053C15.1619 19.1769 13.9073 18.5822 12.5 18.5822C11.0927 18.5822 9.83809 19.1769 9.0224 20.1053C10.0263 20.7046 11.2202 21.0527 12.5 21.0527Z" fill="#8DA1B5" stroke="#8DA1B5" stroke-width="0.3"/>
<path d="M12.5 19.7127C15.3153 19.7127 17.5976 17.6347 17.5976 15.0713C17.5976 12.508 15.3153 10.43 12.5 10.43C9.68464 10.43 7.40234 12.508 7.40234 15.0713C7.40234 17.6347 9.68464 19.7127 12.5 19.7127Z" fill="white" stroke="#8DA1B5" stroke-width="0.3"/>
<path d="M17.4793 14.0741C16.9781 11.99 14.9393 10.4299 12.5 10.4299C10.0607 10.4299 8.02191 11.99 7.52072 14.0741C8.2644 14.3324 9.37186 13.8177 9.7497 13.2032C9.8222 13.0853 9.95913 13.0201 10.0948 13.0503C10.9181 13.2343 11.6972 12.9799 12.3461 12.5302C12.4389 12.4659 12.5611 12.4659 12.6539 12.5302C13.3029 12.9799 14.0819 13.2343 14.9052 13.0503C15.0409 13.0201 15.1778 13.0853 15.2503 13.2032C15.6281 13.8177 16.7356 14.3324 17.4793 14.0741Z" stroke="#8DA1B5" stroke-width="0.3"/>
<path d="M18.5654 4.1727C16.328 4.1727 14.4275 5.48518 13.7414 7.31061C14.6539 7.15423 15.5654 6.84219 16.0948 6.48772C16.2052 6.41375 16.3537 6.4912 16.3537 6.62364V6.81445C16.3537 7.14516 16.6233 7.41325 16.9559 7.41325H20.1749C20.5075 7.41325 20.7771 7.14516 20.7771 6.81445V6.62364C20.7771 6.4912 20.9256 6.41375 21.036 6.48772C21.5654 6.84219 22.4769 7.15423 23.3895 7.31061C22.7034 5.48518 20.8029 4.1727 18.5654 4.1727Z" fill="#8DA1B5" stroke="#8DA1B5" stroke-width="0.3"/>
<path d="M18.5654 10.052C18.9463 10.052 19.3084 9.888 19.559 9.60209C19.6813 9.46264 19.6667 9.25101 19.5264 9.12943C19.3861 9.00785 19.1733 9.02241 19.051 9.1619C18.9284 9.3018 18.7514 9.38202 18.5654 9.38202C18.3794 9.38202 18.2024 9.3018 18.0797 9.16186C17.9574 9.02241 17.7446 9.00789 17.6043 9.12948C17.4641 9.25106 17.4495 9.46269 17.5718 9.60214C17.8225 9.888 18.1847 10.052 18.5654 10.052ZM15.7601 9.73292C15.9462 9.73292 16.097 9.58297 16.097 9.39792V8.86192C16.097 8.67687 15.9462 8.52692 15.7601 8.52692C15.574 8.52692 15.4232 8.67687 15.4232 8.86192V9.39792C15.4232 9.58293 15.574 9.73292 15.7601 9.73292ZM21.3708 9.73292C21.5569 9.73292 21.7077 9.58297 21.7077 9.39792V8.86192C21.7077 8.67687 21.5569 8.52692 21.3708 8.52692C21.1847 8.52692 21.0339 8.67687 21.0339 8.86192V9.39792C21.0339 9.58293 21.1847 9.73292 21.3708 9.73292ZM13.4609 15.3866C13.3206 15.265 13.1078 15.2796 12.9856 15.4191C12.863 15.559 12.686 15.6393 12.5 15.6393C12.314 15.6393 12.137 15.559 12.0144 15.4191C11.8922 15.2796 11.6793 15.2651 11.5391 15.3866C11.3988 15.5082 11.3841 15.7198 11.5064 15.8592C11.7569 16.1452 12.1192 16.3092 12.5 16.3092C12.8808 16.3092 13.243 16.1452 13.4935 15.8592C13.6159 15.7198 13.6012 15.5081 13.4609 15.3866ZM9.23984 9.73292C9.42595 9.73292 9.57675 9.58297 9.57675 9.39792V8.86192C9.57675 8.67687 9.42595 8.52692 9.23984 8.52692C9.05373 8.52692 8.90293 8.67687 8.90293 8.86192V9.39792C8.90293 9.58293 9.05373 9.73292 9.23984 9.73292ZM23.5449 12.4957C23.2876 12.3087 23.0451 12.0804 22.8627 11.8568C23.5752 11.0149 24 9.95915 24 8.81409C24 6.02002 21.5023 3.83771 18.5654 3.83771C15.6162 3.83771 13.1309 6.03288 13.1309 8.81409C13.1309 9.27125 13.1976 9.71943 13.3298 10.1529C13.0591 10.1147 12.782 10.0949 12.5 10.0949C12.2179 10.0949 11.9408 10.1148 11.6702 10.1529C11.8023 9.71943 11.869 9.27125 11.869 8.81409C11.869 6.00841 9.35929 3.83771 6.43447 3.83771C3.51657 3.83771 1 6.00608 1 8.81409C1 10.5425 1.96748 12.0677 3.43243 12.9601C2.73282 13.477 2.19982 14.167 1.90639 14.9481C1.69755 15.504 1.8926 16.1318 2.38081 16.475C2.43984 16.5165 2.50776 16.5365 2.57496 16.5365C2.68071 16.5365 2.78475 16.4872 2.85038 16.3948C2.95783 16.2437 2.92171 16.0346 2.76974 15.9279C2.53116 15.7602 2.4357 15.4538 2.53759 15.1826C2.82239 14.4246 3.37722 13.7655 4.10909 13.3112C5.10536 13.7449 6.20177 13.8816 7.2657 13.7317C7.03835 14.4756 7.0021 15.2703 7.16975 16.0429H4.1678C3.98169 16.0429 3.83089 16.1928 3.83089 16.3779C3.83089 16.5629 3.98169 16.7129 4.1678 16.7129H6.77839C6.57215 17.2691 6.61434 17.869 6.85534 18.3719C5.82807 19.5522 6.37643 21.4107 7.9013 21.84C7.92902 22.0412 8.0035 22.2363 8.12335 22.408C8.36894 22.76 8.77274 22.9701 9.2035 22.9701H14.4885C14.6746 22.9701 14.8254 22.8201 14.8254 22.6351C14.8254 22.45 14.6746 22.3001 14.4885 22.3001H9.20345C8.99039 22.3001 8.79844 22.2002 8.67688 22.026C8.55537 21.852 8.52846 21.6382 8.60298 21.4398C8.88774 20.6819 9.44266 20.0228 10.1745 19.5685C10.8799 19.8756 11.6684 20.0477 12.5 20.0477C13.3315 20.0477 14.12 19.8756 14.8254 19.5685C15.5572 20.0228 16.1122 20.6819 16.3969 21.4398C16.4587 21.6043 16.4508 21.7812 16.3747 21.9379C16.2983 22.0955 16.1603 22.2162 15.9963 22.2691C15.8193 22.3263 15.7224 22.5152 15.7798 22.6912C15.8261 22.8328 15.9582 22.9228 16.1002 22.9228C16.1347 22.9228 16.1698 22.9176 16.2043 22.9064C16.5423 22.7973 16.8256 22.5504 16.9816 22.2292C17.0423 22.104 17.0817 21.9729 17.1002 21.8395C17.9647 21.5954 18.6056 20.8276 18.6654 19.9185C18.7029 19.3494 18.518 18.8008 18.1447 18.3718C18.385 17.8703 18.4283 17.2705 18.2216 16.7128H21.8619C22.2927 16.7128 22.6965 16.5027 22.9421 16.1507C23.1878 15.7988 23.2444 15.3492 23.0936 14.948C23.0711 14.8881 23.0472 14.8288 23.0219 14.77C23.2589 14.5871 23.4934 14.3701 23.7107 14.1319C24.1544 13.6454 24.0781 12.8833 23.5449 12.4957ZM18.5654 4.5077C20.405 4.5077 22.0041 5.45651 22.7965 6.84144C22.1601 6.67818 21.5806 6.44846 21.2243 6.2099C21.0694 6.10618 20.8708 6.09573 20.7063 6.18292C20.5422 6.26975 20.4403 6.43868 20.4403 6.62369V6.8145C20.4403 6.95998 20.3213 7.0783 20.1749 7.0783H16.956C16.8097 7.0783 16.6907 6.95998 16.6907 6.8145V6.62369C16.6907 6.43863 16.5887 6.2698 16.4247 6.18296C16.2601 6.09582 16.0616 6.10618 15.9067 6.20994C15.5504 6.44851 14.9709 6.67823 14.3345 6.84148C15.1268 5.45651 16.7258 4.5077 18.5654 4.5077ZM13.9963 7.60429C14.7637 7.45462 15.5005 7.20578 16.023 6.92179C16.0767 7.38632 16.4746 7.74834 16.956 7.74834H20.1749C20.6563 7.74834 21.0542 7.38637 21.108 6.92179C21.6306 7.20578 22.3673 7.45462 23.1347 7.60429C23.2591 7.98829 23.3262 8.39422 23.3262 8.81413C23.3262 11.598 20.4372 13.6562 17.4405 12.9992C16.7996 11.7231 15.5861 10.736 14.103 10.316C13.9053 9.83623 13.8048 9.33181 13.8048 8.81413C13.8048 8.39418 13.8718 7.98825 13.9963 7.60429ZM12.5 10.7649C14.6377 10.7649 16.4507 12.0461 17.0503 13.8042C16.531 13.8023 15.8282 13.5008 15.5378 13.0285C15.3881 12.7852 15.1042 12.6625 14.8314 12.7235C14.0133 12.9064 13.3004 12.5699 12.8465 12.2554C12.6393 12.1119 12.3608 12.1118 12.1535 12.2554C11.6996 12.5699 10.987 12.9064 10.1685 12.7235C9.89579 12.6629 9.61193 12.7852 9.46216 13.0285C9.17174 13.501 8.46894 13.8025 7.94964 13.8043C8.54921 12.0461 10.3623 10.7649 12.5 10.7649ZM6.43456 4.5077C8.02708 4.5077 9.43929 5.21879 10.304 6.30825C9.60461 6.5733 8.84861 6.69466 8.09357 6.65942C7.26453 6.62078 6.48218 6.3908 5.89051 6.0118C5.54591 5.79106 5.10483 5.76466 4.73943 5.94279C4.06745 6.27042 3.16353 6.55504 2.41976 6.50211C3.26604 5.30384 4.7494 4.5077 6.43456 4.5077ZM1.67383 8.81409C1.67383 8.21663 1.80913 7.64726 2.05333 7.12958C3.24169 7.35206 4.61801 6.74822 5.03614 6.54436C5.19314 6.46789 5.37615 6.47933 5.52561 6.57505C6.31453 7.0804 7.30811 7.33594 8.3348 7.33589C9.12529 7.33589 9.93528 7.18398 10.6864 6.87838C11.0117 7.46065 11.1952 8.11832 11.1952 8.81409C11.1952 9.33177 11.0948 9.83619 10.8971 10.3159C9.414 10.736 8.20053 11.723 7.55963 12.9992C4.55768 13.6573 1.67383 11.5928 1.67383 8.81409ZM7.98832 21.1644C7.00084 20.8123 6.68311 19.5818 7.37235 18.8017C7.54629 18.6047 7.58532 18.3295 7.4718 18.1003C7.36053 17.8758 7.30878 17.6235 7.32208 17.3708C7.33106 17.2001 7.37046 17.0341 7.43677 16.879C7.84677 17.8386 8.57324 18.654 9.49792 19.2173C8.81057 19.7251 8.28485 20.4002 7.98832 21.1644ZM12.5 19.3777C9.60919 19.3777 7.38362 17.0582 7.78608 14.4689C8.64202 14.5449 9.64827 14.0046 10.036 13.3806C10.855 13.559 11.7057 13.3694 12.5 12.8316C13.2945 13.3694 14.1453 13.5592 14.9644 13.3804C15.3249 13.964 16.2315 14.4765 17.0493 14.4765C17.1047 14.4765 17.1596 14.4739 17.2139 14.469C17.2445 14.6659 17.2607 14.8669 17.2607 15.0713C17.2607 17.4458 15.1251 19.3777 12.5 19.3777ZM17.0117 21.1644C16.7152 20.4002 16.1894 19.7251 15.5021 19.2173C16.4268 18.654 17.1532 17.8386 17.5632 16.8791C17.7358 17.283 17.711 17.7313 17.5282 18.1004C17.4147 18.3295 17.4537 18.6048 17.6277 18.8017C18.3173 19.5824 17.9986 20.8125 17.0117 21.1644ZM22.3886 15.7687C22.267 15.9429 22.0751 16.0428 21.8619 16.0428H17.8302C17.8984 15.7285 17.9345 15.4037 17.9345 15.0713C17.9345 14.6072 17.8636 14.155 17.7343 13.7317C18.7984 13.8815 19.8947 13.7449 20.8909 13.3112C21.6227 13.7655 22.1776 14.4246 22.4624 15.1825C22.537 15.381 22.5101 15.5946 22.3886 15.7687ZM23.2115 13.6818C23.0486 13.8605 22.8757 14.0245 22.701 14.1673C22.407 13.7067 22.0229 13.2965 21.5676 12.9601C21.8644 12.7793 22.1409 12.5726 22.393 12.3433C22.6039 12.5902 22.8658 12.8321 23.1472 13.0366C23.3576 13.1895 23.3875 13.4889 23.2115 13.6818ZM15.3053 14.7841C15.1192 14.7841 14.9684 14.9341 14.9684 15.1191V15.6551C14.9684 15.8402 15.1192 15.9901 15.3053 15.9901C15.4914 15.9901 15.6422 15.8402 15.6422 15.6551V15.1191C15.6422 14.9341 15.4914 14.7841 15.3053 14.7841ZM9.69472 14.7841C9.50861 14.7841 9.35781 14.9341 9.35781 15.1191V15.6551C9.35781 15.8402 9.50861 15.9901 9.69472 15.9901C9.88083 15.9901 10.0316 15.8402 10.0316 15.6551V15.1191C10.0316 14.9341 9.88078 14.7841 9.69472 14.7841ZM3.62923 8.52692C3.44312 8.52692 3.29232 8.67687 3.29232 8.86192V9.39792C3.29232 9.58297 3.44312 9.73292 3.62923 9.73292C3.81534 9.73292 3.96615 9.58297 3.96615 9.39792V8.86192C3.96615 8.67687 3.81534 8.52692 3.62923 8.52692ZM7.39548 9.12943C7.25524 9.00785 7.0424 9.02241 6.92012 9.1619C6.79753 9.3018 6.62053 9.38202 6.43451 9.38202C6.24849 9.38202 6.07155 9.3018 5.94891 9.1619C5.82663 9.02245 5.61379 9.00794 5.47354 9.12943C5.33325 9.25101 5.3187 9.46264 5.44089 9.60209C5.69151 9.888 6.05367 10.052 6.43447 10.052C6.81532 10.052 7.17743 9.888 7.42805 9.60209C7.55033 9.46264 7.53577 9.25097 7.39548 9.12943Z" fill="#8DA1B5" stroke="#8DA1B5" stroke-width="0.3"/>
</svg>
