<svg width="25" height="25" viewBox="0 0 25 25" fill="none" xmlns="http://www.w3.org/2000/svg">
<g clip-path="url(#clip0)">
<path d="M19.2052 19.4104C18.8729 19.4104 18.6026 19.1402 18.6026 18.8078C18.6026 18.4755 18.8729 18.2052 19.2052 18.2052C19.5375 18.2052 19.8078 18.4755 19.8078 18.8078H20.4104C20.4104 18.248 20.0247 17.7801 19.5065 17.6454V17H18.9039V17.6454C18.3857 17.7801 18 18.248 18 18.8078C18 19.4725 18.5405 20.013 19.2052 20.013C19.5375 20.013 19.8078 20.2833 19.8078 20.6156C19.8078 20.948 19.5375 21.2182 19.2052 21.2182C18.8729 21.2182 18.6026 20.948 18.6026 20.6156H18C18 21.1754 18.3857 21.6434 18.9039 21.7781V22.4234H19.5065V21.7781C20.0247 21.6434 20.4104 21.1754 20.4104 20.6156C20.4104 19.951 19.8699 19.4104 19.2052 19.4104Z" fill="#8DA1B5"/>
<path d="M19.3548 14.9552V3.54839C19.3548 2.9961 18.9071 2.54839 18.3548 2.54839H17.0323V2.16129C17.0323 1.52103 16.5112 1 15.871 1C15.2307 1 14.7097 1.52103 14.7097 2.16129V2.54839H13.9355V2.16129C13.9355 1.52103 13.4145 1 12.7742 1C12.1339 1 11.6129 1.52103 11.6129 2.16129V2.54839H10.8387V2.16129C10.8387 1.52103 10.3177 1 9.67742 1C9.03716 1 8.51613 1.52103 8.51613 2.16129V2.54839H7.74194V2.16129C7.74194 1.52103 7.2209 1 6.58065 1C5.94039 1 5.41935 1.52103 5.41935 2.16129V2.54839H4.64516V2.16129C4.64516 1.52103 4.12413 1 3.48387 1C2.84361 1 2.32258 1.52103 2.32258 2.16129V2.54839H1C0.447715 2.54839 0 2.9961 0 3.54839V19.3548C0 19.9071 0.447715 20.3548 1 20.3548H13.9552C14.1538 22.9488 16.3235 25 18.9677 25C20.1747 25 21.3422 24.5661 22.255 23.7779L21.749 23.1919C20.9768 23.8588 19.9889 24.2258 18.9677 24.2258C16.62 24.2258 14.7097 22.3155 14.7097 19.9677C14.7097 17.62 16.62 15.7097 18.9677 15.7097C21.3155 15.7097 23.2258 17.62 23.2258 19.9677C23.2258 20.9494 22.9014 21.8715 22.2871 22.6348L22.8906 23.1203C23.6059 22.2307 24 21.1112 24 19.9677C24 17.3235 21.9488 15.1538 19.3548 14.9552ZM15.4839 2.16129C15.4839 1.948 15.6577 1.77419 15.871 1.77419C16.0843 1.77419 16.2581 1.948 16.2581 2.16129V3.70968C16.2581 3.92297 16.0843 4.09677 15.871 4.09677C15.6577 4.09677 15.4839 3.92297 15.4839 3.70968V2.16129ZM12.3871 2.16129C12.3871 1.948 12.5609 1.77419 12.7742 1.77419C12.9875 1.77419 13.1613 1.948 13.1613 2.16129V3.70968C13.1613 3.92297 12.9875 4.09677 12.7742 4.09677C12.5609 4.09677 12.3871 3.92297 12.3871 3.70968V2.16129ZM9.29032 2.16129C9.29032 1.948 9.46413 1.77419 9.67742 1.77419C9.89071 1.77419 10.0645 1.948 10.0645 2.16129V3.70968C10.0645 3.92297 9.89071 4.09677 9.67742 4.09677C9.46413 4.09677 9.29032 3.92297 9.29032 3.70968V2.16129ZM6.19355 2.16129C6.19355 1.948 6.36735 1.77419 6.58065 1.77419C6.79394 1.77419 6.96774 1.948 6.96774 2.16129V3.70968C6.96774 3.92297 6.79394 4.09677 6.58065 4.09677C6.36735 4.09677 6.19355 3.92297 6.19355 3.70968V2.16129ZM3.09677 2.16129C3.09677 1.948 3.27058 1.77419 3.48387 1.77419C3.69716 1.77419 3.87097 1.948 3.87097 2.16129V3.70968C3.87097 3.92297 3.69716 4.09677 3.48387 4.09677C3.27058 4.09677 3.09677 3.92297 3.09677 3.70968V2.16129ZM17.0323 14.9355H14.7097V12.6129H17.0323V14.9355ZM17.0323 11.8387H14.7097V9.51613H17.0323V11.8387ZM17.0323 8.74194H14.7097V6.41935H17.0323V8.74194ZM18.5806 14.9552C18.3163 14.9754 18.0581 15.0164 17.8065 15.0764V5.64516H10.8387V8.74194H1.54839V18.8065H8.51613V15.7097H16.2979C14.9849 16.5361 14.0803 17.949 13.9552 19.5806H0.774194V3.32258H2.32258V3.70968C2.32258 4.34994 2.84361 4.87097 3.48387 4.87097C4.12413 4.87097 4.64516 4.34994 4.64516 3.70968V3.32258H5.41935V3.70968C5.41935 4.34994 5.94039 4.87097 6.58065 4.87097C7.2209 4.87097 7.74194 4.34994 7.74194 3.70968V3.32258H8.51613V3.70968C8.51613 4.34994 9.03716 4.87097 9.67742 4.87097C10.3177 4.87097 10.8387 4.34994 10.8387 3.70968V3.32258H11.6129V3.70968C11.6129 4.34994 12.1339 4.87097 12.7742 4.87097C13.4145 4.87097 13.9355 4.34994 13.9355 3.70968V3.32258H14.7097V3.70968C14.7097 4.34994 15.2307 4.87097 15.871 4.87097C16.5112 4.87097 17.0323 4.34994 17.0323 3.70968V3.32258H18.5806V14.9552ZM11.6129 11.8387V9.51613H13.9355V11.8387H11.6129ZM13.9355 12.6129V14.9355H11.6129V12.6129H13.9355ZM11.6129 8.74194V6.41935H13.9355V8.74194H11.6129ZM8.51613 11.8387V9.51613H10.8387V11.8387H8.51613ZM10.8387 12.6129V14.9355H8.51613V12.6129H10.8387ZM5.41935 14.9355V12.6129H7.74194V14.9355H5.41935ZM7.74194 15.7097V18.0323H5.41935V15.7097H7.74194ZM5.41935 11.8387V9.51613H7.74194V11.8387H5.41935ZM2.32258 14.9355V12.6129H4.64516V14.9355H2.32258ZM4.64516 15.7097V18.0323H2.32258V15.7097H4.64516ZM2.32258 11.8387V9.51613H4.64516V11.8387H2.32258Z" fill="#8DA1B5" stroke="#8DA1B5" stroke-width="0.25"/>
</g>
<defs>
<clipPath id="clip0">
<rect width="25" height="25" fill="white"/>
</clipPath>
</defs>
</svg>
