<svg width="25" height="25" viewBox="0 0 25 25" fill="none" xmlns="http://www.w3.org/2000/svg">
<g clip-path="url(#clip0)">
<path d="M9.61969 4.83304C9.41744 4.83304 9.25348 4.997 9.25348 5.19925V5.77889C9.25348 5.98113 9.41744 6.1451 9.61969 6.1451C9.82193 6.1451 9.9859 5.98113 9.9859 5.77889V5.19925C9.9859 4.997 9.82193 4.83304 9.61969 4.83304Z" fill="#8DA1B5"/>
<path d="M16.0251 4.83304C15.8229 4.83304 15.6589 4.997 15.6589 5.19925V5.77889C15.6589 5.98113 15.8229 6.1451 16.0251 6.1451C16.2274 6.1451 16.3913 5.98113 16.3913 5.77889V5.19925C16.3913 4.997 16.2274 4.83304 16.0251 4.83304Z" fill="#8DA1B5"/>
<path d="M14.0347 5.5019C13.8825 5.36874 13.6511 5.38427 13.518 5.53656C13.3488 5.73007 13.0953 5.84105 12.8224 5.84105C12.5496 5.84105 12.2961 5.73007 12.1269 5.53656C11.9938 5.38422 11.7624 5.36869 11.6102 5.50185C11.4579 5.63495 11.4423 5.8663 11.5754 6.01859C11.8837 6.37122 12.3382 6.57352 12.8224 6.57352C13.3066 6.57352 13.7611 6.37127 14.0694 6.01864C14.2025 5.86635 14.187 5.635 14.0347 5.5019Z" fill="#8DA1B5"/>
<path d="M24.6731 9.26487C24.3886 8.90882 23.964 8.70462 23.5082 8.70462H21.1377V3.55458C21.1377 2.55341 20.3232 1.73886 19.322 1.73886H6.32262C5.32145 1.73886 4.50691 2.55341 4.50691 3.55458V8.35594H1.40755C0.97742 8.35594 0.576737 8.54861 0.308232 8.88465C0.0397264 9.22068 -0.0598828 9.65393 0.0349413 10.0735L2.67258 21.7392C2.87517 22.6353 3.65832 23.2611 4.57707 23.2611C4.57707 23.2611 22.8558 23.2611 22.8591 23.2611C22.9425 23.2624 23.0259 23.2301 23.0906 23.1764C23.1539 23.1238 23.2213 23.0318 23.2213 22.9458L24.532 13.6035C24.5601 13.4032 24.4205 13.218 24.2202 13.19C24.0199 13.1617 23.8348 13.3015 23.8067 13.5017L22.7743 20.8609L21.1377 13.623V9.43709H23.5082C23.7402 9.43709 23.9562 9.54099 24.101 9.72215C24.2457 9.9033 24.2994 10.137 24.2483 10.3632C24.2461 10.373 24.0122 12.0368 24.0122 12.0368C23.9841 12.2371 24.1237 12.4223 24.324 12.4504C24.5245 12.4786 24.7095 12.3388 24.7375 12.1386L24.9662 10.5088C25.0607 10.0692 24.9543 9.61668 24.6731 9.26487ZM22.4004 22.5287H4.57707C4.00295 22.5287 3.51355 22.1376 3.38699 21.5777L0.749344 9.91199C0.703885 9.71082 0.751639 9.50301 0.880399 9.34187C1.00916 9.18079 1.2013 9.08836 1.40755 9.08836H6.66672C6.9842 9.08836 7.25485 9.30467 7.32487 9.61433L7.54411 10.584C7.58185 10.751 7.73019 10.8695 7.90128 10.8695H9.82389C10.0261 10.8695 10.1901 10.7055 10.1901 10.5032C10.1901 10.301 10.0261 10.137 9.82389 10.137H8.19396L8.03927 9.45281C7.89323 8.80696 7.32882 8.35589 6.66672 8.35589H5.23937V3.55458C5.23937 2.95727 5.72531 2.47128 6.32267 2.47128H19.322C19.9194 2.47128 20.4054 2.95727 20.4054 3.55458V11.0273C20.4043 11.0257 20.403 11.0242 20.4019 11.0226C20.0262 10.4701 19.3811 10.1371 18.7144 10.1371H11.2888C11.0865 10.1371 10.9226 10.3011 10.9226 10.5033C10.9226 10.7056 11.0865 10.8696 11.2888 10.8696H18.7143C19.3244 10.8696 19.8613 11.2989 19.9957 11.8937L22.4004 22.5287Z" fill="#8DA1B5" stroke="#8DA1B5" stroke-width="0.3"/>
</g>
<defs>
<clipPath id="clip0">
<rect width="25" height="25" fill="white"/>
</clipPath>
</defs>
</svg>
