<svg width="25" height="25" viewBox="0 0 25 25" fill="none" xmlns="http://www.w3.org/2000/svg">
<g clip-path="url(#clip0)">
<path d="M9.83365 5.04712C9.6314 5.04712 9.46744 5.21108 9.46744 5.41333V5.8959C9.46744 6.09815 9.6314 6.26212 9.83365 6.26212C10.0359 6.26212 10.1999 6.09815 10.1999 5.8959V5.41333C10.1999 5.21108 10.0359 5.04712 9.83365 5.04712Z" fill="#8DA1B5"/>
<path d="M15.1663 5.04712C14.9641 5.04712 14.8001 5.21108 14.8001 5.41333V5.8959C14.8001 6.09815 14.9641 6.26212 15.1663 6.26212C15.3686 6.26212 15.5325 6.09815 15.5325 5.8959V5.41333C15.5325 5.21108 15.3686 5.04712 15.1663 5.04712Z" fill="#8DA1B5"/>
<path d="M13.3991 5.58653C13.2469 5.45342 13.0155 5.46895 12.8824 5.62124C12.7902 5.72671 12.6508 5.78721 12.5 5.78721C12.3492 5.78721 12.2098 5.72671 12.1176 5.62124C11.9845 5.46895 11.7531 5.45342 11.6009 5.58653C11.4486 5.71963 11.433 5.95098 11.5662 6.10328C11.7975 6.36788 12.1378 6.51963 12.5 6.51963C12.8622 6.51963 13.2025 6.36788 13.4338 6.10328C13.5669 5.95098 13.5514 5.71968 13.3991 5.58653Z" fill="#8DA1B5"/>
<path d="M24.1876 10.104C23.7118 9.83179 23.0011 9.48677 22.2248 9.31772C22.0612 8.81904 21.8606 8.33706 21.6256 7.87524C22.0557 7.20654 22.3145 6.45928 22.4587 5.92983C22.6103 5.37285 22.4512 4.77349 22.0434 4.36562L20.6343 2.95659C20.2294 2.55171 19.6223 2.39087 19.0702 2.54131C18.5408 2.68545 17.7936 2.94424 17.1248 3.37432C16.663 3.13936 16.1811 2.93887 15.6825 2.77529C15.5136 1.99893 15.1683 1.28828 14.8961 0.812353C14.6094 0.311279 14.0731 0 13.4963 0H11.5036C10.9269 0 10.3905 0.311279 10.1039 0.812402C9.83164 1.28833 9.48662 1.99897 9.31768 2.77529C8.81899 2.93887 8.33701 3.13945 7.8752 3.37441C7.20635 2.94434 6.45918 2.6855 5.92979 2.54136C5.37573 2.39053 4.77153 2.55068 4.36558 2.95664L2.95664 4.36567C2.54878 4.77358 2.3897 5.3729 2.54136 5.92988C2.6855 6.45928 2.94434 7.20654 3.37441 7.87529C3.13945 8.33711 2.93892 8.81909 2.77529 9.31777C1.99893 9.48677 1.28828 9.83179 0.812451 10.104C0.311279 10.3905 0 10.9269 0 11.5037V13.4963C0 14.0731 0.311279 14.6094 0.812402 14.896C1.28833 15.1683 1.99902 15.5133 2.77529 15.6822C2.93887 16.1809 3.13945 16.6629 3.37441 17.1247C2.94434 17.7935 2.6855 18.5407 2.54141 19.0701C2.38975 19.6271 2.54883 20.2265 2.95669 20.6343C2.95669 20.6343 4.36426 22.0419 4.36567 22.0434C4.77031 22.448 5.37822 22.6089 5.92993 22.4586C6.45933 22.3145 7.20654 22.0557 7.87534 21.6256C8.33711 21.8606 8.81914 22.0611 9.31777 22.2248C9.48672 23.001 9.83174 23.7117 10.104 24.1876C10.3906 24.6887 10.9269 25 11.5037 25H13.4963C14.0731 25 14.6095 24.6887 14.8961 24.1876C15.1683 23.7117 15.5133 23.001 15.6823 22.2247C16.181 22.0611 16.663 21.8605 17.1248 21.6256C17.7936 22.0556 18.5408 22.3145 19.0702 22.4586C19.6243 22.6094 20.2284 22.4493 20.6344 22.0433L22.0434 20.6343C22.4512 20.2265 22.6104 19.6271 22.4587 19.0701C22.3145 18.5407 22.0557 17.7934 21.6256 17.1247C21.8606 16.6629 22.0612 16.1809 22.2248 15.6822C23.0011 15.5133 23.7117 15.1683 24.1876 14.896C24.6887 14.6094 25 14.0731 25 13.4963V11.5037C25 10.9269 24.6887 10.3906 24.1876 10.104ZM2.53311 14.8188C2.53672 14.8344 2.53975 14.85 2.54341 14.8654C2.00835 14.7013 1.52383 14.4592 1.17603 14.2603C0.902393 14.1038 0.732422 13.8111 0.732422 13.4963V11.5037C0.732422 11.1889 0.902393 10.8962 1.17603 10.7397C1.52383 10.5408 2.0083 10.2987 2.54341 10.1346C2.53975 10.15 2.53672 10.1655 2.53315 10.181C2.35718 10.9399 2.26797 11.7208 2.26797 12.5C2.26797 13.2774 2.35688 14.0614 2.53311 14.8188ZM19.2625 3.24805C19.5649 3.16572 19.8947 3.25283 20.1164 3.47456L21.5254 4.88359C21.748 5.10615 21.8348 5.43335 21.752 5.73745C21.6467 6.12422 21.4751 6.63823 21.2126 7.13276C20.3723 5.76904 19.231 4.62769 17.8672 3.78735C18.3618 3.5248 18.8758 3.35332 19.2625 3.24805ZM10.7397 1.17607C10.8962 0.902393 11.189 0.732422 11.5037 0.732422H13.4963C13.8111 0.732422 14.1038 0.902393 14.2603 1.17603C14.4592 1.52388 14.7013 2.00835 14.8654 2.54346C14.8503 2.53989 14.8352 2.53691 14.8201 2.5334C14.0596 2.35791 13.2807 2.26797 12.5001 2.26797C11.705 2.26797 10.9082 2.35962 10.1346 2.54346C10.2987 2.0084 10.5407 1.52388 10.7397 1.17607ZM3.248 5.73745C3.16519 5.4333 3.252 5.10615 3.47456 4.88359L4.88354 3.47456C5.10215 3.25591 5.43506 3.16567 5.73745 3.24805C6.12417 3.35337 6.63818 3.5249 7.13272 3.78735C5.76899 4.62769 4.62764 5.76899 3.7873 7.13276C3.5248 6.63818 3.35332 6.12427 3.248 5.73745ZM5.73745 21.752C5.43516 21.8342 5.10518 21.7476 4.88354 21.5254L3.47456 20.1164C3.252 19.8938 3.16523 19.5667 3.24805 19.2625C3.35332 18.8758 3.52485 18.3618 3.7873 17.8672C4.62764 19.231 5.76895 20.3723 7.13272 21.2126C6.63818 21.4751 6.12422 21.6466 5.73745 21.752ZM14.2603 23.824C14.1038 24.0976 13.811 24.2675 13.4963 24.2675H11.5036C11.1889 24.2675 10.8962 24.0976 10.7396 23.8239C10.5407 23.4761 10.2986 22.9916 10.1346 22.4565C10.1499 22.4602 10.1653 22.4632 10.1807 22.4667C10.9398 22.6423 11.7208 22.7319 12.5 22.7319C13.2716 22.7319 14.0618 22.6428 14.8195 22.4667C14.8348 22.4632 14.8501 22.4602 14.8654 22.4565C14.7013 22.9916 14.4592 23.4761 14.2603 23.824ZM21.752 19.2625C21.8348 19.5667 21.7479 19.8939 21.5254 20.1164L20.1164 21.5254C19.8955 21.7464 19.5638 21.834 19.2625 21.752C18.8758 21.6466 18.3618 21.4751 17.8672 21.2126C19.231 20.3723 20.3723 19.231 21.2126 17.8672C21.4751 18.3618 21.6466 18.8757 21.752 19.2625ZM21.9971 12.7186C21.9858 13.2038 21.9373 13.6883 21.8532 14.1661C21.8519 14.1732 21.8507 14.1803 21.8494 14.1874C21.1496 18.0755 18.0757 21.1494 14.1876 21.8494C14.1804 21.8507 14.1731 21.8519 14.1658 21.8532C13.0664 22.0486 11.9331 22.0479 10.8337 21.8532C10.8267 21.852 10.8197 21.8507 10.8127 21.8495C6.92427 21.1496 3.8502 18.0753 3.15049 14.1869C3.05039 13.6305 3.00044 13.0652 3.00044 12.5C3.00044 11.9349 3.05073 11.3694 3.15049 10.8132C3.8502 6.92476 6.92417 3.85059 10.8125 3.15063C10.8197 3.14937 10.8268 3.1481 10.834 3.14683C11.9333 2.95259 13.0661 2.95146 14.1654 3.14673C14.1729 3.14805 14.1804 3.14932 14.1879 3.15068C18.0759 3.85073 21.1496 6.92461 21.8495 10.8126C21.8507 10.8197 21.852 10.8269 21.8532 10.8339C21.9626 11.4554 22.0117 12.0876 21.9971 12.7186ZM24.2676 13.4963C24.2676 13.811 24.0976 14.1038 23.824 14.2603C23.4761 14.4592 22.9916 14.7013 22.4565 14.8654C22.4601 14.8503 22.4631 14.8351 22.4666 14.8199C22.7945 13.4068 22.8186 11.9256 22.5357 10.5027C22.5113 10.3797 22.4855 10.2566 22.4565 10.1346C22.9916 10.2987 23.4762 10.5408 23.824 10.7397C24.0976 10.8962 24.2676 11.189 24.2676 11.5037V13.4963Z" fill="#8DA1B5" stroke="#8DA1B5" stroke-width="0.3"/>
<path d="M12.5 7.95752C9.99526 7.95752 7.95752 9.99526 7.95752 12.5C7.95752 13.3169 8.17769 14.1188 8.59419 14.819C8.69761 14.9928 8.92227 15.0499 9.09614 14.9465C9.26997 14.8431 9.32705 14.6184 9.22363 14.4445C8.87451 13.8576 8.68994 13.1852 8.68994 12.5C8.68994 10.3991 10.3991 8.68994 12.5 8.68994C14.6008 8.68994 16.31 10.3991 16.31 12.5C16.31 14.6009 14.6008 16.3101 12.5 16.3101C11.6283 16.3101 10.7759 16.0076 10.0999 15.4584C9.94282 15.3309 9.71226 15.3547 9.58472 15.5117C9.45718 15.6687 9.48105 15.8993 9.63804 16.0269C10.4442 16.6818 11.4606 17.0425 12.5 17.0425C15.0047 17.0425 17.0424 15.0047 17.0424 12.5C17.0424 9.99526 15.0047 7.95752 12.5 7.95752Z" fill="#8DA1B5" stroke="#8DA1B5" stroke-width="0.4"/>
</g>
<defs>
<clipPath id="clip0">
<rect width="25" height="25" fill="white"/>
</clipPath>
</defs>
</svg>
