<svg width="220" height="320" viewBox="0 0 262 346" fill="none" xmlns="http://www.w3.org/2000/svg">
<path d="M63.8349 0.0197754H129.879V68.854H63.8349V0.0197754Z" fill="#E0E0E0"/>
<path d="M68.3034 0.019989H134.347V68.8542H68.3034V0.019989Z" fill="#FAFAFA"/>
<path d="M68.284 68.8738H134.377V0H68.284V68.8738ZM134.328 68.8738H68.3334V0.0395438H134.328V68.8738Z" fill="#E0E0E0"/>
<path d="M77.1822 9.2728H125.469V59.601H77.1822V9.2728Z" fill="white"/>
<path d="M125.469 59.9371C125.816 60.4413 126.217 60.9055 126.666 61.3211C127.437 62.1317 128.524 63.2389 129.731 64.4351C130.937 65.6312 132.064 66.6989 132.894 67.4502C133.31 67.8882 133.778 68.2734 134.288 68.597C133.946 68.0928 133.548 67.6286 133.102 67.213C132.331 66.4023 131.243 65.2951 130.027 64.099C128.811 62.9028 127.684 61.8253 126.863 61.0739C126.45 60.636 125.981 60.2538 125.469 59.9371Z" fill="#E0E0E0"/>
<path d="M77.1821 59.8086C76.6826 60.1609 76.2189 60.5615 75.798 61.0047C74.9873 61.7758 73.8898 62.8633 72.6935 64.0693C71.4972 65.2754 70.4294 66.4023 69.6682 67.2327C69.224 67.6455 68.8352 68.114 68.5114 68.6266C69.0135 68.2853 69.4746 67.8872 69.8857 67.4403C70.6964 66.6693 71.8037 65.5818 73 64.3659C74.1963 63.1499 75.274 62.023 76.0254 61.2025C76.4704 60.7905 76.8593 60.3219 77.1821 59.8086Z" fill="#E0E0E0"/>
<path d="M77.3206 9.40131C76.9721 8.89877 76.5711 8.43481 76.1243 8.01731C75.3531 7.20668 74.2754 6.10937 73.0594 4.9132C71.8433 3.71703 70.7261 2.64936 69.9055 1.88816C69.4876 1.44947 69.0197 1.06128 68.5114 0.731537C68.8522 1.23993 69.2577 1.70184 69.7176 2.10565C70.4888 2.92616 71.5763 4.02348 72.8023 5.22954C74.0283 6.4356 75.1356 7.49337 75.9562 8.25457C76.3629 8.69056 76.8211 9.07562 77.3206 9.40131Z" fill="#E0E0E0"/>
<path d="M125.608 9.52983C126.115 9.17211 126.579 8.7575 126.992 8.29411C127.803 7.52303 128.91 6.44548 130.106 5.22954C131.303 4.0136 132.37 2.89651 133.122 2.076C133.564 1.65885 133.956 1.191 134.288 0.682114C133.779 1.01854 133.315 1.41703 132.904 1.8684C132.093 2.63948 130.986 3.72691 129.79 4.94285C128.594 6.1588 127.516 7.27589 126.764 8.0964C126.319 8.52299 125.931 9.0047 125.608 9.52983Z" fill="#E0E0E0"/>
<path d="M77.3206 59.601C77.3206 59.601 77.3206 59.512 77.3206 59.3538C77.3206 59.1957 77.3206 58.9584 77.3206 58.652C77.3206 58.0193 77.3206 57.1197 77.3206 55.9334C77.3206 53.5509 77.3206 50.081 77.3206 45.6819C77.3206 36.8638 77.3799 24.309 77.4195 9.2728L77.2316 9.46063H125.38L125.173 9.24314C125.173 27.7195 125.173 44.9998 125.173 59.5713L125.351 59.3934L90.4898 59.4823L80.692 59.5318H78.1016H80.6623L90.4799 59.6998L125.459 59.7987H125.647V59.6109C125.647 45.0393 125.647 27.7591 125.647 9.28269V9.0652H125.43H77.281H77.0932V9.28269C77.0932 24.3683 77.1624 36.9627 77.1921 45.8598C77.1921 50.2491 77.1921 53.6992 77.1921 56.0718C77.1921 57.2383 77.1921 58.128 77.1921 58.7508C77.1921 59.0474 77.1921 59.2747 77.1921 59.4329C77.2269 59.4946 77.2701 59.5512 77.3206 59.601Z" fill="#E0E0E0"/>
<path d="M93.2678 26.385H109.383V42.4987H93.2678V26.385Z" fill="#EBEBEB"/>
<path d="M12.8529 345.533C12.8529 345.784 62.8764 346 124.567 346C186.258 346 236.294 345.784 236.294 345.533C236.294 345.281 186.284 345.011 124.574 345.011C62.863 345.011 12.8529 345.281 12.8529 345.533Z" fill="#263238"/>
<path d="M238.272 197.477C237.827 203.28 231.549 220.343 231.549 220.343L228.751 293.606L228.296 337.617L210.678 335.818L206.723 275.97L204.143 193.661L238.272 197.477Z" fill="#FFBE9D"/>
<path d="M210.589 334.078C210.589 334.078 189.886 341.581 189.678 345.298L228.612 345.14V334.958L227.179 335.294C221.658 336.639 215.854 336.213 210.589 334.078Z" fill="#263238"/>
<path d="M190.34 344.221C190.34 344.339 198.892 344.428 209.442 344.428C219.991 344.428 228.543 344.339 228.543 344.221C228.543 344.102 219.991 344.003 209.442 344.003C198.892 344.003 190.34 344.102 190.34 344.221Z" fill="#455A64"/>
<path d="M250.057 197.378C249.612 203.181 243.334 220.244 243.334 220.244L240.575 293.536L240.12 337.558L222.453 335.758L218.498 275.91L215.918 193.602L250.057 197.378Z" fill="#FFBE9D"/>
<path d="M222.215 334.137C222.215 334.137 202.383 341.581 202.175 345.249L240.555 345.1V335.057L239.142 335.393C233.503 336.705 227.599 336.267 222.215 334.137Z" fill="#263238"/>
<path d="M202.867 344.151C202.867 344.27 211.291 344.369 221.652 344.369C232.013 344.369 240.437 344.27 240.437 344.151C240.437 344.033 232.013 343.944 221.652 343.944C211.291 343.944 202.867 344.023 202.867 344.151Z" fill="#455A64"/>
<path d="M202.175 345.219C202.78 344.272 203.479 343.387 204.261 342.58C206.259 340.738 208.639 339.36 211.231 338.546C214.276 337.498 216.946 336.371 218.884 335.58C219.872 335.165 220.624 334.819 221.158 334.592C221.444 334.48 221.716 334.334 221.968 334.157C221.667 334.22 221.372 334.313 221.088 334.434L218.765 335.323C216.788 336.075 214.118 337.152 211.093 338.19C208.443 339.021 206.03 340.471 204.053 342.421C203.469 343.012 202.963 343.677 202.551 344.399C202.384 344.651 202.258 344.928 202.175 345.219Z" fill="#455A64"/>
<path d="M221.968 322.403C221.766 324.35 221.736 326.312 221.879 328.265C221.856 330.221 222.002 332.176 222.314 334.107C222.516 332.16 222.542 330.198 222.393 328.245C222.422 326.289 222.28 324.334 221.968 322.403Z" fill="#EB996E"/>
<path d="M216.392 51.3168C215.829 52.8095 214.049 53.4619 212.437 53.5015C210.826 53.541 209.234 53.1753 207.662 53.4323C206.851 53.5993 206.082 53.925 205.397 54.3906C204.713 54.8562 204.127 55.4525 203.674 56.1453C203.221 56.8381 202.91 57.6136 202.757 58.4272C202.605 59.2408 202.616 60.0765 202.788 60.8861C200.607 61.0997 198.582 62.11 197.101 63.7237C195.619 65.3374 194.785 67.441 194.758 69.6315C194.731 71.822 195.513 73.9454 196.955 75.5951C198.396 77.2447 200.396 78.3046 202.57 78.5717C206.841 78.799 210.678 75.9322 213.446 72.6897C218.293 67.0093 221.147 59.8986 221.573 52.4437" fill="#263238"/>
<path d="M231.479 13.3358C231.104 9.10475 224.756 6.55423 221.039 8.08652C219.319 8.79829 217.816 10.0637 215.997 10.4591C214.178 10.8545 211.963 10.123 210.065 10.8051C208.166 11.4872 207.099 13.1579 206.357 14.9274C205.715 16.7423 204.938 18.5068 204.034 20.2064C202.837 22.0748 201.008 23.4489 199.921 25.3865C199.244 26.6268 198.89 28.017 198.89 29.4298C198.89 30.8426 199.244 32.2328 199.921 33.473C201.295 35.9049 203.876 37.5163 204.785 40.1854C205.863 43.3785 204.251 47.3822 206.209 50.0711C207.111 51.0467 208.13 51.9067 209.244 52.6316C210.371 53.6825 211.424 54.8088 212.398 56.0026C213.373 57.1894 214.704 58.0316 216.195 58.4048C216.946 58.5568 217.727 58.4427 218.403 58.0819C219.08 57.7212 219.61 57.1363 219.902 56.4277" fill="#263238"/>
<path d="M237.224 20.0186C238.096 20.1124 238.903 20.5298 239.483 21.1886C240.063 21.8475 240.375 22.6998 240.358 23.5774L238.272 70.8905C238.183 76.4759 230.016 79.6096 224.035 79.4713C217.994 79.3328 217.796 76.3671 217.727 71.0585C217.598 62.1614 217.608 58.8398 217.608 58.8892C217.608 58.9386 209.976 57.6041 208.413 47.6393C207.642 42.6964 207.909 34.5703 208.334 27.9271C208.73 21.9957 212.704 14.6308 218.656 15.2734L237.224 20.0186Z" fill="#FFBE9D"/>
<path d="M210.717 34.7285C210.714 35.0617 210.842 35.3827 211.073 35.6229C211.304 35.8631 211.62 36.0033 211.953 36.0137C212.115 36.0271 212.278 36.0079 212.433 35.9572C212.587 35.9064 212.73 35.8252 212.853 35.7183C212.975 35.6113 213.075 35.4809 213.147 35.3346C213.218 35.1884 213.259 35.0294 213.268 34.8669C213.273 34.5337 213.148 34.2116 212.919 33.9695C212.69 33.7275 212.375 33.5848 212.042 33.5719C211.878 33.5584 211.714 33.5779 211.558 33.6291C211.402 33.6804 211.259 33.7624 211.135 33.8702C211.011 33.9781 210.911 34.1096 210.839 34.257C210.767 34.4044 210.726 34.5648 210.717 34.7285Z" fill="#263238"/>
<path d="M210.084 32.1582C210.243 32.3263 211.212 31.6145 212.586 31.6244C213.96 31.6343 214.959 32.3164 215.117 32.1484C215.275 31.9803 215.028 31.7727 214.583 31.4564C214.005 31.0469 213.314 30.8259 212.606 30.8237C211.897 30.8227 211.205 31.0439 210.628 31.4564C210.144 31.7826 210.005 32.089 210.084 32.1582Z" fill="#263238"/>
<path d="M223.56 34.8472C223.557 35.1803 223.685 35.5014 223.916 35.7415C224.147 35.9817 224.463 36.122 224.796 36.1323C224.958 36.1458 225.121 36.1266 225.276 36.0758C225.43 36.0251 225.573 35.9438 225.696 35.8369C225.819 35.73 225.918 35.5995 225.99 35.4533C226.061 35.3071 226.102 35.148 226.111 34.9856C226.116 34.6533 225.991 34.3323 225.761 34.0918C225.532 33.8513 225.217 33.7107 224.885 33.7004C224.722 33.6869 224.559 33.7061 224.403 33.7567C224.248 33.8073 224.105 33.8885 223.981 33.9953C223.858 34.1021 223.757 34.2324 223.685 34.3787C223.613 34.525 223.57 34.6843 223.56 34.8472Z" fill="#263238"/>
<path d="M223.59 32.4449C223.748 32.613 224.717 31.9012 226.091 31.9012C227.465 31.9012 228.474 32.6031 228.622 32.435C228.77 32.267 228.543 32.0594 228.098 31.743C227.519 31.3353 226.829 31.1145 226.121 31.1103C225.412 31.1087 224.72 31.33 224.143 31.743C223.659 32.0693 223.511 32.3757 223.59 32.4449Z" fill="#263238"/>
<path d="M218.577 42.6272C217.856 42.3974 217.108 42.2612 216.353 42.2219C215.997 42.2219 215.67 42.1131 215.611 41.8759C215.575 41.5133 215.658 41.1488 215.848 40.8379L216.886 38.1589C217.854 35.8984 218.641 33.5646 219.24 31.1795C219.081 31.1202 217.786 34.1453 216.333 37.9611C215.987 38.9003 215.651 39.79 215.344 40.6402C215.115 41.0633 215.048 41.5553 215.156 42.0242C215.206 42.1481 215.284 42.259 215.383 42.3481C215.482 42.4373 215.601 42.5023 215.73 42.5382C215.926 42.5906 216.129 42.6172 216.333 42.6173C217.077 42.7162 217.832 42.7195 218.577 42.6272Z" fill="#263238"/>
<path d="M217.598 58.8892C222.288 58.9691 226.908 57.7475 230.946 55.36C230.946 55.36 227.564 62.3887 217.598 61.4298V58.8892Z" fill="#EB996E"/>
<path d="M219.15 45.9389C219.413 45.6106 219.755 45.3548 220.145 45.1956C220.534 45.0365 220.957 44.9793 221.375 45.0294C221.679 45.056 221.974 45.1442 222.243 45.2887C222.511 45.4332 222.748 45.6309 222.937 45.8697C223.121 46.099 223.231 46.3795 223.25 46.6731C223.27 46.9667 223.198 47.2591 223.046 47.5107C222.822 47.755 222.53 47.9276 222.209 48.0068C221.887 48.0859 221.548 48.0681 221.237 47.9556C220.591 47.7231 219.996 47.3672 219.487 46.9077C219.333 46.7955 219.2 46.6585 219.091 46.5024C219.041 46.4262 219.014 46.3368 219.014 46.2454C219.014 46.1539 219.041 46.0645 219.091 45.9883" fill="#EB996E"/>
<path d="M222.621 43.5861C222.403 43.5861 222.393 45.069 221.118 46.1267C219.843 47.1845 218.251 47.0066 218.231 47.2241C218.211 47.4415 218.587 47.5107 219.22 47.5305C220.093 47.5421 220.943 47.2484 221.622 46.7001C222.272 46.1682 222.693 45.4075 222.799 44.5747C222.888 43.9519 222.73 43.5762 222.621 43.5861Z" fill="#263238"/>
<path d="M222.977 30.0427C223.115 30.4085 224.489 30.2404 226.101 30.4381C227.713 30.6358 229.067 31.0807 229.225 30.7446C229.324 30.5864 229.097 30.2305 228.573 29.8647C227.872 29.4231 227.08 29.1457 226.256 29.0533C225.433 28.9608 224.599 29.0557 223.817 29.3309C223.224 29.5682 222.917 29.8647 222.977 30.0427Z" fill="#263238"/>
<path d="M210.589 29.6571C210.826 29.9636 211.775 29.6571 212.912 29.6571C214.049 29.6571 215.018 29.8648 215.235 29.5385C215.334 29.3804 215.186 29.0739 214.761 28.7773C214.201 28.4109 213.541 28.2278 212.873 28.2534C212.204 28.2675 211.556 28.4847 211.014 28.8762C210.589 29.1826 210.49 29.499 210.589 29.6571Z" fill="#263238"/>
<path d="M231.756 14.532C231.761 15.533 231.545 16.5228 231.124 17.4308C230.702 18.3388 230.086 19.1429 229.319 19.7856C228.551 20.4284 227.651 20.8942 226.683 21.1497C225.715 21.4053 224.703 21.4443 223.718 21.2642C222.196 20.9874 220.535 20.2163 219.21 21.0269C217.885 21.8376 217.766 23.9926 216.541 24.9812C214.791 26.5036 211.993 25.0801 209.768 25.7424C208.048 26.2466 206.97 27.8975 205.813 29.2815C204.657 30.6655 202.956 31.9803 201.236 31.4662C201.288 29.9163 201.517 28.3774 201.918 26.8793C202.335 25.369 203.256 24.0469 204.528 23.1326C205.286 22.7448 206.022 22.3158 206.733 21.8474C208.157 20.7007 208.493 18.6939 209.373 17.0825C209.951 16.0459 210.769 15.1625 211.757 14.5056C212.746 13.8488 213.878 13.4376 215.058 13.3062C217.035 13.1085 219.012 13.6917 220.99 13.2172C222.403 12.8613 223.639 11.942 225.063 11.6652C227.851 11.1412 230.441 13.1381 232.458 15.1252" fill="#263238"/>
<path d="M236.818 36.1125C237.041 36.2182 237.222 36.3949 237.332 36.6148C237.443 36.8347 237.477 37.0853 237.429 37.3268C237.382 37.5683 237.255 37.7871 237.069 37.9486C236.883 38.11 236.649 38.2049 236.403 38.2182C233.051 38.9794 232.616 32.4449 233.358 30.5765C232.097 29.5418 230.968 28.3566 229.996 27.0473C228.928 24.9534 228.401 22.6254 228.464 20.2756C227.258 20.3547 222.117 18.6544 222.66 18.4962C223.916 18.1403 226.467 17.3297 227.139 16.2521C227.809 15.0871 228.776 14.1202 229.942 13.45C231.107 12.7798 232.429 12.43 233.773 12.4362C235.126 12.5379 236.409 13.0742 237.432 13.965C238.455 14.8558 239.162 16.0534 239.448 17.3791C241.077 17.438 242.66 17.9344 244.031 18.8164C245.402 19.6983 246.51 20.9331 247.239 22.3911C247.987 23.9204 248.351 25.6086 248.301 27.3101C248.251 29.0116 247.788 30.6754 246.952 32.1582C246.42 32.8633 246.079 33.6944 245.964 34.5704C245.964 35.6776 246.774 36.5475 247.348 37.4669C248.077 38.7861 248.48 40.261 248.521 41.7679C248.562 43.2748 248.241 44.7696 247.585 46.1268C246.369 48.8453 245.509 49.8042 243.769 50.3479C240.378 51.4156 244.312 58.4147 238.667 58.4147" fill="#263238"/>
<path d="M231.104 16.8749C231.57 17.1135 231.978 17.4509 232.3 17.8635C232.988 19.1317 233.148 20.6202 232.745 22.0056V22.1638H232.893C233.756 22.3981 234.553 22.8275 235.223 23.4189C235.894 24.0102 236.419 24.7477 236.759 25.5743C236.946 26.0404 237.05 26.5356 237.066 27.0374C237.049 27.5692 236.987 28.0984 236.878 28.6191C236.759 29.1827 236.683 29.7544 236.65 30.3294C236.61 30.9553 236.777 31.5772 237.125 32.0989C237.905 33.086 238.927 33.8554 240.091 34.3331C241.116 34.7828 242.058 35.401 242.879 36.1619C244.236 37.4915 245.038 39.2862 245.123 41.1839C245.16 42.4651 244.889 43.7363 244.332 44.891C243.927 45.7116 243.591 46.107 243.63 46.1268C243.67 46.1465 243.729 46.0477 243.887 45.8598C244.105 45.5794 244.301 45.2819 244.471 44.9701C245.13 43.8144 245.471 42.5045 245.459 41.174C245.415 39.185 244.604 37.29 243.195 35.8851C242.35 35.0895 241.378 34.4413 240.318 33.9673C239.221 33.5158 238.255 32.795 237.51 31.8716C236.848 30.9621 237.145 29.7659 237.323 28.6982C237.431 28.1477 237.491 27.5886 237.501 27.0275C237.478 26.4778 237.361 25.936 237.155 25.4261C236.787 24.5491 236.219 23.7704 235.496 23.1524C234.773 22.5344 233.916 22.0943 232.992 21.8672L233.111 22.055C233.305 21.3296 233.352 20.5727 233.248 19.829C233.144 19.0852 232.893 18.3698 232.508 17.7251C232.247 17.3928 231.907 17.1311 231.519 16.9639C231.386 16.9142 231.246 16.8842 231.104 16.8749Z" fill="#455A64"/>
<path d="M236.868 38.8509C236.885 38.3602 237.027 37.8819 237.279 37.4608C237.532 37.0397 237.887 36.6894 238.312 36.4426C238.736 36.1958 239.216 36.0606 239.707 36.0495C240.198 36.0385 240.684 36.152 241.119 36.3794C242.108 36.9627 242.899 38.1391 242.8 40.3337C242.562 46.3343 236.581 44.8515 236.581 44.6735C236.581 44.4956 236.739 41.3322 236.868 38.8509Z" fill="#FFBE9D"/>
<path d="M238.509 42.5086C238.509 42.5086 238.608 42.5877 238.786 42.6766C239.031 42.7876 239.309 42.8052 239.567 42.7261C239.963 42.4949 240.291 42.1626 240.517 41.7631C240.743 41.3635 240.858 40.9112 240.852 40.4524C240.891 39.9375 240.813 39.4205 240.625 38.9398C240.576 38.751 240.482 38.5768 240.351 38.4322C240.22 38.2875 240.056 38.1768 239.873 38.1094C239.754 38.0736 239.627 38.0795 239.511 38.1262C239.396 38.173 239.301 38.2578 239.24 38.3665C239.151 38.5345 239.24 38.6532 239.161 38.663C239.082 38.6729 239.033 38.5543 239.092 38.317C239.132 38.1714 239.219 38.0429 239.339 37.9513C239.422 37.89 239.517 37.8469 239.617 37.8248C239.718 37.8026 239.822 37.8019 239.923 37.8228C240.17 37.8816 240.397 38.0037 240.582 38.177C240.768 38.3504 240.905 38.5689 240.981 38.8113C241.205 39.3552 241.293 39.9457 241.238 40.5314C241.243 41.0665 241.091 41.5914 240.801 42.0411C240.511 42.4909 240.096 42.8459 239.606 43.0622C239.437 43.1101 239.259 43.1163 239.086 43.0801C238.914 43.044 238.753 42.9666 238.618 42.8546C238.509 42.6766 238.489 42.5086 238.509 42.5086Z" fill="#EB996E"/>
<path d="M252.014 161.018C255.456 174.075 255.956 187.733 253.477 201.006C247.002 233.155 244.708 323.826 244.708 323.826L239.972 321.533C236.838 320.327 235.632 320.88 233.249 321.325C228.573 322.729 224.42 323.688 220.179 321.968L219.309 321.612C218.069 320.773 216.658 320.224 215.178 320.003C213.698 319.782 212.187 319.896 210.757 320.337C207.922 321.22 204.868 321.094 202.116 319.981C200.609 319.38 198.95 319.276 197.38 319.684L196.856 319.823L193.89 173.563L252.014 161.018Z" fill="#263238"/>
<path d="M216.521 240.579C216.506 240.826 216.506 241.073 216.521 241.32C216.521 241.854 216.521 242.556 216.471 243.436C216.471 245.344 216.402 247.993 216.353 251.245C216.264 257.889 216.135 266.974 215.997 276.998C215.858 287.022 215.789 296.176 215.799 302.77C215.799 306.062 215.799 308.701 215.858 310.58C215.858 311.459 215.858 312.161 215.918 312.695C215.912 312.944 215.932 313.192 215.977 313.436C215.994 313.19 215.994 312.942 215.977 312.695C215.977 312.161 215.977 311.459 215.977 310.58C215.977 308.672 216.036 306.022 216.086 302.77C216.175 296.127 216.293 287.042 216.432 277.008C216.57 266.974 216.639 257.839 216.639 251.245C216.639 247.993 216.639 245.314 216.639 243.436C216.639 242.556 216.639 241.854 216.639 241.32C216.626 241.069 216.586 240.821 216.521 240.579Z" fill="#455A64"/>
<path d="M213.209 199.691C213.338 200.083 213.514 200.458 213.733 200.809L214.217 202.163C214.365 202.707 214.534 203.319 214.702 204.002C215.421 207.626 215.887 211.296 216.096 214.985C216.392 219.315 216.501 223.239 216.55 226.076C216.55 227.421 216.55 228.548 216.61 229.447C216.592 229.86 216.612 230.274 216.669 230.683C216.766 230.279 216.813 229.863 216.808 229.447C216.857 228.657 216.896 227.47 216.916 226.076C216.916 223.229 216.916 219.295 216.61 214.955C216.409 211.24 215.889 207.549 215.058 203.923C214.87 203.231 214.662 202.608 214.494 202.074L213.921 200.72C213.719 200.353 213.481 200.009 213.209 199.691Z" fill="#455A64"/>
<path d="M216.916 287.674C216.916 287.674 216.916 287.813 217.025 288.06L217.351 289.147C217.517 289.723 217.718 290.287 217.954 290.838C218.221 291.49 218.488 292.251 218.943 293.032C219.351 293.908 219.803 294.763 220.297 295.593C220.792 296.502 221.434 297.412 222.087 298.381C223.573 300.437 225.255 302.344 227.109 304.075C228.995 305.776 231.038 307.295 233.21 308.612C234.198 309.176 235.187 309.739 236.176 310.154C237.041 310.577 237.929 310.954 238.835 311.281C239.576 311.571 240.332 311.821 241.099 312.033C241.669 312.222 242.25 312.374 242.839 312.487L243.956 312.735L244.342 312.804C244.219 312.76 244.094 312.724 243.966 312.695L242.859 312.418C242.384 312.3 241.801 312.151 241.139 311.924C240.377 311.706 239.627 311.445 238.894 311.143C237.996 310.809 237.115 310.43 236.255 310.006C235.266 309.581 234.356 309.018 233.338 308.444C228.989 305.848 225.219 302.386 222.265 298.272C221.612 297.283 220.97 296.413 220.475 295.504C219.974 294.686 219.519 293.841 219.111 292.973C218.745 292.265 218.415 291.539 218.122 290.798C217.878 290.251 217.667 289.69 217.49 289.118C217.351 288.702 217.223 288.347 217.124 288.05C217.025 287.753 216.916 287.674 216.916 287.674Z" fill="white"/>
<path d="M195.491 259.194C195.584 259.615 195.7 260.031 195.838 260.439C196.227 261.559 196.731 262.635 197.34 263.652C198.823 266.262 201.671 269.317 205.092 272.322C208.095 274.779 210.839 277.538 213.278 280.557C213.982 281.494 214.61 282.485 215.156 283.522C215.354 283.888 215.473 284.195 215.572 284.382C215.618 284.484 215.671 284.584 215.73 284.679C215.582 284.275 215.414 283.879 215.226 283.493C214.707 282.429 214.095 281.413 213.396 280.458C211.676 277.996 208.651 275.149 205.23 272.154C202.233 269.686 199.615 266.792 197.459 263.563C196.846 262.563 196.33 261.507 195.917 260.409C195.758 260.024 195.679 259.708 195.6 259.5L195.491 259.194Z" fill="white"/>
<path d="M218.202 228.488L218.478 228.805C218.666 229.022 218.973 229.309 219.309 229.724C220.298 230.864 221.2 232.077 222.008 233.352C222.997 234.954 224.163 236.941 225.409 239.145C226.72 241.576 228.234 243.891 229.937 246.065C233.139 249.943 237.201 253.019 241.801 255.051C243.185 255.668 244.613 256.18 246.072 256.584C247.111 256.861 247.694 256.969 247.694 256.969L247.279 256.841C247.012 256.762 246.606 256.663 246.092 256.505C244.649 256.07 243.235 255.541 241.861 254.923C237.308 252.859 233.287 249.782 230.105 245.927C228.409 243.775 226.897 241.483 225.587 239.076C224.331 236.872 223.204 234.894 222.136 233.293C221.316 232.018 220.394 230.811 219.378 229.685C219.007 229.265 218.615 228.866 218.202 228.488Z" fill="white"/>
<path d="M195.759 201.669C195.834 202.087 195.936 202.499 196.065 202.904C196.396 204.009 196.844 205.077 197.4 206.087C199.343 209.364 201.815 212.297 204.716 214.767C207.599 217.218 210.315 219.86 212.843 222.676C213.582 223.556 214.262 224.484 214.88 225.454C215.097 225.79 215.245 226.066 215.364 226.254C215.483 226.442 215.532 226.531 215.542 226.521C214.841 225.106 213.975 223.779 212.962 222.567C210.462 219.706 207.752 217.036 204.854 214.579C201.969 212.118 199.496 209.211 197.528 205.969C196.965 204.971 196.498 203.922 196.134 202.835C195.996 202.459 195.927 202.143 195.857 201.945C195.832 201.851 195.799 201.758 195.759 201.669Z" fill="white"/>
<path d="M223.095 182.688C223.095 182.688 223.58 182.886 224.381 183.37C225.52 184.057 226.564 184.891 227.485 185.851C228.844 187.281 230.122 188.786 231.311 190.359C232.796 192.282 234.486 194.035 236.354 195.589C238.249 197.113 240.32 198.404 242.523 199.434C244.324 200.271 246.201 200.933 248.129 201.412C249.9 201.859 251.719 202.095 253.547 202.113L253.171 202.064L252.093 201.965C250.76 201.823 249.439 201.589 248.139 201.263C243.866 200.212 239.876 198.234 236.452 195.47C234.6 193.922 232.916 192.183 231.43 190.28C230.226 188.711 228.935 187.209 227.564 185.782C226.623 184.827 225.555 184.006 224.39 183.34C224.075 183.154 223.744 182.996 223.402 182.866L223.095 182.688Z" fill="white"/>
<path d="M211.103 69.6053C207.583 70.6631 203.361 73.7771 201.908 76.466L186.702 110.483L176.519 101.586L172.742 101.309C172.742 101.309 179.03 128.247 180.513 131.757C180.88 132.982 181.562 134.09 182.49 134.97C183.798 135.961 185.312 136.648 186.92 136.979C188.528 137.31 190.189 137.277 191.783 136.883C193.376 136.489 194.861 135.743 196.129 134.7C197.397 133.658 198.416 132.345 199.11 130.857L205.645 116.958L211.103 69.6053Z" fill="#AFB252"/>
<path d="M238.894 58.9386L217.381 61.5188L217.598 69.2593L194.473 98.1948L201.077 137.698L219.625 130.897L241.831 92.9653L240.486 65.0579L238.894 58.9386Z" fill="#263238"/>
<path d="M212.25 78.8089C212.144 78.9796 212.051 79.158 211.973 79.3427C211.761 79.852 211.618 80.3872 211.548 80.9343C211.384 82.7508 211.666 84.5797 212.368 86.2627C213.139 88.2399 214.019 89.9402 214.484 91.2056C214.681 91.7108 214.853 92.2255 214.998 92.7478C215.042 92.9465 215.102 93.1415 215.176 93.331C215.181 93.2784 215.181 93.2255 215.176 93.1729C215.162 93.0227 215.135 92.874 215.097 92.728C214.978 92.1953 214.826 91.6703 214.642 91.1562C214.207 89.8315 213.347 88.1114 212.586 86.154C211.891 84.4993 211.593 82.705 211.716 80.9146C211.804 80.193 211.984 79.4855 212.25 78.8089Z" fill="white"/>
<path d="M221.464 61.2321C221.481 62.1601 221.59 63.084 221.79 63.9902C221.986 64.9937 222.413 65.938 223.036 66.7483C223.833 67.7158 224.884 68.4417 226.071 68.8441C227.254 69.2306 228.495 69.4112 229.739 69.3779C230.741 69.3521 231.741 69.4788 232.705 69.7536C233.345 69.9381 233.929 70.2777 234.406 70.7422C234.732 71.0882 234.851 71.3353 234.871 71.3254C234.774 71.0921 234.637 70.8779 234.465 70.6927C234.003 70.1785 233.413 69.7963 232.755 69.5855C231.794 69.2895 230.794 69.1461 229.789 69.1605C228.567 69.1811 227.351 68.9974 226.19 68.6167C225.041 68.2379 224.016 67.5546 223.224 66.6396C222.609 65.8563 222.18 64.9437 221.968 63.9705C221.771 63.1401 221.682 62.4481 221.612 61.9933L221.543 61.4397C221.529 61.3665 221.502 61.2964 221.464 61.2321Z" fill="white"/>
<path d="M217.737 61.4002C217.62 62.6884 217.57 63.9819 217.589 65.2754C217.541 66.5673 217.561 67.8608 217.648 69.1506C217.771 67.8627 217.82 66.5689 217.796 65.2754C217.844 63.9835 217.824 62.69 217.737 61.4002Z" fill="white"/>
<path d="M239.952 62.3294L245.617 68.073C245.617 68.073 257.679 73.1543 260.023 78.6507C262.366 84.1472 242.819 132.32 242.819 132.32C242.819 132.32 253.557 157.331 257.65 177.389C257.65 177.389 228.503 186.712 201.028 180.553L202.541 140.832L205.507 118.609C205.507 118.609 206.169 104.294 210.5 98.8374C214.83 93.3805 239.952 62.3294 239.952 62.3294Z" fill="#AFB252"/>
<path d="M217.509 64.9491L217.628 69.2593C217.628 69.2593 202.116 94.2405 201.107 99.3514C198.626 111.896 202.916 132.637 202.916 132.637L201.087 180.553L192.189 177.933L197.617 129.72V120.537C197.617 120.537 190.528 104.087 192.822 95.6641C193.741 92.3128 201.157 80.8355 204.904 74.2417C206.555 71.3551 210.509 69.3779 213.228 69.1506L215.038 68.3894L217.509 64.9491Z" fill="#AFB252"/>
<path d="M204.162 115.277C204.241 115.067 204.307 114.853 204.36 114.635C204.469 114.21 204.637 113.587 204.894 112.796C206.65 107.196 209.741 102.107 213.901 97.9674C216.669 95.1698 220.386 92.8565 223.956 89.9995V89.9501V89.8908C224.549 87.8346 225.132 85.8278 225.686 83.9001L225.458 84.0483L229.868 84.8293H229.967L230.046 84.7502C232.29 82.3875 234.386 80.2028 236.195 78.1861L240.882 72.8973L243.966 69.4471L244.787 68.5278C244.892 68.4293 244.982 68.316 245.054 68.1917C244.939 68.2766 244.833 68.3726 244.738 68.4783L243.868 69.3582C243.116 70.1293 242.038 71.2661 240.704 72.7292L235.938 77.9587C234.119 79.9359 231.984 82.1206 229.759 84.4734L229.937 84.4141L225.528 83.6134H225.34L225.29 83.7913C224.727 85.7684 224.143 87.7456 223.54 89.7821L223.609 89.6733C220.07 92.5204 216.343 94.8435 213.545 97.7005C211.052 100.192 208.948 103.044 207.306 106.163C206.193 108.254 205.304 110.458 204.657 112.737C204.429 113.537 204.281 114.17 204.192 114.605C204.157 114.827 204.147 115.053 204.162 115.277Z" fill="#263238"/>
<path d="M200.554 115.277C200.546 115.094 200.523 114.913 200.484 114.734C200.415 114.338 200.326 113.834 200.227 113.201C199.98 111.817 199.654 109.899 199.239 107.557C198.823 105.214 198.388 102.327 198.062 99.1537C197.973 98.3629 197.914 97.5522 197.864 96.7119C197.8 95.8718 197.82 95.0273 197.924 94.1911C198.141 92.4809 198.497 90.7113 198.863 88.9121C199.318 86.7471 199.852 84.6415 200.287 82.6545L200.138 82.8027L204.864 81.4187L205.052 81.3594L205.003 81.1815C204.746 80.1929 204.488 79.3131 204.251 78.4234L204.202 78.6112C207.089 76.1694 209.234 73.8759 210.796 72.3338L212.576 70.5247C212.799 70.3212 213.001 70.096 213.179 69.8525C212.942 70.0357 212.718 70.2338 212.507 70.4456L210.648 72.1855C209.056 73.6782 206.871 75.9322 203.964 78.3344L203.875 78.4036V78.5222C204.113 79.4021 204.35 80.3214 204.597 81.2803L204.736 81.053L200 82.4073H199.881V82.5259C199.397 84.5031 198.893 86.6186 198.448 88.7935C198.082 90.6026 197.726 92.3721 197.518 94.112C197.413 94.9747 197.397 95.8459 197.469 96.7119C197.469 97.5522 197.587 98.3727 197.667 99.1636C198.022 102.357 198.517 105.194 198.952 107.576C199.387 109.959 199.782 111.877 200.059 113.201C200.198 113.824 200.316 114.338 200.405 114.724C200.429 114.914 200.478 115.101 200.554 115.277Z" fill="#263238"/>
<path d="M201.078 181.007C201.186 181.007 201.839 167.859 202.531 151.637C203.223 135.415 203.678 122.257 203.52 122.247C203.361 122.237 202.748 135.395 202.066 151.617C201.384 167.84 200.959 180.998 201.078 181.007Z" fill="#263238"/>
<path d="M192.199 178.071C192.397 178.172 192.602 178.257 192.812 178.328L194.592 178.991C195.373 179.287 196.322 179.633 197.449 179.979C198.576 180.325 199.851 180.75 201.295 181.077L203.559 181.63C204.34 181.828 205.18 181.956 206.031 182.134C207.741 182.5 209.59 182.747 211.538 183.014C215.769 183.521 220.031 183.735 224.292 183.657C228.552 183.541 232.801 183.165 237.016 182.53C238.993 182.213 240.793 181.917 242.493 181.541C244.194 181.166 245.786 180.81 247.219 180.464C248.653 180.118 249.948 179.722 251.085 179.416C252.222 179.109 253.181 178.793 253.972 178.536L255.781 177.943C255.994 177.888 256.2 177.808 256.394 177.706C256.176 177.742 255.961 177.795 255.751 177.864L253.922 178.388C253.131 178.625 252.153 178.912 251.016 179.208C249.879 179.505 248.593 179.871 247.15 180.197C245.706 180.523 244.184 180.909 242.424 181.185C240.664 181.462 238.885 181.828 236.957 182.174C232.756 182.78 228.524 183.143 224.282 183.261C220.042 183.337 215.801 183.136 211.587 182.658C209.61 182.401 207.8 182.174 206.1 181.818C205.25 181.65 204.419 181.531 203.628 181.344L201.374 180.81C199.921 180.503 198.655 180.088 197.518 179.772C196.381 179.455 195.432 179.149 194.651 178.882L192.842 178.289C192.635 178.196 192.42 178.123 192.199 178.071Z" fill="#263238"/>
<path d="M232.755 146.309C233.345 146.107 233.897 145.806 234.386 145.419C235.614 144.569 236.759 143.606 237.807 142.542C238.861 141.491 239.851 140.379 240.773 139.211C241.183 138.746 241.538 138.235 241.831 137.688C241.722 137.599 239.952 139.794 237.51 142.246C236.47 143.3 235.367 144.29 234.208 145.211C233.703 145.549 233.218 145.916 232.755 146.309Z" fill="#263238"/>
<path d="M194.266 91.7394C194.076 92.0513 193.92 92.3828 193.801 92.728C193.672 93.0641 193.485 93.4694 193.326 93.9538C193.168 94.4382 193 95.0215 192.812 95.6245C192.624 96.2275 192.516 96.9492 192.357 97.6906C192.221 98.4923 192.128 99.3008 192.081 100.113C191.953 101.976 192.076 103.848 192.446 105.678C193.19 108.965 194.219 112.18 195.521 115.287C195.956 116.434 196.322 117.393 196.599 118.144C196.717 118.485 196.863 118.815 197.034 119.133C196.981 118.761 196.888 118.397 196.757 118.045C196.559 117.353 196.223 116.365 195.768 115.149C194.552 112.027 193.561 108.823 192.802 105.56C192.438 103.765 192.305 101.931 192.407 100.103C192.407 99.2526 192.575 98.4617 192.644 97.7104C192.713 96.9591 192.911 96.2869 193.05 95.6641C193.188 95.0413 193.356 94.4976 193.494 93.9835C193.633 93.4694 193.791 93.0839 193.9 92.7379C194.046 92.4144 194.168 92.0807 194.266 91.7394Z" fill="#263238"/>
<g opacity="0.3">
<path opacity="0.3" d="M255.959 177.676C247.26 183.992 237.008 187.826 226.299 188.768C215.423 189.628 204.439 185.377 194.661 180.592V178.724C194.661 178.724 210.856 184.299 227.762 183.004C244.856 181.69 255.959 177.676 255.959 177.676Z" fill="black"/>
</g>
<g opacity="0.3">
<path opacity="0.3" d="M244.204 122.326C242.789 127.154 241.065 131.886 239.043 136.492C237.237 140.869 234.662 144.886 231.44 148.355C228.167 151.775 223.431 154.128 218.755 153.436C215.413 152.942 212.497 150.994 209.699 149.106L201.493 143.541C200.474 142.936 199.573 142.153 198.833 141.227C198.161 140.239 198.457 139.033 198.408 137.807C202.462 139.784 206.317 142.928 210.361 144.895C213.218 146.279 215.848 148.128 218.963 148.701C220.311 149.018 221.715 149.016 223.062 148.695C224.409 148.374 225.663 147.743 226.724 146.852C228.325 145.676 231.104 141.989 232.231 140.357C236.284 134.426 240.14 128.247 244.204 122.365" fill="black"/>
</g>
<path d="M259.795 78.0972C259.795 78.0972 266.192 89.1692 257.057 102.722C249.938 113.231 234.604 136.255 229.462 143.966C228.292 145.882 226.503 147.343 224.391 148.108C222.848 148.543 221.029 149.442 219.17 148.968C215.552 148.029 197.657 139.082 191.952 135.919L190.805 132.31L194.256 126.013L197.914 119.36L218.211 125.292L239.854 82.259C239.854 82.259 249.305 69.1407 259.795 78.0972Z" fill="#AFB252"/>
<path d="M250.304 113.626L250.057 113.953L249.365 114.941L246.735 118.708L237.135 132.627L230.52 142.255C230.224 142.69 229.917 143.125 229.621 143.57C229.324 144.015 228.978 144.41 228.632 144.816C227.914 145.633 227.093 146.354 226.19 146.961C224.281 148.206 222.017 148.793 219.744 148.632C219.157 148.602 218.572 148.533 217.994 148.424C217.725 148.333 217.461 148.228 217.203 148.108L216.382 147.742C215.285 147.238 214.178 146.704 213.07 146.17L206.268 142.849L192.011 135.741L192.11 135.859C192.061 135.681 191.992 135.494 191.932 135.296C191.606 134.307 191.29 133.259 190.944 132.251V132.419C193.376 127.971 195.759 123.641 198.042 119.469L197.805 119.568L218.113 125.499H218.261L218.33 125.361L231.499 99.1636L235.167 91.7987C235.573 90.9585 235.889 90.306 236.156 89.8216L236.393 89.3174C236.443 89.2087 236.472 89.1494 236.462 89.1494C236.453 89.1494 236.462 89.1494 236.364 89.3075L236.107 89.7919L235.118 91.7197L231.361 99.0351L218.063 125.163L218.281 125.074L197.973 119.143H197.815L197.736 119.281C195.452 123.453 193.069 127.783 190.627 132.221V132.301V132.389C190.944 133.378 191.27 134.367 191.616 135.434L191.804 135.998V136.087H191.883L206.15 143.185L212.962 146.506C214.079 147.04 215.186 147.564 216.283 148.068L217.114 148.444C217.404 148.575 217.701 148.691 218.004 148.79C218.593 148.89 219.187 148.956 219.783 148.988C222.117 149.161 224.443 148.567 226.408 147.297C227.34 146.674 228.184 145.93 228.919 145.083C229.285 144.668 229.591 144.223 229.908 143.798C230.224 143.373 230.511 142.918 230.807 142.483L237.382 132.824C241.386 126.893 244.619 122.148 246.873 118.836L249.434 115.02L250.096 114.032L250.304 113.626Z" fill="#263238"/>
<path d="M221.375 134.732C221.494 134.732 220.554 132.647 219.684 130.037C218.814 127.427 218.3 125.252 218.172 125.282C218.568 128.621 219.66 131.84 221.375 134.732Z" fill="#263238"/>
<path d="M196.816 120.853L179.089 111.817C178.889 111.719 178.669 111.669 178.447 111.669L163.982 111.807C163.845 111.808 163.712 111.848 163.597 111.924C163.483 111.999 163.394 112.107 163.34 112.233C163.073 112.934 162.994 114.289 166.306 114.566C169.944 114.852 173.306 115.169 173.306 115.169C173.306 115.169 170.725 121.011 170.844 121.634C171.14 123.255 175.065 125.044 175.065 125.044C175.065 125.044 183.914 130.976 185.941 128.425L190.815 131.777L196.816 120.853Z" fill="#FFBE9D"/>
<path d="M173.434 121.673C173.533 122.276 174.255 125.39 174.225 125.993C174.219 126.282 174.141 126.565 173.998 126.815C173.855 127.066 173.65 127.276 173.404 127.427C173.122 127.531 172.814 127.543 172.525 127.461C172.235 127.38 171.979 127.208 171.793 126.972C171.387 126.454 171.1 125.854 170.952 125.212C170.586 123.813 170.345 122.384 170.231 120.942" fill="#FFBE9D"/>
<path d="M170.686 124.085C170.231 122.672 169.697 121.12 169.766 120.467C169.808 120.157 169.956 119.87 170.185 119.656C170.414 119.442 170.709 119.313 171.022 119.291C170.803 119.094 170.654 118.831 170.597 118.543C170.54 118.254 170.578 117.955 170.705 117.689C170.868 117.486 171.072 117.32 171.304 117.201C171.536 117.081 171.79 117.012 172.05 116.997C171.826 116.847 171.645 116.641 171.524 116.401C171.403 116.16 171.346 115.892 171.358 115.623C171.41 115.434 171.504 115.258 171.635 115.111C171.765 114.963 171.927 114.848 172.109 114.773C172.451 114.585 172.833 114.48 173.223 114.468C173.613 114.456 174.001 114.537 174.354 114.704" fill="#FFBE9D"/>
<path d="M171.941 122.326C171.882 122.326 171.872 122.85 172.356 123.482C173.026 124.206 173.837 124.785 174.739 125.183C175.898 125.884 177.112 126.493 178.367 127.002C178.466 126.863 176.964 125.786 174.986 124.728C174.135 124.349 173.342 123.85 172.633 123.245C172.139 122.751 172.03 122.306 171.941 122.326Z" fill="#EB996E"/>
<path d="M170.824 119.38C170.824 119.528 171.556 119.617 172.436 119.726C173.315 119.835 174.037 119.963 174.087 119.825C174.136 119.686 173.444 119.33 172.505 119.222C171.565 119.113 170.814 119.241 170.824 119.38Z" fill="#EB996E"/>
<path d="M171.931 114.803C171.931 114.951 172.979 114.655 174.235 114.734C175.491 114.813 176.45 115.188 176.519 115.05C175.867 114.553 175.081 114.264 174.263 114.22C173.445 114.176 172.633 114.379 171.931 114.803Z" fill="#EB996E"/>
<path d="M170.824 117.739C170.883 117.739 171.051 117.62 171.358 117.482C171.753 117.295 172.186 117.204 172.623 117.215C173.661 117.264 174.601 117.591 174.601 117.423C174.335 117.177 174.024 116.987 173.684 116.863C173.345 116.739 172.984 116.684 172.623 116.701C172.088 116.676 171.562 116.845 171.14 117.175C170.834 117.442 170.765 117.699 170.824 117.739Z" fill="#EB996E"/>
<path d="M181.531 111.422C181.531 111.422 175.184 109.781 170.587 96.2671L178.882 105.362L181.531 111.422Z" fill="#FFBE9D"/>
<path d="M194.256 119.291L180.503 86.9251C180.203 86.2223 179.682 85.6361 179.02 85.2544L166.276 77.8599C166.039 77.8599 181.749 111.906 181.749 111.906L194.256 119.291Z" fill="#263238"/>
<path d="M179.119 106.212C179.119 106.212 173.958 102.495 173.187 100.775C173.039 100.429 169.776 95.6641 169.687 93.7364L169.549 90.1973L170.537 84.8985C172.258 85.0369 172.613 86.2331 172.515 87.7555C172.515 88.4178 172.07 90.8398 172.07 90.8398L172.712 93.6177C172.748 92.2138 173.047 90.8291 173.592 89.5349C173.948 88.8627 174.848 89.2285 175.224 89.5349C175.935 90.1676 175.589 90.998 175.431 93.0542C175.135 97.0085 175.342 97.6511 175.342 97.6511C175.334 96.1617 175.648 94.688 176.262 93.331C176.637 92.6094 177.082 92.1942 177.577 92.4314C178.071 92.6687 178.674 93.5979 178.288 95.0808C177.735 96.8181 177.478 98.636 177.527 100.459C178.053 99.7109 178.491 98.9048 178.832 98.0564C178.878 97.9108 178.967 97.7827 179.088 97.6898C179.209 97.5968 179.356 97.5435 179.508 97.537C179.661 97.5305 179.812 97.5712 179.94 97.6535C180.069 97.7359 180.169 97.8559 180.226 97.9971C180.632 98.9362 180.483 99.2822 179.851 102.021C179.623 103.484 179.119 106.212 179.119 106.212Z" fill="#FFBE9D"/>
<path d="M173.533 101.319C173.361 100.974 173.163 100.644 172.94 100.33C172.718 99.9703 172.533 99.5895 172.386 99.1933C172.31 98.974 172.273 98.7431 172.277 98.5111C172.277 98.2541 172.327 97.9773 172.356 97.7005C172.602 96.3647 172.757 95.0139 172.821 93.6573C172.417 94.9613 172.146 96.3026 172.01 97.661C172.01 97.9477 171.951 98.2146 171.941 98.4914C171.933 98.769 171.984 99.0452 172.089 99.302C172.256 99.7154 172.472 100.107 172.732 100.469C172.943 100.8 173.215 101.089 173.533 101.319Z" fill="#EB996E"/>
<path d="M176.509 93.0938C175.837 94.5047 175.326 95.9871 174.986 97.5127C174.698 98.577 174.466 99.6561 174.294 100.745C174.179 101.194 174.156 101.661 174.225 102.119C174.356 101.685 174.459 101.243 174.532 100.795C174.719 99.9742 174.996 98.8176 175.323 97.6017C175.985 95.1105 176.598 93.1333 176.509 93.0938Z" fill="#EB996E"/>
<path d="M176.717 104.64C176.776 104.64 176.717 104.245 176.806 103.652C176.93 102.859 177.18 102.091 177.547 101.378C177.972 100.528 178.397 99.7666 178.644 99.1735C178.809 98.8681 178.907 98.5311 178.931 98.1849C178.726 98.4574 178.554 98.7527 178.417 99.0648C178.13 99.6184 177.666 100.35 177.241 101.23C176.85 101.975 176.618 102.793 176.558 103.632C176.514 103.976 176.569 104.326 176.717 104.64Z" fill="#EB996E"/>
<path d="M194.256 119.291L195.383 118.085L181.611 86.3715C181.31 85.6771 180.793 85.0982 180.137 84.7206L168.145 77.8006C167.912 77.6666 167.651 77.5896 167.383 77.5759C167.115 77.5621 166.847 77.612 166.602 77.7215L166.276 77.8797L179.02 85.2742C179.682 85.6558 180.203 86.2421 180.503 86.9449L194.256 119.291Z" fill="#263238"/>
<path d="M166.276 77.8599C166.413 77.9723 166.559 78.0747 166.711 78.1664L167.996 78.9671L172.752 81.8241L176.054 83.8012L177.893 84.8886C178.551 85.2086 179.157 85.6251 179.692 86.1243C179.94 86.3939 180.137 86.7052 180.276 87.0437L180.75 88.1608C181.067 88.9022 181.383 89.6634 181.739 90.4444C182.401 91.9965 183.084 93.6078 183.776 95.2489C186.583 101.843 189.144 107.794 191.023 112.055C191.942 114.15 192.703 115.87 193.267 117.136L193.9 118.51C193.965 118.675 194.051 118.831 194.157 118.975C194.123 118.801 194.07 118.632 193.999 118.47L193.455 117.057L191.349 111.916C189.559 107.576 187.058 101.605 184.25 95.0215L182.204 90.217C181.881 89.4459 181.551 88.6847 181.215 87.9334L180.74 86.8262C180.574 86.443 180.347 86.0891 180.068 85.7784C179.784 85.4734 179.449 85.2193 179.079 85.027L178.091 84.4636L176.242 83.4058L172.91 81.5077L168.065 78.7891L166.731 78.0774C166.59 77.9835 166.437 77.9103 166.276 77.8599Z" fill="#455A64"/>
<path d="M174.729 86.7076C175.056 87.1525 175.075 87.6962 174.779 87.9038C174.482 88.1114 173.978 87.9532 173.652 87.5084C173.325 87.0635 173.306 86.5198 173.652 86.3221C173.998 86.1243 174.403 86.2726 174.729 86.7076Z" fill="#FAFAFA"/>
<path d="M24.806 230.08C32.7748 217.881 32.4683 200.057 22.9473 189.025C19.9812 185.594 15.8585 182.619 11.3501 183.004C6.8417 183.39 3.01553 187.364 1.61161 191.773C0.207684 196.182 0.692101 200.967 1.5127 205.534C2.66946 211.91 4.60726 218.445 9.03654 223.18C13.4658 227.915 19.1112 233.194 24.8554 230.1" fill="#AFB252"/>
<path d="M21.2469 288.396C22.6792 284.849 22.9592 280.941 22.0471 277.226C21.1351 273.51 19.0773 270.176 16.165 267.695C14.3261 266.203 11.9335 265.036 9.63975 265.649C7.34601 266.262 5.74433 268.615 5.41806 271.047C5.2413 273.475 5.65512 275.911 6.62422 278.144C7.79087 281.328 9.38267 284.511 12.0917 286.557C14.8006 288.604 18.5972 290.511 21.2469 288.396Z" fill="#AFB252"/>
<path d="M40.4865 284.204C39.4941 278.761 40.2396 273.144 42.6173 268.147C44.995 263.151 48.8845 259.03 53.7349 256.366C56.7701 254.785 60.5073 253.855 63.6217 255.378C66.736 256.9 68.2685 260.775 68.0213 264.275C67.7741 267.774 66.0439 270.997 64.2247 273.973C61.6245 278.135 58.441 282.188 53.9919 284.284C49.5429 286.379 43.6108 287.981 40.4865 284.195" fill="#AFB252"/>
<path d="M39.1024 254.962C35.2762 242.645 41.752 227.698 52.5484 220.629C55.9 218.435 60.1415 216.912 63.8787 218.336C67.6159 219.759 69.9096 224.07 70.0381 228.162C70.1667 232.255 68.5749 236.219 66.7656 239.897C64.2346 245.047 60.9917 250.128 56.078 253.084C51.1642 256.04 43.2252 259.016 39.1024 254.962Z" fill="#AFB252"/>
<path d="M31.4302 315.196C31.4947 315 31.5378 314.798 31.5588 314.593C31.6181 314.148 31.7071 313.605 31.8158 312.883C31.8158 312.497 31.9246 312.082 31.9839 311.637C32.0432 311.192 32.1618 310.649 32.2706 310.174C32.4683 309.116 32.6759 307.92 33.022 306.615C33.1802 305.963 33.3384 305.271 33.5163 304.559C33.6943 303.847 33.9415 303.126 34.159 302.364C34.5742 300.832 35.1477 299.25 35.7508 297.57C38.4239 290.321 42.0835 283.475 46.6262 277.225C47.7138 275.811 48.7024 274.437 49.7504 273.271C50.2547 272.658 50.7392 272.075 51.2236 271.511L52.7462 269.949C53.636 268.961 54.5258 268.101 55.2871 267.349C55.6726 266.983 56.0187 266.628 56.3549 266.311L57.2941 265.481L58.5892 264.314C58.7455 264.184 58.888 264.039 59.0144 263.879C58.8367 263.979 58.6709 264.098 58.5201 264.235L57.1557 265.323L56.167 266.123L55.0695 267.112C54.2786 267.844 53.369 268.664 52.4496 269.663L50.9863 271.195L49.4736 272.935C48.4059 274.121 47.4073 275.495 46.2999 276.889C44.0088 280.029 41.9249 283.314 40.0614 286.725C38.2458 290.159 36.6604 293.709 35.3157 297.352C34.7522 299.053 34.159 300.644 33.7635 302.196C33.546 302.958 33.3482 303.699 33.1406 304.411C32.933 305.123 32.8243 305.824 32.676 306.487C32.3596 307.802 32.1717 309.008 31.9938 310.075C31.9147 310.599 31.8356 311.064 31.7565 311.548C31.6774 312.033 31.6675 312.418 31.628 312.804C31.5687 313.506 31.5093 314.089 31.4698 314.534C31.4287 314.752 31.4154 314.975 31.4302 315.196Z" fill="#263238"/>
<path d="M31.7069 317.411C31.7197 317.329 31.7197 317.245 31.7069 317.163C31.7069 316.976 31.7069 316.738 31.6575 316.452C31.5982 315.779 31.5092 314.87 31.4103 313.713C31.351 313.11 31.2818 312.458 31.2126 311.736C31.1434 311.014 31.1335 310.224 31.0939 309.373C31.0247 307.683 30.8666 305.755 30.9259 303.62C30.9259 302.562 30.9259 301.445 30.9259 300.279C30.9259 299.112 31.0445 297.906 31.1038 296.66C31.1928 294.149 31.529 291.49 31.8355 288.693C33.387 276.541 36.8926 264.72 42.2166 253.687C43.4821 251.166 44.6488 248.744 45.9439 246.609C46.5767 245.531 47.1501 244.454 47.773 243.475L49.5823 240.658C50.6896 238.839 51.876 237.316 52.8548 235.932C53.3491 235.24 53.8435 234.588 54.239 234.015L55.5044 232.502L57.205 230.347L57.64 229.774C57.69 229.713 57.7331 229.646 57.7686 229.576C57.7686 229.576 57.7092 229.625 57.6004 229.744L57.1259 230.278L55.3463 232.374L54.061 233.906C53.6062 234.469 53.1514 235.112 52.6373 235.794C51.6486 237.168 50.4325 238.681 49.2956 240.5L47.4467 243.297C46.814 244.286 46.2307 245.354 45.588 246.431C44.2731 248.576 43.0866 250.998 41.8014 253.519C36.4032 264.579 32.8785 276.459 31.3708 288.673C31.0841 291.48 30.7578 294.149 30.6886 296.67C30.6392 297.926 30.5403 299.142 30.5403 300.308C30.5403 301.475 30.5403 302.592 30.5403 303.669C30.5403 305.805 30.6886 307.742 30.7776 309.433C30.8369 310.283 30.8765 311.074 30.9457 311.795C31.0149 312.517 31.1137 313.17 31.1829 313.773C31.3313 314.919 31.4499 315.839 31.5389 316.501C31.5389 316.788 31.6081 317.015 31.6378 317.213C31.6674 317.411 31.7069 317.411 31.7069 317.411Z" fill="#263238"/>
<path d="M10.9447 197.744C10.9693 197.823 11.0025 197.899 11.0436 197.971C11.1425 198.139 11.2512 198.347 11.3896 198.604L12.754 201.046C13.0506 201.57 13.3967 202.143 13.7427 202.796L14.8006 204.941L16.0364 207.412C16.4517 208.292 16.8472 209.241 17.2822 210.23C17.7172 211.218 18.1918 212.207 18.6367 213.344L19.9615 216.784L20.6536 218.593C20.8711 219.216 21.0787 219.848 21.2962 220.491L22.6309 224.445C24.3216 229.912 25.9232 236.002 27.2777 242.467C28.6322 248.932 29.5023 255.17 30.1844 260.854C30.8666 266.539 31.1731 271.729 31.3116 276.019C31.4203 278.184 31.45 280.141 31.45 281.861C31.45 283.582 31.45 285.064 31.45 286.271C31.45 287.477 31.45 288.386 31.45 289.068V289.839C31.4345 289.921 31.4345 290.005 31.45 290.086C31.4631 290.005 31.4631 289.921 31.45 289.839C31.45 289.651 31.45 289.414 31.45 289.118C31.45 288.435 31.529 287.506 31.5884 286.33C31.6477 285.153 31.6873 283.631 31.6873 281.911C31.6873 280.191 31.6873 278.224 31.6279 276.059C31.5587 271.719 31.1633 266.568 30.6393 260.854C30.1153 255.14 29.087 248.903 27.7721 242.417C26.4571 235.932 24.806 229.833 23.0758 224.356C22.6112 222.992 22.1564 221.677 21.7115 220.402C21.4939 219.769 21.2666 219.127 21.059 218.504C20.8513 217.881 20.5745 217.288 20.3471 216.695C19.8725 215.509 19.4276 214.362 18.9926 213.265C18.5576 212.167 18.0039 211.139 17.6085 210.151C17.213 209.162 16.7483 208.173 16.3133 207.333L15.0478 204.881C14.6523 204.12 14.2766 203.408 13.9404 202.746C13.6043 202.084 13.2187 201.53 12.9518 201.006L11.4984 198.624L11.1128 198.011C11.0041 197.803 10.9546 197.734 10.9447 197.744Z" fill="#263238"/>
<path d="M13.6536 272.589C13.8977 273.108 14.182 273.607 14.5039 274.081C15.0872 275.011 15.888 276.395 16.8272 278.115C17.7665 279.835 18.8046 281.941 19.8526 284.313C20.9728 286.898 21.9627 289.538 22.8186 292.222C23.639 294.914 24.3221 297.646 24.8652 300.407C25.3398 302.958 25.6759 305.281 25.8539 307.238C26.0318 309.195 26.1703 310.777 26.2197 311.875C26.2149 312.448 26.2613 313.02 26.3581 313.585C26.4156 313.013 26.4354 312.439 26.4174 311.865C26.4174 310.767 26.4174 309.166 26.2296 307.199C26.0417 305.231 25.7847 302.898 25.3299 300.279C24.8203 297.493 24.1602 294.738 23.3526 292.024C22.5081 289.336 21.518 286.696 20.3865 284.115C19.3089 281.733 18.241 279.637 17.2524 277.927C16.2637 276.217 15.4135 274.862 14.7708 273.973C14.4386 273.48 14.0648 273.017 13.6536 272.589Z" fill="#263238"/>
<path d="M47.0908 309.7H12.0619L16.2934 345.486H42.7307L47.0908 309.7Z" fill="#455A64"/>
<path d="M45.8154 341.621L42.8395 345.486H16.2935L13.2384 341.749L45.8154 341.621Z" fill="#263238"/>
<path d="M13.4264 320.228C13.4264 320.376 20.6932 320.485 29.6605 320.485C38.6279 320.485 45.9045 320.376 45.9045 320.228C45.9045 320.08 38.6279 319.961 29.6605 319.961C20.6932 319.961 13.4264 320.08 13.4264 320.228Z" fill="#FAFAFA"/>
<path d="M13.4264 322.61C13.4264 322.749 20.6932 322.867 29.6605 322.867C38.6279 322.867 45.9045 322.749 45.9045 322.61C45.9045 322.472 38.6279 322.343 29.6605 322.343C20.6932 322.343 13.4264 322.462 13.4264 322.61Z" fill="#FAFAFA"/>
<path d="M13.8612 324.914C13.8612 325.062 20.8809 325.181 29.5318 325.181C38.1828 325.181 45.2024 325.062 45.2024 324.914C45.2024 324.766 38.1828 324.657 29.5318 324.657C20.8809 324.657 13.8612 324.775 13.8612 324.914Z" fill="#FAFAFA"/>
<path d="M41.742 232.581C41.7293 232.696 41.7293 232.812 41.742 232.927C41.742 233.194 41.742 233.51 41.831 233.916C41.92 234.815 42.0386 236.021 42.1869 237.485C42.5033 240.45 42.9778 244.642 43.5117 249.229C43.5117 249.407 43.5117 249.585 43.571 249.743V249.901H43.7194C48.2277 249.97 52.2714 250.01 55.1979 250.029H58.6781H59.6668H60.0029C60.0029 250.029 59.8843 250.029 59.6668 250.029L58.7374 249.98L55.277 249.871C52.311 249.792 48.297 249.703 43.7985 249.634L43.9665 249.792L43.9072 249.278C43.3733 244.691 42.9185 240.549 42.4835 237.544C42.2957 236.081 42.1276 234.885 42.009 233.995C41.9595 233.609 41.9101 233.293 41.8705 233.006C41.8494 232.859 41.8061 232.716 41.742 232.581Z" fill="#263238"/>
<path d="M49.7107 221.885C49.6978 222.003 49.6978 222.122 49.7107 222.241C49.7107 222.508 49.7107 222.834 49.7107 223.229C49.7107 224.159 49.7107 225.404 49.7107 226.927C49.7107 230.041 49.8393 234.351 49.948 239.106V239.659V239.847H50.1359C54.0566 239.547 57.9907 239.458 61.921 239.58C63.4238 239.58 64.6299 239.689 65.4703 239.729L66.459 239.778C66.6765 239.778 66.7952 239.778 66.7952 239.778C66.6855 239.747 66.5728 239.727 66.459 239.719L65.4703 239.61C64.6398 239.521 63.4238 239.422 61.921 239.343C57.9669 239.145 54.0042 239.198 50.0568 239.501L50.2545 239.679V239.116C50.1458 234.361 50.0173 230.05 49.9085 226.936C49.8492 225.424 49.7997 224.168 49.7602 223.249C49.7602 222.844 49.7602 222.518 49.7009 222.261C49.7238 222.137 49.7271 222.01 49.7107 221.885Z" fill="#263238"/>
<path d="M59.0341 218.237C58.9324 218.559 58.8596 218.89 58.8166 219.226C58.6782 219.957 58.5101 220.896 58.2926 222.043C57.8378 224.425 57.1358 227.698 56.1273 231.286L56.0285 231.662L56.3844 231.494L56.7996 231.286C59.7462 229.878 62.9014 228.957 66.1427 228.558C67.3785 228.409 68.3969 228.35 69.1087 228.32C69.4723 228.332 69.8362 228.312 70.1963 228.261H69.9194H69.1087C68.1184 228.251 67.1284 228.294 66.1427 228.39C62.8585 228.721 59.657 229.621 56.681 231.049L56.2559 231.257L56.503 231.464C57.3528 228.401 58.0425 225.296 58.5694 222.162C58.7672 220.965 58.9055 219.997 58.9747 219.324C59.0239 218.964 59.0437 218.601 59.0341 218.237Z" fill="#263238"/>
<path d="M9.56056 283.473C9.56056 283.522 10.5492 283.423 12.2102 283.354C14.3348 283.273 16.4625 283.342 18.5773 283.562L20.0405 283.75H20.2087V283.582C20.5942 281.466 20.9106 279.627 21.1182 278.263C21.2646 277.549 21.3571 276.826 21.395 276.098C21.1783 276.791 21.0099 277.498 20.8908 278.214C20.6239 279.548 20.2581 281.407 19.9022 283.522L20.0999 283.384C19.6253 283.315 19.1112 283.245 18.6267 283.196C16.4922 282.968 14.3414 282.931 12.2003 283.087C11.3797 283.157 10.7173 283.236 10.223 283.305C9.9957 283.331 9.77297 283.388 9.56056 283.473Z" fill="#263238"/>
<path d="M6.27814 276.899C6.27814 276.958 7.26684 276.731 8.83885 276.533C10.9029 276.281 12.9885 276.258 15.0576 276.464L16.155 276.602H16.3429V276.414C16.5604 274.24 16.7384 272.312 16.8471 270.928C16.9405 270.187 16.9801 269.44 16.9658 268.694C16.7892 269.418 16.6735 270.155 16.6198 270.898C16.4418 272.282 16.2243 274.21 15.987 276.385L16.1946 276.227L15.0774 276.088C12.9831 275.868 10.8689 275.924 8.78936 276.256C7.98853 276.385 7.35582 276.533 6.9208 276.642C6.69559 276.697 6.47923 276.783 6.27814 276.899Z" fill="#263238"/>
<path d="M3.87567 214.609C3.98276 214.683 4.09907 214.743 4.22169 214.787L5.21037 215.242L9.00692 216.863L21.5533 222.053L22.2355 222.33L22.3936 222.399L22.4628 222.241L27.7621 210.269C28.4147 208.767 28.9387 207.541 29.3243 206.641C29.4923 206.246 29.6208 205.919 29.7296 205.653C29.8384 205.386 29.8681 205.307 29.8483 205.307C29.7732 205.406 29.7132 205.516 29.6703 205.633C29.5418 205.88 29.3935 206.196 29.2056 206.621C28.7904 207.511 28.217 208.717 27.5447 210.2L22.1365 222.132L22.364 222.033L21.6917 221.756L9.09587 216.655L5.26968 215.143L4.22169 214.757C4.11132 214.697 3.99547 214.647 3.87567 214.609Z" fill="#263238"/>
<path d="M0.800858 199.474C0.894814 199.56 0.997532 199.636 1.10735 199.701L2.02681 200.294L5.44761 202.43L16.8669 209.35L17.0449 209.459L17.1239 209.251C17.1832 209.083 17.2623 208.895 17.3316 208.707L22.097 195.846C22.6803 194.215 23.1648 192.88 23.5108 191.892L23.8766 190.814C23.9258 190.69 23.9622 190.56 23.9854 190.429C23.9148 190.545 23.8552 190.667 23.8074 190.794C23.6986 191.071 23.5602 191.417 23.3823 191.842C23.0066 192.831 22.4925 194.116 21.8696 195.727L16.9855 208.579C16.9163 208.776 16.8471 208.964 16.7779 209.132L17.035 209.043L5.5663 202.173L2.08613 200.136L1.09745 199.602C1.00336 199.549 0.903955 199.506 0.800858 199.474Z" fill="#263238"/>
<path d="M1.80931 191.397C2.04451 191.57 2.29621 191.719 2.56072 191.842C3.05506 192.119 3.76693 192.514 4.62708 193.058C6.92016 194.469 9.05192 196.126 10.9843 198.001L11.4193 198.436L11.2216 197.902C11.0733 197.279 10.925 196.617 10.8162 195.925C10.3364 192.813 10.5047 189.636 11.3106 186.593C11.6269 185.426 11.973 184.507 12.2102 183.874C12.3601 183.555 12.4857 183.224 12.5859 182.886C12.3875 183.178 12.2186 183.489 12.0817 183.815C11.6913 184.695 11.361 185.599 11.093 186.524C10.2032 189.595 9.99734 192.825 10.4899 195.984C10.5987 196.676 10.747 197.339 10.9052 197.961L11.1919 197.793C9.24294 195.888 7.06818 194.228 4.71603 192.851C3.83611 192.346 3.10452 191.971 2.59041 191.733C2.34136 191.597 2.07978 191.484 1.80931 191.397Z" fill="#263238"/>
<path d="M41.7914 269.949C41.8134 270.257 41.8665 270.562 41.9496 270.859C42.0683 271.442 42.2463 272.272 42.444 273.32C42.9477 276.06 43.2615 278.831 43.3832 281.614V281.782H43.5513H44.3323C47.8026 282 50.9565 282.168 53.2305 282.267L55.9295 282.376C56.2581 282.412 56.5896 282.412 56.9182 282.376C56.5929 282.304 56.2622 282.261 55.9295 282.247L53.2404 282.03C50.9565 281.861 47.8125 281.654 44.3422 281.446L43.5612 281.397L43.7194 281.565C43.5999 278.763 43.2494 275.976 42.6714 273.231C42.444 272.193 42.2364 271.353 42.0683 270.789C42.0021 270.501 41.9094 270.22 41.7914 269.949Z" fill="#263238"/>
<path d="M48.6727 260.083C48.6658 260.388 48.6856 260.692 48.732 260.993C48.8111 261.645 48.9001 262.485 49.0187 263.484C49.2659 265.59 49.6515 268.516 50.0865 271.798V271.946H50.2348L51.3619 272.015C54.9211 272.262 58.1343 272.628 60.4478 272.925L63.1964 273.3C63.5217 273.367 63.853 273.4 64.1851 273.399C63.8624 273.294 63.5317 273.215 63.1964 273.162C62.5537 273.034 61.6244 272.866 60.4676 272.678C58.1541 272.312 54.9409 271.907 51.3619 271.689L50.2348 271.61L50.4029 271.768C49.9481 268.486 49.5328 265.56 49.2165 263.464C49.0583 262.476 48.9298 261.635 48.821 260.993C48.7986 260.686 48.749 260.381 48.6727 260.083Z" fill="#263238"/>
<path d="M56.78 255.832C56.7305 255.832 56.9381 256.821 57.1952 258.363C57.5225 260.414 57.7108 262.485 57.7587 264.561V264.759H57.9565L58.5398 264.69C60.7374 264.42 62.9498 264.288 65.1639 264.295H67.1413C67.3873 264.328 67.6368 264.328 67.8828 264.295C67.645 264.224 67.3991 264.184 67.1512 264.176C66.6766 264.127 65.9846 264.077 65.1738 264.038C62.9483 263.967 60.7206 264.066 58.5101 264.334L57.9169 264.413L58.1146 264.581C58.0734 262.486 57.8484 260.399 57.4424 258.343C57.2842 257.562 57.126 256.94 57.0073 256.515C56.9589 256.279 56.8826 256.05 56.78 255.832Z" fill="#263238"/>
<path d="M10.6185 265.698C11.0652 266.916 11.5868 268.104 12.1805 269.257C12.6682 270.459 13.233 271.628 13.8712 272.757C13.5636 271.481 13.1056 270.247 12.5068 269.079C12.0088 267.884 11.3752 266.749 10.6185 265.698Z" fill="#263238"/>
<path d="M6.21887 270.364C7.54986 270.568 8.86976 270.839 10.1736 271.175C11.4495 271.636 12.7003 272.164 13.9207 272.757C11.7348 271.025 8.98114 270.172 6.19908 270.364H6.21887Z" fill="#263238"/>
</svg>
