<svg width="168" height="37" viewBox="0 0 168 37" fill="none" xmlns="http://www.w3.org/2000/svg">
<path fill-rule="evenodd" clip-rule="evenodd" d="M24.0866 20.6157C31.3073 26.4579 38.6841 27.7525 47 25.3183C37.7895 18.505 33.0157 17.2741 24.1229 19.7858L24.0866 20.6157Z" fill="#758E29"/>
<path fill-rule="evenodd" clip-rule="evenodd" d="M24.0197 20.5465C24.7833 21.1689 25.0815 21.108 26.0513 21.1689C30.1006 21.4676 38.659 23.3182 43.1597 24.4524C40.306 23.0471 31.1122 21.0333 27.3583 20.0264L24.0392 20.0928L24.0197 20.5465Z" fill="#6A8029"/>
<path fill-rule="evenodd" clip-rule="evenodd" d="M22.5065 17.2962C31.8257 19.7028 39.3167 17.7692 46.072 11.9159C34.4704 9.46223 29.4513 10.3447 22.186 16.5078L22.5065 17.2962Z" fill="#758E29"/>
<path fill-rule="evenodd" clip-rule="evenodd" d="M22.3504 17.1413C23.1865 17.3598 23.4011 17.2076 24.2176 16.9089C27.5813 15.6724 35.1392 14.0348 39.1746 13.3128C34.3255 13.6503 26.9599 14.5023 22.2 16.7844L22.3504 17.1413Z" fill="#6A8029"/>
<path fill-rule="evenodd" clip-rule="evenodd" d="M18.4628 16.1897L16.9245 17.4372C12.9755 24.7982 7.61642 28.1923 0 30.9503C5.14729 22.0458 8.81476 18.7318 16.4869 16.8757L18.7833 15.3156L18.4628 16.1897Z" fill="#758E29"/>
<path fill-rule="evenodd" clip-rule="evenodd" d="M7.69446 24.8673L8.86772 23.6585C11.7057 20.9878 14.8158 18.6173 18.1479 16.5853L18.0085 16.9559C14.865 19.5728 10.7628 22.292 7.69724 24.8729" fill="#6A8029"/>
<path fill-rule="evenodd" clip-rule="evenodd" d="M18.8306 16.3059L18.0085 16.9504C14.1961 19.1108 10.8686 21.7857 7.66379 24.9309C10.6819 21.4455 13.6109 18.8038 17.6825 16.552L18.5938 15.9739C17.9416 15.0703 17.1985 14.1344 16.3643 13.1662C16.1636 12.9311 16.1413 12.9698 16.4033 12.7983L16.682 12.6157C16.9607 12.4414 16.9077 12.4829 17.1056 12.7291C18.2615 14.1476 19.329 15.6349 20.3021 17.1827L22.1135 16.5797C27.3779 14.5327 33.0101 13.559 38.9237 13.2602L39.1662 13.31C35.822 13.5728 27.6593 15.0196 23.8219 16.5659C22.7071 17.0112 21.7847 17.4289 20.656 17.7747C21.0211 18.3971 21.3472 19.0085 21.6398 19.6143L24.042 19.866C30.4322 20.2256 36.6943 21.8577 42.9284 24.3058L43.1514 24.4718C39.5954 23.1827 30.4963 20.848 25.8117 20.6461C24.474 20.588 23.3202 20.5824 22.0048 20.4137C22.376 21.2683 22.6815 22.1496 22.9189 23.0499C23.932 23.2969 24.925 23.6187 25.8897 24.0126C26.035 23.8914 26.2083 23.8077 26.3941 23.7691C26.1823 24.2117 25.99 24.6543 25.8033 25.108C25.663 24.9516 25.5891 24.7474 25.5971 24.5381C24.7752 24.2461 23.9379 23.9986 23.0889 23.7968L18.8306 16.3059Z" fill="#AFB252"/>
<path fill-rule="evenodd" clip-rule="evenodd" d="M26.5892 23.5119C26.4139 23.7087 26.2581 23.9218 26.1238 24.1481C25.9689 24.3615 25.8354 24.5894 25.7253 24.8286C24.5799 27.2712 27.1187 30.1453 29.2451 31.1661C35.5182 34.1536 39.1439 28.6267 33.8517 24.1426C32.0458 22.6129 28.3756 21.4843 26.5892 23.5119Z" fill="#5D611E"/>
<path fill-rule="evenodd" clip-rule="evenodd" d="M26.7815 23.7415C26.6212 23.9177 26.4793 24.1095 26.3579 24.3141C26.2175 24.5067 26.098 24.7135 26.0012 24.931C24.9784 27.1439 27.3946 29.841 29.4206 30.8203C35.3538 33.6888 38.6339 28.6875 33.6009 24.4579C31.8674 23.0223 28.4257 21.9158 26.7815 23.7415Z" fill="#989A36"/>
<path fill-rule="evenodd" clip-rule="evenodd" d="M29.2005 30.2974C30.2433 30.9403 31.4287 31.3202 32.6534 31.4039C33.8406 31.4288 35.5628 30.8783 35.5795 29.7248C34.4927 31.4399 32.3914 30.4579 31.8842 29.6806C31.2377 28.6903 31.0119 27.3459 30.1369 26.3307C28.8744 24.8701 27.573 24.5437 26.9292 24.9725C26.2018 25.4565 26.2409 26.8507 26.6004 27.6557C27.1131 28.8037 28.239 29.7663 29.2005 30.3113" fill="#AFB252"/>
<path fill-rule="evenodd" clip-rule="evenodd" d="M33.2079 31.144C32.0235 31.1882 29.376 30.7346 28.7991 28.8812C28.5539 28.0928 28.4452 27.357 28.7991 26.5216C29.7885 28.6212 30.318 30.0873 33.1996 31.144H33.2079ZM28.7183 29.7608C27.9955 29.2309 27.3919 28.5573 26.9459 27.783C26.3272 26.6765 26.4944 25.6419 26.8734 25.4206C27.2023 25.227 27.7095 25.4483 27.9074 25.6364C28.7044 26.3695 27.5897 27.5506 28.7267 29.7442L28.7183 29.7608Z" fill="#F7F2BF"/>
<path fill-rule="evenodd" clip-rule="evenodd" d="M32.1768 27.7691C31.586 26.267 30.566 24.5105 28.4787 23.996C27.5144 23.7581 26.1628 24.6156 26.0792 26.3472C25.7559 24.4773 27.3946 23.285 28.866 23.4565C30.2265 23.6535 31.5227 24.16 32.6533 24.9365C34.1053 25.971 34.9274 27.1494 34.9274 28.3002C34.9274 29.9987 33.2553 30.5132 32.1768 27.7691Z" fill="#989A36"/>
<path fill-rule="evenodd" clip-rule="evenodd" d="M28.1944 23.1633C30.6552 22.2754 36.6692 25.3957 35.6158 29.5561C35.5991 25.6419 31.4355 23.1191 28.1944 23.1633Z" fill="#989A36"/>
<path fill-rule="evenodd" clip-rule="evenodd" d="M20.9013 18.5991C20.6482 18.5198 20.3877 18.466 20.1238 18.4386C19.8641 18.3868 19.6 18.36 19.3351 18.3584C16.6207 18.328 15.0211 21.7913 14.9653 24.1481C14.7981 31.0637 21.375 32.0595 23.3063 25.4289C23.9668 23.1633 23.4847 19.3819 20.9013 18.5991Z" fill="#5D611E"/>
<path fill-rule="evenodd" clip-rule="evenodd" d="M20.7591 18.8674C20.5338 18.7935 20.3012 18.7435 20.0652 18.718C19.8294 18.6714 19.5895 18.6482 19.349 18.6488C16.8938 18.635 15.4196 21.9324 15.3527 24.1813C15.1465 30.7124 21.088 31.6252 22.8939 25.3182C23.5098 23.1689 23.1057 19.5866 20.7591 18.8618" fill="#989A36"/>
<path fill-rule="evenodd" clip-rule="evenodd" d="M19.6667 29.1412C17.663 29.9212 16.3225 28.2836 15.9323 26.3749C15.4697 24.1066 16.1107 20.3999 18.3374 19.3349C16.7656 20.8674 16.9217 22.2477 18.3959 23.7747C18.7387 24.1315 19.6862 25.0389 19.6583 25.7996C19.6137 26.978 18.0252 27.3044 17.3648 26.4496C17.5204 26.8338 17.7798 27.1679 18.1144 27.415C19.0647 28.0623 21.3221 27.2712 21.7986 25.2685C21.6119 26.6516 21.1632 28.563 19.6778 29.1412" fill="#AFB252"/>
<path fill-rule="evenodd" clip-rule="evenodd" d="M20.4247 19.1523C23.4094 20.6295 23.3927 25.8715 21.2134 28.0292C22.8409 25.404 22.6792 21.3432 20.4247 19.1523Z" fill="#989A36"/>
<path fill-rule="evenodd" clip-rule="evenodd" d="M16.4981 23.1053C16.3981 24.218 16.5495 25.3388 16.9412 26.386C17.9138 28.8591 19.7447 28.2947 20.8428 27.0721C20.8166 27.5413 20.6314 27.9879 20.3173 28.3395C20.0031 28.691 19.5784 28.9268 19.1121 29.0084C16.0466 29.5036 15.7679 24.9808 16.4897 23.1025" fill="#F7F2BF"/>
<path fill-rule="evenodd" clip-rule="evenodd" d="M20.7954 19.9794C20.2241 19.2049 19.6165 19.0444 19.1484 19.227C18.5297 19.4649 18.1562 20.3003 18.4517 21.0804C18.7053 21.7581 18.9505 21.9102 19.3852 22.2865C19.7466 22.5709 20.0405 22.9307 20.2464 23.3404C20.9013 24.765 20.369 27.2546 18.2008 27.1854C19.9342 27.6668 21.1605 26.3279 21.6147 24.8867C21.8418 24.0584 21.8862 23.1912 21.7448 22.3443C21.6034 21.4974 21.2796 20.6907 20.7954 19.9794Z" fill="#989A36"/>
<path fill-rule="evenodd" clip-rule="evenodd" d="M18.591 25.1439C17.9221 24.7705 17.3759 24.3556 17.0917 23.6778C16.9969 23.4538 16.9105 23.191 16.813 22.8812C16.6959 23.8493 16.5817 24.765 17.0722 25.5921C17.3508 26.0513 17.6908 26.4413 18.0197 26.5132C18.8557 26.6958 19.5859 25.6999 18.5938 25.1301" fill="#F7F2BF"/>
<path d="M63.684 19.12C65.22 18.376 66.132 17.032 66.132 15.208C66.132 12.484 64.152 10.72 60.744 10.72H52.776V28H61.152C64.572 28 66.516 26.104 66.516 23.188C66.516 21.208 65.544 19.768 63.684 19.12ZM56.172 13.696H60.348C61.824 13.696 62.688 14.464 62.688 15.748C62.688 17.08 61.728 17.812 60.276 17.812H56.172V13.696ZM60.756 25.024H56.172V20.68H60.72C62.124 20.68 63.072 21.46 63.072 22.84C63.072 24.172 62.208 25.024 60.756 25.024ZM73.4771 15.052C71.3171 15.052 69.4811 15.904 68.3771 17.296L70.3571 19.192C71.0651 18.352 72.0491 17.752 73.2611 17.752C74.7371 17.752 75.6971 18.484 75.6971 20.2V20.356H73.8131C69.9611 20.356 67.8491 21.604 67.8491 24.364C67.8491 26.848 69.7451 28.324 72.1211 28.324C73.9811 28.324 75.1571 27.568 75.7571 26.596V28H78.9251V20.176C78.9251 16.732 76.8491 15.052 73.4771 15.052ZM75.7091 23.26C75.7091 24.448 74.6291 25.9 72.9131 25.9C71.7011 25.9 70.9571 25.36 70.9571 24.256C70.9571 22.996 72.2651 22.576 74.2091 22.576H75.7091V23.26ZM86.4628 28.372C89.5948 28.372 91.9108 26.992 91.9108 24.22C91.9108 21.388 89.5828 20.62 87.1948 20.248C85.3228 19.96 84.3028 19.72 84.3028 18.82C84.3028 18.016 85.2028 17.644 86.4148 17.644C87.7588 17.644 88.8988 17.98 89.8108 18.904L91.7188 17.02C90.4108 15.664 88.7308 14.98 86.4268 14.98C83.2348 14.98 81.1348 16.456 81.1348 18.94C81.1348 21.544 83.1508 22.564 85.8628 22.972C87.7588 23.248 88.7428 23.5 88.7428 24.424C88.7428 25.252 87.9148 25.708 86.5228 25.708C84.7348 25.708 83.3668 25.156 82.4308 24.088L80.3788 26.008C81.6148 27.4 83.5948 28.372 86.4628 28.372ZM99.3694 28.336C101.445 28.336 103.401 27.688 104.817 24.928L102.105 23.668C101.421 25.012 100.593 25.54 99.4294 25.54C97.5454 25.54 96.3094 24.076 96.3094 21.688C96.3094 19.384 97.4614 17.836 99.4294 17.836C100.557 17.836 101.409 18.328 102.105 19.576L104.793 18.232C103.449 15.712 101.253 15.052 99.3454 15.052C95.5414 15.052 93.0094 17.668 93.0094 21.7C93.0094 25.696 95.5654 28.336 99.3694 28.336ZM112.144 28.324C115.792 28.324 118.528 25.768 118.528 21.676C118.528 17.572 115.792 15.016 112.144 15.016C108.484 15.016 105.748 17.572 105.748 21.676C105.748 25.768 108.484 28.324 112.144 28.324ZM112.144 25.528C110.26 25.528 109.048 24.052 109.048 21.676C109.048 19.288 110.26 17.812 112.144 17.812C114.028 17.812 115.24 19.288 115.24 21.676C115.24 24.052 114.028 25.528 112.144 25.528ZM127.481 15.028C125.285 15.028 124.073 16.048 123.617 16.852V15.34H120.461V28H123.677V20.692C123.677 19.204 124.673 17.776 126.377 17.776C127.649 17.776 128.489 18.544 128.489 20.188V28H131.705V19.432C131.705 16.48 129.785 15.028 127.481 15.028ZM141.038 25.36C140.474 25.528 140.102 25.576 139.706 25.576C138.65 25.576 138.254 25.228 138.254 23.896V18.004H141.362V15.34H138.254V11.824H135.038V15.34H133.094V18.004H135.038V24.712C135.038 27.352 136.658 28.336 138.998 28.336C139.814 28.336 140.87 28.18 141.698 27.892L141.038 25.36ZM150.027 25.36C149.463 25.528 149.091 25.576 148.695 25.576C147.639 25.576 147.243 25.228 147.243 23.896V18.004H150.351V15.34H147.243V11.824H144.027V15.34H142.083V18.004H144.027V24.712C144.027 27.352 145.647 28.336 147.987 28.336C148.803 28.336 149.859 28.18 150.687 27.892L150.027 25.36ZM152.336 13.54H155.72V10.72H152.336V13.54ZM152.42 28H155.636V15.34H152.42V28Z" fill="#353E6C"/>
</svg>
