<svg width="35" height="35" viewBox="0 0 35 35" fill="none" xmlns="http://www.w3.org/2000/svg">
<path d="M27.3432 30.0381H7.65628C6.16813 30.0381 4.96143 28.8316 4.96143 27.3432V7.65652C4.96143 6.16837 6.16813 4.96167 7.65628 4.96167H27.3432C28.8314 4.96167 30.0381 6.16837 30.0381 7.65652V27.3435C30.0381 28.8316 28.8314 30.0381 27.3432 30.0381Z" fill="#F5F5FB"/>
<path d="M7.65628 30.0381H27.3432C28.8314 30.0381 30.0381 28.8316 30.0381 27.3432V16.3315C30.0381 16.3315 25.3395 11.141 17.4998 11.141C9.10411 11.141 4.96143 16.2794 4.96143 16.2794V27.3432C4.96143 28.8316 6.16813 30.0381 7.65628 30.0381Z" fill="#BACCFD"/>
<path d="M27.3435 30.038C28.8317 30.038 30.0384 28.8316 30.0384 27.3432V26.3827L22.6871 19.2466C21.9453 18.5267 20.7658 18.5253 20.0229 19.2439L15.1641 23.9428V30.038H27.3435Z" fill="#B3B820"/>
<path d="M29.9628 27.9795C28.3817 27.9907 26.2431 27.7675 24.3183 26.7651C21.8206 25.4641 19.7893 22.2974 18.769 20.4568L15.1641 23.9428V30.038H27.3435C28.6124 30.038 29.6768 29.1609 29.9628 27.9795Z" fill="#AFB252"/>
<path d="M33.8128 14.4444C33.1573 14.4444 32.6259 13.913 32.6259 13.2574V4.40598C32.6259 3.28552 31.7143 2.37415 30.5941 2.37415H21.7426C21.0871 2.37415 20.5557 1.84277 20.5557 1.18721C20.5557 0.531387 21.0871 0 21.7426 0H30.5941C33.0235 0 35.0001 1.97655 35.0001 4.40598V13.2574C35.0001 13.913 34.4687 14.4444 33.8128 14.4444Z" fill="#F5F5FB"/>
<path d="M13.2574 35H4.40598C1.97655 35 0 33.0232 0 30.5938V21.7426C0 21.0867 0.531387 20.5554 1.18721 20.5554C1.84277 20.5554 2.37415 21.0867 2.37415 21.7426V30.5938C2.37415 31.7142 3.28579 32.6256 4.40598 32.6256H13.2574C13.913 32.6256 14.4447 33.1572 14.4447 33.8128C14.4447 34.4684 13.913 35 13.2574 35Z" fill="#F5F5FB"/>
<path d="M21.3559 30.0381L13.3106 17.9425C12.2874 16.4041 10.1258 16.1566 8.78101 17.4236L4.96143 21.0237V27.3435C4.96143 28.8316 6.16813 30.0383 7.65628 30.0383H21.3559V30.0381Z" fill="#AFB252"/>
<path d="M25.4226 12.1575C25.4226 13.6387 24.2221 14.8393 22.7409 14.8393C21.2599 14.8393 20.0591 13.6387 20.0591 12.1575C20.0591 10.6766 21.2599 9.47577 22.7409 9.47577C24.2221 9.47577 25.4226 10.6766 25.4226 12.1575Z" fill="#F2F3CB"/>
</svg>
