<svg width="25" height="25" viewBox="0 0 25 25" fill="none" xmlns="http://www.w3.org/2000/svg">
<path d="M12.5 0.5C5.8832 0.5 0.500002 5.88319 0.500002 12.5C0.500002 15.8348 1.90488 19.0466 4.35435 21.3119C4.5524 21.4951 4.86139 21.4829 5.04454 21.285C5.22769 21.0868 5.21564 20.7779 5.01751 20.5948C2.7673 18.5137 1.4768 15.5633 1.4768 12.5C1.4768 6.42182 6.42182 1.47679 12.5 1.47679C18.5782 1.47679 23.5232 6.42182 23.5232 12.5C23.5232 18.5782 18.5782 23.5232 12.5 23.5232C12.2303 23.5232 12.0116 23.7419 12.0116 24.0116C12.0116 24.2813 12.2303 24.5 12.5 24.5C19.1169 24.5 24.5 19.1168 24.5 12.5C24.5 5.88319 19.1169 0.5 12.5 0.5Z" fill="#353E6C" stroke="#353E6C" stroke-width="0.3"/>
<path d="M7.47663 9H17.5234C17.7866 9 18 8.77608 18 8.5C18 8.22392 17.7866 8 17.5234 8H7.47663C7.21345 8 7 8.22392 7 8.5C7 8.77608 7.21345 9 7.47663 9Z" fill="#353E6C" stroke="#353E6C" stroke-width="0.5"/>
<path d="M7.47663 13H17.5234C17.7866 13 18 12.7761 18 12.5C18 12.2239 17.7866 12 17.5234 12H7.47663C7.21345 12 7 12.2239 7 12.5C7 12.7761 7.21345 13 7.47663 13Z" fill="#353E6C" stroke="#353E6C" stroke-width="0.5"/>
<path d="M18 16.5C18 16.2239 17.7866 16 17.5234 16H7.47663C7.21345 16 7 16.2239 7 16.5C7 16.7761 7.21345 17 7.47663 17H17.5234C17.7866 17 18 16.7761 18 16.5Z" fill="#353E6C" stroke="#353E6C" stroke-width="0.5"/>
</svg>
