<svg width="25" height="25" viewBox="0 0 25 25" fill="none" xmlns="http://www.w3.org/2000/svg">
<path d="M12.5 0.5C5.88318 0.5 0.5 5.88319 0.5 12.5C0.5 19.1168 5.88318 24.5 12.5 24.5C15.6165 24.5 18.5697 23.3108 20.8156 21.1515C21.0101 20.9647 21.0162 20.6554 20.8292 20.461C20.6424 20.2667 20.3333 20.2605 20.1387 20.4474C18.0756 22.4309 15.3629 23.5232 12.5 23.5232C6.4218 23.5233 1.47679 18.5783 1.47679 12.5C1.47679 6.42173 6.4218 1.47679 12.5 1.47679C18.5781 1.47679 23.5231 6.42182 23.5231 12.5C23.5231 13.8709 23.2747 15.2084 22.7848 16.4751C22.6875 16.7267 22.8125 17.0095 23.0641 17.1069C23.3158 17.204 23.5985 17.0791 23.6959 16.8275C24.2294 15.4479 24.5 13.9919 24.5 12.4999C24.5 5.88319 19.1168 0.5 12.5 0.5Z" fill="#353E6C" stroke="#353E6C" stroke-width="0.3"/>
<path d="M17.2022 15.7645L14.1877 12.75L17.2022 9.73554C17.5992 9.33854 17.5992 8.69484 17.2022 8.29779C16.8051 7.90074 16.1614 7.90079 15.7645 8.29779L12.75 11.3123L9.7355 8.29779C9.33855 7.90074 8.69476 7.90074 8.29776 8.29779C7.90076 8.69484 7.90076 9.33854 8.29781 9.73554L11.3123 12.75L8.29781 15.7645C7.90076 16.1615 7.90071 16.8052 8.29776 17.2022C8.69491 17.5993 9.3386 17.5992 9.7355 17.2022L12.75 14.1878L15.7645 17.2022C16.1614 17.5992 16.8052 17.5993 17.2022 17.2022C17.5993 16.8052 17.5992 16.1615 17.2022 15.7645Z" fill="#353E6C"/>
</svg>
