<svg width="70" height="70" viewBox="0 0 70 70" fill="none" xmlns="http://www.w3.org/2000/svg">
<g clip-path="url(#clip0)">
<path d="M54.0145 31.9712C62.8431 31.9712 70 24.8143 70 15.9857C70 7.15719 62.8431 0.000244141 54.0145 0.000244141C45.186 0.000244141 38.0291 7.15719 38.0291 15.9857C38.0291 24.8143 45.186 31.9712 54.0145 31.9712Z" fill="#FFCE71"/>
<path d="M54.0146 25.6336C59.3428 25.6336 63.6622 21.3142 63.6622 15.986C63.6622 10.6578 59.3428 6.33838 54.0146 6.33838C48.6863 6.33838 44.3669 10.6578 44.3669 15.986C44.3669 21.3142 48.6863 25.6336 54.0146 25.6336Z" fill="#FC8A3D"/>
<path d="M49.2829 0.715088C42.7712 2.73692 38.0289 8.81791 38.0289 15.9858C38.0289 23.1537 42.7712 29.2347 49.2829 31.2565C46.1436 26.8837 44.367 21.5676 44.367 15.9858C44.367 10.404 46.1436 5.08791 49.2829 0.715088Z" fill="#FFB357"/>
<path d="M47.8173 14.3289C47.2339 14.3289 46.761 14.8018 46.761 15.3852V16.7936C46.761 17.377 47.2339 17.85 47.8173 17.85C48.4007 17.85 48.8737 17.377 48.8737 16.7936V15.3852C48.8737 14.8018 48.4007 14.3289 47.8173 14.3289Z" fill="#313D40"/>
<path d="M60.2116 14.3289C59.6282 14.3289 59.1553 14.8018 59.1553 15.3852V16.7936C59.1553 17.377 59.6282 17.85 60.2116 17.85C60.795 17.85 61.2679 17.377 61.2679 16.7936V15.3852C61.2679 14.8018 60.795 14.3289 60.2116 14.3289Z" fill="#313D40"/>
<path d="M56.794 15.559C56.2677 15.3071 55.637 15.53 55.3854 16.0563C55.1508 16.547 54.6402 16.864 54.0849 16.864C53.5295 16.864 53.0189 16.547 52.7843 16.0563C52.5326 15.53 51.9018 15.3073 51.3757 15.559C50.8494 15.8107 50.6267 16.4414 50.8784 16.9676C51.462 18.1881 52.7206 18.9767 54.0849 18.9767C55.4491 18.9767 56.7078 18.1881 57.2913 16.9676C57.543 16.4412 57.3203 15.8105 56.794 15.559Z" fill="#313D40"/>
<path d="M70.0001 40.4221C70.0001 38.0885 68.1084 36.1968 65.7747 36.1968H42.2543C39.9208 36.1968 38.0289 38.0885 38.0289 40.4221C38.0289 42.7556 39.9206 44.6475 42.2543 44.6475H39.4374C37.1037 44.6475 35.212 46.5392 35.212 48.8728C35.212 51.2064 37.1037 53.0982 39.4374 53.0982H42.2543C39.9208 53.0982 38.0289 54.9899 38.0289 57.3235C38.0289 59.6571 39.9206 61.5489 42.2543 61.5489C39.9208 61.5489 38.0289 63.4406 38.0289 65.7742C38.0289 68.1078 39.9206 69.9996 42.2543 69.9996H65.7747C68.1084 69.9996 70.0001 68.1078 70.0001 65.7742C70.0001 63.4406 68.1084 61.5489 65.7747 61.5489C68.1084 61.5489 70.0001 59.6571 70.0001 57.3235C70.0001 54.9899 68.1084 53.0982 65.7747 53.0982H62.9578C65.2915 53.0982 67.1832 51.2064 67.1832 48.8728C67.1832 46.5392 65.2915 44.6475 62.9578 44.6475H65.7747C68.1084 44.6475 70.0001 42.7556 70.0001 40.4221Z" fill="#FFCE71"/>
<path d="M52.1133 53.0982H51.8067C49.537 53.0982 47.527 51.2437 47.546 48.8268C47.5637 46.528 49.5074 44.6478 51.8061 44.6475H52.1126C49.7794 42.3138 49.7795 38.5306 52.1129 36.1971L52.1132 36.1968H42.3419C40.0397 36.1968 38.0935 38.0018 38.0302 40.3033C37.9647 42.6911 39.8809 44.6475 42.2539 44.6475H39.5249C37.2226 44.6475 35.2764 46.4526 35.2132 48.754C35.1477 51.1418 37.0639 53.0982 39.4368 53.0982H42.2537C39.9202 53.0982 38.0284 54.9899 38.0284 57.3235C38.0284 59.6571 39.9201 61.5489 42.2537 61.5489C39.8808 61.5489 37.9646 63.5051 38.0301 65.8928C38.0932 68.1944 40.0394 69.9996 42.3416 69.9996H52.1126C49.7794 67.6659 49.7795 63.8827 52.1129 61.5492L52.1132 61.5489C52.1129 61.5489 52.1127 61.5489 52.1125 61.5489C49.7792 59.2152 49.7794 55.432 52.1127 53.0985L52.1133 53.0982Z" fill="#FFB357"/>
<path d="M30.5627 53.0984H7.04225C4.70859 53.0984 2.8169 54.9901 2.8169 57.3237C2.8169 59.6573 4.70859 61.5491 7.04225 61.5491H4.22535C1.89169 61.5491 0 63.4408 0 65.7744C0 68.108 1.89169 69.9998 4.22535 69.9998H27.7458C30.0793 69.9998 31.9711 68.108 31.9711 65.7744C31.9711 63.4408 30.0794 61.5491 27.7458 61.5491H30.5627C32.8963 61.5491 34.788 59.6573 34.788 57.3237C34.788 54.9901 32.8963 53.0984 30.5627 53.0984Z" fill="#FFCE71"/>
<path d="M19.7184 53.0984H7.13022C4.82797 53.0984 2.88177 54.9035 2.81853 57.2049C2.75304 59.5926 4.66924 61.5491 7.04233 61.5491H4.31332C2.01107 61.5491 0.0648697 63.3542 0.00163031 65.6556C-0.0638626 68.0433 1.85233 69.9998 4.22543 69.9998H16.9015L16.8285 69.9247C15.9147 67.0911 16.6739 63.8246 19.7184 61.5491C17.3849 59.2154 17.3849 55.4319 19.7184 53.0984Z" fill="#FFB357"/>
<path d="M34.1902 23.7322H27.0941C25.9274 23.7322 24.9814 24.6781 24.9814 25.8449C24.9814 27.0116 25.9274 27.9575 27.0941 27.9575H29.0897L11.5696 45.4777C10.7445 46.3026 10.7445 47.6403 11.5696 48.4654C11.9821 48.878 12.5228 49.0843 13.0634 49.0843C13.604 49.0843 14.1448 48.878 14.5572 48.4654L32.0775 30.9451V32.9409C32.0775 34.1077 33.0234 35.0536 34.1902 35.0536C35.3569 35.0536 36.3028 34.1077 36.3028 32.9409V25.8447C36.3028 24.678 35.3569 23.7322 34.1902 23.7322Z" fill="#00CE8E"/>
</g>
<defs>
<clipPath id="clip0">
<rect width="70" height="70" fill="white"/>
</clipPath>
</defs>
</svg>
