<svg width="355" height="200" viewBox="0 0 355 200" fill="none" xmlns="http://www.w3.org/2000/svg">
<path d="M42.7892 37.7644C42.7892 37.7644 31.6507 158.016 54.8613 196.677L261.301 199.115C261.301 199.115 227.106 94.8781 230.068 34.6185L42.7892 37.7644Z" fill="#E0E0E0"/>
<path d="M42.7892 37.7644C42.7892 37.7644 29.7061 161.763 70.4719 188.262H269.43C269.43 188.262 234.118 127.729 231.335 37.7644H42.7892Z" fill="#EBEBEB"/>
<path d="M235.337 8.76746H41.7782V39.8042H235.337V8.76746Z" fill="#263238"/>
<path d="M59.0776 9.01136C59.0776 9.01136 61.0282 2 68.1407 2C74.2005 2 77.2037 6.86454 77.2037 11.3247C77.2037 15.7848 74.4503 20.5007 68.1407 20.8397" stroke="#E0E0E0" stroke-width="3" stroke-linecap="round" stroke-linejoin="round"/>
<path d="M65.7499 8.66052H56.1992V12.9244H65.7499V8.66052Z" fill="#263238"/>
<path d="M95.847 9.01136C95.847 9.01136 97.7976 2 104.91 2C110.97 2 113.973 6.86454 113.973 11.3247C113.973 15.7848 111.22 20.5007 104.91 20.8397" stroke="#E0E0E0" stroke-width="3" stroke-linecap="round" stroke-linejoin="round"/>
<path d="M102.525 8.66052H92.9747V12.9244H102.525V8.66052Z" fill="#263238"/>
<path d="M132.623 9.01136C132.623 9.01136 134.573 2 141.686 2C147.745 2 150.749 6.86454 150.749 11.3247C150.749 15.7848 147.995 20.5007 141.686 20.8397" stroke="#E0E0E0" stroke-width="3" stroke-linecap="round" stroke-linejoin="round"/>
<path d="M139.295 8.66052H129.744V12.9244H139.295V8.66052Z" fill="#263238"/>
<path d="M169.392 9.01136C169.392 9.01136 171.343 2 178.455 2C184.515 2 187.518 6.86454 187.518 11.3247C187.518 15.7848 184.765 20.5007 178.455 20.8397" stroke="#E0E0E0" stroke-width="3" stroke-linecap="round" stroke-linejoin="round"/>
<path d="M176.07 8.66052H166.52V12.9244H176.07V8.66052Z" fill="#263238"/>
<path d="M206.167 9.01136C206.167 9.01136 208.118 2 215.231 2C221.29 2 224.294 6.86454 224.294 11.3247C224.294 15.7848 221.54 20.5007 215.231 20.8397" stroke="#E0E0E0" stroke-width="3" stroke-linecap="round" stroke-linejoin="round"/>
<path d="M212.84 8.66052H203.289V12.9244H212.84V8.66052Z" fill="#263238"/>
<path d="M41.796 40.9579C41.796 40.9579 39.6551 179.145 84.4469 179.145L268.437 179.211C268.437 179.211 242.14 152.378 234.35 40.9579H41.796Z" fill="#F5F5F5"/>
<path d="M242.188 162.09C242.146 161.971 241.95 161.412 241.516 160.199C241.081 158.985 240.409 157.13 239.607 154.692C237.959 149.845 235.658 142.679 233.023 133.42C227.725 114.913 221.338 87.9441 216.372 54.7071L216.497 54.8141H60.493H59.0062L59.1609 54.6357C61.9678 74.641 64.852 94.1408 69.5203 112.404C71.7565 121.331 74.5835 130.1 77.9827 138.653C81.2089 146.758 85.1203 154.572 89.6742 162.012L89.5553 161.947L242.182 162.09L89.5553 162.226H89.478L89.4364 162.161C84.8668 154.718 80.9395 146.899 77.6972 138.79C74.293 130.227 71.4601 121.448 69.217 112.511C64.5368 94.224 61.6526 74.7183 58.8397 54.7071V54.5287H60.5048L216.509 54.5584H216.616V54.6655C221.558 87.9025 227.915 114.872 233.16 133.378C235.777 142.643 238.049 149.815 239.702 154.668C241.355 159.521 242.11 161.846 242.188 162.09Z" fill="#263238"/>
<path d="M225.661 108.306C225.661 108.395 190.527 108.461 147.198 108.461C103.869 108.461 68.6996 108.395 68.6996 108.306C68.6996 108.217 103.828 108.152 147.198 108.152C190.569 108.152 225.661 108.211 225.661 108.306Z" fill="#263238"/>
<path d="M234.118 137.012C234.118 137.095 198.972 137.166 155.619 137.166C112.266 137.166 77.1204 137.095 77.1204 137.012C77.1204 136.928 112.254 136.857 155.619 136.857C198.984 136.857 234.118 136.922 234.118 137.012Z" fill="#263238"/>
<path d="M220.351 80.6473C220.351 80.7305 185.217 80.8019 141.888 80.8019C98.5588 80.8019 63.389 80.7305 63.389 80.6473C63.389 80.564 98.5172 80.4927 141.888 80.4927C185.258 80.4927 220.351 80.5581 220.351 80.6473Z" fill="#263238"/>
<path d="M115.127 162.09C115.127 162.09 115.091 162 115.032 161.822C114.972 161.644 114.883 161.364 114.776 161.025C114.55 160.306 114.229 159.271 113.813 157.951C112.98 155.281 111.814 151.409 110.405 146.61C107.604 137.012 103.893 123.703 100.295 108.871C98.5113 101.455 96.9116 94.3608 95.5379 87.8906C94.1641 81.4204 93.0402 75.5747 92.166 70.6447C91.7081 68.1827 91.3334 65.9526 90.9766 63.9961C90.6198 62.0396 90.3819 60.3507 90.156 58.971C89.93 57.5913 89.7813 56.5269 89.6683 55.7894C89.6208 55.4326 89.5791 55.1591 89.5494 54.9569C89.5196 54.7547 89.5197 54.6774 89.5197 54.6774C89.5467 54.7672 89.5686 54.8586 89.5851 54.9509C89.6208 55.1531 89.6683 55.4267 89.7337 55.7775L90.2749 58.9472C90.5009 60.3269 90.7982 62.0158 91.1491 63.9664C91.5 65.917 91.8865 68.1292 92.3385 70.6031C93.2424 75.5211 94.4199 81.355 95.7758 87.849C97.1316 94.343 98.7492 101.402 100.533 108.818C104.101 123.643 107.794 136.958 110.542 146.568C111.921 151.367 113.051 155.251 113.854 157.933C114.241 159.265 114.544 160.312 114.758 161.019L114.984 161.828C115.109 161.995 115.127 162.09 115.127 162.09Z" fill="#263238"/>
<path d="M145.575 162.09C145.575 162.09 145.539 162 145.48 161.816L145.23 161.019L144.29 157.939C143.476 155.269 142.334 151.397 140.942 146.586C138.183 136.976 134.448 123.673 130.833 108.853C127.217 94.0337 124.345 80.5046 122.584 70.6625C122.132 68.2064 121.74 65.9764 121.431 64.0139C121.121 62.0514 120.836 60.3685 120.628 58.9828C120.42 57.5972 120.271 56.5446 120.164 55.8013C120.116 55.4445 120.081 55.1709 120.051 54.9687C120.021 54.7665 120.003 54.6892 120.003 54.6892C120.003 54.6892 120.003 54.7784 120.063 54.9687L120.205 55.7894C120.33 56.5327 120.503 57.5734 120.729 58.965C120.955 60.3566 121.24 62.0336 121.579 63.9901C121.918 65.9466 122.317 68.1529 122.769 70.6268C124.582 80.451 127.443 93.9683 131.094 108.782C134.746 123.596 138.421 136.899 141.127 146.521L144.385 157.909C144.766 159.241 145.057 160.288 145.266 161.001L145.486 161.81C145.522 161.901 145.552 161.994 145.575 162.09Z" fill="#263238"/>
<path d="M177.391 162.09C177.352 162.002 177.319 161.913 177.289 161.822C177.23 161.626 177.141 161.364 177.028 161.025L176.058 157.951C175.208 155.286 174.025 151.409 172.58 146.652C169.725 137.065 165.866 123.792 162.179 108.978C158.491 94.1645 155.685 80.5937 154.067 70.7457C153.657 68.2837 153.294 66.0477 153.02 64.0792C152.747 62.1108 152.485 60.4219 152.325 59.0304C152.164 57.6388 152.027 56.5802 151.938 55.8309C151.896 55.4801 151.867 55.2006 151.843 54.9984C151.819 54.7962 151.843 54.7189 151.843 54.7189C151.843 54.7189 151.843 54.8081 151.89 54.9984L152.015 55.825C152.122 56.5683 152.271 57.6091 152.461 59.0125C152.652 60.416 152.907 62.093 153.211 64.0555C153.514 66.0179 153.877 68.248 154.299 70.71C155.976 80.5699 158.783 94.105 162.494 108.907C166.205 123.708 170.005 136.994 172.811 146.592C174.233 151.379 175.386 155.251 176.189 157.945C176.582 159.277 176.891 160.323 177.105 161.037C177.204 161.378 177.282 161.646 177.337 161.84C177.373 161.994 177.391 162.09 177.391 162.09Z" fill="#263238"/>
<path d="M209.206 162.09C209.168 162.002 209.134 161.913 209.105 161.822L208.838 161.025C208.6 160.312 208.243 159.283 207.833 157.963C206.964 155.304 205.739 151.421 204.264 146.663C201.291 137.101 197.33 123.851 193.56 109.05C191.657 101.652 189.992 94.563 188.684 88.0749C187.982 84.8398 187.429 81.7415 186.9 78.8513C186.65 77.4003 186.41 76.0008 186.18 74.6528C185.948 73.3089 185.734 72.0124 185.585 70.7755C184.003 60.874 183.635 54.6892 183.635 54.6892C183.635 54.6892 183.635 54.7844 183.676 54.9687C183.718 55.1531 183.736 55.4445 183.777 55.8013C183.861 56.5506 183.974 57.627 184.128 59.0066C184.283 60.3863 184.503 62.0931 184.759 64.0615C185.014 66.0299 185.353 68.2719 185.728 70.7398C185.906 71.9768 186.132 73.2732 186.37 74.6172C186.608 75.9612 186.852 77.3587 187.102 78.8097C187.667 81.6939 188.232 84.7863 188.933 88.0155C190.283 94.4916 191.937 101.58 193.834 108.978C197.61 123.768 201.565 137.024 204.455 146.598L207.94 157.927C208.35 159.253 208.671 160.306 208.891 161.007C208.992 161.352 209.07 161.602 209.129 161.81C209.188 162.018 209.206 162.09 209.206 162.09Z" fill="#263238"/>
<path d="M94.3247 65.3224C94.3247 65.3224 95.6627 78.3519 100.836 86.4873H131.302C131.302 86.4873 123.898 73.309 122.977 64.1508L122.311 59.0187H93.837L94.3247 65.3224Z" fill="#455A64"/>
<path d="M119.611 67.6058C119.611 67.695 115.275 67.7604 109.923 67.7604C104.571 67.7604 100.236 67.695 100.236 67.6058C100.236 67.5166 104.571 67.4512 109.923 67.4512C115.275 67.4512 119.611 67.5225 119.611 67.6058Z" fill="#FAFAFA"/>
<path d="M120.598 70.9005C120.598 70.9897 116.263 71.0551 110.91 71.0551C105.558 71.0551 101.223 70.9897 101.223 70.9005C101.223 70.8113 105.558 70.7458 110.91 70.7458C116.263 70.7458 120.598 70.8172 120.598 70.9005Z" fill="#FAFAFA"/>
<path d="M121.55 74.195C121.55 74.2783 117.214 74.3496 111.862 74.3496C106.51 74.3496 102.163 74.2783 102.163 74.195C102.163 74.1118 106.498 74.0404 111.85 74.0404C117.202 74.0404 121.55 74.1118 121.55 74.195Z" fill="#FAFAFA"/>
<path d="M122.519 77.4896C122.519 77.5728 118.183 77.6442 112.831 77.6442C107.479 77.6442 103.144 77.5728 103.144 77.4896C103.144 77.4063 107.479 77.335 112.831 77.335C118.183 77.335 122.519 77.4004 122.519 77.4896Z" fill="#FAFAFA"/>
<path d="M198.877 97.4414C198.877 97.4414 200.215 110.471 205.388 118.6H235.842C235.842 118.6 228.438 105.428 227.517 96.2698L226.851 91.1317H198.365L198.877 97.4414Z" fill="#263238"/>
<path d="M224.163 99.0708C224.163 99.16 219.827 99.2254 214.475 99.2254C209.123 99.2254 204.788 99.16 204.788 99.0708C204.788 98.9816 209.129 98.9161 214.475 98.9161C219.822 98.9161 224.163 98.9875 224.163 99.0708Z" fill="#E0E0E0"/>
<path d="M225.132 102.365C225.132 102.449 220.797 102.52 215.445 102.52C210.092 102.52 205.757 102.449 205.757 102.365C205.757 102.282 210.092 102.211 215.445 102.211C220.797 102.211 225.132 102.264 225.132 102.365Z" fill="#E0E0E0"/>
<path d="M226.101 105.66C226.101 105.743 221.766 105.814 216.414 105.814C211.062 105.814 206.727 105.743 206.727 105.66C206.727 105.577 211.062 105.505 216.414 105.505C221.766 105.505 226.101 105.577 226.101 105.66Z" fill="#E0E0E0"/>
<path d="M227.047 108.954C227.047 109.038 222.712 109.109 217.36 109.109C212.007 109.109 207.672 109.038 207.672 108.954C207.672 108.871 212.007 108.8 217.36 108.8C222.712 108.8 227.047 108.865 227.047 108.954Z" fill="#E0E0E0"/>
<path d="M179.222 57.1215C179.537 57.3772 175.595 62.6283 169.636 68.0637C163.677 73.4992 158.123 76.984 157.897 76.6569C157.671 76.3299 162.731 72.3038 168.601 66.9219C174.471 61.54 178.877 56.8301 179.222 57.1215Z" fill="#AFB252"/>
<path d="M184.997 77.1506C184.747 77.5015 178.092 73.1722 169.898 67.826C161.703 62.4797 155.072 58.1207 155.292 57.7163C155.512 57.3119 162.523 61.1238 170.754 66.4998C178.984 71.8758 185.24 76.8057 184.997 77.1506Z" fill="#AFB252"/>
<path d="M127.532 74.7303C127.27 74.3913 131.653 70.621 137.314 66.3095C142.976 61.998 147.775 58.7807 148.019 59.1197C148.263 59.4587 143.898 63.229 138.236 67.5405C132.575 71.852 127.788 75.0692 127.532 74.7303Z" fill="#AFB252"/>
<path d="M151.587 76.5678C151.313 76.9246 145.486 72.8153 138.082 68.0935C130.678 63.3717 124.523 59.7679 124.725 59.3932C124.927 59.0186 131.463 62.0099 138.92 66.7912C146.378 71.5724 151.843 76.2467 151.587 76.5678Z" fill="#AFB252"/>
<path d="M153.264 111.274C153.264 111.226 153.567 111.155 154.162 111.113C155.038 111.085 155.914 111.173 156.767 111.375C158.131 111.691 159.427 112.247 160.597 113.016C162.172 114.036 163.489 115.408 164.444 117.024C165.595 119.012 166.2 121.269 166.199 123.566C166.208 124.838 166.048 126.106 165.723 127.336C165.364 128.644 164.815 129.892 164.093 131.041C162.457 133.587 160.104 135.591 157.33 136.801C154.556 138.011 151.486 138.372 148.507 137.838C145.414 137.31 142.553 135.859 140.3 133.676C138.218 131.608 136.831 128.943 136.333 126.052C135.864 123.458 136.111 120.785 137.047 118.321C137.866 116.178 139.261 114.303 141.079 112.903C142.554 111.759 144.251 110.935 146.062 110.483C147.42 110.129 148.828 110.013 150.225 110.138C150.495 110.152 150.763 110.185 151.028 110.239C151.278 110.281 151.51 110.31 151.724 110.364C152.146 110.483 152.503 110.566 152.782 110.679C153.335 110.905 153.615 111.048 153.597 111.095C153.55 111.244 152.408 110.75 150.196 110.738C148.878 110.735 147.568 110.935 146.312 111.333C144.654 111.837 143.113 112.668 141.781 113.777C140.178 115.1 138.963 116.832 138.266 118.791C137.469 121.041 137.293 123.465 137.755 125.808C138.23 128.386 139.488 130.756 141.359 132.593C143.404 134.545 145.986 135.84 148.774 136.31C151.553 136.819 154.422 136.465 156.993 135.293C159.393 134.207 161.438 132.465 162.892 130.268C163.554 129.249 164.065 128.139 164.409 126.973C164.726 125.865 164.895 124.719 164.914 123.566C164.953 121.495 164.464 119.449 163.493 117.619C162.663 116.104 161.505 114.793 160.103 113.783C159.041 113.004 157.86 112.401 156.606 111.999C154.525 111.309 153.258 111.416 153.264 111.274Z" fill="#AFB252"/>
<path d="M68.6639 104.857C68.3428 104.589 72.0893 99.5048 77.3523 93.7363C82.5261 88.0689 87.2717 83.7039 87.6523 84.0905C88.0329 84.477 83.7214 89.0561 78.4941 94.7948C73.2668 100.534 69.0029 105.13 68.6639 104.857Z" fill="#AFB252"/>
<path d="M92.7844 102.431C92.5584 102.794 86.4747 99.4573 79.1958 94.9437C71.9168 90.43 66.1959 86.4991 66.4219 86.1364C66.6479 85.7736 72.6601 89.1098 79.9451 93.6235C87.23 98.1371 93.0103 102.068 92.7844 102.431Z" fill="#AFB252"/>
<path d="M150.636 115.989L152.961 119.326C153.054 119.463 153.18 119.576 153.327 119.653C153.475 119.73 153.639 119.768 153.805 119.766H157.873C158.064 119.765 158.252 119.818 158.416 119.918C158.579 120.018 158.711 120.162 158.797 120.333C158.883 120.504 158.919 120.696 158.902 120.887C158.885 121.078 158.815 121.26 158.699 121.413L156.243 124.654C156.143 124.786 156.077 124.941 156.05 125.105C156.023 125.268 156.036 125.436 156.089 125.594L157.367 129.453C157.428 129.635 157.437 129.83 157.393 130.016C157.348 130.202 157.252 130.372 157.116 130.507C156.98 130.641 156.808 130.735 156.621 130.776C156.435 130.818 156.24 130.807 156.059 130.744L152.217 129.412C152.06 129.359 151.892 129.345 151.727 129.369C151.563 129.394 151.407 129.458 151.272 129.554L147.995 131.969C147.841 132.082 147.658 132.15 147.467 132.165C147.276 132.18 147.085 132.141 146.915 132.052C146.745 131.964 146.604 131.829 146.506 131.664C146.409 131.499 146.361 131.31 146.366 131.118L146.443 127.057C146.446 126.89 146.408 126.725 146.334 126.576C146.259 126.427 146.15 126.298 146.015 126.2L142.714 123.821C142.564 123.71 142.448 123.559 142.378 123.386C142.309 123.212 142.288 123.023 142.319 122.839C142.349 122.654 142.43 122.482 142.553 122.341C142.675 122.199 142.834 122.094 143.012 122.037L146.907 120.848C147.065 120.799 147.21 120.712 147.328 120.595C147.446 120.478 147.534 120.334 147.585 120.176L148.816 116.305C148.87 116.12 148.975 115.954 149.118 115.826C149.262 115.698 149.438 115.613 149.627 115.58C149.817 115.547 150.012 115.568 150.19 115.641C150.368 115.713 150.523 115.834 150.636 115.989Z" fill="#AFB252"/>
<path d="M213.964 57.2643C214.249 57.5795 209.07 62.6878 202.391 68.6644C195.713 74.641 190.069 79.2261 189.784 78.9049C189.499 78.5838 194.678 73.4873 201.357 67.5107C208.035 61.5341 213.673 56.9432 213.964 57.2643Z" fill="#AFB252"/>
<path d="M217.841 75.634C217.651 76.0146 210.39 72.7617 201.63 68.3729C192.87 63.9841 185.913 60.1068 186.109 59.7202C186.305 59.3337 193.554 62.5925 202.32 66.9873C211.086 71.382 218.032 75.2534 217.841 75.634Z" fill="#AFB252"/>
<path d="M206.727 64.1091H242.188L250.698 70.6923L243.193 76.8473L209.195 76.8116L206.727 64.1091Z" fill="#455A64"/>
<path opacity="0.2" d="M150.636 115.989L152.961 119.326C153.054 119.463 153.18 119.576 153.327 119.653C153.475 119.73 153.639 119.768 153.805 119.766H157.873C158.064 119.765 158.252 119.818 158.416 119.918C158.579 120.018 158.711 120.162 158.797 120.333C158.883 120.504 158.919 120.696 158.902 120.887C158.885 121.078 158.815 121.26 158.699 121.413L156.243 124.654C156.143 124.786 156.077 124.941 156.05 125.105C156.023 125.268 156.036 125.436 156.089 125.594L157.367 129.453C157.428 129.635 157.437 129.83 157.393 130.016C157.348 130.202 157.252 130.372 157.116 130.507C156.98 130.641 156.808 130.735 156.621 130.776C156.435 130.818 156.24 130.807 156.059 130.744L152.217 129.412C152.06 129.359 151.892 129.345 151.727 129.369C151.563 129.394 151.407 129.458 151.272 129.554L147.995 131.969C147.841 132.082 147.658 132.15 147.467 132.165C147.276 132.18 147.085 132.141 146.915 132.052C146.745 131.964 146.604 131.829 146.506 131.664C146.409 131.499 146.361 131.31 146.366 131.118L146.443 127.057C146.446 126.89 146.408 126.725 146.334 126.576C146.259 126.427 146.15 126.298 146.015 126.2L142.714 123.821C142.564 123.71 142.448 123.559 142.378 123.386C142.309 123.212 142.288 123.023 142.319 122.839C142.349 122.654 142.43 122.482 142.553 122.341C142.675 122.199 142.834 122.094 143.012 122.037L146.907 120.848C147.065 120.799 147.21 120.712 147.328 120.595C147.446 120.478 147.534 120.334 147.585 120.176L148.816 116.305C148.87 116.12 148.975 115.954 149.118 115.826C149.262 115.698 149.438 115.613 149.627 115.58C149.817 115.547 150.012 115.568 150.19 115.641C150.368 115.713 150.523 115.834 150.636 115.989Z" fill="white"/>
<path d="M300.146 195.214L300.176 190.207H309.554L309.589 197.527L308.995 197.569C306.408 197.711 295.828 198.128 294.128 197.604C292.183 197.01 300.146 195.214 300.146 195.214Z" fill="#AFB252"/>
<g opacity="0.6">
<path opacity="0.6" d="M306.2 197.569C306.335 196.778 306.759 196.066 307.389 195.571C308.008 195.077 308.788 194.834 309.578 194.887V197.509L306.2 197.569Z" fill="white"/>
</g>
<g opacity="0.6">
<path opacity="0.6" d="M296.268 196.225C296.268 196.225 293.479 197.034 293.83 197.491C294.181 197.949 304.88 197.937 309.601 197.491V197.283L297.113 197.408C297.113 197.408 296.816 196.225 296.268 196.225Z" fill="white"/>
</g>
<path d="M309.655 197.236H309.494H309.031L307.324 197.307C305.885 197.361 303.898 197.408 301.698 197.414C299.498 197.42 297.535 197.379 296.072 197.331L294.372 197.266L293.908 197.236H293.747H294.372L296.078 197.271C297.517 197.271 299.504 197.325 301.698 197.319C303.892 197.313 305.861 197.277 307.324 197.248L309.031 197.206H309.625L309.655 197.236Z" fill="#263238"/>
<path d="M297.101 197.61C297.026 197.329 296.918 197.058 296.78 196.801C296.605 196.563 296.406 196.344 296.185 196.147C296.476 196.256 296.717 196.468 296.863 196.742C297.047 196.992 297.132 197.301 297.101 197.61Z" fill="#263238"/>
<path d="M300.045 195.987C300.045 195.987 299.884 195.844 299.747 195.624C299.61 195.404 299.521 195.226 299.551 195.208C299.581 195.19 299.706 195.351 299.842 195.565C299.941 195.688 300.01 195.833 300.045 195.987Z" fill="#263238"/>
<path d="M300.788 195.583C300.788 195.583 300.616 195.505 300.455 195.363C300.294 195.22 300.181 195.083 300.199 195.059C300.217 195.035 300.366 195.137 300.532 195.279C300.699 195.422 300.824 195.559 300.788 195.583Z" fill="#263238"/>
<path d="M301.282 194.696C301.282 194.732 301.062 194.756 300.794 194.762C300.526 194.768 300.3 194.762 300.3 194.708C300.458 194.652 300.627 194.631 300.794 194.649C300.958 194.628 301.125 194.644 301.282 194.696Z" fill="#263238"/>
<path d="M301.448 194.072C301.286 194.179 301.095 194.235 300.901 194.232C300.7 194.268 300.493 194.243 300.306 194.161C300.489 194.127 300.674 194.113 300.859 194.119C301.054 194.085 301.251 194.069 301.448 194.072Z" fill="#263238"/>
<path d="M299.724 195.166C299.527 195.199 299.326 195.199 299.129 195.166C298.911 195.138 298.696 195.091 298.487 195.023C298.359 194.987 298.235 194.937 298.118 194.875C298.046 194.833 297.993 194.765 297.969 194.684C297.96 194.64 297.964 194.593 297.981 194.551C297.998 194.509 298.027 194.472 298.064 194.447C298.293 194.334 298.555 194.304 298.803 194.363C299.051 194.421 299.272 194.564 299.426 194.768C299.52 194.884 299.587 195.02 299.623 195.166C299.652 195.273 299.623 195.333 299.623 195.333C299.563 195.145 299.47 194.97 299.349 194.815C299.209 194.661 299.03 194.546 298.832 194.482C298.715 194.444 298.592 194.429 298.469 194.438C298.347 194.447 298.228 194.48 298.118 194.536C298.023 194.607 298.059 194.72 298.166 194.78C298.273 194.84 298.386 194.888 298.505 194.922C298.697 194.994 298.897 195.047 299.099 195.083C299.498 195.148 299.724 195.148 299.724 195.166Z" fill="#263238"/>
<path d="M299.599 195.196C299.525 195.07 299.499 194.922 299.527 194.78C299.549 194.622 299.606 194.472 299.694 194.34C299.745 194.251 299.818 194.176 299.905 194.122C299.992 194.069 300.091 194.037 300.193 194.03C300.255 194.043 300.309 194.08 300.343 194.132C300.378 194.184 300.39 194.248 300.378 194.31C300.369 194.407 300.334 194.499 300.277 194.577C300.198 194.711 300.104 194.835 299.997 194.946C299.904 195.054 299.785 195.138 299.652 195.19C299.652 195.19 299.771 195.083 299.938 194.887C300.032 194.776 300.116 194.656 300.188 194.53C300.271 194.399 300.324 194.173 300.188 194.143C300.051 194.114 299.884 194.28 299.789 194.399C299.706 194.516 299.649 194.65 299.623 194.791C299.6 194.925 299.592 195.061 299.599 195.196Z" fill="#263238"/>
<path d="M309.708 194.845C309.708 194.845 309.441 194.845 309.019 194.875C308.47 194.931 307.948 195.137 307.508 195.469C307.078 195.82 306.752 196.28 306.562 196.802C306.42 197.206 306.408 197.474 306.384 197.474C306.376 197.41 306.376 197.346 306.384 197.283C306.403 197.112 306.437 196.943 306.485 196.778C306.654 196.227 306.985 195.741 307.435 195.381C307.885 195.021 308.432 194.806 309.007 194.762C309.179 194.745 309.352 194.745 309.524 194.762C309.59 194.78 309.652 194.808 309.708 194.845Z" fill="#263238"/>
<path d="M308.739 190.652C308.832 191.935 308.85 193.222 308.792 194.506C308.699 193.224 308.681 191.937 308.739 190.652Z" fill="#263238"/>
<path d="M305.195 196.35C304.747 196.455 304.287 196.501 303.827 196.486C303.368 196.512 302.908 196.476 302.459 196.379C302.459 196.344 303.054 196.379 303.827 196.379C304.6 196.379 305.195 196.314 305.195 196.35Z" fill="#263238"/>
<path d="M307.032 196.344C307.032 196.344 306.985 196.474 306.925 196.617C306.866 196.76 306.824 196.879 306.794 196.879C306.765 196.879 306.747 196.73 306.794 196.569C306.842 196.409 307.014 196.32 307.032 196.344Z" fill="#263238"/>
<path d="M307.728 195.481C307.728 195.481 307.686 195.6 307.591 195.701C307.496 195.802 307.395 195.862 307.377 195.838C307.359 195.814 307.413 195.719 307.508 195.618C307.603 195.517 307.704 195.458 307.728 195.481Z" fill="#263238"/>
<path d="M308.715 195.089C308.715 195.119 308.584 195.119 308.448 195.166C308.311 195.214 308.21 195.291 308.186 195.267C308.162 195.243 308.239 195.119 308.412 195.059C308.584 195 308.727 195.035 308.715 195.089Z" fill="#263238"/>
<path d="M309.423 194.899C309.423 194.928 309.381 194.976 309.304 195.006C309.226 195.035 309.149 195.041 309.137 195.006C309.125 194.97 309.185 194.928 309.262 194.899C309.339 194.869 309.411 194.869 309.423 194.899Z" fill="#263238"/>
<path d="M268.354 29.9563L350.884 33.2806V52.3106L267.135 49.236L268.354 29.9563Z" fill="#AFB252"/>
<path d="M253.617 37.033C253.617 37.033 248.919 36.474 247.807 38.496C247.807 38.496 248.759 41.065 253.415 40.8747L253.617 37.033Z" fill="#AFB252"/>
<path d="M253.213 36.147L252.743 41.41L258.399 41.963C258.399 41.963 260.724 42.1533 263.406 45.0376C266.088 47.9218 267.147 49.236 267.147 49.236L268.366 29.9563L264.649 33.4412C263.911 34.13 263.062 34.6908 262.139 35.1003C261.022 35.6507 259.836 36.0507 258.613 36.2897C256.812 36.3627 255.008 36.3151 253.213 36.147Z" fill="#263238"/>
<path d="M350.884 33.2805C350.884 33.2805 355.862 36.1291 354.869 43.4913C354.018 49.8366 350.884 52.3164 350.884 52.3164V33.2805Z" fill="#263238"/>
<path opacity="0.4" d="M267.961 36.9854L350.884 40.0183V45.1682L267.652 41.8558L267.961 36.9854Z" fill="white"/>
<g opacity="0.3">
<path opacity="0.3" d="M315.655 33.0961C316.946 33.1912 317.808 34.4401 318.944 35.0645C320.08 35.6889 321.43 35.6592 322.512 36.2955C322.993 36.5699 323.403 36.9525 323.71 37.4128C324.018 37.8732 324.214 38.3987 324.283 38.9479C324.352 39.4971 324.293 40.0549 324.109 40.5771C323.926 41.0994 323.623 41.5717 323.226 41.9569C322.256 42.8787 320.692 43.3841 320.407 44.6925C320.282 45.2871 320.199 46.1673 319.61 46.0721C319.283 46.0246 319.122 45.6558 318.884 45.4299C318.379 44.9422 317.499 45.1563 316.993 45.644C316.533 46.1807 316.134 46.7672 315.804 47.3923C315.639 47.702 315.396 47.9629 315.098 48.1487C314.801 48.3345 314.46 48.4387 314.109 48.4509C314.109 49.2359 314.109 50.1814 314.109 50.9664L310.041 50.7642L310.499 34.2022L315.655 33.0961Z" fill="black"/>
</g>
<path d="M328.881 195.511V190.51H319.473L319.437 197.83L320.032 197.866C322.619 198.015 333.192 198.425 334.899 197.902C336.844 197.313 328.881 195.511 328.881 195.511Z" fill="#AFB252"/>
<g opacity="0.6">
<path opacity="0.6" d="M322.827 197.872C322.692 197.08 322.269 196.366 321.638 195.868C321.02 195.374 320.238 195.132 319.449 195.19V197.807L322.827 197.872Z" fill="white"/>
</g>
<g opacity="0.6">
<path opacity="0.6" d="M332.758 196.522C332.758 196.522 335.547 197.331 335.197 197.789C334.846 198.247 324.147 198.235 319.426 197.819V197.604L331.914 197.729C331.914 197.729 332.211 196.546 332.758 196.522Z" fill="white"/>
</g>
<path d="M319.372 197.533C319.425 197.541 319.479 197.541 319.533 197.533H319.996L321.703 197.61C323.142 197.664 325.129 197.711 327.329 197.717C329.529 197.723 331.492 197.682 332.955 197.634L334.655 197.563H335.119H335.28H334.685L332.978 197.593C331.539 197.622 329.553 197.646 327.359 197.64C325.164 197.634 323.196 197.604 321.733 197.569L320.026 197.533H319.562H319.372Z" fill="#263238"/>
<path d="M331.926 197.914C331.999 197.63 332.107 197.356 332.247 197.099C332.422 196.861 332.621 196.641 332.842 196.445C332.552 196.556 332.312 196.767 332.164 197.039C331.978 197.291 331.893 197.603 331.926 197.914Z" fill="#263238"/>
<path d="M328.982 196.284C328.982 196.284 329.143 196.141 329.279 195.927C329.416 195.713 329.505 195.523 329.476 195.505C329.446 195.487 329.321 195.648 329.184 195.862C329.048 196.076 328.952 196.266 328.982 196.284Z" fill="#263238"/>
<path d="M328.221 195.88C328.221 195.88 328.393 195.808 328.554 195.66C328.715 195.511 328.828 195.38 328.81 195.357C328.792 195.333 328.637 195.434 328.477 195.577C328.316 195.719 328.203 195.862 328.221 195.88Z" fill="#263238"/>
<path d="M327.745 195C327.901 195.056 328.068 195.076 328.233 195.059C328.401 195.089 328.574 195.081 328.738 195.035C328.738 195 328.518 194.976 328.245 194.97C327.971 194.964 327.745 194.964 327.745 195Z" fill="#263238"/>
<path d="M327.579 194.375C327.743 194.476 327.933 194.529 328.126 194.53C328.317 194.565 328.515 194.541 328.691 194.458C328.51 194.433 328.326 194.427 328.144 194.441C327.958 194.4 327.769 194.378 327.579 194.375Z" fill="#263238"/>
<path d="M329.333 195.469C329.53 195.505 329.731 195.505 329.928 195.469C330.145 195.441 330.36 195.396 330.57 195.333C330.698 195.293 330.821 195.242 330.939 195.178C331.01 195.138 331.064 195.072 331.087 194.994C331.096 194.948 331.092 194.901 331.075 194.858C331.058 194.815 331.029 194.777 330.992 194.75C330.763 194.637 330.502 194.608 330.254 194.666C330.005 194.725 329.785 194.868 329.63 195.071C329.538 195.192 329.469 195.329 329.428 195.475C329.414 195.528 329.414 195.583 329.428 195.636C329.487 195.45 329.58 195.277 329.702 195.125C329.837 194.965 330.017 194.849 330.219 194.792C330.335 194.751 330.458 194.734 330.581 194.742C330.703 194.75 330.823 194.783 330.933 194.839C331.028 194.91 330.992 195.023 330.885 195.089C330.777 195.147 330.663 195.195 330.546 195.232C330.351 195.298 330.153 195.352 329.951 195.392C329.529 195.446 329.333 195.452 329.333 195.469Z" fill="#263238"/>
<path d="M329.458 195.499C329.529 195.371 329.554 195.222 329.529 195.077C329.507 194.92 329.45 194.769 329.363 194.637C329.312 194.548 329.24 194.473 329.153 194.42C329.065 194.367 328.965 194.337 328.863 194.334C328.802 194.345 328.748 194.38 328.712 194.431C328.676 194.483 328.662 194.546 328.673 194.607C328.687 194.705 328.724 194.799 328.78 194.881C328.86 195.011 328.953 195.133 329.059 195.243C329.153 195.352 329.271 195.435 329.404 195.487C329.404 195.487 329.285 195.38 329.119 195.19C329.023 195.078 328.939 194.957 328.869 194.827C328.786 194.696 328.732 194.47 328.869 194.441C329.006 194.411 329.172 194.577 329.267 194.702C329.351 194.817 329.408 194.949 329.434 195.089C329.452 195.225 329.46 195.362 329.458 195.499Z" fill="#263238"/>
<path d="M319.312 195.148C319.312 195.148 319.58 195.148 320.002 195.148C320.551 195.205 321.073 195.41 321.513 195.743C321.943 196.095 322.27 196.558 322.458 197.081C322.528 197.3 322.585 197.522 322.631 197.747C322.631 197.747 322.631 197.682 322.631 197.557C322.612 197.385 322.576 197.216 322.524 197.051C322.358 196.501 322.028 196.014 321.579 195.655C321.13 195.296 320.582 195.082 320.008 195.041C319.836 195.022 319.663 195.022 319.491 195.041C319.426 195.067 319.366 195.103 319.312 195.148Z" fill="#263238"/>
<path d="M320.288 190.95C320.225 191.59 320.197 192.233 320.205 192.876C320.176 193.519 320.186 194.162 320.234 194.803C320.327 193.521 320.345 192.234 320.288 190.95Z" fill="#263238"/>
<path d="M323.826 196.647C324.274 196.752 324.734 196.798 325.194 196.784C325.655 196.81 326.117 196.774 326.568 196.677C326.568 196.647 325.973 196.677 325.2 196.677C324.427 196.677 323.832 196.617 323.826 196.647Z" fill="#263238"/>
<path d="M321.989 196.641C321.989 196.641 322.042 196.772 322.102 196.915C322.161 197.057 322.203 197.182 322.232 197.176C322.262 197.17 322.28 197.028 322.232 196.867C322.185 196.706 322.012 196.623 321.989 196.641Z" fill="#263238"/>
<path d="M321.299 195.779C321.299 195.779 321.34 195.904 321.435 195.999C321.531 196.094 321.626 196.159 321.65 196.136C321.673 196.112 321.614 196.017 321.519 195.921C321.424 195.826 321.322 195.761 321.299 195.779Z" fill="#263238"/>
<path d="M320.312 195.386C320.312 195.416 320.443 195.416 320.579 195.463C320.716 195.511 320.817 195.588 320.841 195.565C320.865 195.541 320.787 195.416 320.615 195.356C320.443 195.297 320.3 195.356 320.312 195.386Z" fill="#263238"/>
<path d="M319.604 195.202C319.604 195.232 319.646 195.279 319.723 195.309C319.8 195.339 319.877 195.339 319.883 195.309C319.889 195.279 319.842 195.232 319.764 195.202C319.687 195.172 319.616 195.172 319.604 195.202Z" fill="#263238"/>
<path d="M295.061 55.2363C295.061 55.2363 280.521 61.3854 280.057 61.1832C279.593 60.981 279.254 49.7117 279.254 49.7117L271.999 49.4441C271.999 49.4441 270.643 66.6068 274.973 69.3899C280.92 73.1959 295.358 65.2806 295.358 65.2806L295.061 55.2363Z" fill="#FFBE9D"/>
<path d="M302.382 51.2104C302.382 49.3907 302.382 47.8088 302.382 47.8088C302.382 47.8088 298.713 47.4223 298.487 43.7828C298.261 40.1433 298.487 31.7523 298.487 31.7523L305.171 28.4874L312.521 34.0537L311.748 51.3769C311.693 52.5781 311.177 53.7119 310.308 54.5425C309.438 55.3732 308.282 55.8368 307.08 55.8371C305.844 55.845 304.655 55.3624 303.774 54.495C302.894 53.6277 302.393 52.4465 302.382 51.2104Z" fill="#FFBE9D"/>
<path d="M299.242 37.8715C299.241 37.9649 299.268 38.0565 299.319 38.1347C299.37 38.2129 299.443 38.274 299.529 38.3103C299.615 38.3466 299.71 38.3564 299.802 38.3385C299.894 38.3205 299.978 38.2757 300.044 38.2096C300.11 38.1435 300.155 38.0593 300.173 37.9676C300.191 37.8759 300.181 37.781 300.145 37.6949C300.108 37.6088 300.047 37.5355 299.969 37.4843C299.891 37.4332 299.799 37.4065 299.706 37.4076C299.583 37.4076 299.465 37.4565 299.378 37.5435C299.291 37.6305 299.242 37.7485 299.242 37.8715Z" fill="#263238"/>
<path d="M298.79 37.3601C298.849 37.4255 299.194 37.1282 299.7 37.1044C300.205 37.0806 300.574 37.3185 300.627 37.253C300.681 37.1876 300.592 37.1103 300.425 36.9973C300.203 36.8526 299.94 36.7837 299.676 36.8011C299.413 36.8146 299.162 36.915 298.962 37.0865C298.814 37.2174 298.76 37.3363 298.79 37.3601Z" fill="#263238"/>
<path d="M304.641 37.8714C304.641 37.9632 304.669 38.0529 304.72 38.1292C304.771 38.2054 304.843 38.2649 304.928 38.3C305.013 38.3351 305.106 38.3443 305.196 38.3264C305.286 38.3085 305.368 38.2643 305.433 38.1994C305.498 38.1346 305.542 38.0519 305.56 37.9619C305.578 37.872 305.569 37.7787 305.534 37.6939C305.499 37.6092 305.439 37.5367 305.363 37.4858C305.287 37.4348 305.197 37.4076 305.105 37.4076C304.982 37.4076 304.864 37.4565 304.777 37.5435C304.69 37.6304 304.641 37.7484 304.641 37.8714Z" fill="#263238"/>
<path d="M304.356 37.3601C304.416 37.4256 304.76 37.1282 305.26 37.1044C305.76 37.0806 306.14 37.3185 306.194 37.2531C306.247 37.1877 306.152 37.1104 305.991 36.9974C305.769 36.8539 305.507 36.7852 305.242 36.8012C304.978 36.8173 304.726 36.9172 304.523 37.0866C304.356 37.2174 304.32 37.3364 304.356 37.3601Z" fill="#263238"/>
<path d="M302.572 41.6062C302.303 41.6803 302.023 41.7064 301.746 41.6836C301.668 41.6913 301.591 41.6913 301.514 41.6836C301.46 41.6708 301.41 41.6452 301.369 41.6089C301.327 41.5726 301.295 41.5268 301.276 41.4754C301.224 41.2919 301.239 41.0962 301.317 40.9224L301.638 39.8757C301.884 38.9672 302.223 38.0864 302.649 37.2472C302.514 38.1788 302.274 39.0924 301.936 39.9709L301.561 41.0116C301.501 41.1246 301.474 41.2525 301.484 41.3803C301.484 41.4457 301.591 41.4754 301.722 41.4814C302.227 41.5051 302.572 41.5527 302.572 41.6062Z" fill="#263238"/>
<path d="M304.951 41.8439C304.951 42.2602 305.599 42.5576 306.372 42.5754C307.145 42.5932 307.793 42.3197 307.811 41.9093C307.829 41.499 307.217 41.0946 306.39 41.0768C305.563 41.0589 304.951 41.4336 304.951 41.8439Z" fill="#EB996E"/>
<path d="M304.196 42.07C304.707 41.7369 302.798 42.9085 301.775 42.9085C301.958 43.1627 302.221 43.3476 302.523 43.4329C302.824 43.5182 303.145 43.499 303.434 43.3783C304.505 42.9263 304.196 42.07 304.196 42.07Z" fill="white"/>
<path d="M302.18 47.8088C303.908 47.7377 305.58 47.1722 306.997 46.1793C306.997 46.1793 305.902 48.8554 302.239 48.7008L302.18 47.8088Z" fill="#EB996E"/>
<path d="M317.867 37.0865V37.7347C317.79 37.0627 317.6 35.5284 317.493 35.1121C315.506 27.5239 308.84 26.1086 307.52 26.1086C306.104 26.1086 303.631 25.3355 300.021 29.082C298.999 30.0625 298.299 31.3292 298.011 32.7155C297.723 34.1018 297.862 35.5427 298.409 36.8486L299.004 36.2896L304.356 34.9159C303.934 33.4827 304.552 31.6986 304.903 30.872L304.939 30.8363C305.997 36.2837 311.998 36.8486 311.998 36.8486L311.492 46.9583C318.629 45.4537 317.867 37.0865 317.867 37.0865Z" fill="#263238"/>
<path d="M317.689 36.7178C317.681 36.2804 317.821 35.8531 318.087 35.5054C318.352 35.1578 318.728 34.9102 319.152 34.8029C320.015 34.6122 320.917 34.7546 321.679 35.2013C322.083 35.3765 322.443 35.6391 322.733 35.9702C323.023 36.3014 323.236 36.6928 323.356 37.1162C323.559 38.1629 322.881 39.1619 322.203 39.9945C321.813 40.5296 321.337 40.9959 320.793 41.3742C320.519 41.5609 320.206 41.684 319.878 41.7344C319.549 41.7848 319.214 41.7613 318.896 41.6656C318.378 41.4419 317.957 41.0414 317.707 40.5357C317.252 39.6782 317.097 38.6933 317.266 37.7376C317.435 36.7819 317.919 35.9101 318.641 35.2608" fill="#263238"/>
<path d="M304.588 28.0354C304.037 28.2548 303.473 28.4414 302.899 28.5944C301.579 29.0614 300.392 29.8407 299.438 30.8658C298.484 31.891 297.793 33.1316 297.422 34.4818C297.119 35.5166 297.083 36.2064 296.982 36.2004C296.881 36.1945 296.792 35.5047 296.982 34.3807C297.261 32.9073 297.951 31.5428 298.973 30.4452C299.995 29.3476 301.307 28.5616 302.756 28.1781C303.874 27.8927 304.588 27.964 304.588 28.0354Z" fill="#263238"/>
<path d="M312.938 41.4455C312.882 40.8441 312.947 40.2376 313.128 39.6614C313.226 39.3729 313.4 39.1159 313.631 38.9172C313.862 38.7185 314.142 38.5854 314.442 38.5315C314.79 38.5177 315.132 38.6306 315.403 38.8493C315.674 39.068 315.857 39.3777 315.917 39.7209C315.955 40.0683 315.89 40.4191 315.73 40.7299C315.571 41.0407 315.323 41.2978 315.019 41.4693C314.708 41.6313 314.365 41.7208 314.015 41.7311C313.665 41.7414 313.317 41.6722 312.997 41.5288" fill="#FFBE9D"/>
<path d="M314.008 41.1601C314.008 41.1126 314.151 41.065 314.323 40.9104C314.433 40.8162 314.523 40.7007 314.587 40.5709C314.652 40.4412 314.689 40.2997 314.698 40.1551C314.696 40.0103 314.665 39.8674 314.606 39.7354C314.546 39.6033 314.46 39.485 314.353 39.388C314.186 39.2274 314.038 39.1679 314.05 39.1204C314.061 39.0728 314.234 39.0609 314.484 39.2096C314.646 39.3085 314.78 39.4483 314.871 39.6149C314.963 39.7816 315.009 39.9693 315.005 40.1594C315.002 40.3495 314.948 40.5353 314.851 40.6984C314.753 40.8614 314.614 40.996 314.448 41.0888C314.192 41.2255 314.008 41.1958 314.008 41.1601Z" fill="#EB996E"/>
<path d="M302.852 37.6396C302.852 37.6396 302.852 37.5801 302.852 37.4612C302.847 37.2832 302.865 37.1055 302.905 36.9319C303.045 36.2812 303.409 35.7004 303.934 35.2906C304.327 34.9849 304.791 34.7827 305.282 34.7027C305.773 34.6227 306.277 34.6674 306.747 34.8327C307.331 35.0349 307.838 35.4142 308.196 35.9178C308.555 36.4214 308.748 37.0243 308.748 37.6426C308.748 38.2608 308.555 38.8637 308.196 39.3673C307.838 39.871 307.331 40.2503 306.747 40.4525C306.277 40.6178 305.773 40.6625 305.282 40.5825C304.791 40.5025 304.327 40.3003 303.934 39.9946C303.409 39.5848 303.045 39.0039 302.905 38.3532C302.865 38.1797 302.847 38.0019 302.852 37.824C302.852 37.705 302.852 37.6396 302.852 37.6396C302.852 37.6396 302.852 37.8953 303 38.3235C303.174 38.925 303.542 39.4521 304.047 39.8221C304.451 40.1232 304.931 40.3059 305.433 40.3499C305.935 40.3939 306.439 40.2975 306.89 40.0714C307.34 39.8453 307.719 39.4984 307.983 39.0695C308.248 38.6406 308.388 38.1465 308.388 37.6426C308.388 37.1386 308.248 36.6446 307.983 36.2157C307.719 35.7868 307.34 35.4399 306.89 35.2138C306.439 34.9877 305.935 34.8912 305.433 34.9353C304.931 34.9793 304.451 35.162 304.047 35.4631C303.542 35.8331 303.174 36.3601 303 36.9617C302.881 37.3898 302.881 37.6456 302.852 37.6396Z" fill="#263238"/>
<path d="M296.28 37.6396C296.28 37.6396 296.28 37.5801 296.28 37.4612C296.276 37.2832 296.294 37.1055 296.334 36.9319C296.474 36.2812 296.838 35.7004 297.363 35.2906C297.756 34.9849 298.219 34.7827 298.711 34.7027C299.202 34.6227 299.706 34.6674 300.175 34.8327C300.76 35.0349 301.266 35.4142 301.625 35.9178C301.984 36.4214 302.176 37.0243 302.176 37.6426C302.176 38.2608 301.984 38.8637 301.625 39.3673C301.266 39.871 300.76 40.2503 300.175 40.4525C299.706 40.6178 299.202 40.6625 298.711 40.5825C298.219 40.5025 297.756 40.3003 297.363 39.9946C296.838 39.5848 296.474 39.0039 296.334 38.3532C296.294 38.1797 296.276 38.0019 296.28 37.824C296.28 37.705 296.28 37.6396 296.28 37.6396C296.28 37.6396 296.28 37.8953 296.429 38.3235C296.602 38.9236 296.968 39.4502 297.47 39.8221C297.837 40.092 298.266 40.2665 298.717 40.3298C299.169 40.3931 299.629 40.3433 300.057 40.1849C300.576 39.9922 301.023 39.6454 301.339 39.1909C301.655 38.7365 301.825 38.1962 301.825 37.6426C301.825 37.089 301.655 36.5487 301.339 36.0942C301.023 35.6398 300.576 35.2929 300.057 35.1003C299.629 34.9419 299.169 34.8921 298.717 34.9554C298.266 35.0187 297.837 35.1931 297.47 35.4631C296.968 35.835 296.602 36.3615 296.429 36.9617C296.304 37.3898 296.31 37.6456 296.28 37.6396Z" fill="#263238"/>
<path d="M301.977 37.7347C301.977 37.6455 302.209 37.5801 302.501 37.5801C302.792 37.5801 303.024 37.6455 303.024 37.7347C303.024 37.8239 302.786 37.8893 302.501 37.8893C302.215 37.8893 301.977 37.818 301.977 37.7347Z" fill="#263238"/>
<path d="M308.46 38.2402C309.321 38.2541 310.177 38.3699 311.011 38.5852C311.866 38.7006 312.705 38.9182 313.508 39.2334C312.645 39.2232 311.786 39.1074 310.951 38.8884C310.098 38.7725 309.261 38.5549 308.46 38.2402Z" fill="#263238"/>
<path d="M291.975 97.3282L296.53 193.507L311.13 193.816L307.341 110.703L317.225 193.465L332.134 193.834L320.466 96.2756" fill="#263238"/>
<path d="M303.405 193.656C303.322 193.656 302.269 172.164 301.062 145.647C299.854 119.129 298.939 97.6316 299.028 97.6256C299.117 97.6197 300.193 119.112 301.383 145.635C302.572 172.158 303.494 193.65 303.405 193.656Z" fill="#455A64"/>
<path d="M325.2 192.877C325.111 192.877 322.488 172.015 319.336 146.259C316.185 120.503 313.699 99.6119 313.788 99.6C313.877 99.5881 316.494 120.462 319.646 146.223C322.797 171.985 325.283 192.871 325.2 192.877Z" fill="#455A64"/>
<path d="M324.189 74.9383L331.67 65.5839L322.476 56.3128C320.709 54.4691 318.536 53.0622 316.131 52.2035C314.959 51.7879 313.733 51.5416 312.491 51.472V50.7286L308.459 50.806C308.459 50.806 308.251 51.4423 308.031 52.1618C307.817 52.7565 307.71 53.9102 307.437 53.9102C307.163 53.9102 306.77 52.7208 306.378 52.1262L305.688 50.7405L301.965 50.5621V51.4958C299.528 51.8118 297.158 52.5207 294.948 53.595L281.217 59.1613L285.617 71.2989L294.93 68.1649C294.871 68.3314 294.805 68.4979 294.758 68.6703C294.472 69.6857 294.461 70.759 294.726 71.78C294.992 72.801 295.524 73.733 296.268 74.4804L296.09 84.269L291.927 97.3045L320.419 97.6019L317.177 83.5256L318.652 69.5743L324.189 74.9383Z" fill="#455A64"/>
<path d="M305.611 50.9011C305.599 51.1981 305.532 51.4904 305.415 51.7634L305.123 52.6614C305.058 52.8339 305.01 53.0004 304.927 53.2026C304.883 53.3289 304.794 53.4347 304.677 53.4999C304.609 53.533 304.532 53.5477 304.456 53.5424C304.38 53.5372 304.307 53.5123 304.243 53.4702C303.391 52.9588 302.594 52.361 301.864 51.6861C302.764 52.1061 303.619 52.6162 304.416 53.2085C304.636 53.4166 304.743 52.8874 304.879 52.5781L305.236 51.698C305.316 51.4134 305.443 51.1441 305.611 50.9011Z" fill="#263238"/>
<path d="M312.824 51.6624C312.196 52.6523 311.365 53.4976 310.386 54.1422L310.178 54.2909L310.053 54.3801L309.964 54.2493C309.312 53.3776 308.856 52.3756 308.626 51.3115C308.709 51.3115 309.221 52.6139 310.22 54.0768L310.006 54.0352L310.202 53.8925C311.748 52.7863 312.753 51.6029 312.824 51.6624Z" fill="#263238"/>
<path d="M306.271 97.5066C306.244 97.3616 306.232 97.2141 306.235 97.0666C306.235 96.7455 306.235 96.3232 306.194 95.7939C306.194 94.6938 306.194 93.0941 306.194 91.1197C306.265 87.171 306.449 81.7237 306.681 75.7054C306.913 69.6872 307.115 64.2696 307.276 60.2971C307.324 58.3465 307.365 56.729 307.395 55.6229C307.395 55.0956 307.395 54.6733 307.395 54.3562C307.388 54.2069 307.398 54.0573 307.425 53.9102C307.425 53.9102 307.425 54.0648 307.46 54.3502C307.496 54.6357 307.46 55.0936 307.502 55.6229C307.502 56.729 307.502 58.3287 307.502 60.2971C307.431 64.2458 307.246 69.6991 307.008 75.7173C306.771 81.7355 306.58 87.1531 306.414 91.1256C306.36 93.0703 306.319 94.6581 306.289 95.7939C306.289 96.3232 306.289 96.7455 306.289 97.0666C306.296 97.2135 306.29 97.3608 306.271 97.5066Z" fill="#263238"/>
<path d="M309.833 61.0881C309.833 61.0524 310.077 61.0108 310.297 61.2963C310.361 61.3796 310.405 61.4766 310.426 61.5797C310.447 61.6828 310.443 61.7894 310.416 61.891C310.375 62.0213 310.297 62.1369 310.191 62.2235C310.086 62.3101 309.957 62.364 309.821 62.3786C309.689 62.4022 309.553 62.3867 309.429 62.3338C309.305 62.281 309.2 62.1932 309.125 62.0812C309.073 61.9925 309.04 61.8932 309.03 61.7905C309.02 61.6878 309.032 61.584 309.066 61.4866C309.197 61.1535 309.453 61.1179 309.453 61.1535C309.453 61.1892 309.316 61.2963 309.28 61.546C309.258 61.6808 309.288 61.8188 309.363 61.9326C309.413 61.9903 309.477 62.0339 309.549 62.059C309.621 62.084 309.699 62.0897 309.774 62.0753C309.851 62.0686 309.924 62.0405 309.986 61.9943C310.048 61.9481 310.096 61.8855 310.125 61.8136C310.166 61.6839 310.155 61.5431 310.095 61.4212C310.006 61.1833 309.821 61.1357 309.833 61.0881Z" fill="#263238"/>
<path d="M309.928 70.9361C309.928 70.9004 310.142 70.8647 310.345 71.1026C310.401 71.174 310.441 71.2565 310.462 71.3448C310.484 71.433 310.486 71.5248 310.469 71.614C310.441 71.7291 310.379 71.833 310.291 71.9125C310.203 71.9919 310.093 72.0433 309.976 72.06C309.861 72.0782 309.744 72.0625 309.639 72.015C309.533 71.9674 309.443 71.8901 309.381 71.7924C309.336 71.7105 309.312 71.6184 309.312 71.5248C309.312 71.4312 309.336 71.3391 309.381 71.2572C309.548 70.9777 309.797 71.0193 309.78 71.0609C309.762 71.1026 309.637 71.1501 309.577 71.3464C309.554 71.3974 309.546 71.454 309.554 71.5095C309.562 71.5649 309.585 71.6171 309.621 71.66C309.657 71.7029 309.704 71.7347 309.758 71.7518C309.811 71.7689 309.868 71.7706 309.922 71.7567C309.98 71.7472 310.034 71.7236 310.08 71.688C310.125 71.6525 310.162 71.6062 310.185 71.5531C310.209 71.5001 310.219 71.442 310.215 71.3841C310.21 71.3263 310.192 71.2704 310.16 71.2215C310.071 71.0371 309.922 70.9836 309.928 70.9361Z" fill="#263238"/>
<path d="M287.901 70.4067C287.616 69.8508 287.374 69.2743 287.176 68.6821C286.724 67.5225 286.153 66.0833 285.528 64.4896L283.804 60.3268C283.534 59.7641 283.307 59.1816 283.126 58.5844C283.467 59.1076 283.76 59.661 284 60.2376C284.499 61.2783 285.154 62.7412 285.814 64.4004C286.474 66.0596 287.003 67.5403 287.384 68.6405C287.612 69.2115 287.785 69.8029 287.901 70.4067Z" fill="#263238"/>
<path d="M330.522 64.3173C330.582 64.3767 328.738 66.3987 326.36 68.825C324.978 70.3288 323.521 71.7618 321.995 73.1186C323.304 71.5456 324.693 70.041 326.157 68.6109C328.501 66.1846 330.457 64.2578 330.522 64.3173Z" fill="#263238"/>
<path d="M303.831 92.1393L303.258 89.3671C303.023 88.2456 303.012 87.0888 303.226 85.9632C303.44 84.8375 303.874 83.7652 304.503 82.8079C305.133 81.8506 305.946 81.0272 306.894 80.385C307.843 79.7427 308.91 79.2944 310.032 79.0657L328.914 75.1659L333.003 94.9673L314.122 98.8671C313.005 99.1011 311.852 99.1127 310.73 98.9013C309.608 98.6898 308.539 98.2594 307.583 97.6347C306.627 97.0099 305.804 96.2031 305.16 95.2602C304.516 94.3173 304.065 93.2568 303.831 92.1393Z" fill="#AFB252"/>
<path d="M344.2 71.9947L313.824 78.2746C313.701 77.6784 313.819 77.0578 314.154 76.5493C314.489 76.0407 315.011 75.6859 315.608 75.5628L341.494 70.2107C342.091 70.0877 342.711 70.2066 343.22 70.5411C343.728 70.8757 344.083 71.3986 344.206 71.9947H344.2Z" fill="#AFB252"/>
<g opacity="0.4">
<path opacity="0.4" d="M329.297 75.0691C328.769 75.2669 328.223 75.4162 327.668 75.5151C326.657 75.7589 325.253 76.0622 323.701 76.3893C322.149 76.7164 320.728 76.984 319.705 77.1683C319.156 77.2984 318.597 77.378 318.034 77.4062C318.56 77.2048 319.103 77.0535 319.657 76.9542C320.674 76.7164 322.078 76.4071 323.63 76.086C325.182 75.7649 326.603 75.4913 327.62 75.307C328.171 75.1771 328.732 75.0974 329.297 75.0691Z" fill="black"/>
</g>
<g opacity="0.3">
<path opacity="0.3" d="M330.439 82.8833C330.368 82.4135 330.296 81.9437 330.231 81.4799C326.683 84.3554 323.411 87.5569 320.46 91.0424C319.562 91.9881 318.832 93.0802 318.302 94.2716C318.038 94.8694 317.916 95.5198 317.943 96.1725C317.971 96.8251 318.149 97.4627 318.462 98.0359L326.354 96.2519L330.439 82.8833Z" fill="black"/>
</g>
<path d="M338.331 87.177C339.78 85.5107 340.575 83.3744 340.567 81.1658C340.56 78.9572 339.75 76.8265 338.289 75.1703L330.701 66.583L324.677 74.0463C324.944 74.2247 331.171 81.6167 331.171 81.6167L321.656 93.4688C320.193 95.3004 319.396 97.8695 320.157 100.088L321.424 102.746C321.865 103.664 322.646 104.374 323.602 104.725C324.558 105.075 325.614 105.04 326.544 104.625L328.821 103.602C328.952 103.545 329.065 103.456 329.151 103.343C329.238 103.23 329.294 103.097 329.316 102.956C329.337 102.816 329.323 102.672 329.274 102.539C329.225 102.405 329.143 102.286 329.036 102.193L328.477 101.711C328.276 101.534 328.041 101.401 327.786 101.319C327.531 101.237 327.262 101.209 326.996 101.235L324.1 101.533L323.963 100.998L338.331 87.177Z" fill="#FFBE9D"/>
<path d="M329.285 102.568C328.989 102.706 328.683 102.821 328.37 102.912C327.632 103.235 326.842 103.421 326.038 103.46C325.571 103.417 325.136 103.206 324.813 102.865C324.553 102.604 324.34 102.3 324.183 101.967C324.006 101.676 323.929 101.336 323.963 100.998C324.016 100.998 324.07 101.36 324.373 101.866C324.546 102.159 324.76 102.425 325.01 102.657C325.291 102.94 325.66 103.12 326.056 103.168C326.822 103.117 327.577 102.967 328.304 102.722C328.614 102.593 328.951 102.54 329.285 102.568Z" fill="#EB996E"/>
<path d="M328.477 101.669C327.789 102.026 327.054 102.284 326.294 102.437C325.735 102.591 325.139 102.536 324.617 102.282C324.225 102.062 324.112 101.782 324.141 101.771C324.171 101.759 324.349 101.943 324.736 102.086C325.225 102.255 325.754 102.272 326.252 102.133C326.971 101.884 327.718 101.728 328.477 101.669Z" fill="#EB996E"/>
<path d="M7.99407 90.1683C7.72051 90.0969 2.31481 98.036 2.1364 104.869C2.12198 105.538 2.14581 106.207 2.20776 106.873C2.44036 109.264 3.01515 111.609 3.91451 113.837C8.48171 125.38 13.1976 139.069 13.2749 142.186C13.5128 151.796 17.6696 194.934 17.6696 194.934L26.7862 195.172L28.2372 142.191L25.0021 89.7341L7.99407 90.1683Z" fill="#FFBE9D"/>
<path d="M25.4005 96.9834C25.4005 96.9834 37.7284 136.994 36.9553 149.911C36.1822 162.827 26.7861 194.988 26.7861 194.988L25.4005 96.9834Z" fill="#EB996E"/>
<path d="M4.30099 90.2277C4.30099 90.2277 -2.56169 99.0647 2.25527 112.968C7.01276 126.771 3.60521 143.631 3.60521 143.631C3.60521 143.631 9.67696 139.075 13.9825 141.085C18.8827 143.375 22.1475 146.11 28.255 143.464C34.6003 140.693 39.6432 139.135 45.4414 144.558L36.4735 113.278L31.2879 93.3617L4.30099 90.2277Z" fill="#263238"/>
<path d="M40.2737 79.886C38.7691 79.7492 36.0633 65.9465 36.0633 65.9465L24.9427 69.6633C24.9427 69.6633 24.6096 71.7626 31.3058 85.1252C31.3058 85.1252 35.2486 92.1425 40.1726 91.8214L40.2737 79.886Z" fill="#EB996E"/>
<path d="M24.2588 52.7446C24.2588 52.7446 32.6795 51.918 36.5985 62.1466L36.6342 62.2417C36.7056 62.432 36.771 62.6283 36.8423 62.8364L40.1191 72.06L31.0917 76.5618V77.5847L32.073 96.0854L3.27822 90.644L5.60344 87.2959C7.83946 84.2095 7.33398 79.8742 6.41816 76.1753L6.10893 74.9145L2.20778 76.9543C0.436988 72.9114 -0.287012 68.4877 0.102589 64.0912C0.102589 63.9782 0.102589 63.8712 0.102589 63.7641C0.413006 60.3997 2.02816 57.2905 4.6023 55.1021C7.17644 52.9136 10.505 51.8198 13.8755 52.0548L24.2588 52.7446Z" fill="#AFB252"/>
<g opacity="0.3">
<path opacity="0.3" d="M10.462 63.4132C12.0498 69.4136 14.9817 75.414 17.9313 80.8673C18.2168 81.3965 18.8412 81.9912 19.2931 81.6047C19.638 81.3133 19.4537 80.7543 19.2456 80.3558L10.462 63.4132Z" fill="black"/>
</g>
<path d="M30.3721 66.6781C30.6142 67.1261 30.8133 67.596 30.9668 68.0816C31.2819 68.9617 31.728 70.163 32.1561 71.5426C32.3638 72.2013 32.4386 72.8946 32.3762 73.5824C32.2996 74.1386 32.1287 74.6776 31.8707 75.1762C31.6621 75.643 31.3878 76.0776 31.056 76.4666C31.2267 75.9954 31.4253 75.5347 31.6506 75.087C31.8709 74.6008 32.0134 74.0831 32.0729 73.5527C32.1179 72.9015 32.0392 72.2477 31.8409 71.6259C31.4366 70.3235 31.0679 69.1461 30.7527 68.147C30.5727 67.6727 30.4451 67.1801 30.3721 66.6781Z" fill="#263238"/>
<path d="M27.9994 36.0398C28.0008 37.239 28.3092 38.4178 28.8953 39.464C29.4814 40.5102 30.3256 41.3889 31.3475 42.0164C31.9191 42.3076 32.4713 42.6354 33.0007 42.9976C33.2651 43.1819 33.4832 43.425 33.638 43.7076C33.7927 43.9903 33.8799 44.305 33.8927 44.6271C33.8511 45.6321 32.8342 46.2744 31.9362 46.7323C32.2018 46.9574 32.4173 47.2358 32.5687 47.5493C32.7201 47.8629 32.8042 48.2047 32.8154 48.5527C32.8266 48.9007 32.7647 49.2472 32.6338 49.5699C32.5029 49.8925 32.3058 50.1842 32.0552 50.426C31.8046 50.6678 31.5062 50.8543 31.1791 50.9737C30.852 51.0931 30.5035 51.1425 30.1561 51.1189C29.8087 51.0953 29.4701 50.9992 29.1621 50.8367C28.8541 50.6742 28.5837 50.449 28.3681 50.1755C28.2955 51.118 27.933 52.015 27.3304 52.7433C26.7277 53.4716 25.9145 53.9955 25.0022 54.2432C24.0843 54.4679 23.1279 54.4858 22.2022 54.2956C21.2766 54.1053 20.4048 53.7116 19.65 53.143C18.1441 51.9942 16.9685 50.4679 16.2424 48.7185" fill="#263238"/>
<path d="M32.8818 39.8756C32.8818 39.8756 33.0008 40.0064 32.9948 40.3097C32.9843 40.5201 32.9252 40.7252 32.822 40.9089C32.7188 41.0926 32.5744 41.2498 32.4001 41.3682C32.1234 41.5246 31.811 41.6067 31.4932 41.6067C31.1754 41.6067 30.863 41.5246 30.5863 41.3682C29.9239 41.0164 29.3783 40.4791 29.0164 39.822C28.3433 38.6747 27.9122 37.4017 27.7497 36.0815C27.6567 35.5423 27.6567 34.9912 27.7497 34.452C27.7973 34.452 27.8151 35.0467 27.9935 36.0517C28.2222 37.3221 28.6689 38.5433 29.3137 39.6615C29.6277 40.2798 30.1075 40.7987 30.6993 41.1601C30.9362 41.2956 31.2027 41.3707 31.4754 41.379C31.7481 41.3873 32.0187 41.3285 32.2634 41.2077C32.4195 41.1119 32.5534 40.9838 32.6559 40.832C32.7585 40.6801 32.8274 40.5082 32.858 40.3275C32.9116 40.0361 32.8521 39.8815 32.8818 39.8756Z" fill="#263238"/>
<path d="M23.3668 53.2262C23.4976 50.9426 23.6582 48.6769 23.6582 48.6769C23.6582 48.6769 27.3095 48.2903 27.5296 44.6687C27.7496 41.047 27.5296 32.7095 27.5296 32.7095L20.881 29.4625L13.5544 34.9991L14.3037 53.1548C14.3489 54.276 14.809 55.3404 15.5947 56.1415C16.3804 56.9426 17.4357 57.4232 18.5558 57.4901C19.1524 57.5296 19.7509 57.4502 20.3166 57.2567C20.8824 57.0632 21.4041 56.7593 21.8516 56.3627C22.2991 55.9661 22.6634 55.4847 22.9235 54.9463C23.1836 54.4079 23.3342 53.8232 23.3668 53.2262Z" fill="#FFBE9D"/>
<path d="M26.8041 38.7933C26.8041 38.8851 26.7768 38.9747 26.7259 39.051C26.6749 39.1273 26.6025 39.1868 26.5177 39.2219C26.433 39.257 26.3397 39.2662 26.2497 39.2483C26.1597 39.2304 26.0771 39.1862 26.0122 39.1213C25.9473 39.0564 25.9032 38.9738 25.8853 38.8838C25.8674 38.7938 25.8765 38.7006 25.9117 38.6158C25.9468 38.5311 26.0062 38.4586 26.0825 38.4076C26.1588 38.3567 26.2485 38.3295 26.3402 38.3295C26.4632 38.3295 26.5812 38.3783 26.6682 38.4653C26.7552 38.5523 26.8041 38.6703 26.8041 38.7933Z" fill="#263238"/>
<path d="M27.2322 38.2878C27.1727 38.3473 26.8338 38.0559 26.3342 38.0321C25.8347 38.0083 25.46 38.2403 25.4065 38.1748C25.353 38.1094 25.4422 38.0381 25.6087 37.9251C25.829 37.7817 26.0896 37.7129 26.3519 37.729C26.6143 37.745 26.8645 37.8451 27.0657 38.0143C27.2322 38.1451 27.2798 38.2581 27.2322 38.2878Z" fill="#263238"/>
<path d="M21.4341 38.7933C21.4349 38.854 21.4236 38.9141 21.401 38.9704C21.3783 39.0266 21.3447 39.0778 21.3021 39.121C21.2595 39.1641 21.2088 39.1984 21.1528 39.2218C21.0969 39.2451 21.0368 39.2572 20.9762 39.2572C20.8532 39.2572 20.7352 39.2083 20.6482 39.1213C20.5612 39.0343 20.5123 38.9163 20.5123 38.7933C20.5123 38.6703 20.5612 38.5523 20.6482 38.4653C20.7352 38.3783 20.8532 38.3295 20.9762 38.3295C21.0368 38.3295 21.0969 38.3415 21.1528 38.3649C21.2088 38.3883 21.2595 38.4225 21.3021 38.4657C21.3447 38.5088 21.3783 38.56 21.401 38.6163C21.4236 38.6725 21.4349 38.7327 21.4341 38.7933Z" fill="#263238"/>
<path d="M21.7255 38.2878C21.666 38.3473 21.3211 38.0559 20.8216 38.0321C20.322 38.0083 19.9533 38.2403 19.8998 38.1748C19.8463 38.1094 19.9355 38.0381 20.102 37.9251C20.3223 37.7817 20.5829 37.7129 20.8452 37.729C21.1076 37.745 21.3578 37.8451 21.559 38.0143C21.7076 38.1451 21.7552 38.2581 21.7255 38.2878Z" fill="#263238"/>
<path d="M23.5213 42.4684C23.7874 42.3995 24.0612 42.3655 24.3361 42.3673C24.4609 42.3673 24.5918 42.3673 24.6215 42.2484C24.64 42.1114 24.6151 41.972 24.5501 41.85C24.4372 41.511 24.3242 41.178 24.2112 40.8211C23.9733 40.0956 23.7652 39.4296 23.6165 38.9479C23.522 38.691 23.4601 38.4233 23.4321 38.151C23.566 38.3877 23.6717 38.6391 23.7473 38.9003C23.9198 39.3761 24.1458 40.0362 24.3836 40.7676C24.4907 41.1185 24.5977 41.4575 24.7107 41.7964C24.7848 41.9587 24.7995 42.1418 24.7523 42.3138C24.7082 42.3832 24.6447 42.4382 24.5696 42.472C24.4946 42.5058 24.4114 42.517 24.3301 42.5041C24.06 42.5204 23.7889 42.5084 23.5213 42.4684Z" fill="#263238"/>
<path d="M21.88 42.9679C21.3805 42.6349 23.2775 43.8005 24.2944 43.8005C24.1119 44.0534 23.8495 44.2374 23.5494 44.3227C23.2494 44.4079 22.9294 44.3895 22.6412 44.2703C21.5708 43.8183 21.88 42.9679 21.88 42.9679Z" fill="white"/>
<path d="M23.664 48.677C21.9444 48.6029 20.2816 48.0397 18.8708 47.0535C18.8708 47.0535 19.9591 49.7117 23.5867 49.563L23.664 48.677Z" fill="#EB996E"/>
<path d="M26.0073 30.0514C22.4391 26.3287 19.9593 27.078 18.5499 27.078C17.002 27.2514 15.5068 27.7429 14.158 28.5217C12.8092 29.3005 11.6359 30.3497 10.7119 31.6035C9.71283 32.6442 8.28558 36.0339 8.11907 37.2293C8.05368 38.436 8.06559 39.6457 8.15475 40.8509C8.15475 42.0403 7.8693 43.3605 6.96538 44.1633C6.37069 44.6688 5.5857 44.9602 5.24078 45.6441C5.08245 46.0629 5.07543 46.524 5.22094 46.9474C5.36644 47.3709 5.65533 47.7303 6.03767 47.9634C6.82196 48.404 7.72418 48.589 8.61861 48.4926C8.54607 49.3931 8.80989 50.2884 9.35908 51.0057C9.90827 51.7229 10.7038 52.2111 11.592 52.3759C12.4977 52.4954 13.4145 52.2588 14.1492 51.7158C14.7568 52.306 15.4003 52.8582 16.076 53.3691C16.2266 48.1041 16.1156 42.8411 15.743 37.5801C18.1574 37.1519 22.4867 35.8496 23.242 31.9841C24.2053 34.1845 25.6683 35.3857 27.6129 37.0509C27.6248 37.0568 29.6111 33.7801 26.0073 30.0514Z" fill="#263238"/>
<path d="M16.0225 36.1885C16.5141 36.1268 17.0116 36.1268 17.5032 36.1885C18.6629 36.3158 19.8363 36.1775 20.9346 35.7841C21.5148 35.5451 22.0129 35.1421 22.3678 34.6245C22.6568 34.1919 22.8587 33.7071 22.9625 33.1973C23.1349 32.3231 23.0517 31.7522 23.1052 31.7462C23.2566 32.2291 23.2852 32.7421 23.1884 33.2389C23.1159 33.7877 22.9274 34.3147 22.6354 34.7851C22.2597 35.3631 21.7189 35.8148 21.0833 36.0815C19.9421 36.4965 18.7134 36.6112 17.5151 36.4145C17.0116 36.3863 16.5118 36.3106 16.0225 36.1885Z" fill="#263238"/>
<path d="M6.60254 45.0435C6.80397 45.0481 7.00481 45.02 7.19723 44.9602C7.44805 44.8612 7.66964 44.7001 7.84125 44.4921C8.01286 44.2841 8.12888 44.0359 8.17846 43.7709C8.27589 42.9632 8.12224 42.1451 7.73839 41.4278C7.53111 40.9722 7.3601 40.5009 7.22696 40.0184C7.10031 39.487 7.06611 38.9378 7.12587 38.3949C7.2482 37.3519 7.61717 36.353 8.20225 35.4809C8.67264 34.7788 9.22129 34.1324 9.83764 33.5541C10.355 33.0546 10.801 32.6859 11.1103 32.4361C11.26 32.291 11.4304 32.1688 11.6157 32.0734C11.6514 32.115 11.0211 32.7037 9.9982 33.7147C9.41884 34.3007 8.90077 34.9444 8.45202 35.6355C7.90963 36.4774 7.56407 37.4307 7.44105 38.4246C7.38935 38.9336 7.41946 39.4476 7.53025 39.947C7.65668 40.4143 7.81768 40.8714 8.01195 41.3148C8.4073 42.088 8.54286 42.968 8.3985 43.8244C8.3314 44.1145 8.18879 44.3817 7.98514 44.5989C7.78149 44.8161 7.52403 44.9757 7.23885 45.0613C7.08242 45.0983 6.91954 45.0983 6.76311 45.0613C6.65012 45.0792 6.60254 45.0554 6.60254 45.0435Z" fill="#263238"/>
<path d="M26.4828 196.35V195.16L17.0808 194.982V198.651L17.6755 198.687C20.2624 198.835 30.8359 199.246 32.5427 198.722C34.4457 198.151 26.4828 196.35 26.4828 196.35Z" fill="#AFB252"/>
<g opacity="0.6">
<path opacity="0.6" d="M20.4349 198.711C20.2966 197.921 19.8734 197.21 19.2455 196.712C18.626 196.217 17.8426 195.973 17.0511 196.029V198.645L20.4349 198.711Z" fill="white"/>
</g>
<g opacity="0.6">
<path opacity="0.6" d="M30.3602 197.366C30.3602 197.366 33.1493 198.169 32.8044 198.633C32.4595 199.097 21.7492 199.073 17.0273 198.633V198.425L29.5158 198.544C29.5158 198.544 29.8131 197.414 30.3602 197.366Z" fill="white"/>
</g>
<path d="M16.9799 198.371H17.1404L17.6043 198.401L19.3051 198.479C20.7442 198.532 22.7364 198.58 24.9308 198.586C27.1252 198.592 29.0936 198.55 30.5566 198.502L32.2633 198.431H32.7272H32.8877H32.2574L30.5566 198.461C29.1174 198.461 27.1252 198.514 24.9308 198.514C22.7364 198.514 20.768 198.473 19.3051 198.437L17.6043 198.401H17.1404L16.9799 198.371Z" fill="#263238"/>
<path d="M29.5278 198.752C29.6047 198.47 29.7123 198.196 29.849 197.937C30.0208 197.697 30.2204 197.477 30.4436 197.283C30.1532 197.393 29.9124 197.604 29.7657 197.878C29.5853 198.132 29.501 198.442 29.5278 198.752Z" fill="#263238"/>
<path d="M26.584 197.123C26.6138 197.123 26.7446 196.98 26.8814 196.766C26.98 196.642 27.0491 196.498 27.0836 196.344C27.0538 196.344 26.923 196.486 26.7862 196.706C26.6494 196.926 26.5602 197.105 26.584 197.123Z" fill="#263238"/>
<path d="M25.8287 196.724C25.8287 196.724 25.9952 196.647 26.1558 196.504C26.3164 196.362 26.4353 196.219 26.4115 196.195C26.3877 196.171 26.245 196.272 26.0844 196.415C25.9239 196.558 25.8049 196.7 25.8287 196.724Z" fill="#263238"/>
<path d="M25.347 195.838C25.5051 195.895 25.6737 195.915 25.8406 195.898C26.0047 195.918 26.1713 195.902 26.3283 195.85C26.1721 195.794 26.006 195.772 25.8406 195.785C25.5671 195.785 25.347 195.802 25.347 195.838Z" fill="#263238"/>
<path d="M25.1865 195.214C25.3488 195.32 25.5393 195.376 25.7336 195.374C25.9235 195.407 26.1187 195.38 26.2926 195.297C26.1096 195.27 25.9246 195.258 25.7396 195.261C25.5571 195.229 25.3719 195.213 25.1865 195.214Z" fill="#263238"/>
<path d="M26.9052 196.308C27.1019 196.343 27.3031 196.343 27.4998 196.308C27.718 196.284 27.9331 196.238 28.1421 196.171C28.2705 196.134 28.3942 196.082 28.5108 196.017C28.5824 195.977 28.6358 195.911 28.6595 195.832C28.6684 195.787 28.6648 195.741 28.649 195.698C28.6333 195.655 28.6061 195.617 28.5703 195.588C28.3404 195.475 28.0783 195.445 27.8289 195.504C27.5794 195.562 27.358 195.706 27.2025 195.91C27.1092 196.029 27.0423 196.167 27.0062 196.314C26.9945 196.367 26.9945 196.422 27.0062 196.474C27.0708 196.29 27.1652 196.117 27.2858 195.963C27.4191 195.803 27.5973 195.687 27.7972 195.63C28.0339 195.55 28.2926 195.567 28.5168 195.678C28.6119 195.749 28.5762 195.862 28.4692 195.927C28.36 195.984 28.2467 196.031 28.1302 196.07C27.9267 196.14 27.7179 196.194 27.5058 196.231C27.1371 196.29 26.9052 196.29 26.9052 196.308Z" fill="#263238"/>
<path d="M27.0597 196.338C27.137 196.214 27.1626 196.064 27.131 195.921C27.1131 195.764 27.0581 195.613 26.9705 195.481C26.9206 195.39 26.8477 195.314 26.759 195.259C26.6703 195.205 26.5689 195.175 26.465 195.172C26.4036 195.185 26.3498 195.222 26.3153 195.274C26.2808 195.326 26.2683 195.39 26.2806 195.452C26.2961 195.547 26.3305 195.638 26.3817 195.719C26.4601 195.852 26.5561 195.975 26.6672 196.082C26.7607 196.19 26.879 196.274 27.0121 196.326C27.0121 196.326 26.8932 196.219 26.7266 196.028C26.629 195.917 26.5433 195.795 26.4709 195.666C26.3936 195.541 26.3342 195.309 26.4709 195.285C26.6077 195.261 26.7742 195.416 26.8634 195.541C26.9491 195.657 27.008 195.791 27.0359 195.933C27.0564 196.067 27.0644 196.202 27.0597 196.338Z" fill="#263238"/>
<path d="M16.9143 195.987C16.9143 195.987 17.1819 195.987 17.6101 195.987C18.1609 196.054 18.6831 196.27 19.1206 196.611C19.5511 196.962 19.8762 197.425 20.0602 197.949C20.2029 198.348 20.2148 198.621 20.2386 198.615C20.2502 198.554 20.2502 198.492 20.2386 198.431C20.223 198.259 20.1892 198.09 20.1375 197.925C19.9649 197.376 19.6364 196.888 19.192 196.522C18.7382 196.17 18.1891 195.963 17.616 195.927C17.4441 195.908 17.2706 195.908 17.0987 195.927C17.0345 195.938 16.9724 195.958 16.9143 195.987Z" fill="#263238"/>
<path d="M21.434 197.491C22.3388 197.664 23.2671 197.674 24.1755 197.521C24.1755 197.485 23.5808 197.521 22.8017 197.521C22.0227 197.521 21.4399 197.456 21.434 197.491Z" fill="#263238"/>
<path d="M19.5964 197.485C19.5964 197.485 19.644 197.61 19.7094 197.753C19.7748 197.896 19.8046 198.021 19.8343 198.015C19.864 198.009 19.8878 197.866 19.8343 197.705C19.7808 197.545 19.6143 197.462 19.5964 197.485Z" fill="#263238"/>
<path d="M18.9066 196.623C18.9066 196.623 18.9423 196.742 19.0374 196.837C19.1326 196.932 19.2337 196.998 19.2575 196.98C19.2813 196.962 19.2159 196.855 19.1207 196.76C19.0256 196.665 18.9066 196.599 18.9066 196.623Z" fill="#263238"/>
<path d="M17.9134 196.225C17.9134 196.26 18.0442 196.254 18.181 196.308C18.3178 196.362 18.4189 196.427 18.4427 196.409C18.4664 196.391 18.3891 196.254 18.2226 196.195C18.0561 196.136 17.9074 196.225 17.9134 196.225Z" fill="#263238"/>
<path d="M17.2117 196.04C17.2117 196.07 17.2533 196.118 17.3306 196.147C17.4079 196.177 17.4793 196.177 17.4912 196.147C17.5031 196.118 17.4495 196.07 17.3722 196.04C17.2949 196.011 17.2236 196.011 17.2117 196.04Z" fill="#263238"/>
<path opacity="0.3" d="M6.70374 85.048C6.70374 85.048 7.77417 93.2963 15.8024 92.9989C21.1722 92.7571 26.5201 92.1611 31.8114 91.2149L31.7281 89.6509L6.70374 85.048Z" fill="black"/>
<path d="M53.2081 79.8088C52.4945 78.6611 47.5883 81.3966 47.1542 81.5929C46.7201 81.7891 46.4168 81.1707 46.8152 80.9982C47.4099 80.7663 53.3568 78.1972 52.6848 77.0673C52.3042 76.4726 51.2457 77.2279 51.2457 77.2279C51.2457 77.2279 45.8221 80.0467 45.5188 79.4996C45.2155 78.9525 48.3317 77.1863 49.4259 76.6689C50.5201 76.1515 50.7104 75.4319 50.0801 75.1405C49.6578 74.9443 46.2622 76.4548 45.1917 76.99C44.1213 77.5252 41.2014 79.0595 42.028 77.1387C42.8546 75.2178 42.7595 73.4278 42.3967 72.9759C42.3026 72.8773 42.1801 72.8106 42.0462 72.7851C41.9124 72.7595 41.7739 72.7764 41.6501 72.8334C41.5263 72.8904 41.4234 72.9846 41.3557 73.1029C41.2881 73.2212 41.2591 73.3577 41.2728 73.4932C41.2195 74.1964 41.0694 74.8888 40.8267 75.5509C40.6519 76.0913 40.3864 76.598 40.0417 77.0495C39.6374 77.5787 39.2746 78.0069 38.9535 78.3637C35.8254 79.4579 26.8992 82.2232 18.5617 81.462C17.0512 81.3253 13.2095 71.2394 13.2095 71.2394L2.82625 76.5916C2.82625 76.5916 2.63595 77.1565 7.36966 86.3682C13.8161 98.9101 42.9379 85.8984 42.9379 85.8984V85.8687C45.1465 85.4305 47.3301 84.8747 49.4794 84.2036C52.4053 83.145 52.3161 82.8774 52.1317 82.5622C51.6441 81.6999 46.9104 84.2273 47.6121 83.0915C48.3138 81.9556 53.7552 80.683 53.2081 79.8088Z" fill="#FFBE9D"/>
</svg>
