<svg width="60" height="60" viewBox="0 0 60 60" fill="none" xmlns="http://www.w3.org/2000/svg">
<g clip-path="url(#clip0)">
<path d="M60 30C60 46.5688 46.5688 60 30 60C13.4312 60 0 46.5688 0 30C0 13.4312 13.4312 0 30 0C46.5688 0 60 13.4312 60 30Z" fill="#B9BC5A"/>
<path d="M31.3445 55.6883C37.7545 50.8232 34.4316 44.1124 34.4316 44.1124C34.4316 44.1124 23.3968 25.5688 21.9031 25.5688C12.692 19.4577 18.0121 2.57767 18.0437 2.47742C7.42584 7.09671 0 17.682 0 30C0 45.7988 12.2122 58.7453 27.7121 59.9139C28.3974 58.5292 29.5267 57.068 31.3445 55.6883Z" fill="#AFB252"/>
<path d="M45.5096 25.5688H36.6029C35.4036 25.5688 34.4313 24.5961 34.4313 23.3968V14.4905C34.4313 12.0428 32.4474 10.0589 29.9997 10.0589C27.5525 10.0589 25.5685 12.0428 25.5685 14.4905V23.3968C25.5685 24.5961 24.5958 25.5688 23.3965 25.5688H14.4902C12.0425 25.5688 10.0586 27.5528 10.0586 30C10.0586 32.4472 12.0425 34.4312 14.4902 34.4312H23.3965C24.5958 34.4312 25.5685 35.4039 25.5685 36.6032V45.5095C25.5685 47.9572 27.5525 49.9411 29.9997 49.9411C32.4474 49.9411 34.4313 47.9572 34.4313 45.5095V36.6032C34.4313 35.4039 35.4036 34.4312 36.6029 34.4312H45.5096C47.9568 34.4312 49.9408 32.4472 49.9408 30C49.9408 27.5528 47.9568 25.5688 45.5096 25.5688Z" fill="#F2F3CB"/>
</g>
<defs>
<clipPath id="clip0">
<rect width="60" height="60" fill="white"/>
</clipPath>
</defs>
</svg>
