<svg width="20" height="20" viewBox="0 0 20 20" fill="none" xmlns="http://www.w3.org/2000/svg">
<path d="M20 2.44693V18.0403C20 18.9633 19.2517 19.7116 18.3287 19.7116H1.67125C0.748241 19.7116 0 18.9633 0 18.0403V1.95982C0 1.03681 0.748241 0.288574 1.67125 0.288574H17.8416C18.0784 0.288574 18.3055 0.382637 18.473 0.550097L19.7385 1.8156C19.9059 1.98302 20 2.21013 20 2.44693Z" fill="#404B58"/>
<path opacity="0.1" d="M5.35948 9.61028C4.47304 9.61028 3.75183 8.8891 3.75183 8.00262V0.288574H16.2481V8.00262C16.2481 8.8891 15.5269 9.61028 14.6405 9.61028H5.35948Z" fill="black"/>
<path d="M15.2265 8.49239H7.17357C6.60928 8.49239 6.15186 8.03493 6.15186 7.47067V0.288574H16.2482V7.47067C16.2482 8.03493 15.7908 8.49239 15.2265 8.49239Z" fill="#E8E8E8"/>
<path d="M14.1302 6.08709H12.6526C12.4496 6.08709 12.2849 5.92244 12.2849 5.71932V2.19928C12.2849 1.99619 12.4496 1.83154 12.6526 1.83154H14.1302C14.3333 1.83154 14.498 1.99619 14.498 2.19928V5.71932C14.498 5.92244 14.3333 6.08709 14.1302 6.08709Z" fill="#404B58"/>
<path opacity="0.1" d="M14.1302 6.08709H12.6526C12.4496 6.08709 12.2849 5.92244 12.2849 5.71932V2.19928C12.2849 1.99619 12.4496 1.83154 12.6526 1.83154H14.1302C14.3333 1.83154 14.498 1.99619 14.498 2.19928V5.71932C14.498 5.92244 14.3333 6.08709 14.1302 6.08709Z" fill="black"/>
<path d="M15.9144 12.1746H4.08567C3.37774 12.1746 2.80383 12.7485 2.80383 13.4564V19.7113H17.1962V13.4564C17.1962 12.7485 16.6223 12.1746 15.9144 12.1746Z" fill="#79C6E4"/>
<path opacity="0.2" d="M17.6353 4.25221C17.4734 4.25221 17.3423 4.12104 17.3423 3.95925V2.96753C17.3423 2.80573 17.4734 2.67456 17.6353 2.67456C17.7971 2.67456 17.9282 2.80573 17.9282 2.96753V3.95925C17.9282 4.12104 17.797 4.25221 17.6353 4.25221Z" fill="black"/>
<path d="M6.83032 17.3543C6.66849 17.3543 6.53735 17.2232 6.53735 17.0614V16.5208C6.53735 16.359 6.66849 16.2278 6.83032 16.2278C6.99216 16.2278 7.12329 16.359 7.12329 16.5208V17.0614C7.12329 17.2232 6.99212 17.3543 6.83032 17.3543Z" fill="#404B58"/>
<path d="M9.99994 18.387C9.49596 18.387 9.0874 17.9784 9.0874 17.4745V16.806C9.0874 16.6715 9.19643 16.5625 9.33088 16.5625H10.669C10.8035 16.5625 10.9125 16.6715 10.9125 16.806V17.4745C10.9125 17.9784 10.5039 18.387 9.99994 18.387Z" fill="#404B58"/>
<path d="M13.1698 17.3543C13.008 17.3543 12.8768 17.2232 12.8768 17.0614V16.5208C12.8768 16.359 13.008 16.2278 13.1698 16.2278C13.3316 16.2278 13.4628 16.359 13.4628 16.5208V17.0614C13.4628 17.2232 13.3316 17.3543 13.1698 17.3543Z" fill="#404B58"/>
<path d="M15.9144 12.1746H4.08567C3.37774 12.1746 2.80383 12.7485 2.80383 13.4564V15.0106H17.1962V13.4564C17.1962 12.7485 16.6223 12.1746 15.9144 12.1746Z" fill="white"/>
<path d="M13.1698 13.8857H6.83032C6.66849 13.8857 6.53735 13.7546 6.53735 13.5928C6.53735 13.431 6.66849 13.2998 6.83032 13.2998H13.1698C13.3316 13.2998 13.4628 13.431 13.4628 13.5928C13.4628 13.7546 13.3316 13.8857 13.1698 13.8857Z" fill="#404B58"/>
<path opacity="0.1" d="M19.7384 1.81556L18.4729 0.550097C18.3055 0.382637 18.0784 0.288574 17.8416 0.288574H16.6554C16.8922 0.288574 17.1193 0.382637 17.2868 0.550097L18.5523 1.8156C18.7197 1.98306 18.8138 2.21013 18.8138 2.44697V18.0404C18.8138 18.9634 18.0655 19.7116 17.1425 19.7116H18.3287C19.2517 19.7116 20 18.9634 20 18.0404V2.44693C19.9999 2.21013 19.9059 1.98302 19.7384 1.81556Z" fill="black"/>
</svg>
