<svg width="32" height="29" viewBox="0 0 32 29" fill="none" xmlns="http://www.w3.org/2000/svg">
<g clip-path="url(#clip0)">
<path d="M19.413 0.5H2.30124C1.03039 0.5 0 1.51481 0 2.76644V11.4263C0 12.6779 1.03039 13.6925 2.30124 13.6925H3.57837C3.9982 13.6925 4.24421 14.1576 4.0052 14.4976C3.40792 15.3469 2.80581 15.929 2.20081 16.429C1.71941 16.827 2.08444 17.5931 2.70418 17.4907C5.17755 17.081 7.22916 15.9375 8.82255 14.3128C9.21076 13.917 9.74479 13.6925 10.3034 13.6925H19.413C20.6839 13.6925 21.7143 12.6779 21.7143 11.4263V2.76644C21.7143 1.51481 20.6841 0.5 19.413 0.5V0.5Z" fill="#7BD0A7"/>
<path d="M0 2.76644V11.4263C0 12.6779 1.00607 13.6925 2.24691 13.6925H3.49388C3.90381 13.6925 4.14401 14.1576 3.91064 14.4976C3.32746 15.3469 2.73957 15.929 2.14885 16.429C1.67882 16.827 2.03523 17.5931 2.64033 17.4907C5.05531 17.081 7.05849 15.9375 8.61426 14.3128C8.9933 13.917 9.51472 13.6925 10.0602 13.6925H14.8571C8.8719 11.6096 7.94339 5.6632 7.82883 0.5H2.24691C1.00607 0.5 0 1.51481 0 2.76644Z" fill="#70BD98"/>
<path d="M12.587 11.5H29.6988C30.9697 11.5 32.0001 12.5148 32.0001 13.7664V22.4263C32.0001 23.6779 30.9697 24.6925 29.6988 24.6925H28.4217C28.0019 24.6925 27.7558 25.1576 27.9948 25.4976C28.5921 26.3469 29.1942 26.9289 29.7992 27.4292C30.2806 27.827 29.9156 28.5933 29.2959 28.4906C26.8225 28.0809 24.7709 26.9375 23.1775 25.3128C22.7893 24.9169 22.2553 24.6925 21.6966 24.6925H12.587C11.3159 24.6925 10.2858 23.6779 10.2858 22.4263V13.7664C10.2858 12.5146 11.3159 11.5 12.587 11.5Z" fill="#BACCFD"/>
<path d="M10.2858 13.7334V22.2669C10.2858 23.5002 11.3175 24.5 12.5906 24.5H21.7143C18.7433 21.5021 17.9398 17.2854 17.6692 11.5H12.5906C11.3175 11.5 10.2858 12.4998 10.2858 13.7334Z" fill="#A9C0FF"/>
<path d="M5.06543 9.03068H3.19556C2.62378 9.03068 2.1604 8.59403 2.1604 8.05524V6.29325C2.1604 5.75446 2.62378 5.31781 3.19556 5.31781H5.06543C5.63721 5.31781 6.10059 5.75446 6.10059 6.29325V8.05524C6.10059 8.5938 5.63721 9.03068 5.06543 9.03068Z" fill="#F8E47C"/>
<path d="M19.7805 9.03759H8.09351C7.83472 9.03759 7.62476 8.83997 7.62476 8.59588C7.62476 8.35202 7.83472 8.15417 8.09351 8.15417H19.7805C20.0396 8.15417 20.2493 8.35202 20.2493 8.59588C20.2493 8.83997 20.0396 9.03759 19.7805 9.03759Z" fill="black"/>
<path d="M19.7805 6.50347H8.09351C7.83472 6.50347 7.62476 6.30585 7.62476 6.06176C7.62476 5.8179 7.83472 5.62006 8.09351 5.62006H19.7805C20.0396 5.62006 20.2493 5.8179 20.2493 6.06176C20.2493 6.30585 20.0396 6.50347 19.7805 6.50347Z" fill="white"/>
<path d="M19.7805 9.03759H8.09351C7.83472 9.03759 7.62476 8.83997 7.62476 8.59588C7.62476 8.35202 7.83472 8.15417 8.09351 8.15417H19.7805C20.0396 8.15417 20.2493 8.35202 20.2493 8.59588C20.2493 8.83997 20.0396 9.03759 19.7805 9.03759Z" fill="white"/>
</g>
<defs>
<clipPath id="clip0">
<rect width="32" height="28" fill="white" transform="translate(0 0.5)"/>
</clipPath>
</defs>
</svg>
