<svg width="25" height="25" viewBox="0 0 20 20" fill="none" xmlns="http://www.w3.org/2000/svg">
<path d="M1.31729 6.55014C0.999756 6.55014 0.742188 6.80771 0.742188 7.12524V7.82318C0.742188 8.14072 0.999756 8.39828 1.31729 8.39828H3.74023V6.55029H1.31729V6.55014Z" fill="#8DA1B5"/>
<path d="M18.7299 6.55014C19.0476 6.55014 19.305 6.80771 19.305 7.12524V7.82318C19.305 8.14072 19.0476 8.39828 18.7299 8.39828H16.3071V6.55029H18.7299V6.55014Z" fill="#8DA1B5"/>
<path d="M10.0236 3.28522L2.59717 4.6405L3.79895 18.7604C3.85861 19.4614 4.44501 20 5.14844 20H14.8987C15.6021 20 16.1886 19.4614 16.2483 18.7604L17.4501 4.6405L10.0236 3.28522Z" fill="#8DA1B5"/>
<path d="M12.0951 0.729675C11.9878 0.300903 11.6025 0 11.1605 0H8.88647C8.44443 0 8.05914 0.300903 7.95187 0.729675L7.31299 3.28522H12.734L12.0951 0.729675Z" fill="#8DA1B5"/>
<path d="M10.0001 9C9.72388 9 9.50004 9.37188 9.50004 9.83073V16.1694C9.50004 16.6281 9.72388 17 10.0001 17C10.2762 17 10.5 16.6281 10.5 16.1694V9.83073C10.5 9.37188 10.2762 9 10.0001 9Z" fill="white"/>
<path d="M6.50004 9C6.22384 9 6 9.37188 6 9.83073V16.1694C6 16.6281 6.22384 17 6.50004 17C6.77616 17 7 16.6281 7 16.1694V9.83073C7 9.37188 6.77616 9 6.50004 9Z" fill="#F5F5FB"/>
<path d="M13.5 9C13.7762 9 14 9.37188 14 9.83073V16.1694C14 16.6281 13.7762 17 13.5 17C13.2239 17 13 16.6281 13 16.1694V9.83073C13 9.37188 13.2238 9 13.5 9Z" fill="white"/>
<path d="M2.59717 4.6405L2.69986 5.84778H17.3472L17.4501 4.6405L10.0236 3.28522L2.59717 4.6405Z" fill="#8DA1B5"/>
<path d="M17.4499 1.93008H2.59698C2.11679 1.93008 1.72754 2.31918 1.72754 2.79938V3.77121C1.72754 4.25125 2.11679 4.6405 2.59698 4.6405H17.4497C17.9299 4.6405 18.3192 4.25125 18.3192 3.77121V2.79938C18.3192 2.31918 17.9299 1.93008 17.4499 1.93008Z" fill="#8DA1B5"/>
</svg>
