<svg width="26" height="26" viewBox="0 0 24 24" fill="none" xmlns="http://www.w3.org/2000/svg">
<path d="M6.41409 16H17.5861C17.7838 16 17.9771 15.9413 18.1416 15.8314C18.306 15.7215 18.4341 15.5654 18.5098 15.3827C18.5854 15.2 18.6052 14.9989 18.5667 14.805C18.5281 14.611 18.4329 14.4329 18.2931 14.293L12.7071 8.707C12.5196 8.51953 12.2653 8.41422 12.0001 8.41422C11.7349 8.41422 11.4806 8.51953 11.2931 8.707L5.70709 14.293C5.56728 14.4329 5.47208 14.611 5.43351 14.805C5.39494 14.9989 5.41475 15.2 5.49042 15.3827C5.56609 15.5654 5.69423 15.7215 5.85864 15.8314C6.02305 15.9413 6.21634 16 6.41409 16Z" fill="#353E6C"/>
</svg>
