<svg width="30" height="30" viewBox="0 0 20 20" fill="none" xmlns="http://www.w3.org/2000/svg">
<path d="M17.6694 11.1235L16.1846 10.4986V16.0014L17.6694 15.3765C18.0765 15.2051 18.3412 14.8066 18.3412 14.3649V12.1351C18.3412 11.6934 18.0765 11.2948 17.6694 11.1235Z" fill="#E7889D"/>
<path d="M17.3918 11.0067L16.1846 10.4986V16.0013L17.3918 15.4932V11.0067Z" fill="#E16E7E"/>
<path d="M13.8016 19.9999H3.36566C2.70098 19.9999 2.16211 19.4611 2.16211 18.7964V2.76529C2.16211 2.1006 2.70094 1.56174 3.36566 1.56174H13.8016C15.1176 1.56174 16.1845 2.62857 16.1845 3.94463V17.6171C16.1845 18.9331 15.1176 19.9999 13.8016 19.9999Z" fill="#88D37F"/>
<path d="M3.36567 1.56174C2.70098 1.56174 2.16211 2.1006 2.16211 2.76529V18.7964C2.16215 19.4611 2.70098 19.9999 3.36567 19.9999H10.2775C4.63993 16.817 5.24278 7.18638 5.25473 1.56174H3.36567Z" fill="#5EC682"/>
<path d="M13.8017 1.56174H9.8667V7.38467C9.8667 8.73404 10.9645 9.83189 12.3139 9.83189H16.1846V3.94463C16.1846 2.62861 15.1177 1.56174 13.8017 1.56174Z" fill="#5EC682"/>
<path d="M11.8021 13.2301H6.54492C6.38312 13.2301 6.25195 13.099 6.25195 12.9372C6.25195 12.7753 6.38312 12.6442 6.54492 12.6442H11.8021C11.9639 12.6442 12.095 12.7753 12.095 12.9372C12.095 13.099 11.9639 13.2301 11.8021 13.2301Z" fill="white"/>
<path d="M10.59 15.5765H7.75684C7.59504 15.5765 7.46387 15.4453 7.46387 15.2835C7.46387 15.1217 7.59504 14.9905 7.75684 14.9905H10.59C10.7518 14.9905 10.8829 15.1217 10.8829 15.2835C10.8829 15.4453 10.7518 15.5765 10.59 15.5765Z" fill="white"/>
<path d="M10.8273 9.34491C11.7416 8.43061 11.7416 6.94824 10.8273 6.03394C9.913 5.11964 8.43063 5.11964 7.51633 6.03394C6.60203 6.94824 6.60203 8.43061 7.51633 9.34491C8.43062 10.2592 9.913 10.2592 10.8273 9.34491Z" fill="#CDE9FA"/>
<path d="M10.8273 9.34491C11.7416 8.43061 11.7416 6.94824 10.8273 6.03394C9.913 5.11964 8.43063 5.11964 7.51633 6.03394C6.60203 6.94824 6.60203 8.43061 7.51633 9.34491C8.43062 10.2592 9.913 10.2592 10.8273 9.34491Z" fill="#CDE9FA"/>
<path d="M9.8667 5.45212V7.38477C9.8667 8.18032 10.2485 8.88817 10.8383 9.33544C11.2565 8.91247 11.515 8.3311 11.515 7.68927C11.5149 6.63743 10.8214 5.74766 9.8667 5.45212Z" fill="#A2DDFD"/>
<path d="M2.98686 3.27582H1.33787C0.765371 3.27582 0.30127 3.73992 0.30127 4.31242C0.30127 4.88492 0.765371 5.34902 1.33787 5.34902H2.98686C3.55936 5.34902 4.02346 4.88492 4.02346 4.31242C4.02342 3.73992 3.55932 3.27582 2.98686 3.27582Z" fill="#59636F"/>
<path d="M2.98686 7.58817H1.33787C0.765371 7.58817 0.30127 8.05227 0.30127 8.62477C0.30127 9.19727 0.765371 9.66137 1.33787 9.66137H2.98686C3.55936 9.66137 4.02346 9.19727 4.02346 8.62477C4.02342 8.05227 3.55932 7.58817 2.98686 7.58817Z" fill="#59636F"/>
<path d="M2.98686 11.9006H1.33787C0.765371 11.9006 0.30127 12.3647 0.30127 12.9372C0.30127 13.5097 0.765371 13.9738 1.33787 13.9738H2.98686C3.55936 13.9738 4.02346 13.5097 4.02346 12.9372C4.02342 12.3647 3.55932 11.9006 2.98686 11.9006Z" fill="#59636F"/>
<path d="M2.98686 16.2128H1.33787C0.765371 16.2128 0.30127 16.6769 0.30127 17.2494C0.30127 17.8219 0.765371 18.286 1.33787 18.286H2.98686C3.55936 18.286 4.02346 17.8219 4.02346 17.2494C4.02342 16.6769 3.55932 16.2128 2.98686 16.2128Z" fill="#59636F"/>
<path d="M18.4585 0H12.3137C11.6289 0 11.0737 0.555156 11.0737 1.24V7.38477C11.0737 8.06957 11.6289 8.62477 12.3137 8.62477H12.7563C12.7563 7.17238 13.9337 5.995 15.3861 5.995C16.8385 5.995 18.0158 7.17238 18.0158 8.62477H18.4585C19.1433 8.62477 19.6985 8.06961 19.6985 7.38477V1.24C19.6985 0.555156 19.1433 0 18.4585 0Z" fill="#FBF1CF"/>
<path d="M13.536 6.75621C12.6644 4.3425 12.7451 0.967031 12.8956 0H12.3137C11.6289 0 11.0737 0.555156 11.0737 1.24V7.38477C11.0737 8.06957 11.6289 8.62477 12.3137 8.62477H12.7563C12.7563 7.89387 13.0547 7.23281 13.536 6.75621Z" fill="#FAE0BD"/>
<path d="M18.0163 8.62476C18.0163 7.17238 16.8389 5.995 15.3866 5.995C13.9343 5.995 12.7568 7.17238 12.7568 8.62476H18.0163Z" fill="#7ACEFA"/>
<path d="M15.3864 6.43623C16.436 6.43623 17.2869 5.58532 17.2869 4.53568C17.2869 3.48604 16.436 2.63513 15.3864 2.63513C14.3367 2.63513 13.4858 3.48604 13.4858 4.53568C13.4858 5.58532 14.3367 6.43623 15.3864 6.43623Z" fill="#A2DDFD"/>
</svg>
