<svg width="30" height="30" viewBox="0 0 20 20" fill="none" xmlns="http://www.w3.org/2000/svg">
<path d="M9.88667 1.95111L2.36426 6.08656V17.667C2.36426 18.9557 3.40893 20.0004 4.69762 20.0004H15.0757C16.3644 20.0004 17.4091 18.9557 17.4091 17.667V6.08656L9.88667 1.95111Z" fill="#FF748F"/>
<path d="M3.18707 10.5075C3.18707 8.5407 3.57882 6.68283 4.27379 5.03683L2.36426 6.08657V17.667C2.36426 18.9557 3.40892 20.0003 4.69761 20.0003H6.20067C4.20812 17.9256 3.18707 14.7113 3.18707 10.5075Z" fill="#FD5F7E"/>
<path d="M19.2788 5.38983L10.8214 0.261343C10.2468 -0.0870674 9.52617 -0.0871479 8.95164 0.261303L0.494302 5.38983C0.00963376 5.68372 -0.145014 6.31486 0.148909 6.79953L0.954422 8.1279C1.24831 8.61257 1.87949 8.76722 2.36416 8.47333L9.88653 3.91177L17.4089 8.47333C17.8936 8.76722 18.5248 8.61257 18.8187 8.1279L19.6242 6.79957C19.9181 6.3149 19.7634 5.68376 19.2788 5.38983Z" fill="#F9ED80"/>
<path d="M5.1806 12.0002C5.84072 12.0002 6.37585 11.465 6.37585 10.8049C6.37585 10.1448 5.84072 9.60968 5.1806 9.60968C4.52048 9.60968 3.98535 10.1448 3.98535 10.8049C3.98535 11.465 4.52048 12.0002 5.1806 12.0002Z" fill="#423E4F"/>
<path d="M9.25439 9.2238C9.87717 8.20694 10.9985 7.52823 12.2785 7.52823C13.6722 7.52823 14.8779 8.33282 15.4565 9.50296L14.1428 10.8747H10.5325L9.25439 9.2238Z" fill="#5C586F"/>
<path d="M11.3033 7.66455C10.4408 7.91099 9.71258 8.47562 9.25439 9.22375L9.74216 9.85381C10.0086 8.96801 10.5646 8.2033 11.3033 7.66455Z" fill="#4F4C5F"/>
<path d="M15.8225 11.0722C15.8225 13.0293 14.2356 14.6158 12.2785 14.6158C10.3213 14.6158 8.73486 13.0293 8.73486 11.0722C8.73486 10.395 8.92488 9.76208 9.25446 9.22373C12.5405 8.69125 11.8852 10.3337 15.4566 9.50288C15.6908 9.97596 15.8225 10.5088 15.8225 11.0722Z" fill="#FFDCCE"/>
<path d="M9.56738 11.0447C9.56738 10.3556 9.73664 9.70513 10.0367 9.13077C9.80267 9.14711 9.54416 9.17684 9.25446 9.22377C8.92488 9.76212 8.73486 10.3951 8.73486 11.0722C8.73486 12.7368 9.88259 14.133 11.4298 14.5133C10.3047 13.7527 9.56738 12.483 9.56738 11.0447Z" fill="#FFCABD"/>
<path d="M4.10547 13.0569C4.52833 11.722 5.77525 10.7479 7.2602 10.7479C8.73593 10.7479 9.99086 11.7164 10.4153 13.0569L7.2602 14.6517L4.10547 13.0569Z" fill="#5C586F"/>
<path d="M5.58281 11.2039C4.88567 11.6149 4.3536 12.2736 4.10547 13.0569L4.78458 13.4002C4.8305 12.5914 5.11798 11.8402 5.58281 11.2039Z" fill="#4F4C5F"/>
<path d="M10.569 14.0574C10.569 15.8848 9.08719 17.3665 7.25982 17.3665C5.43201 17.3665 3.95068 15.8847 3.95068 14.0574C3.95068 13.7089 4.00469 13.3729 4.10509 13.0569C4.48272 13.1137 6.32731 13.3321 7.25982 12.3448C8.1927 13.3325 10.0385 13.1133 10.415 13.0569C10.515 13.3725 10.569 13.7085 10.569 14.0574Z" fill="#FFDCCE"/>
<path d="M5.42291 14.7433C5.25622 14.7433 5.12109 14.6082 5.12109 14.4415V14.0884C5.12109 13.9218 5.25622 13.7866 5.42291 13.7866C5.58959 13.7866 5.72472 13.9218 5.72472 14.0884V14.4415C5.72472 14.6082 5.58959 14.7433 5.42291 14.7433Z" fill="#423E4F"/>
<path d="M9.09771 14.7433C8.93103 14.7433 8.7959 14.6082 8.7959 14.4415V14.0884C8.7959 13.9218 8.93103 13.7866 9.09771 13.7866C9.26439 13.7866 9.39952 13.9218 9.39952 14.0884V14.4415C9.39952 14.6082 9.26439 14.7433 9.09771 14.7433Z" fill="#423E4F"/>
<path d="M7.26037 14.9536C6.98749 14.9536 6.72797 14.8354 6.54842 14.6294C6.43888 14.5037 6.452 14.3131 6.57763 14.2036C6.70326 14.0941 6.89393 14.1071 7.00347 14.2328C7.06837 14.3073 7.16202 14.3499 7.26037 14.3499C7.35876 14.3499 7.4524 14.3073 7.51731 14.2328C7.62684 14.1071 7.81743 14.094 7.94314 14.2036C8.06881 14.3131 8.08189 14.5037 7.97236 14.6294C7.79276 14.8354 7.53328 14.9536 7.26037 14.9536Z" fill="#423E4F"/>
<path d="M10.3877 11.3999C10.2211 11.3999 10.0859 11.2648 10.0859 11.0981V10.72C10.0859 10.5533 10.2211 10.4182 10.3877 10.4182C10.5544 10.4182 10.6896 10.5533 10.6896 10.72V11.0981C10.6896 11.2648 10.5544 11.3999 10.3877 11.3999Z" fill="#423E4F"/>
<path d="M14.3233 11.3999C14.1566 11.3999 14.0215 11.2648 14.0215 11.0981V10.72C14.0215 10.5533 14.1566 10.4182 14.3233 10.4182C14.49 10.4182 14.6251 10.5533 14.6251 10.72V11.0981C14.6251 11.2648 14.49 11.3999 14.3233 11.3999Z" fill="#423E4F"/>
<path d="M12.3557 11.625C12.0696 11.625 11.7976 11.5011 11.6094 11.2851C11.4999 11.1594 11.513 10.9687 11.6387 10.8592C11.7643 10.7498 11.955 10.7628 12.0645 10.8885C12.1381 10.9729 12.2442 11.0213 12.3558 11.0213C12.4673 11.0213 12.5735 10.9729 12.647 10.8885C12.7565 10.7628 12.9471 10.7498 13.0728 10.8592C13.1985 10.9687 13.2116 11.1594 13.1021 11.2851C12.9138 11.5011 12.6418 11.625 12.3557 11.625Z" fill="#423E4F"/>
<path d="M10.0635 15.1451C10.4191 13.9806 11.5008 13.1273 12.7906 13.1273C14.0727 13.1273 15.1616 13.9754 15.5184 15.1451L12.7909 16.4613L10.0635 15.1451Z" fill="#4F4C5F"/>
<path d="M15.6424 15.9792C15.6424 17.5541 14.3654 18.8307 12.7905 18.8307C11.2155 18.8307 9.93896 17.5541 9.93896 15.9792C9.93896 15.6895 9.98218 15.4091 10.0634 15.1451C10.6098 15.0911 11.5287 14.9379 12.356 14.5066C12.6277 14.365 12.9537 14.365 13.2257 14.5066C14.053 14.9378 14.9719 15.0911 15.5184 15.1451C15.5992 15.4087 15.6424 15.6887 15.6424 15.9792Z" fill="#FFCABD"/>
<path d="M11.2076 16.5819C11.0409 16.5819 10.9058 16.4467 10.9058 16.2801V15.9758C10.9058 15.8091 11.0409 15.674 11.2076 15.674C11.3742 15.674 11.5094 15.8091 11.5094 15.9758V16.2801C11.5094 16.4467 11.3742 16.5819 11.2076 16.5819Z" fill="#423E4F"/>
<path d="M14.3741 16.5819C14.2074 16.5819 14.0723 16.4467 14.0723 16.2801V15.9758C14.0723 15.8091 14.2074 15.674 14.3741 15.674C14.5408 15.674 14.6759 15.8091 14.6759 15.9758V16.2801C14.6759 16.4467 14.5408 16.5819 14.3741 16.5819Z" fill="#423E4F"/>
<path d="M12.791 16.763C12.5438 16.763 12.3087 16.656 12.1461 16.4693C12.0366 16.3436 12.0496 16.153 12.1753 16.0435C12.301 15.934 12.4916 15.9471 12.6011 16.0727C12.6491 16.1278 12.7184 16.1594 12.791 16.1594C12.8637 16.1594 12.933 16.1278 12.981 16.0727C13.0905 15.9471 13.2812 15.934 13.4068 16.0435C13.5325 16.153 13.5456 16.3436 13.4361 16.4693C13.2734 16.656 13.0383 16.763 12.791 16.763Z" fill="#423E4F"/>
<path d="M6.09563 1.99359L0.494302 5.39017C0.00963376 5.6841 -0.145014 6.31524 0.148909 6.79991L0.954423 8.12828C1.24831 8.61295 1.87949 8.7676 2.36412 8.47367L3.43648 7.82341C3.85861 5.58631 4.79708 3.58132 6.09563 1.99359Z" fill="#FCCB88"/>
<path d="M4.77768 13.6297C4.77768 13.4558 4.78919 13.2843 4.81088 13.1156C4.48159 13.1077 4.22243 13.0745 4.10509 13.0569C4.00469 13.3729 3.95068 13.709 3.95068 14.0574C3.95068 15.8154 5.32187 17.2528 7.05341 17.3595C5.68573 16.5772 4.77768 15.1992 4.77768 13.6297Z" fill="#FFCABD"/>
</svg>
