<svg width="25" height="25" viewBox="0 0 22 22" fill="none" xmlns="http://www.w3.org/2000/svg">
<path d="M10.745 7.07062C8.3236 7.07062 6.36084 9.03343 6.36084 11.4547C6.36084 13.876 8.3236 15.8388 10.745 15.8388C13.1663 15.8388 15.1291 13.876 15.1291 11.4547C15.129 9.03343 13.1663 7.07062 10.745 7.07062ZM10.745 13.5288C9.59589 13.5288 8.66444 12.5974 8.66444 11.4491C8.66444 11.0114 8.80518 10.6105 9.03716 10.2769C8.96291 10.1285 8.92018 9.96165 8.92018 9.78447C8.92018 9.17494 9.41424 8.68083 10.0238 8.68083C10.4979 8.68083 10.901 8.9804 11.0572 9.40011C12.057 9.55124 12.8254 10.4064 12.8254 11.449C12.8254 12.5974 11.894 13.5288 10.745 13.5288Z" fill="#81B6B2"/>
<path d="M11.8496 4.39999C10.5873 4.39999 9.49873 4.51603 8.57607 4.7882C4.41671 5.85762 0 10.3114 0 11.3796C0 12.4478 5.64189 18.0043 10.1504 18.0043C11.4127 18.0043 12.5013 17.8882 13.4239 17.6152C17.5833 16.5458 22 12.3379 22 11.0238C22 9.70967 16.3582 4.39999 11.8496 4.39999ZM10.7451 15.8389C8.32371 15.8389 6.36096 13.8761 6.36096 11.4548C6.36096 9.0335 8.32371 7.07069 10.7451 7.07069C13.1664 7.07069 15.1292 9.0335 15.1292 11.4548C15.1291 13.8761 13.1664 15.8389 10.7451 15.8389Z" fill="white"/>
<path d="M11.0568 9.40009C11.1014 9.51992 11.127 9.64906 11.127 9.78445C11.127 10.3939 10.6329 10.888 10.0234 10.888C9.59109 10.888 9.21785 10.6388 9.03677 10.2768C8.80475 10.6105 8.66406 11.0113 8.66406 11.449C8.66406 12.5974 9.5955 13.5288 10.7446 13.5288C11.8936 13.5288 12.8251 12.5974 12.8251 11.449C12.825 10.4063 12.0566 9.55122 11.0568 9.40009Z" fill="#2B3237"/>
<path d="M10.0235 10.8881C10.633 10.8881 11.1271 10.3939 11.1271 9.78448C11.1271 9.6491 11.1015 9.51996 11.0569 9.40012C10.9007 8.98041 10.4976 8.68085 10.0235 8.68085C9.41397 8.68085 8.91992 9.17495 8.91992 9.78448C8.91992 9.96166 8.96271 10.1285 9.0369 10.2769C9.21792 10.6389 9.59115 10.8881 10.0235 10.8881Z" fill="white"/>
</svg>
