<svg width="30" height="30" viewBox="0 0 30 30" fill="none" xmlns="http://www.w3.org/2000/svg">
<path d="M16.4013 7.86626C16.1669 8.10067 16.0353 8.41855 16.0353 8.75001C16.0353 9.08146 16.1669 9.39935 16.4013 9.63376L20.5163 13.75L7.5 13.7588C7.16848 13.7588 6.85054 13.8905 6.61612 14.1249C6.3817 14.3593 6.25 14.6772 6.25 15.0088C6.25 15.3403 6.3817 15.6582 6.61612 15.8926C6.85054 16.1271 7.16848 16.2588 7.5 16.2588L20.5175 16.25L16.4013 20.3663C16.2819 20.4816 16.1866 20.6195 16.1211 20.772C16.0556 20.9245 16.0211 21.0885 16.0197 21.2545C16.0182 21.4205 16.0499 21.5851 16.1127 21.7387C16.1756 21.8923 16.2684 22.0319 16.3858 22.1493C16.5031 22.2666 16.6427 22.3594 16.7963 22.4223C16.9499 22.4851 17.1145 22.5168 17.2805 22.5153C17.4465 22.5139 17.6105 22.4794 17.763 22.4139C17.9155 22.3484 18.0534 22.2531 18.1688 22.1338L22.6513 17.6525C22.9995 17.3043 23.2758 16.8909 23.4643 16.4358C23.6528 15.9808 23.7498 15.4931 23.7498 15.0006C23.7498 14.5081 23.6528 14.0204 23.4643 13.5654C23.2758 13.1104 22.9995 12.697 22.6513 12.3488L18.1688 7.86626C17.9343 7.63192 17.6165 7.50027 17.285 7.50027C16.9535 7.50027 16.6357 7.63192 16.4013 7.86626Z" fill="#AFB252"/>
</svg>
