<svg width="186" height="164" viewBox="0 0 186 164" fill="none" xmlns="http://www.w3.org/2000/svg">
<path fill-rule="evenodd" clip-rule="evenodd" d="M123.774 119.542C117.147 119.619 110.55 120.478 104.117 122.103C98.2506 123.7 92.5264 125.798 87.0057 128.376C81.8776 130.388 77.0592 133.139 72.6976 136.545C68.1559 139.95 63.7383 143.492 59.6 147.298C57.6297 149.007 55.7543 150.826 53.9823 152.748C52.2442 154.656 50.6407 157.112 47.9611 158.198C47.8813 158.261 47.8267 158.351 47.8076 158.452C47.7886 158.553 47.8064 158.657 47.8577 158.746C47.537 158.872 47.4956 159.452 47.8577 159.558H47.9922C57.6432 163.239 67.8759 165.083 78.1808 164.997C88.1804 164.922 98.13 163.551 107.79 160.918C117.777 158.364 127.306 154.219 136.023 148.637C140.296 145.906 144.579 143.187 148.852 140.604C152.907 138.348 156.679 135.601 160.087 132.424C160.154 132.324 160.189 132.207 160.189 132.086C160.189 131.966 160.154 131.848 160.087 131.749C157.513 129.275 154.462 127.373 151.128 126.162C146.67 124.287 142.118 122.651 137.492 121.26C133.016 120.061 128.402 119.483 123.774 119.542ZM126.112 120.596C135.289 120.596 144.196 124.075 152.463 127.817C154.172 128.463 155.792 129.331 157.284 130.4C157.677 130.674 159.56 131.633 158.742 132.445C157.77 133.425 156.733 134.338 155.639 135.175C151.847 137.921 147.868 140.387 143.731 142.554C135.041 147.825 127.023 153.454 117.391 156.996C105.051 161.705 91.9885 164.143 78.8119 164.196C71.8215 164.219 64.8504 163.448 58.0275 161.898C54.7888 161.177 51.61 160.201 48.5198 158.978C51.5304 157.46 53.3823 154.508 55.7618 152.094C59.4938 148.427 63.4207 144.971 67.5248 141.742C71.3936 138.388 75.5056 135.336 79.8258 132.613C84.6365 129.757 89.8507 128.123 95.0649 125.94C104.697 121.987 115.115 120.765 125.554 120.67L126.112 120.596Z" fill="#F44771"/>
<path fill-rule="evenodd" clip-rule="evenodd" d="M91.8888 126.752C91.6302 126.752 91.2888 127.1 91.475 127.395C92.6854 130.389 90.8025 134.205 90.0059 137.062C89.0645 139.645 87.9368 142.649 88.2575 145.369C88.661 148.363 91.0715 148.911 93.3579 150.545C95.3922 152.184 97.276 154.008 98.986 155.995C100.724 157.766 103.124 158.988 104.883 160.897C104.918 160.937 104.961 160.969 105.009 160.991C105.057 161.013 105.11 161.024 105.162 161.023C105.524 161.023 105.866 160.538 105.555 160.211C104.211 158.988 102.731 157.766 101.262 156.68C99.261 155.067 97.3798 153.305 95.634 151.409C94.4271 150.333 93.1248 149.373 91.744 148.542C89.199 147.182 88.93 145.274 89.3335 142.691C90.0059 137.926 94.289 131.791 92.1475 127.026C92.1505 126.99 92.1459 126.954 92.1341 126.92C92.1223 126.887 92.1035 126.856 92.079 126.83C92.0546 126.804 92.0249 126.783 91.9921 126.77C91.9593 126.757 91.9241 126.751 91.8888 126.752Z" fill="#F44771"/>
<path fill-rule="evenodd" clip-rule="evenodd" d="M69.5423 139.56C69.4576 139.559 69.375 139.587 69.3088 139.641C69.2426 139.695 69.1971 139.771 69.1802 139.855C68.3836 143.661 66.3869 149.775 67.9801 153.559C68.9112 155.879 71.4356 157.091 73.4219 158.187C76.8187 159.945 79.9536 162.184 82.733 164.839C82.7541 164.879 82.7856 164.911 82.824 164.934C82.8624 164.956 82.9061 164.967 82.9503 164.966C83.0371 164.957 83.1198 164.923 83.1893 164.87C83.2589 164.816 83.3126 164.744 83.3447 164.661C83.3767 164.578 83.3858 164.488 83.371 164.401C83.3562 164.313 83.318 164.231 83.2606 164.164C81.2883 162.256 79.1559 160.528 76.8877 158.999C74.3797 157.76 71.981 156.303 69.7182 154.645C66.5317 151.799 69.1906 143.777 70.1217 140.108C70.1112 139.959 70.0456 139.82 69.938 139.718C69.8305 139.616 69.6891 139.56 69.5423 139.56Z" fill="#F44771"/>
<path d="M0.111809 106.059C8.6987 93.3248 36.0112 67.1817 47.9915 55.8705C59.9718 44.5594 65.0515 42.1665 71.9727 38.1712C77.4711 35.1306 83.407 32.9959 89.5603 31.8462C94.009 30.7921 98.1472 30.6866 98.6438 32.1414C99.1404 33.5961 96.0367 34.7662 92.5399 40.5746C89.043 46.3831 82.1942 55.3329 77.6421 66.9287C73.0901 78.5244 70.545 97.3834 65.4343 109.78C60.3235 122.177 54.561 133.541 46.9983 141.258C39.4356 148.974 28.3761 153.138 20.0168 156.016C11.6576 158.894 0.949807 162.583 -2.9712 158.62C-6.8922 154.656 -4.00576 141.036 -3.54021 132.265C-3.07465 123.495 -8.48543 118.804 0.111809 106.059Z" stroke="#353E6C" stroke-width="0.75" stroke-linejoin="round"/>
<path fill-rule="evenodd" clip-rule="evenodd" d="M80.9535 35.1773C80.8961 35.1716 80.8382 35.1778 80.7832 35.1956C80.7283 35.2134 80.6774 35.2424 80.6339 35.2809C80.5903 35.3193 80.5549 35.3664 80.5298 35.4193C80.5047 35.4722 80.4904 35.5298 80.4879 35.5885C80.7569 39.2237 80.7569 42.8743 80.4879 46.5095C80.5268 46.6222 80.5978 46.7204 80.6918 46.7918C80.7858 46.8631 80.8985 46.9043 81.0155 46.9101C81.6673 46.9101 84.6262 47.7218 85.909 47.7218C86.1884 47.7218 86.3849 47.7218 86.4574 47.5848C86.2711 47.8694 86.5505 48.154 86.8195 48.154C86.8786 48.1564 86.9374 48.1431 86.99 48.1154C87.0426 48.0877 87.0872 48.0465 87.1195 47.9959H87.254C87.3181 47.9196 87.3533 47.8223 87.3533 47.7218C87.3533 47.6213 87.3181 47.5241 87.254 47.4477C86.2194 46.5095 83.6744 46.3936 82.2156 46.2354L81.2845 46.1089C81.5074 45.0424 81.5978 43.9516 81.5535 42.8621C81.5535 40.4376 81.5535 38.013 81.419 35.5885C81.4165 35.5298 81.4022 35.4722 81.3771 35.4193C81.352 35.3664 81.3166 35.3193 81.2731 35.2809C81.2295 35.2424 81.1787 35.2134 81.1237 35.1956C81.0688 35.1778 81.0108 35.1716 80.9535 35.1773Z" fill="#353E6C"/>
<path fill-rule="evenodd" clip-rule="evenodd" d="M61.7622 44.5595C61.4415 44.5595 61.1932 45.0128 61.5036 45.2236C64.9694 48.6074 65.3729 54.5529 66.4385 59.0225C66.573 59.149 66.6971 59.286 66.8316 59.286C71.4975 60.3402 76.2979 61.1835 81.0983 61.8582H81.2121C81.6466 61.8582 81.719 61.1624 81.2121 61.0359H81.3465C78.5429 60.6248 75.7392 60.0872 72.9459 59.676C71.3526 59.4125 69.8422 59.0119 68.28 58.7378C66.7178 58.4637 66.8109 56.8403 66.5523 55.5754C65.7453 51.7909 64.9487 47.3214 62.0209 44.6227C61.9435 44.5739 61.8529 44.5518 61.7622 44.5595Z" fill="#353E6C"/>
<path fill-rule="evenodd" clip-rule="evenodd" d="M45.1368 58.4532C45.0587 58.4526 44.9821 58.4758 44.917 58.5198C44.8518 58.5638 44.801 58.6265 44.771 58.7001C44.7411 58.7736 44.7333 58.8546 44.7487 58.9326C44.7641 59.0107 44.8019 59.0823 44.8575 59.1383C49.1095 64.2932 51.2407 70.6814 53.134 77.1961C53.134 77.3332 53.3926 77.4702 53.5271 77.4702C60.7691 77.7443 67.7834 77.7443 74.9737 77.7443C75.0611 77.7012 75.1349 77.6338 75.1865 77.5499C75.2381 77.466 75.2655 77.369 75.2655 77.2699C75.2655 77.1709 75.2381 77.074 75.1865 76.9901C75.1349 76.9062 75.0611 76.8387 74.9737 76.7956H62.8279C61.1002 76.7956 59.2379 76.6585 57.4999 76.6585C54.841 76.6585 53.7754 76.6585 52.9788 73.8018C51.5382 68.2386 48.9493 63.0527 45.3851 58.5902C45.3567 58.5496 45.3196 58.5161 45.2766 58.4924C45.2335 58.4686 45.1857 58.4552 45.1368 58.4532Z" fill="#353E6C"/>
<path fill-rule="evenodd" clip-rule="evenodd" d="M30.0218 74.6873C29.6701 74.6873 29.3287 75.1722 29.639 75.4884C35.3912 82.2561 37.3983 91.2059 40.8744 99.1965C40.8744 99.2913 41.0193 99.3863 41.1331 99.3863C41.1796 99.4051 41.2314 99.4051 41.2779 99.3863C50.3821 97.4888 59.7449 98.5746 68.8387 96.54C69.325 96.4135 69.2525 95.7178 68.8387 95.7178H68.7249C63.6061 96.6859 58.4127 97.1868 53.2064 97.2146C50.7959 97.3411 48.3854 97.4782 45.9645 97.7523C44.8368 97.8788 43.8333 98.174 42.9539 98.174C42.0745 98.174 41.1227 97.7734 40.4709 96.2554C37.5328 88.8025 35.3912 80.949 30.3115 74.856C30.2788 74.8074 30.2358 74.767 30.1856 74.7378C30.1355 74.7086 30.0795 74.6913 30.0218 74.6873Z" fill="#353E6C"/>
<path fill-rule="evenodd" clip-rule="evenodd" d="M13.8826 90.194C13.5619 90.194 13.2205 90.563 13.4067 90.8582C15.9 96.5085 18.952 101.885 21.5798 107.546C22.9661 110.234 24.3421 113.059 25.5939 115.884C26.102 117.115 26.9734 118.154 28.0872 118.857C29.3666 119.336 30.7177 119.585 32.0806 119.595C32.36 119.595 32.6496 119.595 32.929 119.595C35.8361 119.595 38.7432 119.447 41.6504 119.447C47.744 119.447 53.6927 119.162 59.7863 119.162C60.4795 119.162 60.4795 118.319 59.7863 118.319C54.7997 118.319 49.9579 118.456 45.1162 118.604H36.9431C36.012 118.699 35.0809 118.751 34.1601 118.751C32.4959 118.747 30.835 118.602 29.1942 118.319C27.1251 117.75 26.4216 115.768 25.7284 113.934C24.4869 111.246 23.1006 108.663 21.8591 105.869C19.3658 100.788 16.5932 95.6968 14.2344 90.4681C14.2138 90.3892 14.1681 90.3195 14.1044 90.2699C14.0408 90.2203 13.9628 90.1936 13.8826 90.194Z" fill="#353E6C"/>
<path fill-rule="evenodd" clip-rule="evenodd" d="M5.31633 99.576C5.23431 99.5824 5.15468 99.6072 5.08314 99.6485C5.01159 99.6899 4.94989 99.7468 4.90246 99.8153C4.85502 99.8838 4.823 99.9621 4.80871 100.045C4.79441 100.127 4.79818 100.212 4.81974 100.293C6.23609 103.378 7.27833 106.628 7.92344 109.97C8.86489 113.923 10.065 117.876 11.1306 121.692C11.9376 124.285 12.7342 126.742 13.2721 129.335C13.6653 130.832 13.9343 133.014 15.2689 133.973C17.186 135.039 19.2622 135.776 21.4142 136.155C24.7558 136.83 28.0871 137.652 31.4288 138.2C34.8128 138.906 38.2583 139.259 41.7124 139.255C44.1662 139.256 46.6171 139.083 49.0474 138.738C49.544 138.622 49.3578 137.916 48.9026 137.916H48.7785V137.779C46.303 138.162 43.8024 138.352 41.2985 138.348C37.7018 138.348 34.1142 137.978 30.5908 137.241C27.9216 136.693 25.2524 136.187 22.5832 135.47C19.9141 134.753 15.6413 134.511 14.7102 131.38C14.0377 129.472 13.7687 127.427 13.2411 125.382C12.4341 122.514 11.3685 119.647 10.5616 116.79C9.0925 111.193 8.16139 104.921 5.6267 99.7446C5.59405 99.6912 5.54818 99.6476 5.49369 99.618C5.43921 99.5884 5.37804 99.5739 5.31633 99.576Z" fill="#353E6C"/>
<path fill-rule="evenodd" clip-rule="evenodd" d="M10.2926 26.354C10.2228 26.3534 10.1537 26.3691 10.0908 26.4C10.0279 26.4309 9.97286 26.4761 9.92986 26.5322C9.88685 26.5882 9.85708 26.6535 9.84284 26.7232C9.82859 26.7928 9.83027 26.8649 9.84772 26.9338C11.3936 32.2832 12.0236 37.8641 11.7099 43.4314C11.441 48.8814 10.1167 54.2049 9.45459 59.6655C8.25449 70.8396 9.71323 81.7502 11.8444 92.7978C11.8592 92.8816 11.9026 92.9572 11.9671 93.0112C12.0315 93.0653 12.1127 93.0943 12.1962 93.093C12.2649 93.0932 12.3328 93.0776 12.3947 93.0473C12.4566 93.017 12.5111 92.9728 12.5539 92.9181C12.5967 92.8633 12.6267 92.7994 12.6418 92.7311C12.6569 92.6628 12.6567 92.5919 12.641 92.5237C10.3857 80.8015 8.91662 69.0686 10.6443 57.0723C12.2376 46.7099 13.5618 37.0432 10.6443 26.6597C10.6299 26.5749 10.5868 26.498 10.5226 26.4422C10.4583 26.3864 10.377 26.3552 10.2926 26.354Z" fill="#353E6C"/>
<path fill-rule="evenodd" clip-rule="evenodd" d="M5.76113 30.307C5.40814 30.3084 5.06211 30.4072 4.75975 30.5928C4.45739 30.7784 4.20997 31.0439 4.04375 31.3612C3.00918 33.1322 4.99555 35.1773 6.21634 36.2631C7.7137 37.7533 9.46711 38.9503 11.3892 39.7945C11.4452 39.871 11.5189 39.9322 11.6038 39.9726C11.6886 40.0131 11.7819 40.0315 11.8754 40.0264H11.9892H12.0823C12.4237 40.0264 12.6203 39.3518 12.1754 39.0883C11.7344 36.6324 10.6918 34.3298 9.14416 32.3943C8.74802 31.8314 8.24398 31.3562 7.66251 30.9975C7.08104 30.6387 6.43421 30.4039 5.76113 30.307ZM6.08185 31.2453C6.26689 31.247 6.45104 31.2717 6.63017 31.3191C7.71646 31.5931 8.53377 32.8265 9.21658 33.7752C10.1665 35.2592 10.8463 36.9055 11.2236 38.635C10.1772 38.112 9.18281 37.4871 8.25443 36.7691C6.60599 35.8194 5.31677 34.3351 4.59207 32.5524C4.36447 31.6775 5.27488 31.2453 6.0715 31.2453H6.08185Z" fill="#353E6C"/>
<path fill-rule="evenodd" clip-rule="evenodd" d="M18.1759 39.3202C16.9241 39.3202 15.6309 41.0174 14.9688 41.9029C13.5628 43.5432 12.4399 45.4144 11.6478 47.4371L10.8926 47.9221C10.5615 48.154 10.7891 48.6599 11.1926 48.6599C11.2788 48.6566 11.3633 48.6351 11.4409 48.5967C13.7273 47.1103 16.2827 46.1721 18.3104 44.3801C19.6553 43.3259 21.0003 40.7328 18.9829 39.5205C18.7398 39.3725 18.4586 39.3027 18.1759 39.3202ZM18.1759 40.153C19.2105 40.153 19.1174 42.0399 18.8484 42.5775C18.1911 43.5437 17.3098 44.3295 16.2827 44.865C15.1774 45.6246 14.0111 46.2876 12.7962 46.8468C13.2813 45.7751 13.8631 44.7517 14.5342 43.7898C15.2067 42.704 16.5516 40.2795 18.1759 40.153Z" fill="#353E6C"/>
<path fill-rule="evenodd" clip-rule="evenodd" d="M7.06466 44.9178C6.64814 44.9283 6.24017 45.0403 5.87491 45.2446C2.77121 47.0366 8.9786 53.2456 10.3235 54.3524C10.3579 54.3907 10.3993 54.4216 10.4455 54.4433C10.4917 54.465 10.5417 54.4771 10.5925 54.4789C10.6769 54.4757 10.7584 54.4469 10.8266 54.3962C10.8948 54.3455 10.9465 54.2752 10.9753 54.1943C11.0557 54.172 11.1272 54.1243 11.1792 54.058C11.2313 53.9917 11.2613 53.9102 11.265 53.8254C11.2236 51.5168 10.0339 44.9178 7.06466 44.9178ZM6.86809 45.8349C7.27969 45.8308 7.68312 45.952 8.0268 46.1828C8.72495 46.9689 9.23176 47.9114 9.50623 48.9341C9.98846 50.3694 10.2943 51.8601 10.4166 53.3721C9.67721 52.7064 9.01116 51.9606 8.43028 51.1479C7.1602 49.9723 6.26931 48.4325 5.87491 46.731C5.87491 46.0879 6.35081 45.8665 6.86809 45.8665V45.8349Z" fill="#353E6C"/>
<path fill-rule="evenodd" clip-rule="evenodd" d="M15.5379 57.1777C14.1412 57.1777 12.9928 59.1279 12.2687 59.8553C11.0854 61.3471 10.0655 62.966 9.22703 64.6834C9.16591 64.7408 9.12182 64.8146 9.09977 64.8963C9.07773 64.9781 9.07861 65.0644 9.10231 65.1457C9.12601 65.2269 9.17159 65.2998 9.23386 65.3559C9.29614 65.4121 9.37262 65.4493 9.45463 65.4634H9.55809C9.60433 65.4639 9.65017 65.4549 9.69286 65.4367C9.73554 65.4186 9.77416 65.3918 9.80639 65.358C12.0514 64.578 14.7309 63.8717 16.2931 61.8898C17.1001 60.9411 17.638 57.9367 16.0241 57.262C15.8682 57.2047 15.7036 57.1762 15.5379 57.1777ZM15.5379 58.1686C15.8276 58.1686 16.0448 58.4427 16.1379 58.9065C16.2767 59.4538 16.2525 60.0308 16.0682 60.564C15.884 61.0972 15.5481 61.5624 15.1034 61.9003C13.6727 63.0129 12.0521 63.8457 10.3237 64.3566C11.4489 62.0221 13.0712 59.9728 15.0723 58.3583C15.2081 58.2399 15.3799 58.1729 15.5586 58.1686H15.5379Z" fill="#353E6C"/>
<path fill-rule="evenodd" clip-rule="evenodd" d="M39.4364 23.4973C39.3508 23.524 39.2743 23.5748 39.2157 23.6438C39.1572 23.7128 39.1189 23.7971 39.1053 23.8873C38.9432 30.2299 38.1424 36.5387 36.7155 42.7146C35.3841 49.6406 32.455 56.1446 28.1699 61.6895C22.0453 69.0686 13.0136 78.282 3.09207 80.7382C1.25911 81.2026 -0.627169 81.4118 -2.51527 81.3601H-2.62908C-3.07394 81.476 -3.09463 82.2034 -2.57735 82.2139C-0.694982 82.2357 1.18241 82.0125 3.00931 81.5498C13.0032 79.062 21.8901 70.1438 28.1596 62.7858C32.4589 57.6718 35.4891 51.5799 36.9948 45.0232C38.8147 38.1434 39.8083 31.0639 39.9536 23.94C39.9569 23.8735 39.9449 23.807 39.9187 23.7459C39.8926 23.6848 39.8529 23.6308 39.8028 23.5879C39.7527 23.545 39.6936 23.5145 39.63 23.4988C39.5664 23.4831 39.5002 23.4825 39.4364 23.4973Z" fill="#353E6C"/>
<path fill-rule="evenodd" clip-rule="evenodd" d="M24.88 35.1879C24.813 35.2027 24.7502 35.233 24.6966 35.2765C24.643 35.32 24.6 35.3756 24.571 35.4389C24.5419 35.5022 24.5276 35.5714 24.5292 35.6413C24.5307 35.7111 24.5481 35.7796 24.5799 35.8415C27.1767 40.9542 32.8565 42.7779 38.1017 42.8728C39.3479 42.9139 40.5938 42.7826 41.8055 42.4828C46.7817 41.2494 50.4027 37.4333 55.0789 35.0192C55.5341 34.7767 55.2962 34.1021 54.872 34.2075H54.7582C50.1544 36.6005 46.5645 40.4271 41.5261 41.6816C40.9198 41.8308 40.3047 41.9399 39.6846 42.0084C34.2738 42.3668 27.9216 40.5747 25.2938 35.3355C25.2528 35.2653 25.1889 35.2121 25.1132 35.1851C25.0375 35.1581 24.955 35.1591 24.88 35.1879Z" fill="#353E6C"/>
<path fill-rule="evenodd" clip-rule="evenodd" d="M49.8337 26.354H49.7199H49.5854C44.953 30.8458 41.2276 36.2175 38.619 42.1664C38.412 42.5143 38.7845 42.7146 39.0845 42.6408C39.148 42.6294 39.2074 42.6009 39.2566 42.5582C39.3057 42.5156 39.3427 42.4604 39.3638 42.3983C41.9642 36.6139 45.6632 31.4117 50.2475 27.0919C50.2958 27.0186 50.3231 26.9329 50.3262 26.8446C50.3293 26.7563 50.3081 26.6689 50.2651 26.5922C50.2221 26.5155 50.1589 26.4526 50.0827 26.4105C50.0065 26.3684 49.9202 26.3489 49.8337 26.354Z" fill="#353E6C"/>
<path fill-rule="evenodd" clip-rule="evenodd" d="M28.9872 28.5782C28.9342 28.5835 28.8833 28.6022 28.8391 28.6326C28.795 28.663 28.759 28.7041 28.7343 28.7522C28.7097 28.8003 28.6972 28.854 28.698 28.9082C28.6988 28.9625 28.7128 29.0158 28.7389 29.0631C29.811 31.8511 31.2709 34.4676 33.0737 36.8323C34.3648 39.1012 36.131 41.052 38.2465 42.5459C38.3677 42.5854 38.4979 42.5854 38.619 42.5459C38.9811 42.451 39.1259 41.945 38.7742 41.808C36.5395 40.543 34.8118 37.8865 33.3323 35.7255C31.783 33.6208 30.5133 31.3169 29.5562 28.8734C29.5413 28.8136 29.5142 28.7578 29.4764 28.7097C29.4387 28.6615 29.3913 28.6222 29.3374 28.5942C29.2835 28.5662 29.2244 28.5504 29.164 28.5476C29.1036 28.5449 29.0433 28.5553 28.9872 28.5782Z" fill="#353E6C"/>
<path fill-rule="evenodd" clip-rule="evenodd" d="M53.9306 33.0585C53.5506 33.1521 53.2227 33.3958 53.0189 33.7358C52.8152 34.0758 52.7524 34.4844 52.8443 34.8716C52.9363 35.2588 53.1754 35.5929 53.5091 35.8005C53.8428 36.0081 54.2438 36.0721 54.6238 35.9784H54.7479L55.0066 35.9152H55.1307C55.3189 35.8688 55.4963 35.7851 55.6527 35.6689C55.8091 35.5527 55.9415 35.4062 56.0424 35.2379C56.1433 35.0695 56.2106 34.8825 56.2406 34.6876C56.2706 34.4928 56.2625 34.2938 56.217 34.102C56.1715 33.9103 56.0894 33.7296 55.9753 33.5702C55.8613 33.4108 55.7175 33.2759 55.5523 33.1731C55.387 33.0704 55.2036 33.0018 55.0123 32.9712C54.821 32.9407 54.6257 32.9489 54.4376 32.9952H54.3134L54.0548 33.0585H53.9306Z" fill="#F44771"/>
<path fill-rule="evenodd" clip-rule="evenodd" d="M50.4234 25.2998H50.2475L49.9889 25.3631C49.8014 25.3992 49.6231 25.4738 49.4648 25.5823C49.3065 25.6909 49.1715 25.8311 49.0681 25.9944C48.9646 26.1578 48.8948 26.3409 48.863 26.5326C48.8312 26.7243 48.8379 26.9206 48.8829 27.1095C48.9279 27.2985 49.0101 27.4761 49.1245 27.6317C49.239 27.7873 49.3833 27.9174 49.5487 28.0144C49.714 28.1113 49.8971 28.173 50.0866 28.1956C50.2761 28.2183 50.4681 28.2014 50.651 28.146L50.9097 28.0828C50.9713 28.0938 51.0343 28.0938 51.0959 28.0828C52.4201 27.7876 51.7477 24.973 50.4234 25.2998Z" fill="#F44771"/>
<path fill-rule="evenodd" clip-rule="evenodd" d="M40.5433 22.1374C40.3558 22.1838 40.1792 22.2673 40.0234 22.3832C39.8676 22.4992 39.7357 22.6453 39.6353 22.8132C39.4326 23.1522 39.3703 23.5595 39.4622 23.9453C39.5541 24.3312 39.7927 24.664 40.1254 24.8706C40.4582 25.0772 40.8578 25.1406 41.2365 25.0469L41.4951 24.9837C41.8738 24.89 42.2004 24.6469 42.4032 24.3078C42.6059 23.9688 42.6682 23.5616 42.5763 23.1757C42.4843 22.7899 42.2458 22.4571 41.913 22.2505C41.5803 22.0439 41.1806 21.9805 40.802 22.0741L40.5433 22.1374Z" fill="#F44771"/>
<path fill-rule="evenodd" clip-rule="evenodd" d="M156.052 132.044C148.098 132.059 140.151 132.57 132.257 133.573C122.502 134.933 113.159 138.485 103.807 141.205C84.9779 146.802 66.6764 153.486 47.8473 158.809C47.7431 158.831 47.651 158.892 47.5901 158.981C47.5292 159.07 47.5041 159.179 47.5201 159.286C47.536 159.393 47.5918 159.49 47.6759 159.556C47.7599 159.622 47.8657 159.653 47.9715 159.642H48.1784C66.4695 154.593 84.502 147.772 102.803 142.449C111.887 139.856 120.691 136.577 130.044 134.806C138.154 133.505 146.352 132.842 154.563 132.824C155.959 132.824 157.346 132.824 158.701 132.888C158.808 132.888 158.911 132.844 158.986 132.767C159.062 132.69 159.104 132.585 159.104 132.476C159.104 132.367 159.062 132.263 158.986 132.186C158.911 132.109 158.808 132.065 158.701 132.065L156.052 132.044Z" fill="#F44771"/>
<path fill-rule="evenodd" clip-rule="evenodd" d="M138.258 122.124C138.194 122.123 138.13 122.138 138.072 122.168C138.015 122.197 137.965 122.24 137.927 122.293C136.189 124.897 134.575 127.638 132.827 130.241C132.423 130.927 130.416 133.404 131.078 134.458C133.903 138.843 140.213 140.077 144.238 142.955C144.304 142.992 144.379 143.01 144.455 143.007C144.555 143.002 144.65 142.964 144.726 142.898C144.803 142.832 144.855 142.742 144.877 142.643C144.898 142.543 144.886 142.439 144.844 142.347C144.801 142.255 144.73 142.179 144.641 142.132C140.876 139.529 136.189 138.295 132.827 135.143C130.82 133.362 133.634 130.494 134.709 128.976C136.189 127.058 137.255 124.76 138.599 122.651C138.889 122.409 138.568 122.124 138.258 122.124Z" fill="#F44771"/>
<path fill-rule="evenodd" clip-rule="evenodd" d="M117.836 120.501C117.736 120.5 117.638 120.528 117.553 120.582C117.469 120.637 117.402 120.714 117.36 120.807C116.161 124.73 114.678 128.556 112.922 132.255C111.887 134.3 109.694 137.526 110.645 140.035C111.597 142.544 114.67 144.525 116.553 145.896C119.915 148.753 124.084 150.249 127.312 153.275C127.385 153.326 127.472 153.352 127.561 153.349C127.923 153.349 128.285 152.927 127.85 152.59H127.985C125.295 150.133 121.933 149.185 119.243 146.866C116.33 145.051 113.738 142.749 111.577 140.056C109.963 137.874 113.646 132.677 114.68 130.642C116.102 127.519 117.272 124.282 118.177 120.965C118.332 120.701 118.105 120.501 117.836 120.501Z" fill="#F44771"/>
<path fill-rule="evenodd" clip-rule="evenodd" d="M161.381 17.1407C161.284 17.1417 161.191 17.1769 161.117 17.2404C161.044 17.304 160.994 17.3918 160.977 17.4886C158.173 33.691 147.341 45.9509 133.706 54.1101C127.157 58.0632 120.07 61.057 113.253 64.462C107.172 67.7476 101.596 71.9204 96.6995 76.8483C86.9332 86.3358 79.4533 97.9315 71.8699 109.253C67.8558 115.114 63.7175 120.849 59.7034 126.689C54.8927 133.762 49.9475 140.393 43.1504 145.474C43.0865 145.527 43.0381 145.596 43.0107 145.675C42.9833 145.754 42.9778 145.839 42.995 145.921C43.0121 146.003 43.0512 146.078 43.1078 146.139C43.1645 146.2 43.2365 146.243 43.3159 146.265C43.4051 146.26 43.4895 146.222 43.5539 146.159C49.1142 141.898 53.9602 136.747 57.9033 130.906C62.1864 124.781 66.4591 118.519 70.7319 112.384C79.1636 99.9976 87.285 87.3372 98.0134 76.8483C103.612 71.5455 109.968 67.1382 116.863 63.7767C124.141 60.3449 131.238 56.5271 138.124 52.3391C147.952 45.7822 155.908 36.59 159.849 25.5002C156.322 39.6997 146.4 50.2519 133.427 57.6521C126.598 61.4576 119.253 64.1879 112.435 68.1304C106.021 72.2763 100.256 77.383 95.3339 83.2787C83.5709 96.4557 74.0425 111.435 64.5866 126.278C60.651 132.104 55.8723 137.29 50.413 141.658C46.2748 145.063 40.9261 149.701 35.3084 150.513C34.8118 150.64 35.0083 151.346 35.4532 151.346C35.494 151.356 35.5366 151.356 35.5774 151.346H35.7636C40.5743 150.671 45.0747 146.992 48.8612 143.967C54.34 139.752 59.2819 134.858 63.5727 129.398C69.0559 122.019 73.5976 113.881 78.5429 106.386C84.11 98.2315 90.1379 90.414 96.596 82.973C102.326 76.3903 109.161 70.9002 116.78 66.76C124.022 63.0915 131.492 60.0872 138.444 55.7335C151.894 47.1948 160.677 33.944 161.95 17.8575C161.95 17.8575 161.95 17.7838 161.95 17.7521C161.945 17.7066 161.945 17.6607 161.95 17.6151C161.921 17.4821 161.85 17.3627 161.746 17.2765C161.643 17.1903 161.514 17.1424 161.381 17.1407Z" fill="#353E6C"/>
<path fill-rule="evenodd" clip-rule="evenodd" d="M102.1 131.686C99.9543 131.768 97.8192 132.033 95.7167 132.476C87.285 132.887 78.9877 133.973 70.825 134.659C66.1384 135.07 61.0484 134.796 56.7653 136.303V136.841C57.4274 136.841 58.0895 136.841 58.762 136.841C66.1798 136.841 73.8873 138.137 81.2638 138.506C83.0019 138.643 84.8951 138.749 86.8194 138.749C90.8161 138.884 94.7987 138.199 98.5307 136.735C99.8653 136.461 105.628 133.878 104.014 132.097C103.434 131.758 102.764 131.614 102.1 131.686Z" fill="#353E6C"/>
<path fill-rule="evenodd" clip-rule="evenodd" d="M108.742 115.083H107.997C94.62 115.357 79.0912 117.107 66.9143 123.326L65.4453 125.361C70.8767 122.472 77.1462 122.019 83.4053 122.019C86.2297 122.019 89.054 122.114 91.806 122.114C97.0976 122.068 102.378 121.617 107.604 120.765C109.207 120.49 115.363 119.542 115.094 116.97C114.98 115.188 110.894 115.083 108.742 115.083Z" fill="#353E6C"/>
<path fill-rule="evenodd" clip-rule="evenodd" d="M110.17 97.2252C98.7894 97.2252 84.1503 103.898 75.4497 110.929L75.1807 111.614C83.015 107.46 91.7165 105.291 100.548 105.29C101.076 105.29 101.583 105.29 102.11 105.29C104.231 105.29 106.983 105.5 109.756 105.5C112.922 105.5 116.108 105.216 118.384 104.046C125.978 100.209 113.708 97.1831 110.511 97.1831L110.17 97.2252Z" fill="#353E6C"/>
<path fill-rule="evenodd" clip-rule="evenodd" d="M115.425 82.7937C111.8 82.7834 108.201 83.4184 104.79 84.6701C99.0272 86.4517 92.8716 88.6443 88.0505 92.3339L86.7159 93.9784C95.4166 87.8115 105.193 89.182 115.363 88.6443C118.974 88.3703 129.557 85.0813 121.126 83.2997C119.243 82.9637 117.336 82.7944 115.425 82.7937Z" fill="#353E6C"/>
<path fill-rule="evenodd" clip-rule="evenodd" d="M109.942 73.2325C108.907 73.2325 107.873 73.2326 106.745 73.3485H106.621L105.276 73.8966C108.158 74.0059 110.983 74.7542 113.553 76.0893C116.118 77.1434 122.222 79.5469 126.733 79.5469C127.513 79.6166 128.299 79.5276 129.045 79.2851C129.791 79.0426 130.482 78.6515 131.078 78.1343C134.285 74.8454 121.043 74.0337 118.498 73.9177C115.665 73.4894 112.806 73.2605 109.942 73.2325Z" fill="#353E6C"/>
<path fill-rule="evenodd" clip-rule="evenodd" d="M117.712 65.4845L117.308 65.8851C119.429 66.9392 132.64 72.874 139.034 72.874C141.103 72.874 142.469 72.2416 142.469 70.5866C142.448 65.7586 121.322 66.1591 117.712 65.4845Z" fill="#353E6C"/>
<path fill-rule="evenodd" clip-rule="evenodd" d="M132.506 58.6324L131.295 59.3176C134.534 61.5735 140.555 66.3804 145.2 66.3804C146.121 66.3975 147.031 66.1686 147.838 65.7164C152.535 62.9966 142.189 60.8145 139.769 60.2663C137.348 59.7181 134.792 59.17 132.506 58.6324Z" fill="#353E6C"/>
<path fill-rule="evenodd" clip-rule="evenodd" d="M158.577 50.6841C152.007 50.6841 143.7 51.7382 141.755 52.7924C141.631 53.0559 140.824 53.5935 140.72 53.7305L140.182 54.1311C145.884 55.2812 151.67 55.9406 157.48 56.1024C162.425 56.1024 166.584 55.2907 167.04 52.6448C167.236 51.2217 163.367 50.6841 158.577 50.6841Z" fill="#353E6C"/>
<path fill-rule="evenodd" clip-rule="evenodd" d="M170.485 35.5358C165.922 35.5358 155.918 41.4075 151.211 44.0323L150.414 45.8138C153.464 45.8183 156.507 45.5431 159.508 44.9916C163.646 44.1693 172.192 41.8291 172.719 36.7797C172.43 35.9048 171.633 35.5358 170.485 35.5358Z" fill="#353E6C"/>
<path fill-rule="evenodd" clip-rule="evenodd" d="M149.566 24.3511H149.411C145.438 24.7517 147.683 41.0174 148.086 43.463L148.748 42.5143C149.949 40.1108 153.952 24.3511 149.566 24.3511Z" fill="#353E6C"/>
<path fill-rule="evenodd" clip-rule="evenodd" d="M141.155 29.4111C140.877 29.415 140.602 29.4759 140.348 29.5903C137.492 30.9502 138.444 39.8157 138.848 41.8607C139.655 44.5079 139.933 47.293 139.665 50.0515L139.934 50.3256C140.317 48.1224 145.428 29.4111 141.155 29.4111Z" fill="#353E6C"/>
<path fill-rule="evenodd" clip-rule="evenodd" d="M129.909 38.245C129.693 38.2453 129.478 38.27 129.268 38.3188C124.767 39.5416 129.919 52.708 129.919 56.1024L130.054 56.6401C131.182 54.1628 135.009 38.245 129.909 38.245Z" fill="#353E6C"/>
<path fill-rule="evenodd" clip-rule="evenodd" d="M120.391 41.3126C120.096 41.3212 119.805 41.3856 119.532 41.5023C115.539 43.2628 119.398 58.0316 120.329 61.1519H120.463C121.632 58.5903 124.736 41.3126 120.391 41.3126Z" fill="#353E6C"/>
<path fill-rule="evenodd" clip-rule="evenodd" d="M106.931 47.9854C106.563 48.0264 106.209 48.1533 105.897 48.3562C105.585 48.5591 105.323 48.8326 105.131 49.1555C100.848 54.9745 109.683 61.057 110.076 66.0221L110.48 66.6968C111.018 62.6382 111.815 58.0421 110.614 53.9836C110.252 51.9385 108.825 47.9854 106.931 47.9854Z" fill="#353E6C"/>
<path fill-rule="evenodd" clip-rule="evenodd" d="M95.0649 51.7698C94.4028 51.7698 93.72 52.3707 93.0786 53.8782C90.399 60.0029 99.3584 68.0356 101.231 73.064L101.903 72.3893C101.107 68.0356 100.869 63.956 99.7618 59.7393C99.2549 57.7575 97.1961 51.7698 95.0649 51.7698Z" fill="#353E6C"/>
<path fill-rule="evenodd" clip-rule="evenodd" d="M81.512 62.4169C80.9016 62.4169 80.3636 62.849 79.9602 63.9032C78.3669 67.9933 82.35 74.2551 84.7399 76.7113C86.5917 78.8934 90.0472 80.8014 91.3714 83.0363L92.168 82.4881C90.4403 78.535 89.6437 74.0548 87.9263 70.2282C86.9849 68.1409 83.757 62.4169 81.512 62.4169Z" fill="#353E6C"/>
<path fill-rule="evenodd" clip-rule="evenodd" d="M71.1458 74.8454C70.3802 74.8454 69.7181 75.3408 69.2215 76.4899C66.6868 82.4459 78.0567 92.1968 82.6087 93.9573L83.1467 92.9031C82.6915 89.6879 75.3461 74.8454 71.1458 74.8454Z" fill="#353E6C"/>
<path fill-rule="evenodd" clip-rule="evenodd" d="M61.3691 82.4459C60.8526 82.4458 60.3505 82.62 59.9414 82.9413C53.4029 88.1173 73.5459 102.254 74.2081 106.786V105.416C74.8184 101.305 66.8006 82.4459 61.3691 82.4459Z" fill="#353E6C"/>
<path fill-rule="evenodd" clip-rule="evenodd" d="M54.1789 96.5084C53.6867 96.5383 53.2098 96.6941 52.7921 96.9612C52.3745 97.2283 52.0296 97.5982 51.7891 98.0369C48.9751 102.665 56.217 109.886 58.7724 112.468C60.9139 114.524 63.5935 116.284 65.735 118.466L66.1385 117.929C66.6765 114.766 63.8625 110.297 62.7865 107.292C61.9175 105.015 57.7792 96.5084 54.1789 96.5084Z" fill="#353E6C"/>
<path fill-rule="evenodd" clip-rule="evenodd" d="M48.6233 111.119C47.2266 111.119 46.3162 112.352 46.9783 114.872C48.3129 120.754 56.0722 124.591 57.8103 130.052L58.7517 128.829C58.8862 125.276 57.0136 122.673 55.648 119.342C54.7245 116.809 53.3181 114.487 51.5097 112.51C50.7469 111.703 49.72 111.208 48.6233 111.119Z" fill="#353E6C"/>
<path fill-rule="evenodd" clip-rule="evenodd" d="M166.626 39.1515H166.522C164.147 40.4602 161.648 41.5198 159.063 42.314C158.556 42.4405 158.629 43.1468 159.063 43.1468H159.187C161.845 42.3141 164.43 41.2562 166.915 39.9843C167.412 39.7313 167.009 39.1515 166.626 39.1515Z" fill="#F44771"/>
<path fill-rule="evenodd" clip-rule="evenodd" d="M161.039 52.318C157.935 52.8514 154.801 53.1824 151.656 53.309C151.128 53.309 151.128 54.2999 151.656 54.2999C154.759 54.1523 157.956 53.7306 161.039 53.309C161.567 53.309 161.567 52.318 161.039 52.318Z" fill="#F44771"/>
<path fill-rule="evenodd" clip-rule="evenodd" d="M149.194 28.146C149.141 28.143 149.088 28.1513 149.039 28.1702C148.989 28.1892 148.944 28.2184 148.906 28.2561C148.868 28.2937 148.838 28.339 148.818 28.389C148.798 28.439 148.788 28.4926 148.79 28.5466V28.4622C148.67 30.7217 148.76 32.9877 149.059 35.23C149.056 35.2765 149.063 35.3231 149.079 35.3667C149.095 35.4103 149.12 35.45 149.153 35.4829C149.185 35.5159 149.224 35.5414 149.267 35.5578C149.31 35.5741 149.356 35.581 149.401 35.5779C149.529 35.5779 149.651 35.5272 149.742 35.4365C149.833 35.3459 149.886 35.2225 149.889 35.093C149.588 32.9392 149.495 30.7609 149.609 28.5887C149.615 28.5309 149.608 28.4724 149.59 28.4172C149.572 28.3621 149.542 28.3117 149.502 28.2696C149.463 28.2274 149.415 28.1945 149.362 28.1732C149.308 28.1518 149.251 28.1426 149.194 28.146Z" fill="#F44771"/>
<path fill-rule="evenodd" clip-rule="evenodd" d="M140.503 32.4787C140.337 32.4787 140.182 32.5842 140.182 32.8688C139.764 34.9162 139.621 37.0121 139.758 39.0988C139.752 39.1515 139.757 39.205 139.773 39.2555C139.79 39.306 139.816 39.3524 139.852 39.3914C139.887 39.4304 139.93 39.4612 139.978 39.4817C140.027 39.5021 140.078 39.5117 140.131 39.5098C140.243 39.5052 140.352 39.4622 140.438 39.3877C140.524 39.3132 140.583 39.2116 140.606 39.0988C140.609 37.0602 140.751 35.0243 141.031 33.0058C141.025 32.8659 140.968 32.7334 140.87 32.6354C140.772 32.5374 140.64 32.4813 140.503 32.4787Z" fill="#F44771"/>
<path fill-rule="evenodd" clip-rule="evenodd" d="M129.63 40.9542C129.574 40.9467 129.517 40.9515 129.462 40.9682C129.408 40.9848 129.357 41.0129 129.314 41.0507C129.271 41.0885 129.237 41.1352 129.213 41.1876C129.188 41.24 129.175 41.2969 129.174 41.3547C129.33 43.3576 129.174 45.3605 129.174 47.5004C129.221 47.595 129.294 47.6734 129.385 47.7259C129.475 47.7784 129.578 47.8027 129.682 47.7956C129.89 47.7956 130.086 47.7007 130.086 47.5004C130.086 45.3921 130.232 43.3576 130.086 41.3547C130.085 41.2969 130.072 41.24 130.048 41.1876C130.024 41.1352 129.99 41.0885 129.947 41.0507C129.903 41.0129 129.853 40.9848 129.799 40.9682C129.744 40.9515 129.687 40.9467 129.63 40.9542Z" fill="#F44771"/>
<path fill-rule="evenodd" clip-rule="evenodd" d="M137.761 62.0583C137.662 62.0744 137.571 62.1262 137.505 62.2045C137.439 62.2827 137.403 62.3823 137.403 62.4853C137.403 62.5883 137.439 62.6878 137.505 62.7661C137.571 62.8444 137.662 62.8962 137.761 62.9122C139.831 63.6185 142.096 64.0402 144.331 64.7465H144.393C144.724 64.7465 144.921 64.0191 144.393 63.8926C142.324 63.1863 140.058 62.6276 137.824 62.0583H137.761Z" fill="#F44771"/>
<path fill-rule="evenodd" clip-rule="evenodd" d="M129.909 68.9105C129.475 68.9105 129.402 69.6167 129.909 69.7432C132.532 70.043 135.129 70.5434 137.679 71.2401H137.792C138.248 71.2401 138.444 70.5338 137.948 70.4073C135.354 69.7032 132.712 69.2028 130.044 68.9105H129.909Z" fill="#F44771"/>
<path fill-rule="evenodd" clip-rule="evenodd" d="M119.791 76.1314C119.739 76.1314 119.688 76.1418 119.641 76.1619C119.593 76.1821 119.55 76.2116 119.513 76.2488C119.477 76.286 119.448 76.3301 119.428 76.3788C119.408 76.4274 119.398 76.4794 119.398 76.532C119.398 76.5846 119.408 76.6367 119.428 76.6853C119.448 76.7339 119.477 76.7781 119.513 76.8153C119.55 76.8525 119.593 76.882 119.641 76.9021C119.688 76.9222 119.739 76.9326 119.791 76.9326C122.235 77.3509 124.702 77.622 127.178 77.7443C127.55 77.7443 127.571 76.922 127.25 76.922H127.178C124.703 76.7962 122.237 76.5323 119.791 76.1314Z" fill="#F44771"/>
<path fill-rule="evenodd" clip-rule="evenodd" d="M116.956 84.6069C116.885 84.5898 116.811 84.5898 116.739 84.6069C114.566 85.2605 112.384 85.6611 110.201 86.4412C110.106 86.4567 110.02 86.5061 109.958 86.5805C109.896 86.6549 109.862 86.7494 109.862 86.847C109.862 86.9447 109.896 87.0391 109.958 87.1135C110.02 87.1879 110.106 87.2373 110.201 87.2529H110.294C112.466 86.4623 114.784 86.0722 116.967 85.4186C117.494 85.2184 117.349 84.6069 116.956 84.6069Z" fill="#F44771"/>
<path fill-rule="evenodd" clip-rule="evenodd" d="M120.257 45.6346C120.019 45.6346 119.791 45.8454 119.863 46.246C120.167 48.1776 120.212 50.1421 119.998 52.086C120.015 52.1957 120.069 52.2958 120.152 52.3681C120.234 52.4404 120.34 52.4802 120.449 52.4802C120.558 52.4802 120.663 52.4404 120.746 52.3681C120.829 52.2958 120.883 52.1957 120.9 52.086C121.005 50.0442 120.918 47.9969 120.641 45.9719C120.624 45.8796 120.577 45.7958 120.507 45.7345C120.438 45.6731 120.349 45.6378 120.257 45.6346Z" fill="#F44771"/>
<path fill-rule="evenodd" clip-rule="evenodd" d="M106.517 53.214C106.448 53.2133 106.379 53.2291 106.316 53.26C106.253 53.2909 106.198 53.3361 106.155 53.3921C106.112 53.4482 106.082 53.5136 106.068 53.5832C106.053 53.6529 106.055 53.7249 106.073 53.7938C107.015 55.4635 107.875 57.1804 108.649 58.9381C108.656 59.0024 108.687 59.0616 108.735 59.1043C108.782 59.1471 108.844 59.1705 108.907 59.17C109.176 59.17 109.518 58.8222 109.331 58.5376C108.656 56.7545 107.84 55.0305 106.89 53.3827C106.842 53.3308 106.784 53.2892 106.72 53.2602C106.656 53.2313 106.587 53.2155 106.517 53.214Z" fill="#F44771"/>
<path fill-rule="evenodd" clip-rule="evenodd" d="M95.6338 57.0091C95.3234 57.0091 95.0027 57.3042 95.2924 57.5994C96.4131 59.6179 97.4015 61.7097 98.2512 63.8612C98.2867 63.9174 98.3358 63.9635 98.3938 63.9949C98.4517 64.0262 98.5167 64.0419 98.5823 64.0403C98.903 64.0403 99.2444 63.7452 99.0582 63.45C98.1359 61.2864 97.0998 59.175 95.9545 57.125C95.9126 57.0831 95.8621 57.0509 95.8067 57.0309C95.7513 57.0109 95.6923 57.0034 95.6338 57.0091Z" fill="#F44771"/>
<path fill-rule="evenodd" clip-rule="evenodd" d="M72.3975 82.0769C72.3194 82.0764 72.2428 82.0996 72.1777 82.1436C72.1125 82.1876 72.0617 82.2503 72.0318 82.3239C72.0018 82.3974 71.994 82.4783 72.0094 82.5564C72.0248 82.6345 72.0627 82.7061 72.1182 82.7622C73.7766 84.6603 75.5788 86.4227 77.5083 88.033C77.5426 88.0712 77.5841 88.1021 77.6303 88.1238C77.6764 88.1456 77.7264 88.1577 77.7773 88.1595C77.8646 88.1489 77.9473 88.1132 78.0156 88.0567C78.084 88.0002 78.1352 87.9251 78.1633 87.8402C78.1915 87.7552 78.1954 87.6639 78.1747 87.5767C78.154 87.4896 78.1094 87.4102 78.0462 87.3478C76.1195 85.7879 74.3171 84.0748 72.6562 82.2245C72.6286 82.1799 72.5904 82.1431 72.5453 82.1173C72.5001 82.0915 72.4493 82.0776 72.3975 82.0769Z" fill="#F44771"/>
<path fill-rule="evenodd" clip-rule="evenodd" d="M83.0535 68.0039C82.9726 68.0083 82.894 68.0329 82.8246 68.0754C82.7551 68.1179 82.6969 68.1772 82.6551 68.2479C82.6133 68.3185 82.5891 68.3986 82.5846 68.481C82.5801 68.5634 82.5954 68.6457 82.6293 68.7207C83.8294 71.198 85.433 73.5277 86.7676 75.868C86.8167 75.9431 86.8827 76.0052 86.9601 76.0492C87.0374 76.0931 87.1239 76.1178 87.2124 76.121C87.2893 76.1235 87.3654 76.1042 87.432 76.0651C87.4987 76.026 87.5534 75.9688 87.5899 75.8998C87.6265 75.8308 87.6434 75.7529 87.6389 75.6746C87.6343 75.5964 87.6085 75.521 87.5642 75.4569C86.2296 73.1166 84.4605 70.7869 83.2914 68.1725C83.2772 68.1206 83.2456 68.0754 83.2022 68.0446C83.1588 68.0138 83.1062 67.9994 83.0535 68.0039Z" fill="#F44771"/>
<path fill-rule="evenodd" clip-rule="evenodd" d="M101.738 100.651C101.633 100.668 101.537 100.722 101.468 100.804C101.399 100.886 101.361 100.991 101.361 101.099C101.361 101.208 101.399 101.312 101.468 101.394C101.537 101.477 101.633 101.531 101.738 101.547C105.095 101.621 108.444 101.92 111.763 102.443H111.877C112.342 102.443 112.528 101.674 112.032 101.537C108.631 100.949 105.187 100.653 101.738 100.651Z" fill="#F44771"/>
<path fill-rule="evenodd" clip-rule="evenodd" d="M103.486 118.161C100.786 118.162 98.0991 118.56 95.5097 119.342C95.0131 119.595 95.0855 120.311 95.5097 120.311H95.6235C98.1892 119.441 100.875 118.996 103.579 118.994C104.252 118.994 104.935 118.994 105.648 119.078C105.746 119.062 105.834 119.012 105.898 118.935C105.962 118.859 105.997 118.762 105.997 118.662C105.997 118.561 105.962 118.464 105.898 118.388C105.834 118.312 105.746 118.261 105.648 118.245C104.904 118.182 104.19 118.161 103.486 118.161Z" fill="#F44771"/>
<path fill-rule="evenodd" clip-rule="evenodd" d="M94.5993 134.395C90.7269 134.48 86.8742 134.982 83.1053 135.892C82.6087 136.018 82.8052 136.725 83.2604 136.725H83.3535C87.0408 135.868 90.7991 135.367 94.5786 135.228C95.0027 135.07 95.0027 134.395 94.5993 134.395Z" fill="#F44771"/>
<path fill-rule="evenodd" clip-rule="evenodd" d="M62.0932 88.3913C62.0172 88.3965 61.9438 88.4215 61.8801 88.4639C61.8163 88.5063 61.7642 88.5647 61.7289 88.6334C61.6936 88.7022 61.6762 88.7791 61.6784 88.8566C61.6806 88.9342 61.7023 89.0099 61.7415 89.0765C63.9536 91.5804 66.3355 93.9229 68.8697 96.0868C68.9278 96.1268 68.9961 96.1488 69.0662 96.15C69.4077 96.15 69.7077 95.6335 69.2628 95.4121C66.8179 93.2951 64.5256 91.0016 62.4036 88.5494C62.3653 88.5027 62.318 88.4646 62.2646 88.4374C62.2112 88.4102 62.1529 88.3945 62.0932 88.3913Z" fill="#F44771"/>
<path fill-rule="evenodd" clip-rule="evenodd" d="M55.2961 102.823C54.9857 102.823 54.6443 103.107 54.8305 103.392C56.8169 106.08 59.0619 108.663 60.9138 111.309C60.9642 111.363 61.0252 111.406 61.0929 111.435C61.1606 111.464 61.2335 111.479 61.3069 111.477C61.6173 111.477 61.8966 111.193 61.7104 110.908C59.724 108.094 57.479 105.637 55.6272 102.991C55.5892 102.938 55.5393 102.895 55.4817 102.866C55.4241 102.837 55.3605 102.822 55.2961 102.823Z" fill="#F44771"/>
<path fill-rule="evenodd" clip-rule="evenodd" d="M49.9475 114.903C49.6475 114.903 49.3371 115.188 49.6164 115.483C51.2772 118.028 52.7869 120.672 54.1375 123.4C54.1714 123.451 54.2178 123.493 54.2722 123.521C54.3266 123.549 54.3871 123.561 54.4478 123.558C54.5153 123.566 54.5837 123.555 54.6451 123.525C54.7066 123.496 54.7587 123.449 54.7953 123.391C54.832 123.333 54.8519 123.265 54.8526 123.196C54.8534 123.127 54.835 123.059 54.7996 122.999C53.4943 120.236 51.9719 117.585 50.2475 115.072C50.2144 115.022 50.1699 114.98 50.1177 114.951C50.0655 114.921 50.0071 114.905 49.9475 114.903Z" fill="#F44771"/>
<path fill-rule="evenodd" clip-rule="evenodd" d="M162.125 88.5494C162.083 88.5507 162.041 88.5617 162.004 88.5818C161.966 88.6019 161.933 88.6305 161.908 88.6654C158.691 90.6999 156.011 93.2826 152.938 95.4542C149.631 97.6002 146.062 99.2977 142.324 100.504C133.773 103.074 125.044 104.98 116.211 106.207C108.721 107.429 100.693 107.841 93.5853 110.824C89.4471 112.732 83.819 115.167 82.4741 119.932C82.4603 119.999 82.4614 120.069 82.4773 120.136C82.4932 120.203 82.5236 120.265 82.5662 120.319C82.6088 120.372 82.6626 120.416 82.7236 120.445C82.7846 120.475 82.8513 120.49 82.919 120.491C82.9682 120.503 83.0195 120.504 83.0693 120.495C83.1191 120.485 83.1663 120.464 83.2076 120.434C83.2488 120.404 83.2833 120.365 83.3084 120.321C83.3336 120.276 83.349 120.226 83.3535 120.174C84.9571 114.334 93.9267 111.214 99.1513 109.854C106.776 107.82 115.084 107.408 122.946 105.911C130.662 104.817 138.245 102.906 145.572 100.208C152.131 97.7628 156.684 93.1456 162.312 89.3401C162.375 89.286 162.423 89.2147 162.449 89.1344C162.475 89.0541 162.479 88.968 162.46 88.8857C162.44 88.8035 162.399 88.7284 162.34 88.669C162.281 88.6095 162.206 88.5681 162.125 88.5494Z" fill="#353E6C"/>
<path fill-rule="evenodd" clip-rule="evenodd" d="M146.597 99.0911C146.511 99.0896 146.427 99.1185 146.359 99.173C146.292 99.2275 146.245 99.3041 146.226 99.3899C146.208 99.4757 146.219 99.5652 146.259 99.6434C146.298 99.7215 146.363 99.7834 146.442 99.8185C150.3 102.106 154.428 104.267 158.556 106.28H158.691C159.167 106.28 159.446 105.701 158.96 105.458C154.822 103.434 150.828 101.421 146.835 99.1332C146.761 99.0965 146.678 99.082 146.597 99.0911Z" fill="#353E6C"/>
<path fill-rule="evenodd" clip-rule="evenodd" d="M154.252 101.558C153.384 101.56 152.517 101.62 151.656 101.737C151.128 101.737 151.128 102.675 151.656 102.675C152.204 104.647 153.166 106.475 154.475 108.031C155.785 109.587 157.41 110.835 159.239 111.688C160.578 112.279 162.005 112.636 163.46 112.742C163.989 112.774 164.517 112.67 164.996 112.44C165.475 112.209 165.889 111.86 166.202 111.425C168.074 108.726 164.857 105.1 162.86 103.761C160.211 102.32 157.255 101.564 154.252 101.558ZM154.108 102.528C159.115 102.528 165.726 104.341 165.85 109.907C165.85 111.372 164.815 111.846 163.615 111.846C162.073 111.73 160.561 111.345 159.146 110.708C157.56 109.878 156.157 108.726 155.023 107.322C153.89 105.919 153.05 104.295 152.556 102.549C153.045 102.535 153.563 102.528 154.108 102.528Z" fill="#353E6C"/>
<path fill-rule="evenodd" clip-rule="evenodd" d="M163.501 83.7003C162.198 83.7348 160.915 84.0321 159.725 84.5753C157.576 85.4033 155.67 86.7789 154.19 88.5706C152.628 90.6789 152.835 93.599 151.625 96.0236C151.57 96.0462 151.52 96.0802 151.479 96.1235C151.438 96.1668 151.406 96.2184 151.385 96.275C151.365 96.3316 151.356 96.3919 151.36 96.452C151.364 96.5122 151.38 96.571 151.407 96.6244C151.452 96.6985 151.514 96.7597 151.588 96.8022C151.663 96.8447 151.746 96.867 151.831 96.8669C151.886 96.878 151.942 96.878 151.997 96.8669H152.111C157.542 96.8669 169.005 93.8098 167.277 86.5361C166.822 84.3856 165.229 83.7003 163.501 83.7003ZM163.501 84.5647C165.229 84.5647 166.605 85.4713 166.605 88.1489C166.605 93.736 157.118 95.8971 152.525 96.0025C154.139 92.7346 153.89 89.1082 157.294 86.9156C159.141 85.5925 161.295 84.7822 163.543 84.5647H163.501Z" fill="#353E6C"/>
<path fill-rule="evenodd" clip-rule="evenodd" d="M140.772 99.0911C140.713 99.0887 140.654 99.1006 140.601 99.1259C140.547 99.1512 140.5 99.189 140.464 99.2364C140.428 99.2837 140.403 99.3393 140.392 99.3983C140.38 99.4574 140.383 99.5183 140.4 99.576L141.579 104.921C141.594 105.004 141.637 105.08 141.702 105.134C141.766 105.188 141.847 105.217 141.931 105.216C141.999 105.216 142.067 105.201 142.129 105.171C142.19 105.14 142.244 105.096 142.286 105.041C142.328 104.986 142.357 104.921 142.371 104.853C142.385 104.785 142.383 104.714 142.365 104.646L141.186 99.439C141.169 99.3404 141.118 99.2512 141.042 99.1875C140.966 99.1237 140.87 99.0895 140.772 99.0911Z" fill="#353E6C"/>
<path fill-rule="evenodd" clip-rule="evenodd" d="M136.768 101.02C136.701 101.018 136.635 101.032 136.574 101.061C136.513 101.089 136.46 101.132 136.418 101.185C136.375 101.238 136.346 101.3 136.331 101.366C136.317 101.433 136.318 101.502 136.334 101.568L137.513 105.954C137.525 106.037 137.567 106.112 137.63 106.166C137.692 106.22 137.772 106.25 137.854 106.249C137.923 106.251 137.99 106.237 138.052 106.208C138.114 106.178 138.169 106.135 138.212 106.081C138.255 106.027 138.285 105.964 138.3 105.896C138.316 105.828 138.315 105.758 138.299 105.69L137.151 101.305C137.133 101.217 137.084 101.14 137.014 101.087C136.943 101.034 136.855 101.011 136.768 101.02Z" fill="#353E6C"/>
<path fill-rule="evenodd" clip-rule="evenodd" d="M132.878 101.02C132.811 101.018 132.745 101.032 132.684 101.061C132.623 101.089 132.57 101.131 132.528 101.185C132.486 101.238 132.456 101.3 132.442 101.366C132.427 101.433 132.428 101.502 132.444 101.568C132.837 103.171 133.096 104.731 133.623 106.375C133.65 106.449 133.7 106.512 133.766 106.554C133.831 106.596 133.908 106.614 133.985 106.607C134.048 106.612 134.11 106.602 134.168 106.577C134.226 106.553 134.278 106.516 134.319 106.467C134.36 106.419 134.39 106.362 134.405 106.301C134.421 106.239 134.422 106.174 134.409 106.112L133.23 101.305C133.213 101.223 133.169 101.15 133.105 101.098C133.04 101.046 132.96 101.018 132.878 101.02Z" fill="#353E6C"/>
<path fill-rule="evenodd" clip-rule="evenodd" d="M184.462 68.1937C184.266 68.1766 184.069 68.2011 183.883 68.2657C183.698 68.3302 183.527 68.4334 183.382 68.5687C183.238 68.704 183.122 68.8684 183.043 69.0515C182.964 69.2346 182.923 69.4325 182.923 69.6326C182.923 69.8326 182.964 70.0305 183.043 70.2136C183.122 70.3967 183.238 70.5611 183.382 70.6964C183.527 70.8317 183.698 70.9349 183.883 70.9994C184.069 71.064 184.266 71.0885 184.462 71.0714C184.657 71.0885 184.854 71.064 185.04 70.9994C185.226 70.9349 185.397 70.8317 185.541 70.6964C185.686 70.5611 185.801 70.3967 185.88 70.2136C185.959 70.0305 186 69.8326 186 69.6326C186 69.4325 185.959 69.2346 185.88 69.0515C185.801 68.8684 185.686 68.704 185.541 68.5687C185.397 68.4334 185.226 68.3302 185.04 68.2657C184.854 68.2011 184.657 68.1766 184.462 68.1937Z" fill="#F44771"/>
<path fill-rule="evenodd" clip-rule="evenodd" d="M175.285 71.2507C174.909 71.2507 174.549 71.4029 174.283 71.6737C174.017 71.9446 173.868 72.3119 173.868 72.695C173.868 73.078 174.017 73.4453 174.283 73.7161C174.549 73.987 174.909 74.1392 175.285 74.1392C175.661 74.1392 176.022 73.987 176.287 73.7161C176.553 73.4453 176.703 73.078 176.703 72.695C176.703 72.3119 176.553 71.9446 176.287 71.6737C176.022 71.4029 175.661 71.2507 175.285 71.2507Z" fill="#F44771"/>
<path fill-rule="evenodd" clip-rule="evenodd" d="M177.592 64.2195C177.194 64.2195 176.813 64.3805 176.531 64.6672C176.25 64.9538 176.092 65.3426 176.092 65.748C176.092 66.1533 176.25 66.5421 176.531 66.8288C176.813 67.1154 177.194 67.2764 177.592 67.2764C177.99 67.2764 178.372 67.1154 178.653 66.8288C178.934 66.5421 179.092 66.1533 179.092 65.748C179.092 65.3426 178.934 64.9538 178.653 64.6672C178.372 64.3805 177.99 64.2195 177.592 64.2195Z" fill="#F44771"/>
<path fill-rule="evenodd" clip-rule="evenodd" d="M70.2871 8.65472C69.9112 8.65472 69.5507 8.80686 69.2849 9.0777C69.0191 9.34854 68.8698 9.71589 68.8698 10.0989C68.8698 10.4819 69.0191 10.8492 69.2849 11.1201C69.5507 11.3909 69.9112 11.5431 70.2871 11.5431C70.663 11.5431 71.0235 11.3909 71.2893 11.1201C71.5551 10.8492 71.7044 10.4819 71.7044 10.0989C71.7044 9.71589 71.5551 9.34854 71.2893 9.0777C71.0235 8.80686 70.663 8.65472 70.2871 8.65472Z" fill="#F44771"/>
<path fill-rule="evenodd" clip-rule="evenodd" d="M61.007 7.03117C60.6311 7.03117 60.2706 7.18337 60.0048 7.45421C59.739 7.72504 59.5897 8.09232 59.5897 8.47534C59.5897 8.85835 59.739 9.2257 60.0048 9.49653C60.2706 9.76737 60.6311 9.9195 61.007 9.9195C61.3829 9.9195 61.7434 9.76737 62.0092 9.49653C62.275 9.2257 62.4244 8.85835 62.4244 8.47534C62.4244 8.09232 62.275 7.72504 62.0092 7.45421C61.7434 7.18337 61.3829 7.03117 61.007 7.03117Z" fill="#F44771"/>
<path fill-rule="evenodd" clip-rule="evenodd" d="M64.9694 0C64.5935 0 64.233 0.15214 63.9672 0.422986C63.7014 0.693832 63.5521 1.06119 63.5521 1.44423C63.5521 1.82726 63.7014 2.19462 63.9672 2.46547C64.233 2.73631 64.5935 2.88845 64.9694 2.88845C65.3454 2.88845 65.7059 2.73631 65.9717 2.46547C66.2375 2.19462 66.3868 1.82726 66.3868 1.44423C66.3868 1.06119 66.2375 0.693832 65.9717 0.422986C65.7059 0.15214 65.3454 0 64.9694 0Z" fill="#F44771"/>
<path fill-rule="evenodd" clip-rule="evenodd" d="M127.116 17.6783C126.635 17.7289 126.189 17.9596 125.865 18.3256C125.541 18.6917 125.361 19.1671 125.361 19.6601C125.361 20.1531 125.541 20.6286 125.865 20.9946C126.189 21.3607 126.635 21.5913 127.116 21.6419C127.597 21.5913 128.043 21.3607 128.367 20.9946C128.691 20.6286 128.87 20.1531 128.87 19.6601C128.87 19.1671 128.691 18.6917 128.367 18.3256C128.043 17.9596 127.597 17.7289 127.116 17.6783Z" fill="#F44771"/>
<path fill-rule="evenodd" clip-rule="evenodd" d="M177.499 121.408C175.027 121.408 175.027 125.371 177.499 125.371C179.972 125.371 179.982 121.408 177.499 121.408Z" fill="#F44771"/>
<path fill-rule="evenodd" clip-rule="evenodd" d="M10.3132 3.0675C9.84613 3.13711 9.41924 3.37566 9.11055 3.73955C8.80186 4.10344 8.63199 4.56836 8.63199 5.04934C8.63199 5.53033 8.80186 5.99525 9.11055 6.35914C9.41924 6.72303 9.84613 6.96158 10.3132 7.03118C10.7944 6.98054 11.2402 6.7499 11.5642 6.38385C11.8883 6.01779 12.0677 5.54232 12.0677 5.04934C12.0677 4.55637 11.8883 4.0809 11.5642 3.71484C11.2402 3.34879 10.7944 3.11815 10.3132 3.0675Z" fill="#F44771"/>
<path fill-rule="evenodd" clip-rule="evenodd" d="M152.721 7.04182C151.948 7.04182 151.206 7.35505 150.658 7.91255C150.111 8.47004 149.804 9.22614 149.804 10.0146C149.804 10.803 150.111 11.5591 150.658 12.1166C151.206 12.6741 151.948 12.9873 152.721 12.9873C156.611 12.9873 156.611 7.04182 152.721 7.04182Z" fill="#F44771"/>
<path fill-rule="evenodd" clip-rule="evenodd" d="M35.898 2.16094C32.1529 2.16094 32.1529 7.92731 35.898 7.92731C36.284 7.9511 36.6707 7.89415 37.0342 7.76002C37.3978 7.62588 37.7306 7.41735 38.0122 7.14729C38.2937 6.87723 38.5181 6.55132 38.6714 6.18963C38.8248 5.82794 38.9039 5.4381 38.9039 5.04409C38.9039 4.65009 38.8248 4.26025 38.6714 3.89855C38.5181 3.53686 38.2937 3.21102 38.0122 2.94095C37.7306 2.67089 37.3978 2.46236 37.0342 2.32823C36.6707 2.19409 36.284 2.13715 35.898 2.16094Z" fill="#F44771"/>
<path fill-rule="evenodd" clip-rule="evenodd" d="M96.0166 36.0732H95.9131V36.2103C91.1024 37.2645 87.4918 41.2492 83.8811 44.2535C78.7611 48.3069 73.9694 52.7734 69.5524 57.6098C60.8643 67.147 53.483 77.8383 47.6093 89.3928C41.3295 101.663 34.7289 113.523 25.8006 124.022C21.1244 129.472 16.1688 134.564 11.2236 139.56C6.27837 144.557 0.650337 148.015 -4.43973 152.642C-4.7501 152.864 -4.43973 153.317 -4.05694 153.317C-4.00251 153.319 -3.94837 153.309 -3.89832 153.287C-3.84827 153.265 -3.80353 153.232 -3.76726 153.191C0.919324 148.826 6.40252 145.696 10.8201 141.057C15.2377 136.419 20.3174 131.38 24.735 126.478C33.2813 116.673 40.5234 105.763 46.2747 94.0311C51.8699 82.4077 58.8847 71.5516 67.1522 61.721C71.099 56.9426 75.4392 52.5166 80.1257 48.4913C82.4017 46.4462 84.8122 44.6752 87.2228 42.7672C90.0265 40.4481 92.3956 37.8548 96.1821 37.0326C96.6787 36.8955 96.4821 36.0732 96.0166 36.0732Z" fill="#353E6C"/>
</svg>
