<svg width="579" height="194" viewBox="0 0 579 194" fill="none" xmlns="http://www.w3.org/2000/svg">
<path fill-rule="evenodd" clip-rule="evenodd" d="M31.1897 170.707C30.725 170.741 30.2905 170.951 29.9734 171.292C29.6564 171.634 29.4802 172.082 29.4802 172.548C29.4802 173.014 29.6564 173.463 29.9734 173.805C30.2905 174.146 30.725 174.355 31.1897 174.39C31.4431 174.409 31.6976 174.375 31.9374 174.291C32.1772 174.207 32.3971 174.075 32.5833 173.902C32.7695 173.729 32.918 173.52 33.0196 173.287C33.1212 173.054 33.1736 172.802 33.1736 172.548C33.1736 172.294 33.1212 172.043 33.0196 171.81C32.918 171.577 32.7695 171.368 32.5833 171.195C32.3971 171.022 32.1772 170.89 31.9374 170.806C31.6976 170.722 31.4431 170.688 31.1897 170.707Z" fill="#F44771"/>
<path fill-rule="evenodd" clip-rule="evenodd" d="M0.652618 161.137C0.652618 161.137 76.1536 138.957 120.597 135.774C165.041 132.591 203.016 150.465 239.909 149.669C276.802 148.874 315.236 147.925 341.937 130.917C368.638 113.91 376.984 65.071 400.287 47.6453C423.591 30.2196 451.148 34.9025 481.91 26.4141C512.671 17.9256 579 0 579 0H0.652618V161.137Z" fill="#F2F3CB"/>
<path fill-rule="evenodd" clip-rule="evenodd" d="M0.234283 0V123.704C1.33121 124.225 2.52976 124.497 3.74406 124.5C4.89221 124.504 6.02875 124.27 7.08225 123.814C8.13575 123.357 9.08344 122.688 9.86576 121.847C18.5382 112.104 17.6097 97.0862 24.7313 86.7104C27.7921 82.0785 32.6283 76.967 38.3521 76.3345C38.6377 76.3345 38.9336 76.3345 39.2091 76.3345C43.2902 76.3345 46.5756 79.3952 49.0344 82.4559C51.8198 86.1696 54.4521 90.6179 58.6353 92.9746C60.2905 93.9687 62.1834 94.4974 64.1142 94.505C65.7454 94.5169 67.3548 94.1299 68.8023 93.3777C70.2498 92.6256 71.4915 91.531 72.4193 90.1894C79.5613 79.3544 77.5208 63.7141 77.5208 51.3386C77.5167 50.8297 77.6139 50.325 77.8068 49.854C77.9997 49.3831 78.2844 48.9552 78.6442 48.5953C79.0041 48.2354 79.432 47.9508 79.903 47.7579C80.374 47.565 80.8787 47.4678 81.3876 47.4719C82.3263 47.4106 83.2548 47.3902 84.1934 47.3902C91.8966 47.3902 99.5895 49.0634 107.221 49.0634C109.094 49.0699 110.965 48.954 112.823 48.7165C123.199 47.3188 130.167 37.096 130.627 27.0466C131.086 16.9972 125.668 7.66202 118.383 0.102024L0.234283 0Z" fill="#AFB252"/>
<path fill-rule="evenodd" clip-rule="evenodd" d="M106.385 76.0688C106.316 76.0707 106.248 76.0894 106.188 76.1231C106.127 76.1569 106.076 76.2048 106.038 76.2627C90.6216 102.177 65.7369 117.98 42.3826 135.916C31.9709 143.667 22.4391 152.535 13.9575 162.361C6.64205 171.247 0.438722 181.919 0 193.692C0.0334736 193.788 0.0976629 193.87 0.182559 193.925C0.267455 193.981 0.368286 194.006 0.46933 193.999C0.569013 194.006 0.668306 193.98 0.751474 193.924C0.834641 193.869 0.896926 193.787 0.928458 193.692H0.795821C1.32637 180.429 9.17235 168.727 17.8039 159.157C26.6428 149.681 36.3888 141.094 46.9024 133.519C69.2262 116.919 92.2642 101.106 106.701 76.6708C106.743 76.6137 106.769 76.5459 106.774 76.4751C106.78 76.4043 106.765 76.3334 106.732 76.2705C106.699 76.2077 106.649 76.1554 106.588 76.1197C106.526 76.084 106.456 76.0664 106.385 76.0688Z" fill="#3A3B44"/>
<path fill-rule="evenodd" clip-rule="evenodd" d="M36.4136 119.776C27.4963 119.776 32.2815 137.927 34.6383 142.222C34.6752 142.274 34.7241 142.317 34.7808 142.348C34.8375 142.378 34.9006 142.394 34.9648 142.395C35.0779 142.393 35.1878 142.357 35.2811 142.293C35.3659 142.359 35.4698 142.394 35.577 142.395C35.7239 142.39 35.8632 142.328 35.9647 142.222C38.495 138.375 46.0757 120.582 36.9033 119.776H36.4136ZM36.5564 120.725C44.7187 120.725 37.7094 137.692 35.3117 141.599C33.0161 137.243 28.6595 120.848 36.332 120.725H36.5564Z" fill="#3A3B44"/>
<path fill-rule="evenodd" clip-rule="evenodd" d="M58.7271 131.499C55.6912 131.488 52.6688 131.903 49.7486 132.734C49.2895 132.958 49.4221 133.57 49.8098 133.57C49.8767 133.588 49.947 133.588 50.0139 133.57C52.7188 132.668 55.5493 132.2 58.4006 132.183C61.3186 132.183 64.1448 132.754 65.8997 134.366C70.0318 138.171 62.1654 139.62 59.8902 139.62C55.7478 139.62 51.3504 136.325 49.218 133.05C49.1906 132.981 49.1425 132.922 49.0803 132.882C49.0182 132.842 48.9451 132.822 48.8711 132.825C48.5753 132.825 48.2692 133.162 48.5446 133.437C49.8154 135.355 51.4886 136.972 53.4479 138.178C55.4073 139.383 57.6057 140.147 59.8902 140.416H60.5432C62.8898 140.416 67.0118 139.753 67.5015 137.355C68.5116 132.774 63.6959 131.499 58.7271 131.499Z" fill="#3A3B44"/>
<path fill-rule="evenodd" clip-rule="evenodd" d="M65.308 101.351H65.206C62.6961 101.494 60.7167 104.279 59.7883 106.544C57.8191 111.472 59.0026 117.869 60.8085 122.654C60.8434 122.741 60.904 122.816 60.9822 122.869C61.0605 122.922 61.1529 122.95 61.2473 122.949H61.3697C61.3484 123.01 61.3419 123.074 61.3508 123.137C61.3597 123.201 61.3836 123.261 61.4206 123.313C61.4577 123.365 61.5067 123.407 61.5635 123.436C61.6203 123.465 61.6833 123.48 61.7472 123.48C61.7959 123.481 61.844 123.469 61.8869 123.445C61.9298 123.422 61.966 123.388 61.9921 123.347C65.3791 119.244 67.5053 114.248 68.1138 108.962C68.226 107.227 68.3586 101.351 65.308 101.351ZM65.1141 102.116C67.6852 102.116 67.2669 109.258 67.0527 110.798C66.2521 115.09 64.4209 119.124 61.7166 122.551C61.73 122.498 61.73 122.442 61.7166 122.388C59.4822 116.665 57.9007 107.34 63.5633 102.82C63.9956 102.431 64.5371 102.186 65.1141 102.116Z" fill="#3A3B44"/>
<path fill-rule="evenodd" clip-rule="evenodd" d="M86.0911 108.217C85.683 108.217 85.2953 108.217 84.9382 108.278C81.2142 108.809 77.7962 110.9 74.4395 112.492C74.3678 112.515 74.3063 112.562 74.2654 112.625C74.2245 112.688 74.2067 112.764 74.215 112.839H74.1334C73.8069 112.839 73.562 113.451 73.8987 113.675C76.8371 115.797 80.4489 118.113 84.2444 118.113C84.9316 118.118 85.6167 118.039 86.285 117.879C89.0805 117.236 92.0088 114.736 91.7435 111.829C91.4782 108.921 88.55 108.217 86.0911 108.217ZM86.4278 108.982C87.0899 108.983 87.7501 109.055 88.397 109.196C91.4578 109.992 91.315 113.145 89.5907 114.991C88.3113 116.3 86.6228 117.132 84.8056 117.348C84.5609 117.363 84.3156 117.363 84.071 117.348C80.755 117.348 77.2963 115.063 74.715 113.145C74.7553 113.154 74.7971 113.154 74.8374 113.145C78.388 111.553 82.3365 108.982 86.4278 108.982Z" fill="#3A3B44"/>
<path d="M85.3667 82.0886H85.8462C88.6316 82.0886 90.4171 85.3125 90.4069 87.8223C90.3127 91.535 89.4548 95.1886 87.8868 98.5553C87.8655 98.6524 87.8111 98.7391 87.7329 98.8005C87.6548 98.8619 87.5577 98.8942 87.4583 98.8919L87.7542 99.2286H87.897C87.937 99.3049 87.9582 99.3897 87.9588 99.4759C87.9593 99.562 87.9393 99.6471 87.9004 99.7239C87.8615 99.8008 87.8048 99.8672 87.7349 99.9177C87.6651 99.9682 87.5843 100.001 87.4991 100.014C87.4466 100.012 87.3951 99.999 87.3477 99.9762C87.3004 99.9534 87.2581 99.9212 87.2236 99.8816C84.428 96.4332 82.4385 92.8623 82.5711 88.21C82.7038 86.4756 82.969 82.3538 85.3667 82.0886Z" fill="#3A3B44"/>
<path fill-rule="evenodd" clip-rule="evenodd" d="M105.752 69.6927C102.885 69.6927 100.487 72.9677 99.0385 75.1102C96.9266 78.7117 95.3451 84.1802 97.1918 88.1693C97.2226 88.2207 97.2659 88.2636 97.3176 88.2939C97.3693 88.3242 97.4278 88.341 97.4877 88.3428C97.5598 88.3435 97.6313 88.3286 97.6971 88.2992C97.7629 88.2697 97.8216 88.2264 97.8691 88.1721C97.9166 88.1178 97.9518 88.0539 97.9722 87.9847C97.9927 87.9156 97.998 87.8428 97.9877 87.7714C95.6002 82.6702 99.5691 71.1109 105.783 70.5804H105.946C107.986 70.5804 109.496 72.8861 110.272 74.4471C111.068 76.8548 110.139 79.3748 108.945 81.3745C106.905 84.976 102.538 88.3122 98.3243 88.3122H97.8448C97.7393 88.3122 97.6381 88.3541 97.5635 88.4287C97.4888 88.5033 97.4469 88.6045 97.4469 88.7101C97.4469 88.8156 97.4888 88.9168 97.5635 88.9914C97.6381 89.066 97.7393 89.1079 97.8448 89.1079H98.3243C103.171 89.1079 107.701 85.231 110.007 81.0991C112.251 77.3752 111.721 72.0393 107.364 70.0396C106.857 69.8118 106.308 69.6936 105.752 69.6927Z" fill="#3A3B44"/>
<path fill-rule="evenodd" clip-rule="evenodd" d="M42.7495 31.9949C42.9434 31.7602 42.9026 31.2909 42.5659 31.2399C36.6992 29.9646 31.0775 29.1994 25.568 32.0357C21.9255 33.9232 18.9565 37.4124 15.8651 39.8406C12.2345 42.9917 7.82181 45.1063 3.09112 45.962C2.96985 45.9702 2.85647 46.025 2.77483 46.1151C2.56057 46.3701 2.6524 46.8394 3.07072 46.7986C10.7024 45.3703 16.1507 40.9424 21.7521 35.9636C27.8738 30.3421 34.6791 30.5155 42.3618 32.1173C42.4313 32.1374 42.5052 32.1364 42.5742 32.1146C42.6431 32.0929 42.7041 32.0512 42.7495 31.9949Z" fill="#3A3B44"/>
<path fill-rule="evenodd" clip-rule="evenodd" d="M33.1487 44.1256C33.1765 44.1026 33.1989 44.0737 33.2143 44.0411C33.2296 44.0085 33.2376 43.9729 33.2376 43.9368C33.2376 43.9007 33.2296 43.8651 33.2143 43.8325C33.1989 43.7999 33.1765 43.771 33.1487 43.7481C29.8022 39.8814 27.1188 36.0554 28.0473 30.8012C28.7487 27.7981 30.1467 25.0022 32.1284 22.6393C33.3186 21.2411 34.6913 20.0092 36.2096 18.9766L36.281 18.9052C36.4952 18.6501 36.0973 18.0482 35.6892 18.344C34.1036 19.4475 32.6698 20.7544 31.4244 22.2312C29.3747 24.6543 27.9024 27.5115 27.1188 30.5869C25.6904 35.9738 29.088 40.4017 32.3325 44.1868C32.3897 44.2373 32.4564 44.2758 32.5287 44.3001C32.601 44.3245 32.6774 44.334 32.7535 44.3283C32.8296 44.3226 32.9038 44.3017 32.9716 44.2669C33.0395 44.2321 33.0997 44.184 33.1487 44.1256Z" fill="#3A3B44"/>
<path fill-rule="evenodd" clip-rule="evenodd" d="M38.4031 39.9018C38.4411 39.8656 38.4713 39.822 38.4919 39.7738C38.5126 39.7256 38.5232 39.6737 38.5232 39.6212C38.5232 39.5687 38.5126 39.5168 38.4919 39.4686C38.4713 39.4204 38.4411 39.3768 38.4031 39.3406C35.1382 36.4125 31.6182 33.7803 28.2003 31.0665C28.1676 31.0391 28.1295 31.0188 28.0885 31.0069C28.0475 30.9951 28.0045 30.992 27.9623 30.9977C27.92 31.0035 27.8794 31.018 27.8431 31.0404C27.8068 31.0628 27.7755 31.0925 27.7513 31.1277C27.6854 31.2019 27.644 31.2947 27.6331 31.3934C27.6221 31.4921 27.642 31.5917 27.6901 31.6786C31.0367 34.4945 34.6485 37.0247 37.893 39.9426C37.9676 40.0011 38.0615 40.0294 38.156 40.0218C38.2505 40.0142 38.3387 39.9714 38.4031 39.9018Z" fill="#3A3B44"/>
<path fill-rule="evenodd" clip-rule="evenodd" d="M40.1478 25.1286C40.2088 25.0509 40.2424 24.9552 40.2435 24.8564C40.2446 24.7575 40.2131 24.6611 40.1538 24.5821C40.0945 24.503 40.0108 24.4458 39.9156 24.4191C39.8204 24.3925 39.7191 24.398 39.6274 24.4348C35.281 25.4551 31.7815 28.577 28.0268 30.9746C27.9671 30.9983 27.9144 31.037 27.8738 31.0868C27.6085 31.3929 28.0778 31.9744 28.4655 31.6887C32.1386 29.4034 35.6075 26.2713 39.9845 25.2408C40.0183 25.2351 40.0504 25.2222 40.0786 25.2028C40.1068 25.1834 40.1304 25.1581 40.1478 25.1286Z" fill="#3A3B44"/>
<path fill-rule="evenodd" clip-rule="evenodd" d="M43.7086 33.6068C43.85 33.44 43.9571 33.247 44.0238 33.0388C44.0906 32.8306 44.1157 32.6113 44.0977 32.3934C44.0797 32.1755 44.0189 31.9633 43.9189 31.7688C43.8189 31.5744 43.6816 31.4016 43.5148 31.2603C43.3479 31.1189 43.1549 31.0118 42.9467 30.945C42.7385 30.8783 42.5192 30.8532 42.3013 30.8712C42.0834 30.8892 41.8712 30.9499 41.6767 31.05C41.4823 31.15 41.3095 31.2873 41.1681 31.4541C41.0268 31.6209 40.9196 31.8139 40.8529 32.0221C40.7861 32.2303 40.761 32.4496 40.779 32.6675C40.797 32.8854 40.8578 33.0977 40.9578 33.2921C41.0578 33.4865 41.1952 33.6593 41.362 33.8007C41.5288 33.942 41.7218 34.0491 41.93 34.1159C42.1382 34.1826 42.3575 34.2077 42.5754 34.1897C42.7933 34.1717 43.0056 34.111 43.2 34.011C43.3944 33.911 43.5673 33.7736 43.7086 33.6068Z" fill="#F44771"/>
<path fill-rule="evenodd" clip-rule="evenodd" d="M39.505 40.6567C39.6563 40.4914 39.7726 40.2972 39.847 40.0859C39.9214 39.8745 39.9523 39.6503 39.9378 39.4267C39.9234 39.2031 39.8639 38.9847 39.763 38.7847C39.662 38.5846 39.5217 38.4071 39.3504 38.2626C39.1791 38.1181 38.9804 38.0098 38.7662 37.944C38.552 37.8783 38.3267 37.8565 38.1038 37.88C37.881 37.9035 37.6652 37.9718 37.4694 38.0808C37.2736 38.1898 37.1019 38.3372 36.9645 38.5142L36.791 38.708C36.5277 39.0472 36.4059 39.4751 36.4509 39.9021C36.4959 40.3291 36.7044 40.7221 37.0326 40.9989C37.3608 41.2758 37.7834 41.4149 38.2119 41.3872C38.6404 41.3596 39.0416 41.1673 39.3315 40.8505L39.505 40.6567Z" fill="#F44771"/>
<path fill-rule="evenodd" clip-rule="evenodd" d="M34.8831 45.1458C35.019 44.9728 35.1191 44.7745 35.1778 44.5625C35.2365 44.3505 35.2526 44.129 35.2251 43.9107C35.1976 43.6925 35.127 43.4819 35.0175 43.2911C34.908 43.1003 34.7618 42.9331 34.5872 42.7992L34.3832 42.636C34.0444 42.4218 33.6398 42.3371 33.2436 42.3975C32.8474 42.4579 32.4863 42.6593 32.2268 42.9647C31.9673 43.2702 31.8269 43.659 31.8313 44.0597C31.8357 44.4605 31.9846 44.8461 32.2508 45.1458L32.4548 45.309C32.8022 45.601 33.2491 45.7472 33.7019 45.7167C34.1546 45.6863 34.578 45.4817 34.8831 45.1458Z" fill="#F44771"/>
<path fill-rule="evenodd" clip-rule="evenodd" d="M41.2496 25.7611C41.538 25.4054 41.6777 24.9521 41.6397 24.4958C41.6017 24.0395 41.3888 23.6156 41.0456 23.3125L40.5354 22.8942C40.1962 22.6309 39.7684 22.5091 39.3413 22.5541C38.9143 22.5991 38.5213 22.8076 38.2444 23.1358C37.9676 23.464 37.8285 23.8866 37.8561 24.3151C37.8838 24.7435 38.0761 25.1447 38.3928 25.4346L38.903 25.8529C39.2354 26.1324 39.6601 26.2779 40.0941 26.2609C40.5281 26.2439 40.9401 26.0657 41.2496 25.7611Z" fill="#F44771"/>
<path fill-rule="evenodd" clip-rule="evenodd" d="M36.9646 19.752C37.106 19.5852 37.2131 19.3921 37.2798 19.1839C37.3466 18.9757 37.3717 18.7564 37.3537 18.5385C37.3357 18.3206 37.2749 18.1084 37.1749 17.914C37.0749 17.7196 36.9376 17.5467 36.7707 17.4054C36.6039 17.264 36.4109 17.1569 36.2027 17.0902C35.9945 17.0234 35.7752 16.9983 35.5573 17.0163C35.3394 17.0343 35.1271 17.0951 34.9327 17.1951C34.7383 17.2951 34.5654 17.4324 34.4241 17.5992C34.1386 17.9361 33.9987 18.3726 34.035 18.8127C34.0714 19.2527 34.2811 19.6603 34.6179 19.9458C34.9548 20.2313 35.3913 20.3712 35.8314 20.3349C36.2715 20.2985 36.6791 20.0888 36.9646 19.752Z" fill="#F44771"/>
<path fill-rule="evenodd" clip-rule="evenodd" d="M170.887 26.6386C170.633 26.6198 170.379 26.6534 170.139 26.7374C169.899 26.8214 169.679 26.9539 169.493 27.1268C169.307 27.2996 169.158 27.509 169.057 27.7419C168.955 27.9748 168.903 28.2261 168.903 28.4802C168.903 28.7342 168.955 28.9856 169.057 29.2184C169.158 29.4513 169.307 29.6607 169.493 29.8336C169.679 30.0064 169.899 30.139 170.139 30.223C170.379 30.307 170.633 30.3406 170.887 30.3217C171.352 30.2871 171.786 30.0781 172.103 29.7365C172.42 29.395 172.596 28.9462 172.596 28.4802C172.596 28.0142 172.42 27.5654 172.103 27.2238C171.786 26.8823 171.352 26.6733 170.887 26.6386Z" fill="#F44771"/>
<path fill-rule="evenodd" clip-rule="evenodd" d="M139.258 50.5938C138.525 50.5938 137.821 50.8851 137.303 51.4036C136.784 51.9221 136.493 52.6254 136.493 53.3587C136.493 54.092 136.784 54.7952 137.303 55.3137C137.821 55.8322 138.525 56.1235 139.258 56.1235C142.911 56.1235 142.911 50.5938 139.258 50.5938Z" fill="#F44771"/>
</svg>
