<svg width="143" height="194" viewBox="0 0 143 194" fill="none" xmlns="http://www.w3.org/2000/svg">
<path fill-rule="evenodd" clip-rule="evenodd" d="M73.8253 0.00289507C64.9061 0.070122 56.0301 1.2385 47.4034 3.48093C38.4378 5.70685 29.8743 9.29169 22.0165 14.1083C18.1108 16.4656 14.498 18.8229 10.6119 21.0547C6.8006 23.0772 3.26666 25.5739 0.0959493 28.4841C0.0341977 28.5516 0 28.6394 0 28.7305C0 28.8215 0.0341977 28.9093 0.0959493 28.9768C2.50925 31.2837 5.42058 33.0181 8.61029 34.049C12.6234 35.6527 16.7536 37.1502 20.8838 38.3869C24.6476 39.2973 28.5116 39.7387 32.3861 39.7008C38.3695 39.621 44.3259 38.8888 50.1472 37.5173C55.314 36.1504 60.3724 34.4099 65.2816 32.31C69.9385 30.5758 74.3238 28.1981 78.307 25.2476C82.4373 22.2816 86.4503 19.0645 90.1997 15.8473C92.2014 14.0986 94.1054 12.3692 95.8337 10.5143C97.2227 8.62416 99.0251 7.06869 101.106 5.96386C101.158 5.94242 101.203 5.90919 101.239 5.86691C101.275 5.82463 101.3 5.77452 101.313 5.72071C101.325 5.66691 101.324 5.61096 101.31 5.55748C101.297 5.504 101.27 5.45454 101.233 5.41317C101.292 5.36902 101.338 5.30953 101.365 5.24132C101.392 5.1731 101.399 5.09884 101.386 5.02677C101.373 4.9547 101.34 4.88764 101.29 4.83306C101.241 4.77847 101.177 4.7385 101.106 4.71756H101.233C92.4604 1.51982 83.1742 -0.0775678 73.8253 0.00289507ZM73.63 0.717824C82.8079 0.637631 91.926 2.18871 100.55 5.29724C97.5132 6.81404 95.5506 9.838 93.217 12.0601C89.7116 15.2676 86.0696 18.2432 82.4764 21.2189C78.7061 24.4133 74.5936 27.1898 70.2125 29.4986C65.4146 31.7327 60.4807 33.6687 55.4393 35.2953C48.2249 37.6995 40.6626 38.9232 33.0501 38.9182C30.9215 38.9182 28.7831 38.8313 26.6349 38.6284C22.2188 37.9688 17.8941 36.8082 13.7463 35.1697C9.91748 33.9368 6.22676 32.3181 2.73223 30.3391C2.47836 30.0879 0.476671 29.1024 1.35545 28.3489C2.25417 27.4992 3.2136 26.7146 4.22618 26.0012C5.82185 24.8152 7.49882 23.7402 9.24498 22.784C12.6234 20.6779 16.2459 18.8229 19.5072 16.5912C27.5001 11.2965 36.2889 7.28584 45.5482 4.7079C54.6837 2.12904 64.1302 0.786806 73.63 0.717824Z" fill="#F44771"/>
<path fill-rule="evenodd" clip-rule="evenodd" d="M101.174 4.82385H101.106C84.4484 9.29699 68.2887 15.2483 51.7385 19.8374C43.9272 22.0691 36.3209 24.668 28.3045 26.291C19.5168 28.0204 10.2702 28.1653 1.23839 28.2716C1.1374 28.2716 1.04055 28.3113 0.969137 28.3819C0.897723 28.4526 0.857574 28.5484 0.857574 28.6484C0.857574 28.7483 0.897723 28.8441 0.969137 28.9148C1.04055 28.9855 1.1374 29.0252 1.23839 29.0252C9.23977 29.0629 17.2358 28.6079 25.1801 27.6629C33.5772 26.5422 41.5936 23.6825 49.7369 21.2093C67.0292 16.1178 83.9114 10.2921 101.36 5.57743C101.78 5.47115 101.604 4.82385 101.174 4.82385Z" fill="#F44771"/>
<path fill-rule="evenodd" clip-rule="evenodd" d="M14.1369 19.5572C13.8342 19.5572 13.6193 20.0499 13.9318 20.3591V20.2335C17.3004 22.5715 21.4208 23.5569 24.5356 26.2621C26.2834 27.8562 23.7838 30.2038 22.7879 31.5564C21.4209 33.2761 20.5421 35.2373 19.302 36.9667C19.2624 37.0286 19.2401 37.0998 19.2372 37.173C19.2343 37.2463 19.251 37.319 19.2857 37.3837C19.3204 37.4485 19.3718 37.503 19.4347 37.5417C19.4976 37.5805 19.5697 37.6021 19.6438 37.6043C19.6989 37.6025 19.7529 37.5886 19.8019 37.5635C19.8509 37.5384 19.8936 37.5029 19.9269 37.4594C21.5478 35.1117 22.9147 32.7834 24.5356 30.5613C25.1703 29.7015 26.5373 27.9818 26.0393 26.8804C25.5413 25.779 23.4225 24.4264 22.1336 23.7985C19.6438 22.2044 16.7731 21.3445 14.3224 19.6248C14.2695 19.583 14.2045 19.5593 14.1369 19.5572Z" fill="#F44771"/>
<path fill-rule="evenodd" clip-rule="evenodd" d="M29.4077 10.3888C29.3256 10.3846 29.2442 10.4055 29.1745 10.4487C29.1049 10.4919 29.0504 10.5553 29.0184 10.6302C28.9864 10.7051 28.9785 10.788 28.9957 10.8675C29.013 10.947 29.0545 11.0194 29.1148 11.0747C31.3703 13.007 34.3678 14.1663 36.8577 16.0406C39.3964 17.6772 41.6738 19.6798 43.6145 21.9822C45.2353 23.9145 41.6617 28.7451 40.6072 30.6773C39.4468 33.2912 38.4872 35.9878 37.7365 38.7444C37.59 38.9569 37.7951 39.1405 38.0392 39.1405C38.1319 39.1403 38.2227 39.115 38.3019 39.0673C38.3811 39.0196 38.4456 38.9514 38.4883 38.87C39.6232 35.3482 40.9998 31.9072 42.6088 28.5712C43.4875 26.8418 45.2353 24.1173 44.5616 22.0112C43.8879 19.9051 40.6559 17.9245 38.8203 16.5526C35.9496 14.3209 32.3272 12.9587 29.5835 10.4854C29.535 10.4378 29.4741 10.4044 29.4077 10.3888Z" fill="#F44771"/>
<path fill-rule="evenodd" clip-rule="evenodd" d="M49.6296 3.47123C49.3073 3.47123 49.0339 3.81903 49.3073 4.08955C50.4957 5.25875 51.8048 6.30142 53.213 7.20045C55 8.63858 56.6685 10.2151 58.2027 11.9151C59.2941 12.8077 60.4677 13.5969 61.7081 14.2725C64.0808 15.625 64.2077 17.2384 63.8367 19.5958C63.202 23.6921 59.4525 29.0251 61.3273 33.2471C61.3454 33.2936 61.3777 33.3335 61.4196 33.3612C61.4616 33.3888 61.5112 33.403 61.5616 33.4016C61.6379 33.3975 61.7122 33.375 61.7777 33.336C61.8432 33.2971 61.8981 33.2428 61.9375 33.178C61.977 33.1132 61.9999 33.0399 62.0042 32.9643C62.0084 32.8888 61.9939 32.8134 61.962 32.7447C60.8195 30.1362 62.5868 26.4262 63.5828 23.9433C64.2077 21.8275 65.4576 18.9871 64.8424 16.6298C64.2273 14.2725 62.0791 13.7314 60.3313 12.5238C58.5392 11.0502 56.8311 9.47948 55.2148 7.81877C53.7208 6.32128 51.5922 5.21025 49.9713 3.60649C49.9294 3.55854 49.8765 3.52123 49.8171 3.49769C49.7576 3.47416 49.6933 3.46508 49.6296 3.47123Z" fill="#F44771"/>
<path fill-rule="evenodd" clip-rule="evenodd" d="M69.4409 0.00292969C69.3671 0.00359625 69.2954 0.0272178 69.236 0.0704476C69.1765 0.113677 69.1323 0.174323 69.1096 0.243793C69.0869 0.313263 69.087 0.388034 69.1096 0.457513C69.1323 0.526992 69.1764 0.587655 69.2358 0.630908V0.80481C70.8892 2.29485 72.6552 3.65782 74.5183 4.88184C76.7738 6.4856 79.293 7.22951 81.4313 8.95887C84.4485 11.5481 81.9293 18.6201 81.1774 21.7986C81.1646 21.8609 81.1657 21.9253 81.1807 21.9871C81.1956 22.0489 81.2242 22.1068 81.2642 22.1565C81.3042 22.2063 81.3548 22.2467 81.4124 22.275C81.4699 22.3033 81.5331 22.3188 81.5973 22.3203C81.6787 22.3257 81.7589 22.2994 81.821 22.2471C81.883 22.1947 81.9218 22.1205 81.9293 22.0401C82.8178 18.4655 84.4485 13.2774 83.0718 9.69312C82.3101 7.96376 79.9277 6.86239 78.4044 6.11847C75.2756 4.51041 72.3627 2.52081 69.7338 0.196154C69.705 0.142465 69.6631 0.0967035 69.612 0.0629779C69.5609 0.0292522 69.502 0.00861851 69.4409 0.00292969Z" fill="#F44771"/>
<path fill-rule="evenodd" clip-rule="evenodd" d="M113.663 135.82C113.607 135.816 113.55 135.826 113.498 135.849C113.446 135.871 113.401 135.906 113.365 135.949C113.33 135.993 113.305 136.044 113.294 136.099C113.283 136.154 113.286 136.211 113.302 136.265C115.45 146.534 116.7 156.679 115.196 167.18C113.683 176.33 112.423 184.754 115.196 193.787C115.219 193.851 115.261 193.906 115.317 193.944C115.373 193.982 115.44 194.002 115.508 194C115.569 193.999 115.628 193.986 115.683 193.962C115.738 193.938 115.788 193.903 115.83 193.86C115.872 193.817 115.904 193.766 115.926 193.711C115.948 193.655 115.959 193.596 115.957 193.536C112.931 183.759 114.981 174.726 116.211 164.949C117.442 155.172 115.958 145.52 114.054 136.11C114.03 136.026 113.979 135.952 113.908 135.899C113.837 135.847 113.751 135.819 113.663 135.82Z" fill="#353E6C"/>
<path fill-rule="evenodd" clip-rule="evenodd" d="M113.966 182.145C113.885 182.162 113.812 182.203 113.755 182.262C113.698 182.32 113.66 182.395 113.647 182.475C113.633 182.555 113.644 182.637 113.678 182.711C113.712 182.785 113.768 182.847 113.839 182.889C114.201 185.066 115.081 187.125 116.407 188.899C116.783 189.395 117.256 189.813 117.797 190.126C118.339 190.44 118.938 190.643 119.56 190.725C119.888 190.722 120.209 190.63 120.487 190.46C120.766 190.289 120.993 190.047 121.142 189.759C122.119 188.135 120.283 186.387 119.287 185.508C117.955 184.186 116.381 183.127 114.649 182.387C114.61 182.31 114.55 182.246 114.476 182.201C114.401 182.157 114.316 182.134 114.229 182.136C114.184 182.131 114.138 182.131 114.092 182.136L113.966 182.145ZM114.805 183.295C115.731 183.737 116.605 184.278 117.412 184.909C118.806 185.852 119.924 187.141 120.654 188.647C120.859 189.449 120.019 189.855 119.346 189.855C119.196 189.856 119.047 189.83 118.906 189.778C117.93 189.527 117.168 188.406 116.534 187.652C115.696 186.312 115.101 184.838 114.776 183.295H114.805Z" fill="#353E6C"/>
<path fill-rule="evenodd" clip-rule="evenodd" d="M115.323 169.509C115.245 169.513 115.17 169.539 115.106 169.584C115.042 169.628 114.992 169.689 114.962 169.76C114.884 169.786 114.817 169.836 114.77 169.902C114.723 169.967 114.698 170.046 114.698 170.127C114.698 171.982 115.674 177.788 118.36 177.788C118.779 177.774 119.188 177.658 119.551 177.45C122.304 175.953 116.817 170.629 115.577 169.625C115.508 169.558 115.418 169.518 115.323 169.509ZM115.489 170.542C116.104 171.151 116.709 171.779 117.325 172.475C118.449 173.49 119.193 174.852 119.434 176.339C119.434 176.861 119.053 177.044 118.623 177.044C118.244 177.04 117.874 176.925 117.559 176.716C116.98 176.027 116.557 175.223 116.319 174.359C115.895 173.122 115.617 171.842 115.489 170.542Z" fill="#353E6C"/>
<path fill-rule="evenodd" clip-rule="evenodd" d="M116.153 159.886C114.024 160.63 111.525 161.248 110.031 162.958C109.279 163.828 108.908 166.398 110.275 167.026C110.43 167.07 110.591 167.093 110.753 167.093C112.042 167.093 113.097 165.47 113.683 164.804C114.82 163.485 115.803 162.043 116.612 160.504C116.638 160.456 116.654 160.403 116.658 160.348C116.662 160.293 116.655 160.238 116.636 160.187C116.618 160.135 116.589 160.087 116.551 160.047C116.513 160.007 116.467 159.975 116.417 159.954C116.381 159.924 116.338 159.902 116.292 159.89C116.247 159.878 116.199 159.877 116.153 159.886ZM115.557 160.852C114.46 162.856 112.966 164.621 111.163 166.04C111.047 166.143 110.899 166.204 110.743 166.214C110.509 166.214 110.343 166.002 110.177 165.673C110.051 165.177 110.076 164.655 110.25 164.174C110.424 163.692 110.738 163.272 111.154 162.968C112.485 162.013 113.975 161.297 115.557 160.852Z" fill="#353E6C"/>
<path fill-rule="evenodd" clip-rule="evenodd" d="M116.856 153.452H116.729C116.667 153.447 116.605 153.456 116.547 153.478C116.489 153.5 116.436 153.534 116.393 153.579C116.35 153.623 116.318 153.676 116.298 153.734C116.279 153.793 116.272 153.855 116.28 153.916C116.265 153.966 116.265 154.02 116.28 154.07H116.368C116.592 155.944 118.721 160.456 121.045 160.456C121.329 160.446 121.608 160.381 121.866 160.263C122.124 160.145 122.356 159.978 122.548 159.77C125.946 156.727 119.433 153.452 116.856 153.452ZM117.11 154.215C119.424 154.36 124.267 156.737 122.05 159.2C121.922 159.353 121.763 159.478 121.583 159.566C121.403 159.654 121.206 159.704 121.005 159.712C119.199 159.683 117.305 155.587 117.11 154.186V154.215Z" fill="#353E6C"/>
<path fill-rule="evenodd" clip-rule="evenodd" d="M98.88 102.131C89.4576 102.131 79.6837 108.044 72.6047 113.174C67.8436 116.64 63.9845 121.177 61.3465 126.41C58.441 131.783 56.1705 137.469 54.5799 143.356C54.5618 143.407 54.5571 143.463 54.5661 143.517C54.5751 143.571 54.5977 143.622 54.6316 143.665C54.6656 143.708 54.7098 143.742 54.7605 143.764C54.8112 143.786 54.8665 143.795 54.9216 143.791C55.0154 143.793 55.1073 143.764 55.182 143.708C55.2566 143.651 55.3095 143.572 55.3318 143.481C56.8635 138.003 58.9574 132.694 61.5809 127.637C64.1085 122.174 67.9871 117.429 72.8584 113.841C79.8691 108.798 89.6529 102.953 98.8898 102.953C100.537 102.951 102.178 103.159 103.772 103.571H103.869C104.192 103.571 104.358 103.04 103.869 102.808H103.996C102.327 102.37 100.607 102.143 98.88 102.131Z" fill="#353E6C"/>
<path fill-rule="evenodd" clip-rule="evenodd" d="M58.1437 127.367C53.5448 127.367 49.4927 129.84 44.9719 130.941C44.8709 130.955 44.7797 131.008 44.7183 131.089C44.657 131.17 44.6306 131.271 44.6448 131.371C44.6591 131.471 44.7128 131.561 44.7943 131.622C44.8758 131.683 44.9783 131.709 45.0793 131.695H45.2062C49.6098 130.729 53.5058 128.197 57.9582 128.197C58.5794 128.199 59.1996 128.247 59.8133 128.342C64.6954 128.97 69.7825 131.946 71.0421 136.883C71.0557 136.958 71.0953 137.026 71.1541 137.075C71.2129 137.125 71.2873 137.152 71.3644 137.153C71.4288 137.155 71.4927 137.142 71.5513 137.116C71.6098 137.089 71.6613 137.049 71.7019 137C71.7425 136.95 71.7711 136.892 71.7853 136.83C71.7996 136.768 71.7992 136.703 71.7842 136.641C70.6613 131.811 66.0526 129.096 61.5514 127.859C60.4449 127.535 59.2975 127.37 58.1437 127.367Z" fill="#353E6C"/>
<path fill-rule="evenodd" clip-rule="evenodd" d="M60.6237 127.705C60.5546 127.704 60.4867 127.723 60.4292 127.761C60.3717 127.799 60.3271 127.854 60.3014 127.917C56.7821 132.305 52.4513 135.99 47.5398 138.776C47.2079 138.989 47.4519 139.578 47.7546 139.578C47.8021 139.594 47.8537 139.594 47.9011 139.578V139.453C52.9297 136.62 57.3536 132.846 60.9264 128.342C61.19 128.023 60.8971 127.705 60.6237 127.705Z" fill="#353E6C"/>
<path fill-rule="evenodd" clip-rule="evenodd" d="M60.9267 128.004C60.5948 128.004 60.2823 128.42 60.5752 128.613C62.1868 130.397 63.3803 132.512 64.0706 134.806C64.9935 136.985 65.6237 139.275 65.9453 141.617C65.9609 141.72 66.0133 141.814 66.0931 141.882C66.1728 141.95 66.2746 141.987 66.3798 141.987C66.485 141.987 66.5867 141.95 66.6665 141.882C66.7462 141.814 66.7986 141.72 66.8143 141.617C66.4483 139.004 65.6879 136.461 64.5588 134.071C63.8951 131.867 62.7521 129.832 61.2099 128.11C61.1283 128.048 61.0297 128.011 60.9267 128.004Z" fill="#353E6C"/>
<path fill-rule="evenodd" clip-rule="evenodd" d="M44.8744 130.265C44.5506 130.293 44.2493 130.44 44.0297 130.677C43.8101 130.914 43.6882 131.223 43.6882 131.545C43.6882 131.867 43.8101 132.176 44.0297 132.413C44.2493 132.65 44.5506 132.797 44.8744 132.825H45.1087H45.3626C45.4371 132.835 45.5126 132.835 45.5871 132.825C45.9108 132.797 46.2122 132.65 46.4318 132.413C46.6514 132.176 46.7731 131.867 46.7731 131.545C46.7731 131.223 46.6514 130.914 46.4318 130.677C46.2122 130.44 45.9108 130.293 45.5871 130.265H45.3626H45.1087H44.8744Z" fill="#F44771"/>
<path fill-rule="evenodd" clip-rule="evenodd" d="M48.7507 138.081C48.4088 138.081 48.081 138.215 47.8393 138.454C47.5976 138.694 47.4618 139.018 47.4618 139.356C47.4618 139.694 47.5976 140.019 47.8393 140.258C48.081 140.497 48.4088 140.631 48.7507 140.631H49.0045C49.3464 140.631 49.6742 140.497 49.9159 140.258C50.1576 140.019 50.2934 139.694 50.2934 139.356C50.2934 139.018 50.1576 138.694 49.9159 138.454C49.6742 138.215 49.3464 138.081 49.0045 138.081H48.7507Z" fill="#F44771"/>
<path fill-rule="evenodd" clip-rule="evenodd" d="M56.1911 142.293C56.0136 142.282 55.8358 142.308 55.6686 142.368C55.5014 142.427 55.3482 142.52 55.2184 142.64C55.0886 142.761 54.985 142.906 54.9138 143.067C54.8427 143.228 54.8054 143.402 54.8044 143.578C54.8221 143.941 54.9726 144.285 55.2277 144.546C55.4828 144.807 55.8251 144.968 56.1911 144.998H56.4449C56.7861 144.939 57.0963 144.765 57.3238 144.507C57.5513 144.248 57.6822 143.92 57.6949 143.578C57.7001 143.244 57.5717 142.921 57.3375 142.681C57.1034 142.44 56.7825 142.301 56.4449 142.293H56.1911Z" fill="#F44771"/>
<path fill-rule="evenodd" clip-rule="evenodd" d="M67.4491 140.786C67.1227 140.788 66.8102 140.917 66.5784 141.145C66.3467 141.372 66.2141 141.68 66.2091 142.003C66.1985 142.173 66.2225 142.342 66.2796 142.502C66.3367 142.662 66.4258 142.809 66.5415 142.935C66.6572 143.06 66.7971 143.161 66.9531 143.232C67.109 143.302 67.2777 143.341 67.4491 143.346H67.703C67.8749 143.343 68.0442 143.305 68.2008 143.234C68.3573 143.164 68.4979 143.063 68.6139 142.938C68.7298 142.812 68.8188 142.664 68.8754 142.504C68.932 142.343 68.955 142.173 68.9431 142.003C68.9405 141.679 68.8086 141.37 68.5763 141.142C68.3441 140.914 68.0302 140.786 67.703 140.786H67.4491Z" fill="#F44771"/>
<path fill-rule="evenodd" clip-rule="evenodd" d="M71.6475 135.675C71.4783 135.675 71.3107 135.708 71.1543 135.772C70.9979 135.836 70.8559 135.93 70.7362 136.049C70.6165 136.167 70.5216 136.308 70.4568 136.463C70.3921 136.617 70.3587 136.783 70.3587 136.951C70.3587 137.118 70.3921 137.284 70.4568 137.439C70.5216 137.593 70.6165 137.734 70.7362 137.852C70.8559 137.971 70.9979 138.065 71.1543 138.129C71.3107 138.193 71.4783 138.226 71.6475 138.226H72.0185C72.1878 138.226 72.3553 138.193 72.5117 138.129C72.6681 138.065 72.8103 137.971 72.9299 137.852C73.0496 137.734 73.1445 137.593 73.2093 137.439C73.2741 137.284 73.3074 137.118 73.3074 136.951C73.3074 136.783 73.2741 136.617 73.2093 136.463C73.1445 136.308 73.0496 136.167 72.9299 136.049C72.8103 135.93 72.6681 135.836 72.5117 135.772C72.3553 135.708 72.1878 135.675 72.0185 135.675H71.6475Z" fill="#F44771"/>
<path fill-rule="evenodd" clip-rule="evenodd" d="M140.29 50.6953C133.904 57.2649 114.903 72.6165 108.605 77.8143C103.126 82.5277 97.9107 87.5332 92.9823 92.8084C89.975 95.7744 83.7161 101.735 83.0815 106.054C82.1051 112.624 93.1092 113.783 97.7277 114.488C93.3533 118.353 76.5687 125.637 80.9431 133.811C82.4663 136.554 86.9773 137.453 91.6836 137.453C95.6723 137.461 99.6415 136.902 103.469 135.791C99.8465 140.38 85.3175 165.403 97.7179 166.765C97.9682 166.784 98.2195 166.784 98.4698 166.765C107.375 166.765 114.219 145.858 117.51 139.714C119.863 142.853 122.45 150.186 127.567 150.186C127.894 150.189 128.221 150.163 128.543 150.109C133.425 149.24 133.923 140.197 134.285 136.477C134.919 131.253 134.919 125.973 134.285 120.749C133.669 116.546 131.795 111.957 131.795 107.619C134.304 109.677 137.419 114.382 140.397 114.382C141.715 114.382 142.994 113.416 144.185 111C146.949 105.793 141.93 59.2261 140.28 50.8015L140.29 50.6953Z" fill="#353E6C"/>
<path fill-rule="evenodd" clip-rule="evenodd" d="M141.139 51.1493C141.08 51.1465 141.022 51.1583 140.969 51.1837C140.916 51.209 140.87 51.247 140.836 51.2942H140.954C132.303 67.9115 128.416 86.2485 122.89 103.977C119.871 113.555 116.285 122.949 112.149 132.11C108.625 140.168 102.991 147.481 100.354 155.906C100.337 155.968 100.336 156.034 100.349 156.097C100.363 156.161 100.391 156.22 100.432 156.271C100.472 156.322 100.525 156.362 100.584 156.389C100.644 156.417 100.709 156.43 100.774 156.427C100.855 156.427 100.933 156.398 100.995 156.347C101.058 156.296 101.1 156.226 101.116 156.147C102.613 151.939 104.578 147.908 106.974 144.129C109.288 140.032 111.381 135.817 113.243 131.502C116.992 122.942 120.38 114.111 123.261 105.213C128.914 87.2436 132.664 68.6554 141.569 51.671C141.754 51.4102 141.422 51.1493 141.139 51.1493Z" fill="#F44771"/>
<path fill-rule="evenodd" clip-rule="evenodd" d="M119.902 113.715C119.858 113.712 119.814 113.719 119.774 113.736C119.733 113.753 119.697 113.779 119.668 113.812C115.214 117.792 110.369 121.323 105.207 124.352C101.858 126.458 97.1907 129.84 92.9238 129.84C92.4119 129.842 91.9014 129.79 91.4006 129.685H91.2931C90.8635 129.685 90.6781 130.342 91.1468 130.449V130.574C91.6641 130.678 92.1908 130.73 92.7188 130.729C96.5073 130.729 100.374 128.207 103.459 126.352C109.264 123.135 114.696 119.299 119.658 114.913C120.093 118.465 121.04 121.936 122.47 125.222C123.984 129.56 125.614 134.014 127.001 138.371C127.019 138.459 127.068 138.539 127.14 138.595C127.211 138.652 127.3 138.682 127.391 138.68C127.447 138.686 127.504 138.679 127.556 138.657C127.608 138.636 127.654 138.602 127.689 138.559C127.724 138.515 127.747 138.464 127.757 138.409C127.766 138.354 127.762 138.298 127.743 138.245C126.366 134.014 124.814 129.927 123.476 125.85C122.226 121.985 120.459 118.121 120.332 114.063C120.327 114.012 120.312 113.963 120.288 113.918C120.263 113.873 120.23 113.833 120.19 113.801C120.15 113.768 120.104 113.744 120.055 113.729C120.006 113.715 119.954 113.71 119.902 113.715Z" fill="#F44771"/>
<path fill-rule="evenodd" clip-rule="evenodd" d="M127.254 88.8957C127.152 88.8876 127.051 88.9196 126.973 88.9846C126.894 89.0497 126.844 89.1426 126.835 89.2435C126.835 89.9971 120.693 93.108 119.814 93.736C117.051 95.475 114.297 97.1077 111.407 98.5666C105.949 101.223 99.5536 104.682 93.3436 104.682H92.7089C92.6079 104.682 92.511 104.722 92.4396 104.792C92.3682 104.863 92.328 104.959 92.328 105.059C92.328 105.159 92.3682 105.255 92.4396 105.325C92.511 105.396 92.6079 105.436 92.7089 105.436V105.561H93.3436C99.7781 105.561 106.037 101.977 111.788 99.3201C115.293 97.3879 118.799 95.4557 122.07 93.3302C122.987 92.7312 126.112 91.398 127.274 90.171C129.979 95.9677 134.646 100.257 138.513 105.049C138.548 105.09 138.591 105.123 138.64 105.146C138.689 105.17 138.742 105.183 138.796 105.184C138.868 105.18 138.939 105.156 139 105.117C139.061 105.078 139.111 105.023 139.146 104.96C139.18 104.896 139.197 104.824 139.196 104.752C139.194 104.68 139.174 104.609 139.137 104.547C135.232 99.523 130.35 95.2141 127.723 89.3691L127.616 89.1179C127.587 89.0478 127.537 88.9885 127.472 88.9486C127.407 88.9087 127.331 88.8902 127.254 88.8957Z" fill="#F44771"/>
<path fill-rule="evenodd" clip-rule="evenodd" d="M103.537 92.3543C103.311 92.3775 103.102 92.4826 102.95 92.6494C102.798 92.8163 102.714 93.033 102.714 93.2576C102.714 93.4823 102.798 93.699 102.95 93.8658C103.102 94.0327 103.311 94.1378 103.537 94.161C103.665 94.1741 103.794 94.1605 103.916 94.121C104.039 94.0816 104.151 94.0172 104.246 93.9321C104.342 93.8469 104.418 93.7429 104.47 93.6267C104.523 93.5105 104.55 93.3848 104.55 93.2576C104.55 93.1305 104.523 93.0048 104.47 92.8886C104.418 92.7724 104.342 92.6684 104.246 92.5832C104.151 92.4981 104.039 92.4337 103.916 92.3943C103.794 92.3548 103.665 92.3412 103.537 92.3543Z" fill="#F44771"/>
<path fill-rule="evenodd" clip-rule="evenodd" d="M106.486 89.9487C106.28 89.9707 106.09 90.0673 105.952 90.2197C105.814 90.3722 105.737 90.5698 105.737 90.7747C105.737 90.9796 105.814 91.1772 105.952 91.3297C106.09 91.4822 106.28 91.5787 106.486 91.6008C106.692 91.5787 106.882 91.4822 107.021 91.3297C107.159 91.1772 107.236 90.9796 107.236 90.7747C107.236 90.5698 107.159 90.3722 107.021 90.2197C106.882 90.0673 106.692 89.9707 106.486 89.9487Z" fill="#F44771"/>
<path fill-rule="evenodd" clip-rule="evenodd" d="M107.248 93.7069C107.131 93.7003 107.014 93.7175 106.904 93.7572C106.794 93.797 106.693 93.8586 106.608 93.9382C106.523 94.0178 106.456 94.1138 106.409 94.2202C106.363 94.3266 106.34 94.4413 106.34 94.5571V94.8083C106.363 95.0318 106.469 95.2387 106.638 95.3892C106.807 95.5397 107.026 95.6229 107.253 95.6229C107.48 95.6229 107.699 95.5397 107.867 95.3892C108.036 95.2387 108.142 95.0318 108.166 94.8083V94.5185C108.161 94.4051 108.133 94.2938 108.084 94.1912C108.035 94.0886 107.965 93.9968 107.88 93.9211C107.794 93.8455 107.694 93.7876 107.586 93.7508C107.477 93.714 107.362 93.6991 107.248 93.7069Z" fill="#F44771"/>
<path fill-rule="evenodd" clip-rule="evenodd" d="M109.757 113.841C109.555 113.841 109.362 113.92 109.219 114.062C109.076 114.203 108.996 114.395 108.996 114.594C108.996 114.794 109.076 114.986 109.219 115.127C109.362 115.269 109.555 115.348 109.757 115.348C109.959 115.348 110.153 115.269 110.296 115.127C110.439 114.986 110.519 114.794 110.519 114.594C110.519 114.395 110.439 114.203 110.296 114.062C110.153 113.92 109.959 113.841 109.757 113.841Z" fill="#F44771"/>
<path fill-rule="evenodd" clip-rule="evenodd" d="M112.491 110.855C112.306 110.925 112.146 111.049 112.034 111.21C111.921 111.371 111.861 111.563 111.861 111.759C111.861 111.955 111.921 112.146 112.034 112.308C112.146 112.469 112.306 112.593 112.491 112.662C112.676 112.593 112.836 112.469 112.948 112.308C113.061 112.146 113.121 111.955 113.121 111.759C113.121 111.563 113.061 111.371 112.948 111.21C112.836 111.049 112.676 110.925 112.491 110.855Z" fill="#F44771"/>
<path fill-rule="evenodd" clip-rule="evenodd" d="M108.39 109.976C108.273 109.964 108.155 109.976 108.042 110.012C107.93 110.047 107.827 110.106 107.739 110.184C107.651 110.262 107.581 110.357 107.533 110.464C107.485 110.57 107.46 110.686 107.46 110.802C107.46 110.919 107.485 111.034 107.533 111.141C107.581 111.247 107.651 111.343 107.739 111.421C107.827 111.499 107.93 111.557 108.042 111.593C108.155 111.629 108.273 111.641 108.39 111.628C108.507 111.641 108.626 111.629 108.738 111.593C108.85 111.557 108.954 111.499 109.042 111.421C109.129 111.343 109.2 111.247 109.248 111.141C109.296 111.034 109.32 110.919 109.32 110.802C109.32 110.686 109.296 110.57 109.248 110.464C109.2 110.357 109.129 110.262 109.042 110.184C108.954 110.106 108.85 110.047 108.738 110.012C108.626 109.976 108.507 109.964 108.39 109.976Z" fill="#F44771"/>
<path fill-rule="evenodd" clip-rule="evenodd" d="M129.637 125.289C129.599 125.28 129.558 125.28 129.52 125.289C129.321 125.304 129.136 125.395 129.003 125.542C128.87 125.69 128.8 125.882 128.808 126.079C128.815 126.277 128.9 126.463 129.043 126.6C129.187 126.737 129.379 126.814 129.579 126.814C129.778 126.814 129.97 126.737 130.113 126.6C130.257 126.463 130.342 126.277 130.349 126.079C130.357 125.882 130.287 125.69 130.154 125.542C130.021 125.395 129.836 125.304 129.637 125.289Z" fill="#F44771"/>
<path fill-rule="evenodd" clip-rule="evenodd" d="M127.694 121.087C127.488 121.109 127.298 121.205 127.159 121.358C127.021 121.51 126.945 121.708 126.945 121.913C126.945 122.118 127.021 122.315 127.159 122.468C127.298 122.62 127.488 122.717 127.694 122.739C127.9 122.717 128.09 122.62 128.229 122.468C128.367 122.315 128.443 122.118 128.443 121.913C128.443 121.708 128.367 121.51 128.229 121.358C128.09 121.205 127.9 121.109 127.694 121.087Z" fill="#F44771"/>
<path fill-rule="evenodd" clip-rule="evenodd" d="M135.603 88.5961C135.486 88.5836 135.367 88.5956 135.255 88.6314C135.143 88.6672 135.039 88.7259 134.952 88.8038C134.864 88.8818 134.794 88.9771 134.746 89.0836C134.698 89.1902 134.673 89.3055 134.673 89.4222C134.673 89.5388 134.698 89.6542 134.746 89.7607C134.794 89.8672 134.864 89.9626 134.952 90.0405C135.039 90.1184 135.143 90.1772 135.255 90.213C135.367 90.2488 135.486 90.2608 135.603 90.2482C135.72 90.2608 135.839 90.2488 135.951 90.213C136.063 90.1772 136.167 90.1184 136.254 90.0405C136.342 89.9626 136.412 89.8672 136.46 89.7607C136.508 89.6542 136.533 89.5388 136.533 89.4222C136.533 89.3055 136.508 89.1902 136.46 89.0836C136.412 88.9771 136.342 88.8818 136.254 88.8038C136.167 88.7259 136.063 88.6672 135.951 88.6314C135.839 88.5956 135.72 88.5836 135.603 88.5961Z" fill="#F44771"/>
<path fill-rule="evenodd" clip-rule="evenodd" d="M130.574 64.3851C130.334 64.3851 130.102 64.4798 129.932 64.6483C129.762 64.8168 129.666 65.0453 129.666 65.2836C129.666 65.5219 129.762 65.7505 129.932 65.919C130.102 66.0875 130.334 66.1821 130.574 66.1821C130.815 66.1821 131.046 66.0875 131.216 65.919C131.387 65.7505 131.482 65.5219 131.482 65.2836C131.482 65.0453 131.387 64.8168 131.216 64.6483C131.046 64.4798 130.815 64.3851 130.574 64.3851Z" fill="#F44771"/>
<path fill-rule="evenodd" clip-rule="evenodd" d="M108.683 148.157C108.555 148.144 108.426 148.158 108.304 148.197C108.182 148.237 108.069 148.301 107.974 148.386C107.879 148.471 107.802 148.575 107.75 148.692C107.698 148.808 107.671 148.934 107.671 149.061C107.671 149.188 107.698 149.314 107.75 149.43C107.802 149.546 107.879 149.65 107.974 149.735C108.069 149.82 108.182 149.885 108.304 149.924C108.426 149.964 108.555 149.977 108.683 149.964C108.909 149.941 109.118 149.836 109.27 149.669C109.422 149.502 109.506 149.285 109.506 149.061C109.506 148.836 109.422 148.619 109.27 148.453C109.118 148.286 108.909 148.181 108.683 148.157Z" fill="#F44771"/>
<path fill-rule="evenodd" clip-rule="evenodd" d="M110.616 144.09C110.394 144.09 110.18 144.178 110.023 144.333C109.865 144.489 109.777 144.701 109.777 144.921C109.777 145.141 109.865 145.353 110.023 145.508C110.18 145.664 110.394 145.752 110.616 145.752H110.86C111.083 145.752 111.297 145.664 111.454 145.508C111.612 145.353 111.7 145.141 111.7 144.921C111.7 144.701 111.612 144.489 111.454 144.333C111.297 144.178 111.083 144.09 110.86 144.09H110.616Z" fill="#F44771"/>
<path fill-rule="evenodd" clip-rule="evenodd" d="M144.068 3.61621C139.665 4.24419 135.671 7.48069 132.283 10.0602C127.287 13.6996 122.816 17.9966 118.994 22.8323C114.112 29.1604 110.109 36.1068 105.597 42.6765C100.627 49.8816 95.1828 56.7558 89.3012 63.2548C84.1079 69.1568 77.8667 74.0684 70.886 77.7466C64.3733 80.9638 57.6067 83.5434 51.3576 87.4078C39.211 94.9726 31.1946 106.498 30.1889 120.884C30.1889 121.087 30.4038 121.212 30.6088 121.212C30.6535 121.217 30.6986 121.212 30.741 121.197C30.7834 121.182 30.8218 121.158 30.8536 121.126C30.8854 121.095 30.9097 121.057 30.9248 121.015C30.9399 120.973 30.9453 120.928 30.9408 120.884C30.9352 120.842 30.9352 120.8 30.9408 120.758H31.0384C31.0384 120.459 31.0383 120.169 31.1165 119.889C34.0457 106.015 43.7416 95.6682 55.9761 88.6541C61.7272 85.3017 68.0055 82.6932 74.0202 79.7175C79.4756 76.8919 84.4612 73.2558 88.8032 68.9356C97.8155 60.5014 104.709 50.2122 111.729 40.1742C115.235 35.0924 118.984 30.1362 122.626 25.0448C126.766 18.9679 131.277 13.1518 137.272 8.92021C137.351 8.87187 137.411 8.80042 137.446 8.71597C137.481 8.63152 137.488 8.53835 137.467 8.44965C137.445 8.36096 137.396 8.28124 137.326 8.22177C137.256 8.16231 137.169 8.12612 137.077 8.11833C137.013 8.12178 136.951 8.14548 136.901 8.18596C132.019 11.9004 127.738 16.3313 124.208 21.3252C120.195 26.6582 116.397 31.9525 112.55 37.4497C105.041 48.0771 97.7666 59.2744 88.2465 68.4332C83.3724 73.1429 77.7729 77.0562 71.6573 80.0267C65.3887 83.1279 58.876 85.978 52.8612 89.6879C43.4584 95.4846 35.8423 103.793 32.132 114.015C35.2663 101.455 44.3665 92.1708 56.1128 85.7171C62.2544 82.2584 69.021 80.017 75.0357 76.4327C80.8779 72.7807 86.1174 68.2612 90.5704 63.0326C101.096 51.4971 109.493 38.4932 118.008 25.5955C121.642 20.5445 125.989 16.0352 130.916 12.205C134.548 9.09411 139.43 5.13302 144.439 4.38911C144.947 4.38911 144.693 3.64519 144.185 3.64519L144.068 3.61621Z" fill="#353E6C"/>
<path fill-rule="evenodd" clip-rule="evenodd" d="M97.4738 14.9005C94.0583 14.7738 90.6542 15.3632 87.4851 16.6299C86.2352 17.0066 81.109 19.2384 82.4858 20.7165C83.0123 21.0143 83.6217 21.1362 84.2237 21.0643C86.1615 20.9869 88.0889 20.7444 89.9846 20.3398C97.6202 20.0982 105.012 18.9872 112.442 18.4945C116.573 18.1177 121.337 18.3592 125.136 17.0066V16.5139H123.32C116.612 16.5139 109.65 15.3449 103.108 15.1227C101.272 15.0068 99.3876 14.9005 97.4738 14.9005Z" fill="#353E6C"/>
<path fill-rule="evenodd" clip-rule="evenodd" d="M117.129 26.4745C112.247 29.1121 106.633 29.5275 101.018 29.5275C98.4894 29.5275 95.9409 29.4405 93.4413 29.4405H91.9376C87.6116 29.4822 83.2955 29.8602 79.0294 30.5709C77.6428 30.8221 72.1358 31.6819 72.3897 33.7784C72.4873 35.3628 75.4849 35.5174 77.5061 35.5174H78.7853C90.805 35.3918 104.846 33.7881 115.752 28.3585L117.129 26.4745Z" fill="#353E6C"/>
<path fill-rule="evenodd" clip-rule="evenodd" d="M108.771 38.8119C101.697 42.4585 93.8408 44.3703 85.8642 44.3864H84.4386C82.4858 44.3864 79.8299 44.1835 77.2424 44.1835C74.4596 44.1835 71.7061 44.4154 69.7728 45.3718C62.8597 48.7146 73.8932 51.3038 76.9103 51.3038H77.2424C87.4851 51.3038 100.833 45.681 108.488 39.4399L108.771 38.8119Z" fill="#353E6C"/>
<path fill-rule="evenodd" clip-rule="evenodd" d="M97.9819 54.154C90.0729 59.4966 81.3045 58.2503 72.1457 58.8783C68.8942 59.0039 59.3644 61.9892 67.0195 63.4674C68.7333 63.7767 70.472 63.9319 72.2141 63.9311C75.436 63.9377 78.6354 63.4019 81.6756 62.3467C86.8213 60.7333 92.4651 58.8783 96.7223 55.6418L97.9819 54.154Z" fill="#353E6C"/>
<path fill-rule="evenodd" clip-rule="evenodd" d="M61.8151 66.6362C60.4001 66.5294 58.9989 66.9731 57.9094 67.8728C55.1657 70.7712 66.9022 71.5247 69.2847 71.6503C71.9398 72.0256 74.6189 72.2097 77.301 72.201C78.1309 72.201 78.9511 72.201 79.7713 72.1527H80.0252L81.1577 71.6503C78.5895 71.5324 76.0763 70.8737 73.7859 69.7181C71.4132 68.781 65.9551 66.6362 61.8151 66.6362Z" fill="#353E6C"/>
<path fill-rule="evenodd" clip-rule="evenodd" d="M50.7816 72.3557C48.8971 72.3557 47.6669 72.9257 47.6669 74.4232C47.6669 78.848 66.6679 78.4712 69.9291 78.9736L70.31 78.5968C68.5133 77.7273 56.5522 72.3557 50.7816 72.3557Z" fill="#353E6C"/>
<path fill-rule="evenodd" clip-rule="evenodd" d="M45.3234 78.22C44.4511 78.2058 43.5899 78.4155 42.8239 78.8287C38.5472 81.1474 47.8622 82.9927 50.1372 83.611C52.4122 84.2293 54.6677 84.3453 56.6791 84.838L57.6555 84.2197C54.8825 82.3937 49.5611 78.22 45.3234 78.22Z" fill="#353E6C"/>
<path fill-rule="evenodd" clip-rule="evenodd" d="M34.2413 87.089C29.7791 87.089 26.0199 87.8136 25.5317 90.1709C25.3169 91.4268 28.9296 91.9002 33.3429 91.9002C39.2014 91.9002 46.544 91.0694 48.2625 90.0453C48.556 89.7164 48.8832 89.4185 49.2389 89.1565L49.7466 88.7797C44.6301 87.8208 39.4461 87.2555 34.2413 87.089Z" fill="#353E6C"/>
<path fill-rule="evenodd" clip-rule="evenodd" d="M40.6758 96.1125C37.8951 96.1141 35.1204 96.3664 32.386 96.8661C28.7439 97.4941 20.9619 99.6099 20.4542 104.083C20.7373 104.827 21.4305 105.136 22.4655 105.136C26.5958 105.136 35.6765 100.016 39.9239 97.61L40.6758 96.1125Z" fill="#353E6C"/>
<path fill-rule="evenodd" clip-rule="evenodd" d="M42.7066 98.0738L41.9647 99.0399C40.9882 100.972 37.3266 114.894 41.3006 114.894H41.4667C45.0795 114.536 43.0874 100.315 42.7066 98.0738Z" fill="#353E6C"/>
<path fill-rule="evenodd" clip-rule="evenodd" d="M49.9615 92.3543C49.6002 94.3445 45.0792 110.556 48.8385 110.556C49.0956 110.551 49.3486 110.492 49.5806 110.382C52.2268 109.155 51.3383 101.494 50.9575 99.6389C50.205 97.3305 49.9489 94.892 50.2056 92.4799L49.9615 92.3543Z" fill="#353E6C"/>
<path fill-rule="evenodd" clip-rule="evenodd" d="M58.876 86.6446C57.8995 88.7797 54.355 102.73 59.0614 102.73C59.2484 102.729 59.4349 102.71 59.6181 102.673C63.7777 101.552 59.1299 90.113 59.1299 87.2146L58.876 86.6446Z" fill="#353E6C"/>
<path fill-rule="evenodd" clip-rule="evenodd" d="M67.5271 82.5771C66.5507 84.9345 63.7777 100.18 67.6443 100.18C67.8999 100.172 68.1518 100.117 68.3863 100.016C71.9893 98.3925 68.5133 85.3209 67.7712 82.6255L67.5271 82.5771Z" fill="#353E6C"/>
<path fill-rule="evenodd" clip-rule="evenodd" d="M76.5785 77.6113C76.0806 81.2246 75.3287 85.4465 76.3344 88.9245C76.8129 90.8568 78.0431 94.3155 79.7226 94.3155C80.0542 94.2762 80.3722 94.1615 80.6517 93.9805C80.9311 93.7995 81.1645 93.5571 81.3337 93.2721C85.2393 88.1806 77.2035 82.8283 76.8324 78.3648L76.5785 77.6113Z" fill="#353E6C"/>
<path fill-rule="evenodd" clip-rule="evenodd" d="M84.7902 72.201L84.302 72.9546C84.9171 76.6741 85.1709 80.2584 86.1766 83.9877C86.5379 85.688 88.4518 91.0017 90.3753 91.0017C90.9709 91.0017 91.586 90.4896 92.1426 89.195C94.6325 83.7365 86.538 76.7901 84.7902 72.201Z" fill="#353E6C"/>
<path fill-rule="evenodd" clip-rule="evenodd" d="M93.861 63.477L93.1093 63.9794C94.7399 67.4477 95.355 71.4088 96.8489 74.7613C97.7277 76.5003 100.589 81.5241 102.629 81.5241C103.186 81.5241 103.674 81.1377 104.055 80.2102C105.422 76.6162 101.819 71.1576 99.8269 68.9259C98.0889 67.071 94.9741 65.3319 93.861 63.477Z" fill="#353E6C"/>
<path fill-rule="evenodd" clip-rule="evenodd" d="M101.555 53.9993L101.174 54.8785C101.604 57.7769 108.293 70.8485 112.081 70.8485C112.765 70.8485 113.36 70.4234 113.79 69.4283C116.065 64.076 105.715 55.4968 101.555 53.9993Z" fill="#353E6C"/>
<path fill-rule="evenodd" clip-rule="evenodd" d="M109.083 42.7247V43.9613C108.615 47.4683 115.85 63.931 120.742 63.931C121.207 63.9291 121.657 63.7726 122.021 63.4866C127.929 59.0424 109.835 46.6858 109.083 42.7247Z" fill="#353E6C"/>
<path fill-rule="evenodd" clip-rule="evenodd" d="M116.816 32.4935L116.563 32.9959C116.065 35.73 118.672 39.5849 119.55 42.319C120.263 44.4348 123.993 51.8932 127.186 51.8932C127.623 51.8662 128.045 51.7262 128.41 51.4871C128.775 51.2481 129.07 50.9184 129.266 50.531C131.873 46.4347 125.36 40.0872 123.036 37.8458C121.171 35.9812 118.799 34.3581 116.816 32.4935Z" fill="#353E6C"/>
<path fill-rule="evenodd" clip-rule="evenodd" d="M124.062 22.4169L123.183 23.5376C123.056 26.6195 124.677 28.8319 125.927 31.7882C126.783 33.9839 128.056 35.9974 129.676 37.7202C130.358 38.437 131.282 38.8806 132.273 38.9665C133.494 38.9665 134.304 37.9231 133.777 35.7397C132.644 30.5613 125.517 27.2281 124.062 22.4169Z" fill="#353E6C"/>
<path fill-rule="evenodd" clip-rule="evenodd" d="M32.6105 98.5182H32.5129C30.0837 99.2126 27.7316 100.148 25.4924 101.31C25.1702 101.407 25.4045 101.958 25.7072 101.958C25.7578 101.975 25.8128 101.975 25.8634 101.958C28.0896 100.89 30.398 99.998 32.7668 99.2911C33.2257 99.1462 33.0499 98.5182 32.6105 98.5182Z" fill="#F44771"/>
<path fill-rule="evenodd" clip-rule="evenodd" d="M39.5334 88.7217C36.668 88.8279 33.8134 89.1281 30.9895 89.6202C30.8978 89.6347 30.8143 89.6811 30.754 89.751C30.6937 89.8209 30.6606 89.9099 30.6606 90.0018C30.6606 90.0937 30.6937 90.1827 30.754 90.2526C30.8143 90.3225 30.8978 90.3689 30.9895 90.3834C33.813 89.8898 36.6679 89.5928 39.5334 89.4946C39.9142 89.3883 39.9142 88.7217 39.5334 88.7217Z" fill="#F44771"/>
<path fill-rule="evenodd" clip-rule="evenodd" d="M41.5446 105.146C41.4769 105.142 41.4091 105.153 41.3463 105.179C41.2836 105.204 41.2276 105.244 41.1824 105.294C41.1373 105.344 41.1043 105.404 41.0859 105.469C41.0675 105.533 41.0641 105.601 41.076 105.667C41.3017 107.55 41.341 109.449 41.1932 111.339C41.2314 111.421 41.2927 111.49 41.3697 111.539C41.4467 111.588 41.5362 111.614 41.6276 111.614C41.719 111.614 41.8086 111.588 41.8856 111.539C41.9626 111.49 42.0239 111.421 42.0621 111.339C42.1045 109.364 42.0197 107.389 41.8083 105.426C41.8144 105.389 41.812 105.352 41.8012 105.317C41.7905 105.281 41.7716 105.249 41.7462 105.222C41.7207 105.195 41.6892 105.174 41.6543 105.16C41.6194 105.147 41.5819 105.142 41.5446 105.146Z" fill="#F44771"/>
<path fill-rule="evenodd" clip-rule="evenodd" d="M49.8052 101.677C49.7155 101.675 49.6273 101.7 49.5535 101.751C49.4797 101.801 49.4243 101.874 49.3951 101.958C49.4549 103.752 49.3339 105.549 49.0338 107.32C49.0338 107.457 49.0876 107.589 49.1842 107.689C49.2807 107.788 49.4123 107.846 49.5513 107.851C49.6315 107.852 49.7093 107.824 49.7704 107.772C49.8314 107.721 49.8716 107.649 49.8834 107.571C50.1419 105.711 50.2203 103.832 50.1177 101.958C50.1179 101.918 50.1098 101.879 50.0937 101.843C50.0777 101.807 50.0541 101.775 50.0246 101.748C49.9951 101.722 49.9604 101.702 49.9226 101.69C49.8848 101.678 49.8447 101.673 49.8052 101.677Z" fill="#F44771"/>
<path fill-rule="evenodd" clip-rule="evenodd" d="M59.2765 94.1609C59.2257 94.1597 59.1751 94.1685 59.1278 94.1868C59.0804 94.2052 59.0372 94.2327 59.0009 94.2678C58.9645 94.303 58.9356 94.3449 58.9159 94.3913C58.8962 94.4376 58.886 94.4874 58.886 94.5377C58.886 96.3927 58.7591 98.2476 58.886 100.103C58.9008 100.196 58.9488 100.281 59.0212 100.342C59.0937 100.403 59.186 100.437 59.2814 100.437C59.3767 100.437 59.4689 100.403 59.5414 100.342C59.6138 100.281 59.6618 100.196 59.6766 100.103C59.5497 98.2476 59.6766 96.3927 59.6766 94.5377C59.6781 94.4862 59.6687 94.4349 59.6488 94.3872C59.629 94.3395 59.5993 94.2965 59.5615 94.2609C59.5237 94.2254 59.4788 94.1981 59.4297 94.1809C59.3806 94.1636 59.3284 94.1569 59.2765 94.1609Z" fill="#F44771"/>
<path fill-rule="evenodd" clip-rule="evenodd" d="M45.9875 79.5725C45.5579 79.5725 45.3821 80.1812 45.8508 80.2971C47.8359 80.9144 49.8535 81.424 51.8947 81.8236C52.4024 81.8236 52.5294 81.2342 52.1486 81.1086C50.1053 80.7183 48.0871 80.2086 46.1047 79.5822L45.9875 79.5725Z" fill="#F44771"/>
<path fill-rule="evenodd" clip-rule="evenodd" d="M52.0705 74.0077C51.6409 74.0077 51.4651 74.6453 51.9338 74.7613C54.2697 75.3848 56.6489 75.8368 59.0521 76.1138C59.55 76.1138 59.677 75.3699 59.179 75.3699C56.8122 75.1068 54.4708 74.6545 52.1779 74.0174L52.0705 74.0077Z" fill="#F44771"/>
<path fill-rule="evenodd" clip-rule="evenodd" d="M61.5319 68.2883C61.0437 68.2883 61.0437 69.1674 61.5319 69.1674C63.701 69.1898 65.8639 69.3999 67.9959 69.7954C68.0969 69.7954 68.1937 69.7557 68.2651 69.6851C68.3365 69.6144 68.3767 69.5186 68.3767 69.4186C68.3767 69.3187 68.3365 69.2229 68.2651 69.1522C68.1937 69.0815 68.0969 69.0418 67.9959 69.0418C65.8578 68.667 63.6995 68.4154 61.5319 68.2883Z" fill="#F44771"/>
<path fill-rule="evenodd" clip-rule="evenodd" d="M76.6958 59.7382C76.625 59.7414 76.5555 59.7578 76.4908 59.7865C74.6258 60.4434 72.585 60.8299 70.6321 61.4675C70.3099 61.6897 70.3684 62.2984 70.6906 62.2984C70.7588 62.2913 70.8251 62.2717 70.886 62.2404C72.8389 61.5931 74.8601 61.2067 76.7447 60.569C77.1548 60.3178 77.0278 59.7382 76.6958 59.7382Z" fill="#F44771"/>
<path fill-rule="evenodd" clip-rule="evenodd" d="M67.4785 90.2482C67.4277 90.2454 67.3768 90.2532 67.3294 90.2712C67.2819 90.2891 67.2389 90.3168 67.2029 90.3523C67.167 90.3879 67.139 90.4306 67.1208 90.4775C67.1027 90.5245 67.0949 90.5748 67.0977 90.625C66.9286 92.4667 67.014 94.3226 67.3515 96.1415C67.3486 96.1778 67.3536 96.2142 67.3663 96.2484C67.379 96.2825 67.3991 96.3135 67.4251 96.3393C67.4511 96.365 67.4823 96.3848 67.5168 96.3974C67.5513 96.41 67.5882 96.4149 67.6248 96.412C67.6932 96.4154 67.7616 96.4039 67.825 96.3783C67.8884 96.3527 67.9454 96.3137 67.992 96.2639C68.0385 96.2142 68.0734 96.155 68.0943 96.0904C68.1152 96.0259 68.1216 95.9576 68.1129 95.8903C67.7945 94.1633 67.7256 92.4002 67.908 90.654C67.9148 90.5973 67.9082 90.5399 67.8888 90.4862C67.8693 90.4326 67.8375 90.3841 67.7958 90.3447C67.7541 90.3053 67.7037 90.2761 67.6486 90.2594C67.5935 90.2426 67.5353 90.2388 67.4785 90.2482Z" fill="#F44771"/>
<path fill-rule="evenodd" clip-rule="evenodd" d="M77.9356 84.5384C77.6329 84.5384 77.301 84.8476 77.4865 85.1084C78.1646 86.6186 78.9407 88.0837 79.8103 89.4946C79.8436 89.5411 79.8876 89.5793 79.9384 89.6061C79.9892 89.6329 80.0456 89.6477 80.1032 89.6492C80.3864 89.6492 80.65 89.3883 80.4547 89.1371C79.6834 87.6686 78.912 86.2388 78.2676 84.7509C78.2391 84.6874 78.1926 84.6335 78.1336 84.5957C78.0746 84.558 78.0058 84.5381 77.9356 84.5384Z" fill="#F44771"/>
<path fill-rule="evenodd" clip-rule="evenodd" d="M87.2896 80.1715C87.0162 80.1715 86.7331 80.4517 86.8209 80.7125C87.6706 82.5804 88.6493 84.3881 89.7502 86.1228C89.7729 86.1826 89.8126 86.2345 89.8646 86.2722C89.9167 86.31 89.9788 86.3319 90.0432 86.3354C90.1123 86.334 90.1799 86.315 90.2394 86.2802C90.2989 86.2453 90.3482 86.1958 90.3827 86.1365C90.4171 86.0771 90.4354 86.0099 90.4358 85.9415C90.4362 85.8731 90.4187 85.8057 90.3849 85.746C89.3294 84.0114 88.4026 82.2032 87.6119 80.3358C87.5792 80.2812 87.5316 80.2369 87.4746 80.2079C87.4176 80.1788 87.3535 80.1662 87.2896 80.1715Z" fill="#F44771"/>
<path fill-rule="evenodd" clip-rule="evenodd" d="M106.125 59.1198C105.783 59.1198 105.422 59.5062 105.734 59.8057C107.505 61.1791 109.139 62.7157 110.616 64.3948C110.638 64.4355 110.67 64.4696 110.709 64.4934C110.749 64.5173 110.794 64.5299 110.841 64.5301C110.914 64.5306 110.987 64.5093 111.048 64.469C111.11 64.4287 111.158 64.3712 111.186 64.3038C111.214 64.2364 111.222 64.1622 111.207 64.0906C111.193 64.0191 111.157 63.9534 111.104 63.9021C109.626 62.2351 108.048 60.6575 106.379 59.1777C106.301 59.1355 106.213 59.1155 106.125 59.1198Z" fill="#F44771"/>
<path fill-rule="evenodd" clip-rule="evenodd" d="M97.5814 69.6409C97.3372 69.6409 97.0639 69.9114 97.2396 70.1722C98.6012 72.2094 99.8432 74.3222 100.96 76.5003C100.978 76.5608 101.016 76.6139 101.067 76.6521C101.117 76.6902 101.179 76.7115 101.243 76.7129C101.313 76.706 101.38 76.6849 101.441 76.6509C101.502 76.6169 101.556 76.5708 101.598 76.5155C101.64 76.4601 101.67 76.3967 101.686 76.3293C101.703 76.2618 101.705 76.1918 101.692 76.1235C100.579 73.8918 99.0949 71.9113 97.8646 69.7955C97.8322 69.7502 97.7899 69.7128 97.7408 69.686C97.6918 69.6593 97.6373 69.6438 97.5814 69.6409Z" fill="#F44771"/>
<path fill-rule="evenodd" clip-rule="evenodd" d="M75.4654 46.6278C74.9772 46.6278 74.7233 47.3137 75.2115 47.42C78.2644 47.7783 81.3352 47.9686 84.4094 47.99C84.9074 47.8741 84.9074 47.3137 84.4094 47.3137C81.4148 47.3116 78.4246 47.0823 75.4654 46.6278Z" fill="#F44771"/>
<path fill-rule="evenodd" clip-rule="evenodd" d="M89.926 30.9863H89.8088C87.5384 31.7023 85.1714 32.0737 82.7885 32.0877C82.1929 32.0877 81.5973 32.0877 81.0017 32.0104C80.4061 31.9331 80.494 32.7736 81.0017 32.8992H82.144C84.8286 32.9045 87.4984 32.5071 90.0625 31.7206C90.5312 31.6529 90.3653 30.9863 89.926 30.9863Z" fill="#F44771"/>
<path fill-rule="evenodd" clip-rule="evenodd" d="M101.106 16.5525H100.999C97.6655 17.3067 94.2698 17.7594 90.8536 17.9051C90.7992 17.8963 90.7434 17.8994 90.6903 17.9141C90.6372 17.9288 90.588 17.9547 90.546 17.9901C90.504 18.0255 90.4703 18.0695 90.4471 18.119C90.424 18.1685 90.412 18.2224 90.412 18.277C90.412 18.3316 90.424 18.3855 90.4471 18.435C90.4703 18.4846 90.504 18.5285 90.546 18.5639C90.588 18.5993 90.6372 18.6252 90.6903 18.6399C90.7434 18.6546 90.7992 18.6577 90.8536 18.649C94.312 18.5069 97.7502 18.0542 101.126 17.2964C101.624 17.3061 101.555 16.5525 101.106 16.5525Z" fill="#F44771"/>
<path fill-rule="evenodd" clip-rule="evenodd" d="M113.799 52.0092C113.715 52.0059 113.632 52.0319 113.565 52.0828C113.498 52.1337 113.451 52.2062 113.432 52.2878C113.414 52.3693 113.425 52.4548 113.463 52.5292C113.502 52.6036 113.565 52.6623 113.643 52.6951C115.85 54.5988 117.937 56.6347 119.892 58.7914C119.93 58.8319 119.975 58.8648 120.025 58.888C120.075 58.9112 120.13 58.9243 120.185 58.9266C120.257 58.9225 120.326 58.8973 120.384 58.8541C120.441 58.811 120.484 58.7518 120.507 58.6843C120.53 58.6168 120.532 58.5441 120.513 58.4753C120.494 58.4066 120.455 58.3451 120.4 58.2986C118.431 56.0709 116.3 53.9882 114.024 52.0672C113.955 52.0287 113.878 52.0087 113.799 52.0092Z" fill="#F44771"/>
<path fill-rule="evenodd" clip-rule="evenodd" d="M120.898 38.6573C120.586 38.6573 120.322 38.9279 120.498 39.1887C122.275 41.633 124.306 43.8454 126.073 46.1834C126.175 46.2739 126.307 46.3253 126.444 46.3283C126.747 46.3283 127.01 46.0675 126.835 45.8066C125.057 43.3527 123.036 41.1403 121.259 38.8119C121.161 38.7207 121.033 38.6661 120.898 38.6573Z" fill="#F44771"/>
<path fill-rule="evenodd" clip-rule="evenodd" d="M126.952 27.9817C126.881 27.9873 126.812 28.0075 126.75 28.0409C126.688 28.0744 126.634 28.1203 126.59 28.1758C126.547 28.2313 126.516 28.2952 126.499 28.3632C126.482 28.4313 126.48 28.5021 126.493 28.571C127.749 30.9813 129.131 33.3257 130.633 35.5947C130.676 35.6565 130.732 35.7077 130.798 35.7446C130.864 35.7814 130.938 35.8028 131.014 35.8073C131.085 35.8099 131.156 35.794 131.219 35.7612C131.282 35.7285 131.336 35.6799 131.374 35.6203C131.413 35.5608 131.435 35.4924 131.438 35.4218C131.442 35.3512 131.427 35.2809 131.394 35.2179C129.8 33.0068 128.415 30.6557 127.254 28.1942C127.228 28.135 127.186 28.084 127.133 28.0466C127.079 28.0091 127.017 27.9867 126.952 27.9817Z" fill="#F44771"/>
<path fill-rule="evenodd" clip-rule="evenodd" d="M12.7406 52.6468C12.2767 52.7796 11.8544 53.0265 11.5129 53.3643C11.1714 53.7022 10.922 54.1201 10.7877 54.579C10.0359 57.4774 13.8049 59.5932 15.9432 60.0569C18.6218 60.4856 21.3654 60.2668 23.94 59.4193C24.6873 59.1697 25.415 58.8661 26.1174 58.5111C26.5568 58.3759 26.3421 57.6513 25.9613 57.7769H25.8733C24.825 56.2647 23.4584 54.9947 21.8674 54.0542C20.2764 53.1136 18.4986 52.5248 16.656 52.328C15.3421 52.1987 14.0154 52.3067 12.7406 52.6468ZM12.9554 53.4294C14.2868 53.0809 15.6778 53.015 17.0368 53.2361C18.6417 53.4412 20.1851 53.9771 21.5676 54.8092C22.9501 55.6413 24.1409 56.751 25.0629 58.0667C24.6431 58.2503 24.1939 58.4145 23.7252 58.5788C19.3607 60.0183 13.3362 60.2791 11.647 55.6321C11.276 54.4438 11.9204 53.7675 12.9554 53.4294Z" fill="#353E6C"/>
<path fill-rule="evenodd" clip-rule="evenodd" d="M5.93487 90.8472C5.75551 90.8318 5.57489 90.8534 5.40443 90.9108C5.23397 90.9681 5.07738 91.0598 4.94468 91.1802C4.81198 91.3006 4.70605 91.447 4.63357 91.61C4.56108 91.7731 4.52367 91.9492 4.52367 92.1274C4.52367 92.3055 4.56108 92.4817 4.63357 92.6447C4.70605 92.8078 4.81198 92.9541 4.94468 93.0745C5.07738 93.1949 5.23397 93.2866 5.40443 93.344C5.57489 93.4013 5.75551 93.4229 5.93487 93.4075C6.11423 93.4229 6.29485 93.4013 6.46531 93.344C6.63576 93.2866 6.79236 93.1949 6.92506 93.0745C7.05776 92.9541 7.16368 92.8078 7.23617 92.6447C7.30866 92.4817 7.34607 92.3055 7.34607 92.1274C7.34607 91.9492 7.30866 91.7731 7.23617 91.61C7.16368 91.447 7.05776 91.3006 6.92506 91.1802C6.79236 91.0598 6.63576 90.9681 6.46531 90.9108C6.29485 90.8534 6.11423 90.8318 5.93487 90.8472Z" fill="#F44771"/>
<path fill-rule="evenodd" clip-rule="evenodd" d="M14.1465 88.142C13.8429 88.1689 13.5605 88.3073 13.3548 88.5299C13.1491 88.7525 13.035 89.0432 13.035 89.3448C13.035 89.6464 13.1491 89.9371 13.3548 90.1597C13.5605 90.3823 13.8429 90.5207 14.1465 90.5476C14.4501 90.5207 14.7327 90.3823 14.9383 90.1597C15.144 89.9371 15.2581 89.6464 15.2581 89.3448C15.2581 89.0432 15.144 88.7525 14.9383 88.5299C14.7327 88.3073 14.4501 88.1689 14.1465 88.142Z" fill="#F44771"/>
<path fill-rule="evenodd" clip-rule="evenodd" d="M12.1548 94.161C11.8204 94.2006 11.5123 94.3602 11.2887 94.6094C11.0652 94.8587 10.9417 95.1803 10.9417 95.5136C10.9417 95.8468 11.0652 96.1685 11.2887 96.4178C11.5123 96.667 11.8204 96.8266 12.1548 96.8662C13.6193 96.7406 13.6193 94.4219 12.1548 94.161Z" fill="#F44771"/>
<path fill-rule="evenodd" clip-rule="evenodd" d="M78.2777 156.727C78.0983 156.712 77.9177 156.733 77.7473 156.79C77.5769 156.848 77.4203 156.94 77.2876 157.06C77.1549 157.18 77.049 157.327 76.9766 157.49C76.9041 157.653 76.8667 157.829 76.8667 158.007C76.8667 158.185 76.9041 158.361 76.9766 158.524C77.049 158.687 77.1549 158.834 77.2876 158.954C77.4203 159.075 77.5769 159.166 77.7473 159.224C77.9177 159.281 78.0983 159.303 78.2777 159.287C78.6014 159.259 78.9027 159.112 79.1223 158.875C79.3419 158.638 79.4638 158.329 79.4638 158.007C79.4638 157.686 79.3419 157.376 79.1223 157.139C78.9027 156.902 78.6014 156.755 78.2777 156.727Z" fill="#F44771"/>
<path fill-rule="evenodd" clip-rule="evenodd" d="M86.6551 158.08C86.4757 158.064 86.2951 158.086 86.1247 158.143C85.9542 158.2 85.7978 158.292 85.6651 158.413C85.5324 158.533 85.4263 158.679 85.3539 158.842C85.2814 159.005 85.244 159.182 85.244 159.36C85.244 159.538 85.2814 159.714 85.3539 159.877C85.4263 160.04 85.5324 160.186 85.6651 160.307C85.7978 160.427 85.9542 160.519 86.1247 160.576C86.2951 160.634 86.4757 160.655 86.6551 160.64C86.8344 160.655 87.0152 160.634 87.1856 160.576C87.3561 160.519 87.5125 160.427 87.6452 160.307C87.7779 160.186 87.8839 160.04 87.9563 159.877C88.0288 159.714 88.0664 159.538 88.0664 159.36C88.0664 159.182 88.0288 159.005 87.9563 158.842C87.8839 158.679 87.7779 158.533 87.6452 158.413C87.5125 158.292 87.3561 158.2 87.1856 158.143C87.0152 158.086 86.8344 158.064 86.6551 158.08Z" fill="#F44771"/>
<path fill-rule="evenodd" clip-rule="evenodd" d="M15.4549 135.82C15.0489 135.873 14.6763 136.071 14.4064 136.376C14.1365 136.68 13.9876 137.072 13.9876 137.477C13.9876 137.882 14.1365 138.274 14.4064 138.579C14.6763 138.883 15.0489 139.081 15.4549 139.134C15.8609 139.081 16.2335 138.883 16.5035 138.579C16.7734 138.274 16.9222 137.882 16.9222 137.477C16.9222 137.072 16.7734 136.68 16.5035 136.376C16.2335 136.071 15.8609 135.873 15.4549 135.82Z" fill="#F44771"/>
<path fill-rule="evenodd" clip-rule="evenodd" d="M12.6135 42.116C12.3724 42.0982 12.1301 42.1298 11.9018 42.2089C11.6736 42.288 11.4643 42.4128 11.287 42.5756C11.1098 42.7384 10.9683 42.9356 10.8716 43.1549C10.7749 43.3742 10.725 43.6109 10.725 43.8502C10.725 44.0895 10.7749 44.3262 10.8716 44.5456C10.9683 44.7649 11.1098 44.9621 11.287 45.1249C11.4643 45.2877 11.6736 45.4125 11.9018 45.4916C12.1301 45.5706 12.3724 45.6022 12.6135 45.5844C14.8301 45.5844 14.8301 42.116 12.6135 42.116Z" fill="#F44771"/>
<path fill-rule="evenodd" clip-rule="evenodd" d="M132.801 154.321C132.337 154.321 131.893 154.503 131.565 154.828C131.237 155.152 131.053 155.592 131.053 156.051C131.053 156.509 131.237 156.949 131.565 157.273C131.893 157.598 132.337 157.78 132.801 157.78C133.264 157.78 133.709 157.598 134.036 157.273C134.364 156.949 134.548 156.509 134.548 156.051C134.548 155.592 134.364 155.152 134.036 154.828C133.709 154.503 133.264 154.321 132.801 154.321Z" fill="#F44771"/>
<path fill-rule="evenodd" clip-rule="evenodd" d="M55.937 59.8636C55.2507 59.8636 54.5926 60.1334 54.1074 60.6135C53.6221 61.0936 53.3494 61.7448 53.3494 62.4239C53.3494 63.1029 53.6221 63.7541 54.1074 64.2342C54.5926 64.7143 55.2507 64.9841 55.937 64.9841C59.3643 64.9841 59.3643 59.8636 55.937 59.8636Z" fill="#F44771"/>
<path fill-rule="evenodd" clip-rule="evenodd" d="M50.7133 116.121C47.3642 116.121 47.3642 121.232 50.7133 121.232C51.0659 121.253 51.4191 121.203 51.7513 121.084C52.0835 120.966 52.3876 120.781 52.6449 120.541C52.9022 120.302 53.1071 120.013 53.2473 119.692C53.3874 119.372 53.4598 119.026 53.4598 118.676C53.4598 118.327 53.3874 117.981 53.2473 117.66C53.1071 117.34 52.9022 117.051 52.6449 116.811C52.3876 116.572 52.0835 116.387 51.7513 116.268C51.4191 116.15 51.0659 116.099 50.7133 116.121Z" fill="#F44771"/>
</svg>
