<svg width="585" height="157" viewBox="0 0 585 157" fill="none" xmlns="http://www.w3.org/2000/svg">
<path fill-rule="evenodd" clip-rule="evenodd" d="M580.865 3.71051C553.153 -11.0615 496.144 39.653 451.651 42.472C407.159 45.291 349.167 19.1965 313.964 20.6246C278.761 22.0527 264.668 37.7334 240.479 51.0496C216.291 64.3657 193.539 88.1975 168.803 100.577C144.067 112.957 111.089 118.567 92.0555 125.318C73.0216 132.068 63.5834 136.983 54.5903 141.082C45.5971 145.181 -54.3009 157.486 40.6834 158.627C135.668 159.767 591.972 157.931 591.972 157.931V36.3147C592 9.79368 584.101 5.42603 580.865 3.71051Z" fill="#F2F3CB"/>
<path fill-rule="evenodd" clip-rule="evenodd" d="M585.556 40.6451C577.852 40.6451 570.583 46.0606 565.734 52.5796C562.146 57.3088 559.041 62.5296 555.453 67.4165C553.005 71.1721 549.89 75.5675 545.662 77.5334C543.839 78.3759 541.858 78.8247 539.849 78.8502C529.975 78.8502 523.3 66.9621 517.107 60.0722C514.325 56.9008 510.617 53.4327 506.454 53.4327C505.161 53.4394 503.889 53.7574 502.745 54.36C496.385 57.4572 496.385 64.6346 497.034 70.829C498.026 78.1733 500.298 85.1837 501.772 92.528C502.588 95.9498 503.079 99.3808 504.053 102.803C504.878 104.926 505.517 107.05 506.176 109.164C506.992 114.728 502.922 116.351 498.351 117.51C491.711 119.456 484.865 120.608 477.954 120.941C469.304 121.265 447.108 120.941 451.364 134.804C454.461 144.587 466.699 150.791 475.182 154.871C477.463 156.012 479.586 156.995 481.876 157.968H592V42.0268C589.968 41.1327 587.776 40.6626 585.556 40.6451Z" fill="#AFB252"/>
<path fill-rule="evenodd" clip-rule="evenodd" d="M481.31 111.473C480.741 111.51 480.208 111.761 479.818 112.177C479.428 112.593 479.211 113.142 479.211 113.712C479.211 114.283 479.428 114.831 479.818 115.247C480.208 115.663 480.741 115.915 481.31 115.952C481.879 115.915 482.413 115.663 482.803 115.247C483.193 114.831 483.41 114.283 483.41 113.712C483.41 113.142 483.193 112.593 482.803 112.177C482.413 111.761 481.879 111.51 481.31 111.473Z" fill="#F44771"/>
<path fill-rule="evenodd" clip-rule="evenodd" d="M475.414 128.192C475.074 128.198 474.74 128.274 474.431 128.415C472.391 129.277 472.706 132.597 472.929 134.313C473.128 136.522 473.758 138.67 474.783 140.637C474.82 140.736 474.888 140.821 474.976 140.879C475.064 140.937 475.169 140.966 475.275 140.961C475.404 140.965 475.531 140.926 475.636 140.85H476.396C477.773 140.217 479.028 139.348 480.105 138.281C481.514 136.992 485.158 133.886 482.794 132.059C482.476 131.805 482.079 131.67 481.672 131.679C480.594 131.777 479.586 132.253 478.825 133.024C478.203 133.563 477.66 134.187 477.212 134.878C477.466 133.823 477.612 132.745 477.648 131.66C477.657 130.121 476.971 128.192 475.414 128.192Z" fill="#F44771"/>
<path fill-rule="evenodd" clip-rule="evenodd" d="M585.177 0.00124208C585.081 0.00214198 584.989 0.0344054 584.913 0.0930446C584.838 0.151684 584.784 0.233485 584.759 0.325834H584.871C584.546 11.1104 578.075 20.504 571.075 28.2655C563.959 36.02 556.043 43.0011 547.461 49.0929C529.354 62.5759 510.71 75.4192 498.963 95.3748C498.805 95.6066 499.028 95.8385 499.297 95.8385C499.356 95.8379 499.414 95.8253 499.468 95.8014C499.523 95.7775 499.571 95.7428 499.612 95.6993C511.998 74.6588 532.163 61.7136 551.132 47.2568C559.58 40.9177 567.317 33.6827 574.209 25.6784C580.133 18.5567 585.195 9.82146 585.52 0.325834C585.521 0.281208 585.513 0.23673 585.496 0.195431C585.479 0.154132 585.454 0.116936 585.421 0.0862528C585.389 0.0555693 585.35 0.0321383 585.308 0.0174858C585.266 0.00283326 585.221 -0.00272249 585.177 0.00124208Z" fill="#3A3B44"/>
<path fill-rule="evenodd" clip-rule="evenodd" d="M554.312 44.3172C554.251 44.3205 554.192 44.3416 554.143 44.3778C554.094 44.4141 554.056 44.4639 554.034 44.5213C551.865 47.6463 545.69 62.1401 553.163 62.6501H553.571C560.923 62.6501 556.908 48.0079 554.998 44.512C554.972 44.4524 554.929 44.4016 554.875 44.3655C554.821 44.3294 554.758 44.3094 554.693 44.308C554.621 44.3063 554.55 44.3257 554.489 44.3636C554.436 44.3306 554.374 44.3144 554.312 44.3172ZM554.451 45.0313C556.306 48.4716 559.866 61.899 553.7 62.001H553.626C546.849 62.001 552.505 48.2119 554.433 45.0313H554.451Z" fill="#3A3B44"/>
<path fill-rule="evenodd" clip-rule="evenodd" d="M533.962 45.9494C532.061 45.9494 528.714 46.4872 528.325 48.5644C527.518 52.2735 531.291 53.2843 535.25 53.2843C537.76 53.2839 540.256 52.9311 542.667 52.2365C542.711 52.225 542.752 52.2045 542.788 52.1763C542.823 52.1481 542.852 52.1127 542.873 52.0725C542.894 52.0323 542.907 51.9882 542.909 51.943C542.912 51.8978 542.906 51.8524 542.89 51.8099L543.094 52.1252C543.127 52.1669 543.169 52.2004 543.218 52.2229C543.266 52.2455 543.319 52.2565 543.372 52.255C543.622 52.255 543.9 52.0324 543.743 51.8006C542.7 50.226 541.334 48.8914 539.735 47.8858C538.137 46.8801 536.342 46.2263 534.471 45.968L533.962 45.9494ZM534.258 46.7191H534.481C537.624 46.7191 540.971 49.0837 542.825 51.6059C542.785 51.5974 542.744 51.5974 542.704 51.6059H542.63C540.346 52.3728 537.956 52.7764 535.547 52.8021C533.248 52.8021 531.041 52.3384 529.669 51.0588C526.396 48.0265 532.181 46.7191 534.258 46.7191Z" fill="#3A3B44"/>
<path fill-rule="evenodd" clip-rule="evenodd" d="M532.933 59.8126C532.896 59.812 532.859 59.821 532.826 59.8389C532.794 59.8568 532.767 59.8829 532.747 59.9145C530.021 63.26 528.316 67.3193 527.833 71.6079C527.722 72.9896 527.62 77.6169 530.096 77.6169H530.188C532.219 77.6169 533.823 75.2522 534.574 73.5367C536.187 69.4658 535.223 64.4213 533.711 60.4524C533.672 60.3901 533.617 60.3393 533.552 60.3051C533.487 60.2709 533.414 60.2545 533.341 60.2576H533.285C533.291 60.1531 533.259 60.0501 533.194 59.968C533.129 59.8859 533.036 59.8306 532.933 59.8126ZM533.053 60.61C533.053 60.61 533.053 60.61 533.053 60.6657C534.907 65.3857 536.159 72.8969 531.56 76.4299C531.188 76.7519 530.725 76.9497 530.235 76.9956C528.149 76.9956 528.501 71.2648 528.77 69.9852C529.374 66.5343 530.848 63.2947 533.053 60.573V60.61Z" fill="#3A3B44"/>
<path fill-rule="evenodd" clip-rule="evenodd" d="M514.631 64.0318C514.148 64.0297 513.666 64.0795 513.194 64.1802C510.95 64.7181 508.559 66.7767 508.707 69.2712C508.874 71.4874 511.127 72.1829 512.999 72.1829C513.384 72.1824 513.769 72.1513 514.149 72.0902C517.255 71.6543 519.925 69.9203 522.706 68.622C522.733 68.6129 522.758 68.5982 522.779 68.5789C522.8 68.5596 522.817 68.536 522.828 68.5098C522.84 68.4836 522.846 68.4552 522.845 68.4266C522.845 68.3981 522.839 68.3698 522.827 68.3438H522.901C522.979 68.3374 523.053 68.3082 523.114 68.26C523.176 68.2118 523.222 68.1466 523.246 68.0726C523.271 67.9985 523.273 67.9189 523.253 67.8435C523.233 67.7681 523.191 67.7002 523.133 67.6484C520.732 65.9607 517.691 64.0318 514.631 64.0318ZM515.122 64.6624C517.746 64.6624 520.379 66.5171 522.41 68.0657C519.48 69.3639 516.337 71.5245 513.138 71.5245C512.585 71.5293 512.033 71.4607 511.497 71.3205C509.041 70.7827 509.143 68.0657 510.431 66.5541C511.48 65.4731 512.888 64.8133 514.39 64.6995C514.633 64.669 514.878 64.6566 515.122 64.6624Z" fill="#3A3B44"/>
<path fill-rule="evenodd" clip-rule="evenodd" d="M512.072 78.8503C512.01 78.8508 511.948 78.8679 511.895 78.8999C511.841 78.9319 511.797 78.9777 511.767 79.0324C511.736 79.0872 511.721 79.1489 511.723 79.2114C511.725 79.2739 511.743 79.3349 511.776 79.3881L511.887 79.4993L512.082 79.6941C512.012 79.6906 511.945 79.7121 511.89 79.7547C511.836 79.7972 511.798 79.8581 511.785 79.9259C510.526 82.6555 509.83 85.6104 509.736 88.6147C509.736 90.6455 511.182 93.2513 513.444 93.2513C513.574 93.2608 513.704 93.2608 513.834 93.2513C515.883 93.038 515.994 89.8202 516.115 88.318C516.217 84.6737 514.594 81.7713 512.323 78.9893C512.294 78.9485 512.257 78.9148 512.214 78.8907C512.17 78.8666 512.122 78.8528 512.072 78.8503ZM512.434 80.0743C514.097 81.9537 515.149 84.2957 515.447 86.788C515.632 88.383 515.577 92.528 513.463 92.528C513.098 92.5161 512.741 92.4243 512.415 92.259C508.318 90.3303 511.34 83.0416 512.415 80.1392C512.429 80.1283 512.438 80.1131 512.441 80.0962C512.445 80.0792 512.442 80.0617 512.434 80.0465V80.0743Z" fill="#3A3B44"/>
<path fill-rule="evenodd" clip-rule="evenodd" d="M503.311 87.6874C499.38 87.6874 495.699 90.8032 493.835 94.1229C491.981 97.1274 492.435 101.421 496.088 103.025C496.486 103.211 496.919 103.309 497.359 103.313C499.639 103.313 501.651 100.67 502.736 98.945C504.442 96.0518 505.74 91.6563 504.229 88.4385C504.203 88.3998 504.169 88.3678 504.129 88.3452C504.088 88.3226 504.043 88.3101 503.997 88.3087C503.932 88.3119 503.87 88.3319 503.816 88.3667C503.761 88.4014 503.717 88.4497 503.687 88.5068C503.657 88.5639 503.643 88.6279 503.645 88.6923C503.647 88.7568 503.666 88.8195 503.7 88.8744H503.589C505.517 92.8433 502.411 102.274 497.266 102.599H497.118C495.477 102.599 494.253 100.837 493.734 99.4828C492.973 97.554 493.734 95.5232 494.661 93.919C496.311 91.0257 499.853 88.3551 503.274 88.3551H503.663C503.739 88.3422 503.807 88.303 503.856 88.2444C503.906 88.1859 503.933 88.1117 503.933 88.0351C503.933 87.9585 503.906 87.8844 503.856 87.8259C503.807 87.7673 503.739 87.7281 503.663 87.7152L503.311 87.6874Z" fill="#3A3B44"/>
<path fill-rule="evenodd" clip-rule="evenodd" d="M538.301 125.624C538.301 125.364 538.616 125.123 538.829 125.29C542.946 127.914 546.589 130.715 548.101 135.49C549.12 138.708 548.814 142.362 549.194 145.533C549.474 149.421 550.8 153.16 553.033 156.355C553.097 156.433 553.13 156.532 553.125 156.633C553.124 156.699 553.103 156.763 553.065 156.817C553.027 156.871 552.974 156.912 552.912 156.936C552.851 156.96 552.784 156.965 552.719 156.951C552.655 156.936 552.596 156.903 552.551 156.855C549 151.681 548.397 146.006 548.045 139.923C547.767 133.191 543.752 129.379 538.431 125.902C538.386 125.871 538.351 125.829 538.328 125.78C538.305 125.731 538.296 125.677 538.301 125.624Z" fill="#3A3B44"/>
<path fill-rule="evenodd" clip-rule="evenodd" d="M536.864 138.096C536.864 137.985 536.938 137.892 537.114 137.91C541.249 137.614 544.985 136.983 547.442 133.385C548.748 131.265 549.536 128.866 549.741 126.384C549.868 124.878 549.79 123.362 549.51 121.877C549.505 121.853 549.505 121.828 549.51 121.803C549.51 121.525 550.112 121.414 550.168 121.803C550.448 123.332 550.522 124.891 550.39 126.44C550.181 129.008 549.389 131.494 548.073 133.71C545.792 137.632 541.314 138.216 537.281 138.522C537.172 138.514 537.069 138.466 536.993 138.387C536.916 138.309 536.87 138.205 536.864 138.096Z" fill="#3A3B44"/>
<path fill-rule="evenodd" clip-rule="evenodd" d="M536.261 132.643C536.263 132.601 536.274 132.559 536.294 132.52C536.313 132.482 536.34 132.448 536.373 132.421C536.406 132.394 536.445 132.374 536.486 132.363C536.528 132.352 536.571 132.349 536.613 132.356C540.174 132.551 543.687 133.061 547.229 133.478C547.386 133.478 547.451 133.626 547.442 133.775C547.438 133.853 547.41 133.927 547.362 133.989C547.314 134.05 547.248 134.095 547.173 134.118C543.622 133.812 540.109 133.19 536.558 132.996C536.515 132.994 536.472 132.982 536.434 132.963C536.395 132.944 536.361 132.917 536.333 132.884C536.305 132.851 536.284 132.813 536.272 132.771C536.26 132.73 536.256 132.686 536.261 132.643Z" fill="#3A3B44"/>
<path fill-rule="evenodd" clip-rule="evenodd" d="M543.724 123.166C543.736 123.087 543.772 123.013 543.829 122.956C543.886 122.899 543.959 122.863 544.039 122.851C544.118 122.84 544.199 122.854 544.269 122.893C544.34 122.931 544.396 122.991 544.429 123.064C546.283 126.152 546.543 129.954 547.331 133.487C547.34 133.536 547.34 133.587 547.331 133.636C547.331 133.96 546.701 134.025 546.645 133.636C545.848 130.214 545.634 126.403 543.734 123.324C543.719 123.273 543.716 123.219 543.724 123.166Z" fill="#3A3B44"/>
<path fill-rule="evenodd" clip-rule="evenodd" d="M536.817 125.985C536.818 125.798 536.858 125.614 536.934 125.443C537.01 125.272 537.121 125.119 537.259 124.993C537.397 124.868 537.56 124.772 537.737 124.712C537.913 124.652 538.101 124.629 538.287 124.645C538.473 124.661 538.654 124.716 538.818 124.805C538.982 124.894 539.126 125.017 539.24 125.164C539.355 125.312 539.438 125.482 539.483 125.663C539.529 125.844 539.537 126.033 539.506 126.217C539.505 126.404 539.465 126.589 539.389 126.759C539.313 126.93 539.202 127.083 539.064 127.209C538.926 127.335 538.764 127.431 538.587 127.491C538.41 127.551 538.222 127.573 538.036 127.557C537.85 127.541 537.669 127.487 537.505 127.397C537.341 127.308 537.197 127.186 537.083 127.038C536.968 126.89 536.885 126.721 536.84 126.539C536.794 126.358 536.786 126.17 536.817 125.985Z" fill="#F44771"/>
<path fill-rule="evenodd" clip-rule="evenodd" d="M535.195 132.449C535.196 132.262 535.236 132.077 535.312 131.907C535.388 131.736 535.498 131.583 535.636 131.457C535.775 131.331 535.937 131.235 536.114 131.175C536.291 131.115 536.479 131.092 536.665 131.109C536.851 131.125 537.032 131.179 537.196 131.268C537.36 131.358 537.504 131.48 537.618 131.628C537.733 131.775 537.815 131.945 537.861 132.126C537.907 132.308 537.914 132.496 537.884 132.681V132.894C537.868 133.07 537.819 133.241 537.737 133.398C537.656 133.554 537.544 133.694 537.409 133.807C537.274 133.921 537.118 134.007 536.949 134.06C536.781 134.114 536.604 134.133 536.428 134.118C536.252 134.103 536.081 134.053 535.924 133.971C535.767 133.89 535.628 133.779 535.515 133.643C535.401 133.508 535.315 133.352 535.262 133.184C535.209 133.015 535.189 132.838 535.204 132.662L535.195 132.449Z" fill="#F44771"/>
<path fill-rule="evenodd" clip-rule="evenodd" d="M535.297 137.651C535.316 137.473 535.371 137.302 535.458 137.146C535.545 136.991 535.663 136.854 535.804 136.745C535.945 136.636 536.107 136.557 536.279 136.511C536.452 136.466 536.632 136.456 536.808 136.482H537.021C537.377 136.514 537.705 136.686 537.933 136.96C538.162 137.234 538.273 137.587 538.241 137.943C538.209 138.298 538.037 138.626 537.763 138.855C537.489 139.084 537.136 139.194 536.78 139.162H536.567C536.2 139.125 535.863 138.946 535.626 138.664C535.389 138.382 535.271 138.018 535.297 137.651Z" fill="#F44771"/>
<path fill-rule="evenodd" clip-rule="evenodd" d="M542.714 122.916C542.754 122.549 542.933 122.212 543.214 121.974C543.495 121.736 543.857 121.615 544.225 121.636H544.772C545.108 121.692 545.41 121.873 545.619 122.142C545.827 122.411 545.927 122.749 545.898 123.088C545.868 123.427 545.712 123.743 545.461 123.972C545.209 124.201 544.881 124.328 544.54 124.325H543.993C543.642 124.293 543.317 124.13 543.08 123.869C542.843 123.608 542.712 123.268 542.714 122.916Z" fill="#F44771"/>
<path fill-rule="evenodd" clip-rule="evenodd" d="M548.638 121.914C548.638 121.727 548.677 121.542 548.752 121.37C548.827 121.199 548.937 121.045 549.075 120.918C549.212 120.791 549.375 120.694 549.552 120.633C549.729 120.572 549.917 120.549 550.103 120.564C550.29 120.58 550.471 120.634 550.636 120.723C550.801 120.812 550.945 120.934 551.06 121.082C551.175 121.23 551.258 121.4 551.304 121.582C551.35 121.763 551.358 121.952 551.327 122.137C551.327 122.324 551.288 122.51 551.213 122.681C551.138 122.853 551.028 123.007 550.89 123.134C550.753 123.26 550.59 123.357 550.413 123.418C550.236 123.479 550.048 123.503 549.862 123.487C549.675 123.472 549.494 123.418 549.329 123.329C549.164 123.239 549.02 123.117 548.905 122.969C548.79 122.821 548.707 122.651 548.661 122.47C548.615 122.288 548.607 122.099 548.638 121.914Z" fill="#F44771"/>
</svg>
