<svg width="30" height="30" viewBox="0 0 30 30" fill="none" xmlns="http://www.w3.org/2000/svg">
<path d="M13.6 22.1438C13.7162 22.0277 13.8084 21.8898 13.8713 21.7381C13.9342 21.5863 13.9666 21.4236 13.9666 21.2594C13.9666 21.0951 13.9342 20.9324 13.8713 20.7807C13.8084 20.629 13.7162 20.4911 13.6 20.375L9.48498 16.2588L22.5 16.25C22.8315 16.25 23.1494 16.1183 23.3839 15.8839C23.6183 15.6495 23.75 15.3315 23.75 15C23.75 14.6685 23.6183 14.3505 23.3839 14.1161C23.1494 13.8817 22.8315 13.75 22.5 13.75L9.48248 13.7588L13.6 9.64375C13.8345 9.40937 13.9664 9.09141 13.9665 8.75982C13.9666 8.42823 13.835 8.11018 13.6006 7.87563C13.3662 7.64108 13.0483 7.50924 12.7167 7.50912C12.3851 7.50901 12.067 7.64062 11.8325 7.875L7.34998 12.3575C7.00169 12.7057 6.72541 13.1192 6.53692 13.5742C6.34842 14.0292 6.2514 14.5169 6.2514 15.0094C6.2514 15.5019 6.34842 15.9896 6.53692 16.4446C6.72541 16.8996 7.00169 17.313 7.34998 17.6613L11.8325 22.1438C12.0669 22.3781 12.3848 22.5097 12.7162 22.5097C13.0477 22.5097 13.3656 22.3781 13.6 22.1438Z" fill="#F44771"/>
</svg>
