<svg width="181.5" height="150" viewBox="0 0 165 136" fill="none" xmlns="http://www.w3.org/2000/svg">
<g clip-path="url(#clip0)">
<path d="M98.4917 6.43386C98.4917 6.43386 95.6377 3.86032 90.1025 1.93016V35.2024L98.9242 6.80151C98.8377 6.61769 98.6647 6.52578 98.4917 6.43386Z" fill="#F2F3CB"/>
<path d="M98.1457 129.78C98.4052 129.78 105.238 128.493 106.535 128.218C108.351 127.758 113.194 126.655 114.059 125.276C114.838 124.174 114.665 123.622 115.011 122.795C117 116.729 118.124 96.6917 118.124 80.1475V9.19123C118.124 7.99637 117.086 7.16916 116.048 7.35298C110.427 8.63975 106.016 9.09931 102.816 8.45593C101.865 8.2721 100.827 8.82358 100.567 9.7427L90.2755 43.6583C90.189 43.8422 90.189 44.026 90.189 44.2098V93.5667C90.189 111.214 92.7836 121.784 95.1187 127.758C95.4646 128.769 96.5025 129.78 98.1457 129.78Z" fill="#F2F3CB"/>
<path d="M134.47 6.7096C131.616 5.88239 128.589 5.51474 125.648 5.69857V29.7796L125.735 28.5847L134.47 6.7096Z" fill="#F2F3CB"/>
<path d="M164.914 82.813C163.703 69.8534 151.941 62.3165 148.827 49.4488C148.827 49.3569 148.827 49.3569 148.827 49.265V93.6586C148.827 100.46 149.087 107.262 149.692 114.063C154.103 105.791 166.038 95.2211 164.914 82.813Z" fill="#F2F3CB"/>
<path d="M131.184 126.012C132.394 126.379 138.967 128.401 139.919 127.574C140.178 127.39 140.351 127.115 140.438 126.839C140.87 125.552 141.216 124.174 141.562 122.703C142.946 116.637 143.724 96.5998 143.724 80.0556V13.3273C143.724 12.8677 143.551 12.4082 143.292 12.0405C141.475 10.1104 139.313 8.54784 136.892 7.53681C136.027 7.16916 135.075 7.72063 134.73 8.63975L125.735 36.7649C125.648 36.9487 125.648 37.1326 125.648 37.3164V93.5667C125.648 107.537 127.119 117.004 128.935 123.254C129.281 124.725 129.281 125.46 131.184 126.012Z" fill="#F2F3CB"/>
<path d="M148.827 22.4266V37.776C149.779 33.6399 151.076 29.8715 148.827 22.4266Z" fill="#F2F3CB"/>
<path d="M82.6648 0.275021C80.2432 -0.000716172 77.8216 -0.0926285 75.3135 0.0911962L82.6648 12.6832V0.275021Z" fill="#F2F3CB"/>
<path d="M10.4484 80.1475V67.6475C7.76736 71.4159 5.34574 76.0115 5.08628 82.3534C4.74033 89.3388 7.07547 94.7616 10.1025 99.2653C10.2755 93.1072 10.4484 86.3057 10.4484 80.1475Z" fill="#F2F3CB"/>
<path d="M152.546 129.504C153.757 133.273 154.708 134.56 154.708 134.56H156.697C155.14 132.997 153.757 131.343 152.546 129.504Z" fill="#F2F3CB"/>
<path d="M21.8648 113.696C22.2107 114.523 22.3837 115.35 22.4702 116.269C23.3351 124.265 38.8161 124.817 40.3729 116.545C42.0161 107.905 39.9405 93.1072 39.9405 80.1475V43.7503C39.9405 43.3826 39.854 42.9231 39.5945 42.6473L27.2269 25.184C26.6215 24.3568 25.4972 24.1729 24.8053 25.0002C16.9351 33.4561 19.2702 44.026 19.9621 52.2981C20.2215 55.4231 18.7513 57.9967 16.6756 60.754C16.4161 61.1217 16.2432 61.4893 16.2432 61.9489V93.6587C16.2432 98.2543 16.3297 102.298 16.5026 105.975C16.5026 106.434 16.6756 106.802 16.9351 107.078C19.1837 109.468 20.9999 111.582 21.8648 113.696Z" fill="#F2F3CB"/>
<path d="M39.2485 18.1986C36.135 17.831 32.5025 18.1986 27.4863 21.967L39.2485 38.3274V18.1986Z" fill="#F2F3CB"/>
<path d="M48.9351 127.574C50.4054 128.218 60.4378 125.92 66.1459 126.931C69.6054 127.482 76.1784 129.045 77.4757 127.85C79.4648 126.104 79.2919 124.357 79.8108 122.611C81.8 116.545 82.6648 96.5999 82.6648 80.0556V18.5663C82.6648 17.9229 82.4919 17.3714 82.2324 16.82L74.8811 2.38972C74.1892 1.10295 72.8919 0.275738 71.5081 0.551475C63.6378 2.11398 60.4378 7.07725 57.3243 11.489C57.2378 11.6729 57.1513 11.7648 57.0648 11.9486L47.1189 31.7098C46.8594 32.2612 46.6865 32.8127 46.6865 33.4561V93.6587C46.6865 111.857 45.8216 120.865 47.9838 126.563C48.1567 127.023 48.5027 127.39 48.9351 127.574Z" fill="#F2F3CB"/>
<path d="M50.5784 18.1067C49.3676 18.6582 47.9838 19.0259 46.6865 19.1178V26.4708L51.4433 17.6472C51.1838 17.831 50.9244 17.9229 50.5784 18.1067Z" fill="#F2F3CB"/>
</g>
<path d="M17.7938 52.4502C17.7938 52.4502 16.5509 51.4852 18.0678 49.4203C19.5848 47.3553 22.3407 46.6604 22.0667 48.3163C21.7927 49.9723 20.6887 53.2801 17.7938 52.4502Z" fill="#AFB252"/>
<path d="M19.7239 49.8333C18.3771 51.502 17.1332 53.2512 15.999 55.0711Z" fill="#AFB252"/>
<path d="M19.7239 49.8333C18.3771 51.502 17.1332 53.2512 15.999 55.0711" stroke="#353E6C" stroke-linecap="round" stroke-linejoin="round"/>
<path d="M128.531 78.6275C128.531 78.6275 127.971 77.1582 130.342 76.1813C132.713 75.2045 135.429 76.0503 134.333 77.3171C133.237 78.5838 130.572 80.8394 128.531 78.6275Z" fill="#AFB252"/>
<path d="M131.54 77.3925C129.523 78.1194 127.551 78.9668 125.635 79.93Z" fill="#AFB252"/>
<path d="M131.54 77.3925C129.523 78.1194 127.551 78.9668 125.635 79.93" stroke="#353E6C" stroke-linecap="round" stroke-linejoin="round"/>
<path d="M154.152 115.558C154.152 115.558 152.563 115.519 152.563 112.953C152.563 110.388 154.358 108.188 155.121 109.693C155.883 111.198 156.971 114.502 154.152 115.558Z" fill="#AFB252"/>
<path d="M154.148 112.306C154.059 114.447 154.098 116.591 154.267 118.727Z" fill="#AFB252"/>
<path d="M154.148 112.306C154.059 114.447 154.098 116.591 154.267 118.727" stroke="#353E6C" stroke-linecap="round" stroke-linejoin="round"/>
<path d="M55.5902 88.7299C55.5902 88.7299 56.8967 87.8523 58.3699 89.9411C59.8432 92.0299 59.6486 94.8612 58.1634 94.0829C56.6782 93.3046 53.8985 91.1959 55.5902 88.7299Z" fill="#AFB252"/>
<path d="M57.4727 91.3627C56.3093 89.5672 55.039 87.8432 53.6685 86.2003Z" fill="#AFB252"/>
<path d="M57.4727 91.3627C56.3093 89.5672 55.039 87.8432 53.6685 86.2003" stroke="#353E6C" stroke-linecap="round" stroke-linejoin="round"/>
<path d="M5.66566 41.3551C6.05421 40.1547 6.61609 39.0176 7.33351 37.9797C8.43747 36.427 11.662 37.3681 11.662 37.3681C12.5435 37.4277 12.2298 42.324 9.39846 43.0785C8.20714 43.4002 9.8869 43.7893 10.9869 43.567C12.0869 43.3446 14.5331 44.0117 13.6475 45.342C12.762 46.6723 10.3158 48.225 8.98547 48.225C7.40245 48.274 5.84662 47.8055 4.55376 46.8907C3.00505 45.7828 1.67871 42.6655 1.67871 40.68C1.67871 38.6945 3.67219 37.1457 5.66566 41.3551Z" fill="#AFB252"/>
<path d="M7.73133 41.9746C7.73133 41.9746 3.73247 47.0774 3.0415 49.4164Z" fill="#AFB252"/>
<path d="M7.73133 41.9746C7.73133 41.9746 3.73247 47.0774 3.0415 49.4164" stroke="#353E6C" stroke-linecap="round" stroke-linejoin="round"/>
<path d="M156.137 90.5844C155.429 89.5423 154.877 88.4025 154.497 87.2011C153.961 85.3744 156.685 83.4166 156.685 83.4166C157.277 82.7614 160.939 86.0256 159.787 88.722C159.294 89.8736 160.649 88.7736 161.157 87.765C161.665 86.7563 163.694 85.2513 164.195 86.7682C164.695 88.2852 164.409 91.1562 163.591 92.2046C162.653 93.4787 161.326 94.4138 159.811 94.8692C157.984 95.4093 154.724 94.5396 153.155 93.3125C151.587 92.0855 151.595 89.5559 156.137 90.5844Z" fill="#AFB252"/>
<path d="M114.572 42.3994C113.865 41.358 113.313 40.2197 112.932 39.02C112.396 37.1894 115.124 35.2356 115.124 35.2356C115.712 34.5764 119.377 37.8446 118.225 40.537C117.729 41.6886 119.087 40.5926 119.595 39.5839C120.104 38.5753 122.129 37.0663 122.629 38.5832C123.13 40.1002 122.844 42.9752 122.026 44.0236C121.089 45.2994 119.762 46.2349 118.245 46.6882C116.419 47.2243 113.158 46.3586 111.59 45.1275C110.021 43.8965 110.029 41.3749 114.572 42.3994Z" fill="#AFB252"/>
<path d="M116.335 41.1605C116.335 41.1605 117.884 47.4506 119.302 49.4401" stroke="#353E6C" stroke-linecap="round" stroke-linejoin="round"/>
<path d="M157.9 89.3414C157.9 89.3414 159.449 95.6355 160.867 97.6211Z" fill="#AFB252"/>
<path d="M157.9 89.3414C157.9 89.3414 159.449 95.6355 160.867 97.6211" stroke="#353E6C" stroke-linecap="round" stroke-linejoin="round"/>
<path d="M60.3994 17.068C61.638 17.2627 62.8418 17.6359 63.9733 18.1759C65.6769 19.0257 65.252 22.3535 65.252 22.3535C65.3275 23.2351 60.4431 23.6878 59.2557 21.0073C58.7514 19.8636 58.6283 21.603 59.0214 22.6632C59.4146 23.7235 59.1326 26.2372 57.6832 25.5661C56.2337 24.895 54.3236 22.7308 54.1092 21.4163C53.8254 19.8654 54.0525 18.2643 54.7565 16.8536C55.6103 15.15 58.4655 13.3551 60.4351 13.0453C62.4048 12.7356 64.2473 14.4431 60.3994 17.068Z" fill="#AFB252"/>
<path d="M60.105 19.2045C60.105 19.2045 54.4463 16.0276 52.0239 15.7298Z" fill="#AFB252"/>
<path d="M60.105 19.2045C60.105 19.2045 54.4463 16.0276 52.0239 15.7298" stroke="#353E6C" stroke-linecap="round" stroke-linejoin="round"/>
<path d="M35.4845 106.89C36.3296 107.019 37.151 107.272 37.9228 107.64C39.0823 108.22 38.7924 110.479 38.7924 110.479C38.8441 111.079 35.5243 111.385 34.7181 109.566C34.3726 108.772 34.2932 109.963 34.5593 110.69C34.8253 111.417 34.6347 113.116 33.6499 112.675C32.6651 112.235 31.3665 110.749 31.2276 109.86C31.0242 108.804 31.172 107.711 31.6485 106.747C32.2283 105.587 34.1701 104.364 35.5084 104.157C36.8466 103.951 38.0975 105.107 35.4845 106.89Z" fill="#AFB252"/>
<path d="M35.2859 108.339C35.2859 108.339 31.438 106.195 29.7939 105.98Z" fill="#AFB252"/>
<path d="M35.2859 108.339C35.2859 108.339 31.438 106.195 29.7939 105.98" stroke="#353E6C" stroke-linecap="round" stroke-linejoin="round"/>
<path d="M5.22484 82.956C5.85328 82.3705 6.56361 81.8795 7.33348 81.4986C8.52479 80.9466 10.1132 82.5708 10.1132 82.5708C10.6175 82.8964 8.81071 85.7 6.88077 85.2116C6.05479 85.0011 6.93637 85.7953 7.67499 86.0296C8.41361 86.2639 9.63272 87.4671 8.66378 87.9635C7.69484 88.4599 5.74108 88.5711 4.95084 88.1303C3.99611 87.6357 3.22814 86.844 2.76278 85.8747C2.2108 84.7072 2.44906 82.4239 3.10826 81.2405C3.76746 80.0571 5.43531 79.799 5.22484 82.956Z" fill="#AFB252"/>
<path d="M6.24578 84.0083C6.24578 84.0083 2.17146 85.7119 1 86.8754Z" fill="#AFB252"/>
<path d="M6.24578 84.0083C6.24578 84.0083 2.17146 85.7119 1 86.8754" stroke="#353E6C" stroke-linecap="round" stroke-linejoin="round"/>
<path d="M153.822 39.6436C154.667 39.7759 155.488 40.03 156.26 40.3981C157.42 40.9778 157.13 43.2374 157.13 43.2374C157.182 43.837 153.862 44.1428 153.056 42.324C152.71 41.5298 152.631 42.7211 152.897 43.4478C153.163 44.1746 152.972 45.8742 151.987 45.4334C151.003 44.9926 149.704 43.5074 149.565 42.6139C149.362 41.558 149.51 40.4648 149.986 39.5006C150.566 38.345 152.508 37.118 153.846 36.9154C155.184 36.7129 156.435 37.8606 153.822 39.6436Z" fill="#AFB252"/>
<path d="M153.624 41.097C153.624 41.097 149.776 38.9526 148.132 38.7382Z" fill="#AFB252"/>
<path d="M153.624 41.097C153.624 41.097 149.776 38.9526 148.132 38.7382" stroke="#353E6C" stroke-linecap="round" stroke-linejoin="round"/>
<path d="M13.7393 33.3057C13.7393 33.3057 16.3085 32.2772 20.9348 33.3057C25.5611 34.3343 29.9293 37.6739 36.8707 38.7064C43.8121 39.7389 48.1803 37.4198 48.9507 33.5639C49.7211 29.708 46.1233 29.1957 43.7883 30.9946C41.4533 32.7935 43.7883 35.879 43.7883 35.879" stroke="#353E6C" stroke-width="0.75" stroke-linecap="round" stroke-linejoin="round" stroke-dasharray="2 2"/>
<path d="M35.584 41.2756C35.584 41.2756 38.9276 42.5583 44.5824 41.2756C50.2372 39.993 50.7495 33.5638 55.1177 30.2241C59.4858 26.8845 63.0876 30.4783 63.0876 33.5638C63.0876 36.6493 60.7725 37.1616 58.4613 37.1616" stroke="#353E6C" stroke-width="0.75" stroke-linecap="round" stroke-linejoin="round" stroke-dasharray="2 2"/>
<path d="M100.146 100.909C100.146 100.909 103.485 99.3684 107.857 103.478C112.229 107.588 117.368 112.215 124.305 111.703C131.243 111.19 134.074 105.011 139.967 103.737C145.86 102.462 148.704 106.048 148.704 108.363C148.704 110.678 144.848 113.76 142.791 111.448" stroke="#353E6C" stroke-width="0.75" stroke-linecap="round" stroke-linejoin="round" stroke-dasharray="2 2"/>
<path d="M91.917 106.048C91.917 106.048 100.399 103.478 104.767 107.076C109.136 110.674 112.991 116.075 119.417 116.075" stroke="#353E6C" stroke-width="0.75" stroke-linecap="round" stroke-linejoin="round" stroke-dasharray="2 2"/>
<defs>
<clipPath id="clip0">
<rect width="160" height="135.111" fill="white" transform="translate(5)"/>
</clipPath>
</defs>
</svg>
