<svg width="48" height="185" viewBox="0 0 30 112" fill="none" xmlns="http://www.w3.org/2000/svg">
<path d="M18.6902 2.75122C19.5352 2.88355 20.3565 3.13769 21.1285 3.50572C22.288 4.08549 21.9981 6.34503 21.9981 6.34503C22.0498 6.94466 18.7299 7.25043 17.9238 5.43168C17.5783 4.63747 17.4989 5.82879 17.765 6.5555C18.031 7.2822 17.8404 8.98182 16.8556 8.54103C15.8708 8.10024 14.5722 6.61506 14.4333 5.72157C14.2305 4.66566 14.3783 3.5724 14.8542 2.60826C15.434 1.45268 17.3758 0.225619 18.7141 0.0230949C20.0523 -0.179429 21.3032 0.968207 18.6902 2.75122Z" fill="#AFB252"/>
<path d="M18.492 4.20464C18.492 4.20464 14.644 2.06026 13 1.84583Z" fill="#AFB252"/>
<path d="M18.492 4.20464C18.492 4.20464 14.644 2.06026 13 1.84583" stroke="#353E6C" stroke-linecap="round" stroke-linejoin="round"/>
<path d="M5.50777 68.6044V56.599C2.77125 60.2183 0.299561 64.632 0.0347366 70.723C-0.318362 77.4319 2.06505 82.6401 5.15467 86.9655C5.33122 81.0511 5.50777 74.5188 5.50777 68.6044Z" fill="#F2F3CB"/>
<path d="M13.7674 103.548C14.0608 104.341 14.2075 105.134 14.2808 106.015C15.0143 113.681 28.143 114.21 29.4633 106.28C30.8568 97.9965 29.0965 83.8095 29.0965 71.3848V36.49C29.0965 36.1376 29.0232 35.697 28.8031 35.4326L18.3148 18.6902C17.8014 17.8971 16.8479 17.7209 16.2612 18.514C9.58676 26.6208 11.5671 36.7544 12.1538 44.685C12.3739 47.681 11.127 50.1484 9.36672 52.7919C9.14669 53.1444 9 53.4968 9 53.9374V84.3382C9 88.7441 9.07335 92.6213 9.22004 96.146C9.22004 96.5866 9.36673 96.939 9.58676 97.2034C11.4937 99.4945 13.034 101.521 13.7674 103.548Z" fill="#F2F3CB"/>
<path d="M29 11.0938C26.0882 10.785 22.6912 11.0938 18 14.2589L29 28V11.0938Z" fill="#F2F3CB"/>
</svg>
