<svg width="75" height="70" viewBox="0 0 56 52" fill="none" xmlns="http://www.w3.org/2000/svg">
<path d="M28.1557 0.379108C0.349295 -3.83484 5.81127 28.1209 12.0181 44.6256C12.7125 46.9838 12.8889 48.2423 12.7646 49.3241C12.6084 50.6829 13.4342 52 14.8019 52H42.0434C43.2407 52 44.1728 50.9543 44.1716 49.757C44.1675 45.7543 45.1704 39.6669 49.2583 36.1977C54.2238 31.9837 51.3273 23.2047 49.2583 19.3419C48.4308 17.5861 45.0377 13.4424 38.0861 10.914C29.3966 7.75352 35.6034 5.64655 28.1557 0.379108Z" fill="#F2F3CB"/>
<path d="M51.6906 30.7559C52.5356 30.8858 53.3571 31.1386 54.1288 31.5064C55.2884 32.0862 54.9985 34.3457 54.9985 34.3457C55.0501 34.9454 51.7303 35.2511 50.9242 33.4324C50.5787 32.6382 50.4993 33.8295 50.7653 34.5562C51.0314 35.2829 50.8408 36.9825 49.856 36.5417C48.8711 36.101 47.5726 34.6158 47.4336 33.7263C47.2302 32.6704 47.3781 31.5769 47.8545 30.6129C48.4343 29.4534 50.3762 28.2303 51.7144 28.0238C53.0527 27.8173 54.3036 28.9729 51.6906 30.7559Z" fill="#AFB252"/>
<path d="M51.492 32.2054C51.492 32.2054 47.644 30.061 46 29.8466Z" fill="#AFB252"/>
<path d="M51.492 32.2054C51.492 32.2054 47.644 30.061 46 29.8466" stroke="#353E6C" stroke-linecap="round" stroke-linejoin="round"/>
<path d="M1 14.2829C1 14.2829 4.33967 12.7421 8.71182 16.8522C13.084 20.9622 18.2225 25.5885 25.16 25.0762C32.0974 24.564 34.9288 18.385 40.8218 17.1103C46.7149 15.8356 49.5582 19.4214 49.5582 21.7366C49.5582 24.0517 45.7023 27.1333 43.6453 24.8221" stroke="#353E6C" stroke-width="0.75" stroke-linecap="round" stroke-linejoin="round" stroke-dasharray="2 2"/>
<path d="M23.7948 11.0571C23.7948 11.0571 22.5519 10.0921 24.0688 8.02719C25.5858 5.96224 28.3417 5.2673 28.0677 6.92323C27.7937 8.57917 26.6897 11.8871 23.7948 11.0571Z" fill="#AFB252"/>
<path d="M25.7249 8.44022C24.3781 10.1089 23.1341 11.8581 22 13.6781Z" fill="#AFB252"/>
<path d="M25.7249 8.44022C24.3781 10.1089 23.1341 11.8581 22 13.6781" stroke="#353E6C" stroke-linecap="round" stroke-linejoin="round"/>
</svg>
