<svg width="50" height="105" viewBox="0 0 37 78" fill="none" xmlns="http://www.w3.org/2000/svg">
<path d="M18.6 43.5C17.2 29.4 3.6 21.2 0 7.2C0 7.1 0 7.1 0 7V55.3C0 62.7 0.3 70.1 1 77.5C6.1 68.5 19.9 57 18.6 43.5Z" fill="#F2F3CB"/>
<path d="M1 17.3072C1 17.3072 3.56928 16.2787 8.19557 17.3072C12.8219 18.3357 17.19 21.6754 24.1315 22.7079C31.0729 23.7403 35.4411 21.4212 36.2114 17.5653C36.9818 13.7094 33.384 13.1972 31.0491 14.9961C28.7141 16.7949 31.0491 19.8805 31.0491 19.8805" stroke="#353E6C" stroke-width="0.75" stroke-linecap="round" stroke-linejoin="round" stroke-dasharray="2 2"/>
<path d="M17.987 4.26955C18.3755 3.06918 18.9374 1.93203 19.6548 0.894148C20.7588 -0.658539 23.9833 0.282607 23.9833 0.282607C24.8648 0.342173 24.5511 5.23849 21.7198 5.993C20.5284 6.31465 22.2082 6.70382 23.3082 6.48144C24.4082 6.25906 26.8543 6.9262 25.9688 8.25651C25.0832 9.58681 22.6371 11.1395 21.3068 11.1395C19.7237 11.1884 18.1679 10.72 16.8751 9.80522C15.3263 8.69729 14 5.58001 14 3.59447C14 1.60894 15.9935 0.060224 17.987 4.26955Z" fill="#AFB252"/>
<path d="M20.0526 4.88907C20.0526 4.88907 16.0538 9.99189 15.3628 12.3308Z" fill="#AFB252"/>
<path d="M20.0526 4.88907C20.0526 4.88907 16.0538 9.99189 15.3628 12.3308" stroke="#353E6C" stroke-linecap="round" stroke-linejoin="round"/>
</svg>
